<?xml version="1.0" standalone="no"?>
<!DOCTYPE svg PUBLIC "-//W3C//DTD SVG 1.1//EN" "http://www.w3.org/Graphics/SVG/1.1/DTD/svg11.dtd" >
<svg>
<metadata>
Created by FontForge 20110222 at Wed May 14 23:46:29 2014
 By Orthosie Webhosting
Digitized data (c)2005, Ascender Corporation. All rights reserved.
</metadata>
<defs>
<font id="PericlesRegular" horiz-adv-x="530" >
  <font-face
    font-family="PericlesRegular"
    font-weight="400"
    font-stretch="normal"
    units-per-em="2048"
    panose-1="2 11 6 4 3 0 0 2 0 4"
    ascent="1638"
    descent="-410"
    x-height="1219"
    cap-height="1556"
    bbox="-63 -410 3090 2040"
    underline-thickness="179"
    underline-position="-147"
    unicode-range="U+000D-FB02"
  />
<missing-glyph horiz-adv-x="1024"
 />
    <glyph glyph-name="uniFB01" unicode="fi" horiz-adv-x="1749"
d="M338 -18q-23 0 -45.5 0.5t-39.5 1.5q-20 1 -38 2q1 26 2 63.5t1.5 80.5t1 88t1 84.5t0.5 70.5v47v264q0 69 -1 134q-1 56 -1.5 116.5t-1.5 103.5q-2 51 -3.5 90t-4.5 82q26 -2 68.5 -2h87.5q74 0 136 2t113 2q116 2 202 6.5t138 6.5q5 -18 8 -43t5 -52t3 -53t1 -45h-54
h-77t-87.5 -0.5t-86.5 -1.5q-27 -1 -65.5 -3t-74.5 -4.5t-63.5 -4.5t-32.5 -4q0 -7 -1 -34t-1.5 -63t-1 -77.5t-1 -77.5t-1 -62.5t-0.5 -33.5v-29h162q51 0 108.5 1.5t109.5 3.5t94 5t63 6q6 -39 6 -108q0 -12 -0.5 -27t-1 -29.5t-1.5 -27t-3 -21.5q-20 2 -60.5 3.5
t-88.5 2.5t-97 2t-86 1q-31 0 -66.5 -0.5t-66.5 -1.5q-36 -1 -72 -3v-106q0 -17 0.5 -41t1 -52t1 -57.5t1.5 -58.5q2 -67 4 -141q-3 -1 -13 -2t-23.5 -2t-28.5 -1.5t-29 -0.5zM1536 293q0 -19 0.5 -53.5t1.5 -75.5t2.5 -84.5t3.5 -81.5q-17 -3 -36.5 -4.5t-53.5 -1.5
q-38 0 -74 2.5t-61 7.5q3 44 5.5 91t4 91.5t2 83t0.5 64.5v432q0 66 -1.5 137t-4 134t-5.5 112.5t-5 71.5q17 3 58 4.5t83 1.5q31 0 54.5 -1.5t35.5 -4.5q-1 -21 -2.5 -54.5t-3 -82t-3 -114t-1.5 -149.5v-526z" />
    <glyph glyph-name="uniFB02" unicode="fl" horiz-adv-x="2214"
d="M338 -18q-23 0 -45.5 0.5t-39.5 1.5q-20 1 -38 2q1 26 2 63.5t1.5 80.5t1 88t1 84.5t0.5 70.5v47v264q0 69 -1 134q-1 56 -1.5 116.5t-1.5 103.5q-2 51 -3.5 90t-4.5 82q26 -2 68.5 -2h87.5q74 0 136 2t113 2q116 2 202 6.5t138 6.5q5 -18 8 -43t5 -52t3 -53t1 -45h-54
h-77t-87.5 -0.5t-86.5 -1.5q-27 -1 -65.5 -3t-74.5 -4.5t-63.5 -4.5t-32.5 -4q0 -7 -1 -34t-1.5 -63t-1 -77.5t-1 -77.5t-1 -62.5t-0.5 -33.5v-29h162q51 0 108.5 1.5t109.5 3.5t94 5t63 6q6 -39 6 -108q0 -12 -0.5 -27t-1 -29.5t-1.5 -27t-3 -21.5q-20 2 -60.5 3.5
t-88.5 2.5t-97 2t-86 1q-31 0 -66.5 -0.5t-66.5 -1.5q-36 -1 -72 -3v-106q0 -17 0.5 -41t1 -52t1 -57.5t1.5 -58.5q2 -67 4 -141q-3 -1 -13 -2t-23.5 -2t-28.5 -1.5t-29 -0.5zM2116 86q0 -35 -3 -65t-8 -50q-9 1 -40.5 3t-77 4.5t-101 5t-113 4.5t-112.5 3.5t-100 2.5
q-54 1 -97 2t-75 2q-37 1 -66 2q2 70 4 122.5t3 101.5t1.5 101t-0.5 119v312q0 99 -2 187q-1 38 -1.5 76.5t-1.5 74.5t-2 66t-3 50q9 3 23.5 4.5t30 2.5t31.5 1.5t28 0.5q13 0 29 -0.5l32 -1t30 -1.5t23 -2q-2 -14 -4 -45.5t-3.5 -72.5t-3.5 -87.5t-3 -90t-1.5 -80
t-0.5 -58.5v-348q0 -34 0.5 -77t1.5 -81l2 -90q15 -3 34 -6q17 -2 40.5 -4.5t52.5 -3.5q32 -1 87.5 -1.5t118.5 -1t127 -1t113 -0.5q4 -14 5.5 -35.5t1.5 -44.5z" />
    <glyph glyph-name="YT.liga" unicode="YT" horiz-adv-x="2337"
d="M2320 1479q0 -31 -2 -61.5t-4 -47.5q-12 -1 -40 -0.5t-66.5 1.5t-85.5 2t-99 1q-26 0 -66 -1t-77 -3q-22 -2 -44.5 -2t-45.5 -2v-149q0 -30 -0.5 -61.5t-0.5 -60.5t-0.5 -53.5t-0.5 -40.5v-464q0 -48 1 -102.5t2 -108.5t2.5 -105.5t3.5 -95t3.5 -75t3.5 -46.5
q-17 -8 -50 -10t-64 -2q-32 0 -60 2.5t-51 7.5q0 32 1 91.5t2 135.5t2 163.5t1 176.5v414q0 45 -0.5 95t-1.5 100t-1.5 96.5t-0.5 83.5q-32 -2 -64.5 -3.5t-66.5 -4.5q-28 -3 -69 -5.5t-84 -5t-84.5 -5t-71.5 -5.5q-39 -54 -77.5 -111t-74.5 -113t-69.5 -110t-63.5 -102
q-34 -57 -66.5 -111t-64.5 -108v-137q0 -95 3 -184t7.5 -161.5t9 -124.5t7.5 -73q-9 -2 -22.5 -3.5t-28.5 -2t-31 -0.5h-29q-35 0 -72.5 3t-60.5 9q2 51 4 100.5t4 100.5q2 43 3.5 89.5t2.5 94.5t1.5 94.5t0.5 89.5v105q-42 69 -83 139t-85 139q-37 59 -78 123.5t-84 129.5
t-87 127.5t-87 117.5q21 18 46 34t51 29.5t52 25t50 20.5q33 -47 70.5 -105.5t77 -121.5t78 -128t72.5 -124.5t62 -110.5t46 -86q9 21 29.5 59t48 86t60 102.5t65 108.5t63.5 104t55.5 89.5t40.5 64t19 27.5q4 0 27 0.5t49.5 0.5t49.5 0.5t27 0.5q38 2 100.5 4t137 4t155 4
t154 4t133.5 4t94 4q65 2 128 4.5t115 4.5t88 3t48 1q5 -17 6.5 -38.5t1.5 -45.5z" />
    <glyph glyph-name="WT.liga" unicode="WT" horiz-adv-x="3111"
d="M3090 1479q0 -31 -2 -61.5t-4 -47.5q-12 -1 -39.5 -0.5t-66 1.5t-86 2t-99.5 1q-26 0 -66 -1t-77 -3q-22 -2 -44.5 -2t-45.5 -2v-149q0 -30 -0.5 -61.5t-0.5 -60.5t-0.5 -53.5t-0.5 -40.5v-464q0 -48 1 -102.5t2 -108.5t2.5 -105.5t3.5 -95t4 -75t3 -46.5q-17 -8 -50 -10
t-64 -2q-32 0 -60 2.5t-51 7.5q0 32 1 91.5t2 135.5t2 163.5t1 176.5v414q0 45 -0.5 95t-1.5 100t-1.5 96.5t-0.5 83.5q-18 -1 -54.5 -2t-76.5 -2.5t-76 -2.5t-53 -3q-60 -5 -128 -11t-128 -12q-5 -12 -7 -23t-7 -22q-22 -74 -48 -158t-54 -172.5t-56.5 -178t-56.5 -173.5
q-39 -119 -70.5 -219t-54.5 -186q-19 -67 -32 -122.5t-24 -90.5l-41 -21q-12 29 -24 57t-23 56q-20 48 -42.5 104.5t-45.5 106.5q-10 22 -29.5 67t-44.5 102.5t-54 123t-58 128t-55.5 118t-46.5 93.5q-14 -32 -33.5 -84t-50.5 -133q-29 -74 -50 -128.5t-38 -100t-31.5 -87.5
t-30.5 -91q-18 -51 -30.5 -91t-22.5 -75t-19.5 -67.5t-21.5 -69.5l-55 -29q-12 33 -23.5 65t-23.5 67t-25.5 75t-28.5 90q-24 77 -58 175.5t-74 208t-83 225t-86.5 227t-85 214t-76.5 185.5q20 11 46.5 21t56.5 19.5t61.5 17.5t61.5 14q10 -35 20.5 -66.5t23.5 -70
t29.5 -89.5t38.5 -125q16 -53 39 -120.5t48.5 -139t51 -142.5t46.5 -130q6 -19 15 -44t18.5 -50t17.5 -45.5t12 -30.5q23 48 53 125t62 170q35 96 64 176.5t54 153.5t47 143t42 145l41 15q22 -64 42.5 -118t43.5 -109.5t50 -117t62 -139.5q50 -111 101.5 -226t99.5 -220
q7 18 17 46t22 61.5t24 70t23.5 70.5t21 63t15.5 47q15 44 32.5 100.5t36.5 119.5t37.5 130.5t34.5 133.5q9 37 16.5 67t12.5 53l10 52q4 0 20 0.5t37.5 0.5t46 1t46 1t36.5 0.5t17 0.5q38 2 105 4.5t148.5 5t169.5 5.5t168 5t145 3t99 1q65 2 128.5 4.5t115 4.5t88 3
t47.5 1q5 -17 6.5 -38.5t1.5 -45.5z" />
    <glyph glyph-name="VT.liga" unicode="VT" horiz-adv-x="2542"
d="M1462 1528q45 3 104 5t124 4t132 3.5t127 3t109.5 3.5t79.5 3q65 2 128 4.5t115 4.5t88 3t48 1q5 -17 6.5 -38.5t1.5 -45.5q0 -31 -2 -61.5t-4 -47.5q-12 -1 -40 -0.5t-66.5 1.5t-86 2t-98.5 1q-26 0 -66 -1t-77 -3q-22 -2 -44.5 -2t-45.5 -2v-149q0 -30 -0.5 -61.5
t-0.5 -60.5t-0.5 -53.5t-0.5 -40.5v-464q0 -48 1 -102.5t2 -108.5t2.5 -105.5t3.5 -95t4 -75t3 -46.5q-17 -8 -50.5 -10t-64.5 -2q-32 0 -59.5 2.5t-50.5 7.5q0 32 1 91.5t2 135.5t2 163.5t1 176.5v414q0 45 -0.5 95t-1.5 100t-1.5 96.5t-0.5 83.5q-26 -2 -54 -4t-57 -4
q-24 -3 -55 -5t-64 -4t-65.5 -4.5t-60.5 -5.5q-35 -61 -68 -120.5t-65.5 -120t-66 -124.5t-69.5 -135q-39 -73 -71 -133.5t-61.5 -118.5t-59 -120t-64.5 -140q-19 -40 -38 -85t-36.5 -87t-32 -77.5t-24.5 -55.5l-45 -26q-31 62 -63.5 137t-75.5 174q-37 81 -68 146.5
t-61.5 128t-63 128.5t-71.5 148q-41 84 -77.5 163t-75 154.5t-80.5 149.5t-93 149q21 21 47.5 38.5t56 31t60.5 23.5t59 16q41 -88 76.5 -166t71 -154.5t72 -157t79.5 -175.5q25 -55 46.5 -101.5t42.5 -90.5t43 -88t46 -93q8 -17 16 -36t19 -38q5 -11 10.5 -22.5t10.5 -22.5
q36 79 74.5 159t80.5 165.5t89 179.5t100 201q31 61 56 112t46.5 97t40.5 88.5t37 87.5z" />
    <glyph glyph-name="TT.liga" unicode="TT" horiz-adv-x="2249"
d="M1124 1354q-13 0 -34.5 -0.5t-48 -1t-55.5 -1t-58 -1.5q-34 -2 -69.5 -2t-74.5 -2v-140q0 -28 -0.5 -58t-0.5 -57t-0.5 -50.5t-0.5 -39.5v-464q0 -48 1 -103t2 -110.5t3 -108.5t4 -97t4 -76.5t3 -47.5q-9 -4 -22 -6t-28.5 -3.5t-32.5 -2t-32 -0.5q-32 0 -60 2.5t-51 7.5
q0 32 1 93t2.5 139t2.5 167t1 178v414q0 45 -0.5 92.5t-1 93t-1.5 88.5t-2 80q-60 -2 -117.5 -3t-111.5 -3q-46 -2 -93.5 -4t-90.5 -4.5t-79 -5t-60 -6.5q-2 6 -2.5 13t-2.5 15q-2 14 -3 34.5t-1 43.5q0 25 0.5 53t5.5 48h25t23 2q20 2 43.5 3t42.5 1q40 2 111.5 3t163 2.5
t196.5 2.5t211.5 2t210 1.5t190.5 0.5q41 0 92.5 0.5t108 1.5t114.5 2.5t112.5 3t101.5 3t81 3.5q65 2 128 4.5t115 4.5t88 3t48 1q5 -17 6.5 -38.5t1.5 -45.5q0 -31 -2 -61.5t-4 -47.5q-12 -1 -30 -0.5t-45 1.5t-65 2t-89 1q-13 0 -32.5 -0.5t-43 -1t-49 -1t-49.5 -1.5
q-29 -2 -59 -2t-62 -2v-149q0 -30 -0.5 -61.5t-0.5 -60.5t-0.5 -53.5t-0.5 -40.5v-464q0 -72 1.5 -154t4 -155.5t5.5 -130t5 -79.5q-17 -8 -50 -10t-64 -2q-32 0 -60 2.5t-51 7.5q0 32 1 89t2 130.5t2 159t1 174.5v414q0 45 -0.5 95t-1.5 100t-1.5 96.5t-0.5 83.5h-83
t-77 -2q-31 -1 -63 -1.5t-60.5 -0.5h-51.5h-36z" />
    <glyph glyph-name="TV.liga" unicode="TV" horiz-adv-x="2519"
d="M2519 1487q-51 -86 -96.5 -165t-88 -157.5t-85.5 -160t-90 -173.5q-39 -73 -71 -133.5t-61.5 -118.5t-59 -120t-64.5 -140q-19 -40 -38.5 -85t-36.5 -87t-31.5 -77.5t-24.5 -55.5l-46 -26q-30 62 -62.5 137t-76.5 174q-37 81 -68 146.5t-61.5 128t-63 128.5t-71.5 148
q-34 71 -66 137.5t-63.5 131t-65.5 127t-73 126.5q-23 2 -48 2h-51t-66 -1t-77 -3q-22 -2 -44.5 -2t-45.5 -2v-149q0 -30 -0.5 -61.5t-0.5 -60.5t-0.5 -53.5t-0.5 -40.5v-464q0 -48 1 -102.5t2 -108.5t2.5 -105.5t3.5 -95t4 -75t3 -46.5q-17 -8 -50 -10t-64 -2
q-32 0 -60 2.5t-51 7.5q0 32 1 91.5t2 135.5t2 163.5t1 176.5v414q0 45 -0.5 95t-1.5 100t-1.5 96.5t-0.5 83.5q-53 -3 -102 -6.5t-97 -8.5q-40 -3 -81.5 -6.5t-80.5 -7.5t-72.5 -8t-57.5 -8q-2 6 -2.5 13t-2.5 15q-2 14 -3 34.5t-1 43.5q0 25 0.5 53t5.5 48h25t23 2
q20 2 43.5 3t42.5 1q37 2 95 4.5t125.5 5t140 5.5t139 5t122.5 3t90 1q66 2 127.5 4.5t111 4.5t84 3t46.5 1q0 -5 1 -5.5t1 -5.5q39 -87 72 -161.5t65.5 -147.5t67.5 -150.5t78 -170.5q24 -55 46 -101.5t43 -90.5t42.5 -88t46.5 -93q8 -17 16 -36t19 -38q5 -11 10 -22.5
t10 -22.5q36 79 74.5 159t80.5 165.5t89 179.5t100 201q37 73 65.5 131t53.5 110.5t47.5 103.5t46.5 111q24 -4 54 -15t59.5 -26t55 -31.5t40.5 -31.5z" />
    <glyph glyph-name="TW.liga" unicode="TW" horiz-adv-x="2943"
d="M1237 1563q9 -31 18.5 -62.5t22 -72t29.5 -93.5t39 -125q18 -53 41.5 -120t48.5 -138.5t49 -142.5t45 -131q6 -19 15 -44t18.5 -50t17.5 -45.5t12 -30.5q23 48 51 126t60 171q35 96 64 176.5t54 153.5t47 143t42 145l43 29q22 -64 42.5 -118t43.5 -109t50 -116.5
t62 -139.5q25 -55 52 -114.5l54 -119t53 -117.5t50 -110q7 18 17 46.5t21.5 63l24 72t23.5 72.5t20.5 64.5t14.5 47.5q15 44 31 98.5t33 116t34.5 129t34.5 136.5q17 66 30 117.5t21 89.5q33 -3 65.5 -10t61.5 -15.5t53 -18t40 -18.5q-6 -18 -15 -44t-19.5 -55.5t-21 -60.5
t-20.5 -59q-22 -74 -48 -158t-53.5 -172.5t-56 -178t-57.5 -173.5q-38 -119 -70 -219t-55 -186q-19 -67 -31.5 -122.5t-23.5 -90.5l-41 -21q-13 29 -24.5 57t-22.5 56q-20 48 -43 104.5t-46 106.5q-9 22 -29 68t-45.5 105t-55 125.5t-59 131t-56 121t-47.5 94.5
q-14 -32 -33.5 -84.5t-50.5 -132.5q-29 -75 -49.5 -131.5t-36.5 -104t-30 -91.5t-30 -93q-18 -51 -30.5 -91t-22.5 -75t-19.5 -67.5t-21.5 -69.5l-55 -29q-12 33 -23.5 65t-23.5 67t-25.5 75t-28.5 90q-22 70 -51.5 156t-64 181.5t-72.5 197t-76.5 202.5t-77 198t-73.5 183
h-95q-26 0 -66 -1t-77 -3q-22 -2 -44.5 -2t-45.5 -2v-149q0 -30 -0.5 -61.5t-0.5 -60.5t-0.5 -53.5t-0.5 -40.5v-464q0 -48 1 -102.5t2 -108.5t2.5 -105.5t3.5 -95t4 -75t3 -46.5q-17 -8 -50 -10t-64 -2q-32 0 -60 2.5t-51 7.5q0 32 1 91.5t2 135.5t2 163.5t1 176.5v414
q0 45 -0.5 95t-1.5 100t-1.5 96.5t-0.5 83.5q-53 -3 -102 -6.5t-97 -8.5q-40 -3 -81.5 -6.5t-80.5 -7.5t-72.5 -8t-57.5 -8q-2 6 -2.5 13t-2.5 15q-2 14 -3 34.5t-1 43.5q0 25 0.5 53t5.5 48h25t23 2q20 2 43.5 3t42.5 1q37 2 95 4.5t125.5 5t140 5.5t139 5t122.5 3t90 1
q66 2 126.5 4.5t109.5 4.5t84.5 3t50.5 1z" />
    <glyph glyph-name="TY.liga" unicode="TY" horiz-adv-x="2253"
d="M1729 537q0 -95 3 -184t7.5 -161.5t9 -124.5t6.5 -73q-8 -2 -21.5 -3.5t-29 -2t-31 -0.5h-28.5q-36 0 -73.5 3t-60.5 9q2 51 4.5 100.5t4.5 100.5q2 43 3.5 89.5t2.5 94.5t1.5 94.5t0.5 89.5v105q-34 59 -69.5 118t-74.5 121q-33 53 -69.5 110.5t-75.5 117t-79.5 119
t-80.5 114.5h-123q-26 0 -66 -1t-77 -3q-22 -2 -44.5 -2t-45.5 -2v-149q0 -30 -0.5 -61.5t-0.5 -60.5t-0.5 -53.5t-0.5 -40.5v-464q0 -48 1 -102.5t2 -108.5t2.5 -105.5t3.5 -95t4 -75t3 -46.5q-17 -8 -50 -10t-64 -2q-32 0 -60 2.5t-51 7.5q0 32 1 91.5t2 135.5t2 163.5
t1 176.5v414q0 45 -0.5 95t-1.5 100t-1.5 96.5t-0.5 83.5q-53 -3 -102 -6.5t-97 -8.5q-40 -3 -81.5 -6.5t-80.5 -7.5t-72.5 -8t-57.5 -8q-2 6 -2.5 13t-2.5 15q-2 14 -3 34.5t-1 43.5q0 25 0.5 53t5.5 48h25t23 2q20 2 43.5 3t42.5 1q37 2 95 4.5t125.5 5t140 5.5t139 5
t122.5 3t90 1q65 2 123 4t104 3t77.5 1.5t43.5 0.5h13q33 -47 70.5 -105.5t76 -121.5t76.5 -128t71.5 -124.5t61 -110.5t45.5 -86q18 35 46 86t62 110.5t72.5 124.5t78 128t77 121.5t70.5 105.5q21 -6 46.5 -18t52.5 -27t52.5 -31.5t46.5 -32.5q-43 -55 -87 -117.5
t-87 -127.5t-84 -129.5t-78 -123.5q-43 -69 -84 -139t-83 -139v-137z" />
    <glyph glyph-name="TH.liga" unicode="TH" horiz-adv-x="2816"
d="M2611 1565q0 -23 -2 -84.5t-5 -141t-5 -168t-2 -165.5v-297v-422q0 -16 0.5 -47t2 -69.5t3.5 -81.5t4 -83q-14 -5 -41.5 -7.5t-58.5 -2.5q-35 0 -67.5 2.5t-55.5 7.5q3 23 4.5 69.5t2.5 107.5t1.5 130.5t1 139.5t0.5 134.5v114.5q-14 7 -35 9t-41 2q-84 0 -153 -2.5
t-132 -5t-123.5 -5t-127.5 -2.5q-39 0 -94.5 -1.5t-109 -4.5t-97 -6.5t-58.5 -7.5v-272q0 -11 0.5 -38.5t1 -64.5t1.5 -80t2 -85.5t2.5 -80.5t3.5 -65q-37 -6 -99 -6q-35 0 -67.5 0.5t-55.5 5.5q5 80 8 191t3 239v153v93.5t-0.5 100.5t-2 102t-3.5 98q-2 55 -4.5 110
t-4.5 109q28 2 57 3t58 1q15 0 31.5 -0.5t31.5 -1t26.5 -1t17.5 -1.5q0 -18 -1 -52t-2.5 -73t-2.5 -78t-1 -67v-23q32 -5 67 -5.5t77 -0.5q87 0 195 2.5t219.5 6.5t218.5 10t194 12v107t-0.5 110t-2 107.5t-3.5 98.5q-3 111 -6 216q37 5 69 7.5t72 2.5q29 0 47 -1t41 -3z
M1438 1479q0 -31 -2 -61.5t-4 -47.5q-12 0 -55 0.5t-99.5 1.5t-119 1.5t-114.5 0.5q-26 0 -72 -1t-91 -3q-26 -2 -54 -2t-57 -2v-149q0 -30 -0.5 -61.5t-0.5 -60.5t-0.5 -53.5t-0.5 -40.5v-464q0 -48 1 -102.5t2 -108.5t2.5 -105.5t3.5 -95t4 -75t3 -46.5q-17 -5 -50 -7.5
t-64 -2.5q-35 0 -63 1.5t-48 6.5q0 32 1 91.5t2 135.5t2 163.5t1 176.5v414q0 45 -0.5 95t-1.5 100t-1.5 96.5t-0.5 83.5q-60 -3 -117.5 -6.5t-111.5 -8.5q-46 -2 -93.5 -5.5t-90.5 -8t-79.5 -8.5t-60.5 -8q-2 6 -2 13t-2 15q-2 14 -3 34.5t-1 43.5q0 25 0.5 53t5.5 48
l154 6q37 2 101 4.5t140.5 5t160 5.5t159 5t137.5 3t96 1q44 2 93.5 3.5t100 2.5t97.5 2.5t85.5 2.5t65 1.5t34.5 0.5q5 -17 6.5 -38.5t1.5 -45.5z" />
    <glyph glyph-name=".notdef" horiz-adv-x="1024"
 />
    <glyph glyph-name=".null" horiz-adv-x="0"
 />
    <glyph glyph-name=".null" horiz-adv-x="0"
 />
    <glyph glyph-name="nonmarkingreturn" unicode="&#xd;" horiz-adv-x="639"
 />
    <glyph glyph-name="space" unicode=" " horiz-adv-x="639"
 />
    <glyph glyph-name="exclam" unicode="!" horiz-adv-x="616"
d="M426 1528q-1 -37 -3.5 -93.5t-4.5 -123.5t-3.5 -139t-2.5 -140q-1 -43 -1.5 -101t-1 -120.5t-1.5 -125t-2 -116t-1.5 -92.5t-1.5 -55q-12 -6 -34 -13.5t-54 -7.5q-35 0 -58 5t-42 10q0 18 -0.5 58.5t-1 93t-1.5 112t-2 115t-1.5 103t-1.5 75.5q0 40 -1 89t-2.5 101
t-2.5 105t-2.5 101.5t-2 90.5t-1.5 72q24 6 59 11t59 5q28 0 60.5 -4.5t52.5 -15.5zM446 82q0 -21 -19 -46.5t-45.5 -47.5t-55 -36.5t-47.5 -14.5q-28 0 -50.5 15.5t-38.5 39t-25 50t-9 48.5q0 26 17 53.5t42.5 50t57 36.5t59.5 14q31 0 52.5 -15.5t35 -39.5t20 -52.5
t6.5 -54.5z" />
    <glyph glyph-name="quotedbl" unicode="&#x22;" horiz-adv-x="844"
d="M319 1540q-1 -22 -1.5 -40.5t-2 -42.5t-3 -57.5t-3.5 -86.5q-1 -11 -1.5 -31.5t-1 -46t-1.5 -52.5t-1.5 -50.5t-1 -41.5t-1.5 -24q-27 -6 -80 -6q-47 0 -82 12q0 15 -0.5 45.5t-1 64.5t-1 65t-1.5 48q-1 23 -2 54.5t-2.5 64.5t-2.5 64.5t-3 56.5q23 3 54 8.5t52 5.5
q31 0 52.5 -2.5t35.5 -7.5zM719 1540q-1 -22 -1.5 -40.5t-2 -42.5t-3 -57.5t-3.5 -86.5q-1 -16 -2 -53t-2.5 -76.5t-2.5 -73.5t-2 -43q-27 -6 -79 -6q-49 0 -82 12q0 15 -0.5 45.5t-1 64.5t-1 65t-1.5 48q-1 23 -2.5 54.5t-3 64.5t-2.5 64.5t-3 56.5q23 3 54 8.5t53 5.5
q31 0 52.5 -2.5t35.5 -7.5z" />
    <glyph glyph-name="numbersign" unicode="#" horiz-adv-x="1305"
d="M651 1042l232 5l86 335q2 8 3 15.5t3 14.5q2 8 2 15q8 1 18.5 2t21 1.5t19.5 1t15 0.5q18 0 44 -1.5t46 -5.5q-5 -15 -11.5 -37t-15.5 -59l-70 -278l193 6q3 -14 4.5 -41t1.5 -53q0 -16 -1.5 -30.5t-4.5 -33.5l-233 -6l-72 -287l307 19q3 -19 3.5 -45t0.5 -41
q0 -16 -1.5 -36t-4.5 -38l-346 -14l-86 -342l-23 -82q-12 -1 -25 -3q-11 -2 -25.5 -3t-29.5 -1q-26 0 -45.5 3t-42.5 8q5 13 10 28q5 13 10.5 30.5t10.5 37.5l82 315l-68 -2l-258 -10l-82 -324q-5 -17 -8 -33t-5 -28q-3 -14 -5 -25q-12 -1 -23 -3q-10 -2 -22 -2.5t-23 -0.5
q-20 0 -45.5 2t-56.5 7q7 17 12 35q5 15 9.5 31.5l7.5 27.5l78 305l-170 -8q-5 23 -6 40t-1 35q0 16 2 38.5t7 45.5l209 9l75 295l-270 -11q-5 25 -5.5 42.5t-0.5 35.5q0 16 1.5 38.5t6.5 47.5l309 6l88 340q1 4 2.5 11t3.5 15q3 9 5 19q14 2 36.5 3t34.5 1q26 0 50.5 -1.5
t41.5 -6.5q-8 -20 -14 -40.5t-14 -51.5l-74 -285zM625 594l141 4l76 291l-252 -4l-74 -4l-76 -293z" />
    <glyph glyph-name="dollar" unicode="$" horiz-adv-x="1036"
d="M150 1061q0 68 21 123.5t61 98t96.5 71.5t128.5 43l-2 151q15 5 42.5 8t49.5 3q17 0 36.5 -1.5t28.5 -3.5l-6 -145q23 0 56.5 -1.5t67 -4.5t63.5 -6.5t47 -7.5q0 -48 -7 -97.5t-16 -95.5q-16 4 -46 9t-65.5 10t-71 8.5t-63.5 3.5q-108 0 -159.5 -45t-51.5 -117
q0 -37 23 -66t61.5 -55t87 -50.5t99 -51.5t99 -58t87 -71t61.5 -90t23 -115q0 -76 -25.5 -140t-72 -113t-111.5 -81.5t-145 -46.5l6 -188q-30 -13 -76 -13q-48 0 -80 6l6 181q-36 0 -78.5 4t-84.5 11t-80 16t-66 18q0 13 4 37.5t10.5 53t16 56.5t20.5 49q21 -10 54.5 -20
t73 -18t82 -13.5t81.5 -5.5q67 0 115 13.5t79.5 37.5t46.5 58.5t15 76.5q0 40 -23.5 71t-61.5 57.5t-86.5 50.5t-99.5 51t-99.5 58.5t-86.5 72t-61.5 93t-23.5 120.5z" />
    <glyph glyph-name="percent" unicode="%" horiz-adv-x="1520"
d="M719 1245q0 -75 -24.5 -136t-68 -104t-103.5 -66.5t-132 -23.5q-62 0 -117 18.5t-96 55t-64.5 92t-23.5 129.5q0 70 17.5 131.5t56 107t99.5 71.5t149 26q70 0 126.5 -19.5t96.5 -57.5t62 -94t22 -130zM1395 1481q-24 -28 -46 -56.5t-45.5 -60t-50.5 -68.5t-61 -84
l-660 -919q-12 -17 -30 -43t-39 -56t-43.5 -63t-43.5 -64t-39 -58t-30 -46q-51 13 -96 37t-74 49q28 37 56.5 72.5t60.5 75.5t69 87.5t80 108.5l639 889q19 26 46 66t55 82t52 80.5t36 60.5q21 -3 45 -13t46 -23.5t41.5 -28t31.5 -25.5zM551 1239q0 50 -12 82t-31.5 50
t-44.5 25t-51 7q-44 0 -73 -16.5t-46.5 -43.5t-25 -62.5t-7.5 -74.5q0 -43 12 -71.5t31.5 -45.5t43 -24.5t46.5 -7.5q46 0 76.5 13t48.5 36.5t25.5 57t7.5 75.5zM1452 307q0 -75 -24.5 -136t-68 -104t-103.5 -66.5t-132 -23.5q-62 0 -117 18.5t-96 55t-64.5 92t-23.5 129.5
q0 70 17.5 131.5t56 107t99.5 71.5t149 26q70 0 126.5 -19.5t96.5 -57.5t62 -94t22 -130zM1284 301q0 50 -12 82t-31.5 50t-44.5 25t-51 7q-44 0 -73 -16.5t-46.5 -43.5t-25 -62.5t-7.5 -74.5q0 -43 12 -71.5t31.5 -45.5t43 -24.5t46.5 -7.5q46 0 76.5 13t48.5 36.5t25.5 57
t7.5 75.5z" />
    <glyph glyph-name="ampersand" unicode="&#x26;" horiz-adv-x="1868"
d="M743 -49q-141 0 -253.5 32.5t-191.5 94.5t-121 152.5t-42 207.5q0 85 25 156t70.5 126.5t110.5 93.5t146 56q-44 20 -82 51t-65.5 71.5t-43 89t-15.5 102.5q0 81 28.5 149t86.5 117t146.5 76.5t207.5 27.5q160 0 305 -36q-6 -51 -17.5 -102t-31.5 -109q-53 24 -121 37.5
t-140 13.5q-52 0 -96.5 -12.5t-77 -37.5t-51 -62t-18.5 -85q0 -57 26 -94.5t65.5 -60.5t85.5 -34t85 -14q3 -15 4.5 -42t1.5 -56q0 -14 -0.5 -31.5t-1.5 -33.5q-1 -18 -2 -37q-208 0 -308 -78.5t-100 -228.5q0 -137 97.5 -214t287.5 -77q60 0 118.5 9.5t112.5 26.5t103.5 40
t91.5 49v440q-27 2 -56 4q-25 2 -54.5 3t-57.5 1q0 19 0.5 43t2 50.5t3.5 53t5 50.5q61 0 135 -4t153 -9.5t158 -9.5t150 -4q39 0 74.5 3t64 7.5t49 10t29.5 10.5q0 -20 -1 -47.5t-2.5 -56.5t-4 -56t-5.5 -45q-23 -15 -71.5 -23t-108.5 -8q-24 0 -67.5 3t-86.5 6
q-50 4 -106 8v-551q-64 -46 -135 -85t-149.5 -67.5t-164 -44.5t-180.5 -16z" />
    <glyph glyph-name="quotesingle" unicode="'" horiz-adv-x="444"
d="M319 1540q-1 -22 -1.5 -40.5t-2 -42.5t-3 -57.5t-3.5 -86.5q-1 -11 -1.5 -31.5t-1 -46t-1.5 -52.5t-1.5 -50.5t-1 -41.5t-1.5 -24q-27 -6 -80 -6q-47 0 -82 12q0 15 -0.5 45.5t-1 64.5t-1 65t-1.5 48q-1 23 -2 54.5t-2.5 64.5t-2.5 64.5t-3 56.5q23 3 54 8.5t52 5.5
q31 0 52.5 -2.5t35.5 -7.5z" />
    <glyph glyph-name="parenleft" unicode="(" horiz-adv-x="801"
d="M727 1499q-11 -11 -25 -25.5t-22 -25.5q-54 -70 -100 -150.5t-79.5 -175t-53 -205t-19.5 -239.5q0 -125 19.5 -233.5t54 -203t80.5 -176t100 -153.5q8 -11 19.5 -22t19.5 -19q-9 -17 -22.5 -34t-31 -32t-37 -27.5t-40.5 -19.5q-18 17 -53 54.5t-77 95t-85.5 135
t-79.5 174.5t-59 213.5t-23 251.5q0 136 23.5 253t59.5 214.5t80.5 174.5t86 133.5t75.5 92t50 49.5q16 -2 36.5 -11t40 -22.5t36.5 -30.5t26 -36z" />
    <glyph glyph-name="parenright" unicode=")" horiz-adv-x="801"
d="M74 1499q9 19 26 36t36.5 30.5t40 22.5t36.5 11q16 -14 50 -49.5t75.5 -91.5t85.5 -133.5t80.5 -174.5t60 -213.5t23.5 -252.5q0 -135 -23 -251.5t-59 -213t-79.5 -174t-85.5 -134.5t-77 -94.5t-53 -54.5q-21 7 -41 19.5t-37 27.5t-31 32t-22 34q8 8 19.5 19t19.5 20
q54 73 100 155t80.5 176.5t54 202.5t19.5 232q0 129 -19.5 239.5t-53 205t-79.5 175t-100 150.5q-8 9 -22 23.5t-25 25.5z" />
    <glyph glyph-name="asterisk" unicode="*" horiz-adv-x="969"
d="M596 1083l221 -268q-7 -15 -24.5 -32t-40 -32t-48.5 -27t-51 -19l-39 67l-125 221l-163 -235l-35 -53q-23 8 -48 21.5t-47 30t-39 33t-24 29.5l256 258l-336 35q2 47 12 101.5t31 95.5l326 -105q-4 48 -9 98t-9 96t-6.5 82.5t-2.5 57.5q25 8 55 10t50 2q24 0 48.5 -3.5
t41.5 -8.5q0 -21 -4 -59t-9.5 -84t-12.5 -97.5t-13 -99.5l299 137q14 -14 26 -37t20.5 -48.5t13.5 -51t5 -43.5z" />
    <glyph glyph-name="plus" unicode="+" horiz-adv-x="1073"
d="M1018 616q0 -23 -2 -52.5t-4 -55.5q-22 2 -66.5 4.5t-93.5 4t-92 2.5t-62 1h-90v-51q0 -21 0.5 -44t1.5 -40q5 -96 7 -164t6 -108q-14 -3 -36 -6t-52 -3q-22 0 -53 5t-54 10q2 21 4 49.5t4.5 57.5t4 57t1.5 49q0 23 1 54.5t3 60.5q2 34 3 71q-31 -1 -60 -3
q-25 -2 -51 -3.5t-45 -3.5q-18 -1 -50.5 -4t-69 -6.5t-71 -6.5t-55.5 -6q-2 28 -3 54t-1 51q0 34 2.5 57.5t5.5 38.5q19 -1 51.5 -2.5t71.5 -3t82 -3t82 -1.5q18 0 36.5 0.5t33.5 2.5q18 2 34 3q-1 46 -3 87q-2 35 -2.5 71.5t-0.5 56.5q0 21 -1.5 48.5t-3 57t-3.5 58
t-4 49.5q23 5 54 9.5t52 4.5q31 0 52.5 -2.5t35.5 -5.5q-2 -40 -7 -110t-5 -166v-146q47 1 87 3q35 2 69 3t49 2q74 7 119.5 9t77.5 4q5 -10 7.5 -38.5t2.5 -60.5z" />
    <glyph glyph-name="comma" unicode="," horiz-adv-x="553"
d="M444 152q-15 -22 -41 -57q-22 -30 -55.5 -78.5t-83.5 -120.5l-117 -170q-19 6 -34.5 12t-30 12.5t-28.5 15t-29 19.5q27 61 45 103.5t30 71t18.5 45.5t10.5 26q15 35 30.5 76.5t29.5 77.5q16 42 30 83q29 0 64 -12t68 -30t58.5 -38t34.5 -36z" />
    <glyph glyph-name="hyphen" unicode="-" horiz-adv-x="594"
d="M152 299q-9 13 -20.5 33t-22.5 43t-19.5 46t-13.5 42q37 17 90 42.5t107 52t100.5 51.5t70.5 40q8 -8 18 -24.5t19.5 -35.5t17 -36.5t9.5 -28.5q-26 -24 -56 -48t-71 -51t-96.5 -57.5t-132.5 -68.5zM152 666q-9 13 -20.5 33t-22.5 42.5t-19.5 45.5t-13.5 42
q37 17 90 42.5t107 52.5t100.5 52t70.5 40q8 -9 18 -25.5t19.5 -35t17 -36t9.5 -28.5q-26 -24 -56 -48t-71 -51t-96.5 -57.5t-132.5 -68.5z" />
    <glyph glyph-name="period" unicode="."
d="M410 123q0 -26 -19 -52t-46 -47t-55.5 -34t-47.5 -13q-28 0 -50.5 12.5t-38.5 33.5t-25 47t-9 53q0 24 17 51.5t42.5 51t57 38.5t59.5 15q29 0 51 -16.5t36 -40.5t21 -51t7 -48z" />
    <glyph glyph-name="slash" unicode="/" horiz-adv-x="1204"
d="M1241 1470q-24 -28 -46 -56t-45.5 -59.5t-50.5 -68.5t-61 -84l-659 -919q-12 -17 -30 -43t-39 -56t-43.5 -63t-43.5 -64t-39 -58t-30 -46q-24 8 -51.5 23t-54 31.5t-49.5 33.5t-38 29q28 37 56.5 72.5t60.5 75.5t69 87.5t80 108.5l639 889q18 26 45.5 66t55 82t52 80
t36.5 60q22 -7 49.5 -22.5t53.5 -33.5t48.5 -35.5t34.5 -29.5z" />
    <glyph glyph-name="zero" unicode="0" horiz-adv-x="1518"
d="M1407 666q0 -155 -43.5 -282.5t-130 -218t-216 -140.5t-302.5 -50q-147 0 -259.5 47t-189 133t-116 207.5t-39.5 270.5q0 94 17.5 182t53 166t89 142.5t126 111t163.5 72.5t202 26q168 0 290 -51.5t200.5 -141t116.5 -211.5t38 -263zM1206 666q0 59 -8.5 117t-29 110
t-53.5 96.5t-82.5 76.5t-116 50.5t-154.5 18.5q-120 0 -205.5 -39t-140 -106t-80 -156.5t-25.5 -190.5q0 -105 24.5 -191t75.5 -147t128.5 -94t183.5 -33q138 0 230.5 39.5t148.5 107t80 156t24 185.5z" />
    <glyph glyph-name="one" unicode="1" horiz-adv-x="842"
d="M639 1454q-1 -30 -3.5 -79t-5 -108.5t-4 -125t-1.5 -129.5v-527q0 -142 2.5 -260t7.5 -221q-31 -8 -52.5 -10t-47.5 -2q-29 0 -64 2t-59 8q3 61 5 139.5t3 161t1.5 160.5t0.5 137v164q0 65 -1.5 180.5t-6.5 280.5l-80 -72q-31 -28 -64 -59.5t-61.5 -59.5t-49.5 -49
t-28 -29q-13 8 -32.5 25t-39 37.5t-35.5 42t-24 39.5q8 5 26 19t41 32.5t49.5 39.5t51 41t45 37t31.5 27q51 44 96 85.5t76 70.5q28 5 55 7.5t61 2.5q28 0 59 -1.5t48 -6.5z" />
    <glyph glyph-name="two" unicode="2" horiz-adv-x="1233"
d="M1219 217q0 -20 -2 -52t-4.5 -65t-5.5 -62t-5 -44q-73 3 -132.5 4.5t-117 2.5t-120 1h-140.5q-85 0 -154.5 -1.5t-137 -4t-138.5 -6.5t-160 -8l-30 34q41 51 85 106q38 48 84 107t91 121q61 82 118.5 162t102.5 161.5t72.5 167t27.5 179.5q0 53 -16 100.5t-51.5 83.5
t-91.5 57t-136 21q-19 0 -41.5 -2t-41.5 -4l-44 -6q-6 24 -10 50.5t-6 53t-2.5 51.5t0.5 45q9 2 26 3.5t36.5 3t38.5 2t34 0.5q129 0 225.5 -33t160.5 -92.5t96 -142.5t32 -183q0 -88 -31 -179.5t-85.5 -188t-128 -199t-158.5 -213.5l-35 -45q40 0 123.5 -1t191.5 -1
q118 0 241.5 4t238.5 12z" />
    <glyph glyph-name="three" unicode="3" horiz-adv-x="926"
d="M807 453q0 -127 -46.5 -218t-124 -149.5t-178.5 -86.5t-210 -28q-26 0 -56.5 2t-50.5 7q-4 25 -7 52.5t-4.5 54.5t-2 51.5t-0.5 43.5q19 -2 56 -5t75 -3q85 0 150 20.5t109 56.5t66.5 85t22.5 106q0 78 -32.5 130.5t-88 84.5t-130.5 46t-160 14l-4 32q-2 14 -3.5 29.5
t-1.5 28.5q0 19 1.5 34.5t3.5 27.5q2 14 4 26q50 0 104.5 8t100 30.5t75 62.5t29.5 104q0 86 -72.5 133t-200.5 47q-5 0 -17 -0.5t-25.5 -1t-25 -1.5t-16.5 -3q-4 24 -7.5 51t-5 53.5t-2.5 49.5t-1 40q4 2 16 3.5t27 3t29.5 2t23.5 0.5q102 0 190 -23.5t152.5 -68.5
t101 -110.5t36.5 -150.5q0 -57 -17.5 -105t-46.5 -85.5t-67.5 -64.5t-79.5 -42q73 -18 130.5 -55t97.5 -86.5t61.5 -109t21.5 -123.5z" />
    <glyph glyph-name="four" unicode="4" horiz-adv-x="1249"
d="M1167 418l-84 2q-36 1 -77 1.5t-76 0.5v-127q0 -48 1.5 -98t3.5 -92q3 -48 5 -95q-12 -2 -27.5 -3.5t-32 -2.5t-33 -1.5t-28.5 -0.5q-25 0 -53.5 1t-48.5 3q2 35 4 83q2 42 3 102.5t1 140.5v82q-45 0 -97 -0.5t-106.5 -2t-109.5 -3t-105 -3.5q-118 -4 -239 -10
q-2 28 -4.5 65.5t-2.5 84.5l701 930q15 3 39 5.5t49 2.5q26 0 50 -1.5t38 -4.5q-2 -71 -4 -151q-2 -69 -3 -154.5t-1 -176.5v-401q26 0 67 1.5t81 3.5q47 3 98 5q0 -24 -1 -50.5t-2 -52t-2.5 -47.5t-3.5 -36zM725 1145l-420 -555l420 4v551z" />
    <glyph glyph-name="five" unicode="5" horiz-adv-x="1018"
d="M971 1473q0 -27 -2 -60t-5 -63.5t-5.5 -55t-4.5 -34.5q-35 6 -86 10.5t-102 7.5t-95 4.5t-67 1.5t-46 -0.5t-41 -1.5q-21 -1 -40 -2q-7 -34 -13 -70q-5 -31 -11.5 -67.5t-12.5 -69.5q-11 -71 -16.5 -122.5t-5.5 -69.5q90 -25 161 -63.5t120.5 -93t75.5 -124.5t26 -158
q0 -93 -30.5 -176.5t-88 -146t-140.5 -99t-188 -36.5q-49 0 -101.5 6t-98.5 20q1 20 3 45.5t5.5 52t8.5 51t11 42.5q69 -23 156 -23q119 0 185.5 67t66.5 191q0 132 -98.5 209t-278.5 98l-23 21q3 11 10 39.5t15.5 69.5t18 91.5t18.5 104.5q10 61 18.5 119t15.5 110
t11.5 96.5t5.5 78.5q18 0 53 -1.5t79.5 -3t95 -3t100.5 -1.5q19 0 49 0.5t64.5 1.5t70.5 2.5t67.5 2.5t55 1.5t33.5 0.5z" />
    <glyph glyph-name="six" unicode="6" horiz-adv-x="1145"
d="M1051 453q0 -109 -33 -196.5t-93.5 -149t-146.5 -94.5t-192 -33t-193 34.5t-148.5 99.5t-95.5 157.5t-34 209.5q0 128 25 248t77.5 242.5t134 253.5t193.5 282q18 -2 43.5 -12.5t51.5 -25t48.5 -30.5t34.5 -30q-58 -67 -113 -139.5t-102 -146t-84 -146t-59 -139.5
q21 12 49.5 22.5t60.5 19t64 13t59 4.5q101 0 184 -31t143 -89t93 -140t33 -184zM842 442q0 56 -18.5 104t-52 82.5t-80 54t-101.5 19.5q-56 0 -104 -17t-83 -49.5t-55 -79.5t-20 -107q0 -56 17.5 -106t50.5 -87t81 -58.5t109 -21.5q67 0 115 22.5t79.5 59.5t46.5 85t15 99z
" />
    <glyph glyph-name="seven" unicode="7" horiz-adv-x="1182"
d="M1106 1411q-31 -54 -69.5 -138t-82 -185.5t-89.5 -215.5t-91 -229q-91 -230 -162.5 -398t-117.5 -294q-60 14 -109.5 33.5t-89.5 42.5q57 121 136.5 294.5t178.5 405.5q16 38 34 80.5t36 85.5t36 85t34 81q38 91 75 180q-43 0 -87 1q-38 1 -82.5 1h-86.5q-49 0 -102.5 -1
t-106.5 -2.5t-102 -3t-89 -3.5t-68 -3.5t-38 -2.5q0 42 3.5 97.5t15.5 117.5q26 0 82 -0.5t128 -1.5t151 -1.5t151 -0.5q80 0 166 1t158 2q84 2 165 3z" />
    <glyph glyph-name="eight" unicode="8" horiz-adv-x="1167"
d="M1049 428q0 -102 -37 -183.5t-100.5 -138.5t-147.5 -87.5t-178 -30.5q-97 0 -181.5 30.5t-146.5 88t-97.5 140t-35.5 185.5q0 66 17.5 123.5t50.5 104t79 81t103 54.5q-44 20 -81.5 50t-65 69t-43 87t-15.5 103q0 89 29.5 159.5t83.5 120t129 75.5t166 26
q89 0 164.5 -26.5t130 -76t85.5 -120t31 -158.5q0 -53 -16 -100t-43.5 -86t-64 -68t-77.5 -47q127 -48 194 -142t67 -233zM774 1108q0 36 -14.5 68t-41 56t-63 38t-80.5 14q-43 0 -78 -14t-60 -38t-38.5 -56t-13.5 -68q0 -42 14.5 -78t40.5 -62.5t62 -41.5t80 -15t79 15
t60.5 41.5t39 62.5t13.5 78zM836 426q0 62 -19.5 111.5t-53 85t-78 54.5t-95.5 19q-57 0 -103.5 -20.5t-79.5 -56.5t-51 -85.5t-18 -107.5q0 -54 18 -98t50.5 -75.5t78.5 -49t101 -17.5q58 0 104.5 17t78.5 48.5t49.5 76t17.5 98.5z" />
    <glyph glyph-name="nine" unicode="9" horiz-adv-x="1137"
d="M1024 977q0 -129 -24.5 -249.5t-78.5 -244t-140 -255.5t-208 -283q-16 6 -38 18.5t-45 28t-45 33t-37 32.5q84 101 145 182t104 148t71 122.5t46 106.5q-48 -26 -110.5 -41.5t-128.5 -15.5q-95 0 -177 34t-142 95t-94 144.5t-34 183.5q0 104 33 189.5t93.5 146.5
t146.5 94t192 33t193 -35.5t148.5 -100.5t95.5 -158t34 -208zM811 1010q0 55 -17 104.5t-50 86.5t-81 59t-110 22q-61 0 -109 -20t-80.5 -55t-49.5 -84t-17 -107q0 -59 17 -107t49.5 -82t79.5 -52.5t106 -18.5q68 0 117 18t81.5 51t48 80t15.5 105z" />
    <glyph glyph-name="colon" unicode=":"
d="M410 123q0 -26 -19 -52t-46 -47t-55.5 -34t-47.5 -13q-28 0 -50.5 12.5t-38.5 33.5t-25 47t-9 53q0 24 17 49.5t42.5 46.5t57 34t59.5 13q23 0 44 -14.5t36.5 -36.5t25 -46.5t9.5 -45.5zM418 889q0 -26 -19 -52t-46 -47t-55.5 -34t-47.5 -13q-28 0 -50.5 12.5t-38.5 33.5
t-25 47t-9 53q0 24 17 49.5t42.5 46.5t57 34t59.5 13q23 0 44 -14.5t37 -36.5t25 -46.5t9 -45.5z" />
    <glyph glyph-name="semicolon" unicode=";"
d="M444 152q-15 -22 -41 -57q-22 -30 -55.5 -78.5t-83.5 -120.5l-117 -170q-19 6 -34.5 12t-30 12.5t-28.5 15t-29 19.5q27 61 45 103.5t30 71t18.5 45.5t10.5 26q15 35 30.5 76.5t29.5 77.5q16 42 30 83q29 0 64 -12t68 -30t58.5 -38t34.5 -36zM418 889q0 -26 -19 -52
t-46 -47t-55.5 -34t-47.5 -13q-28 0 -50.5 12.5t-38.5 33.5t-25 47t-9 53q0 24 17 49.5t42.5 46.5t57 34t59.5 13q23 0 44 -14.5t37 -36.5t25 -46.5t9 -45.5z" />
    <glyph glyph-name="less" unicode="&#x3c;" horiz-adv-x="860"
d="M793 270q-8 -21 -20 -46t-25.5 -49t-28.5 -46t-29 -37q-15 13 -33.5 25.5t-50.5 34.5l-522 340q-3 20 -4.5 42.5t-1.5 40.5q0 34 6 82l522 338q30 18 84 62q34 -37 58.5 -80.5t44.5 -97.5q-29 -16 -49 -27t-37 -21l-424 -256l424 -260q17 -9 42 -23t44 -22z" />
    <glyph glyph-name="equal" unicode="=" horiz-adv-x="1073"
d="M977 877q0 -23 -2 -57t-4 -62q-44 5 -92.5 8.5t-110.5 3.5q-68 0 -125 -1.5t-111.5 -4.5t-112 -7t-126.5 -9q-60 -5 -111 -9.5t-94 -9.5q-2 28 -3 61.5t-1 59.5q0 34 2.5 58.5t5.5 39.5q19 -1 46.5 -2t60.5 -2t69 -1.5t72 -0.5q63 0 114.5 2.5t100.5 6t100.5 8t114.5 8.5
q30 2 59.5 3.5t56.5 3t50 3t39 2.5q0 -17 1 -42.5t1 -59.5zM977 365q0 -25 -2 -58t-4 -61q-44 5 -90.5 8.5t-108.5 3.5q-32 0 -85 -1.5t-117 -4.5t-135.5 -7t-141.5 -9q-60 -5 -111 -10.5t-94 -8.5q-2 28 -3 61.5t-1 59.5q0 34 2.5 58.5t5.5 39.5q38 -2 93.5 -5t127.5 -3
q36 0 86.5 2.5t110.5 6.5t126.5 9t133.5 9q30 2 59.5 3.5t56.5 3t50 3t39 2.5q0 -19 1 -43.5t1 -58.5z" />
    <glyph glyph-name="greater" unicode="&#x3e;" horiz-adv-x="860"
d="M791 573q0 -18 -1.5 -41.5t-3.5 -42.5l-526 -337q-14 -8 -36 -24t-48 -36q-34 34 -62 80.5t-40 97.5q29 14 49 25t37 20l424 260l-424 256q-17 10 -37 21t-49 27q14 49 41 95t61 83q26 -22 48 -38t36 -24l526 -340q2 -15 3.5 -40t1.5 -42z" />
    <glyph glyph-name="question" unicode="?" horiz-adv-x="948"
d="M852 1135q0 -95 -29 -165.5t-75.5 -118t-104 -73.5t-115.5 -33q-2 -62 -4 -123q-2 -52 -3.5 -109.5t-2.5 -102.5q-5 -2 -26 -5.5t-64 -3.5q-49 0 -68.5 1.5t-25.5 3.5q0 15 -1 48t-2 76.5t-3 94.5t-3.5 102t-3.5 99.5t-4 86.5q13 0 37 -2t47 -2q56 0 100.5 11t75.5 37
t47.5 68t16.5 105q0 106 -58.5 162t-176.5 56q-39 0 -76 -4t-70.5 -10t-61.5 -13t-48 -14q-6 23 -12 50t-10 53t-6.5 48.5t-2.5 36.5q19 5 50.5 11t70 11t82 8t86.5 3q111 0 194.5 -26.5t139 -77t83 -123.5t27.5 -166zM575 82q0 -21 -19 -46.5t-45.5 -47.5t-55 -36.5
t-47.5 -14.5q-28 0 -50.5 13t-38.5 35t-25 49.5t-9 55.5q0 26 17 53.5t42.5 50t57 36.5t59.5 14q31 0 52.5 -14.5t35 -37.5t20 -52t6.5 -58z" />
    <glyph glyph-name="at" unicode="@" horiz-adv-x="1567"
d="M1505 829q0 -97 -23.5 -177t-64.5 -136.5t-96 -87.5t-117 -31q-38 0 -75 10.5t-69 31.5t-58.5 53.5t-43.5 76.5q-46 -88 -113.5 -130t-146.5 -42q-57 0 -104 19.5t-80.5 56.5t-51.5 89.5t-18 119.5q0 80 24.5 154.5t73.5 132.5t123.5 92.5t174.5 34.5q32 0 60.5 -2
t59.5 -5.5t67.5 -8t84.5 -9.5q-5 -32 -10.5 -75.5t-9.5 -88t-6.5 -84t-2.5 -63.5q0 -100 34.5 -151.5t88.5 -51.5q62 0 99.5 72t37.5 200q0 101 -20.5 180t-57.5 138.5t-88.5 101.5t-113.5 68.5t-131.5 38.5t-143.5 12q-134 0 -238 -49.5t-175 -135.5t-107.5 -203
t-36.5 -251q0 -126 25.5 -236t86 -192t159.5 -129t246 -47q54 0 110 7t108 19t96.5 27.5t74.5 32.5q18 -31 29.5 -65.5t17.5 -77.5q-33 -17 -80.5 -33t-105.5 -28t-124 -19.5t-135 -7.5q-166 0 -290.5 54t-206.5 152t-123 234.5t-41 302.5q0 107 21 208t62 190t101.5 162.5
t139.5 126.5t176 82.5t210 29.5q160 0 292 -47t226.5 -136t146.5 -217.5t52 -292.5zM621 692q0 -57 25.5 -91t78.5 -34q37 0 66.5 18.5t52 47t38.5 64t26.5 70t15.5 63t6 44.5l4 48q-12 6 -37 12t-59 6q-49 0 -89 -19t-68.5 -52.5t-44 -79t-15.5 -97.5z" />
    <glyph glyph-name="A" unicode="A" horiz-adv-x="1536"
d="M1534 82q-40 -35 -97 -65t-120 -44q-25 66 -49.5 123t-55.5 121q-28 63 -55 118t-61 116q-39 4 -73 6t-77.5 3t-103 1h-150.5q-40 0 -79 -0.5t-74 -2t-64.5 -4t-50.5 -5.5q-15 -25 -32.5 -58.5t-37 -71.5t-38.5 -79.5t-37 -83.5q-11 -25 -20 -46.5t-17.5 -43t-16.5 -44
t-16 -49.5q-25 7 -53 17.5t-55.5 24t-53.5 30t-47 35.5q29 46 53.5 85t48.5 81q42 72 74 129t61.5 111.5t60 114t69.5 136.5q38 75 69 137t59.5 121t58 120t64.5 134q39 81 71.5 153.5t55.5 131.5l60 22q12 -28 27 -61.5t31.5 -70.5t34.5 -76l36 -78q37 -82 68 -148
t61.5 -128.5t63 -128t71.5 -146.5q32 -66 59 -122.5t52.5 -110t52.5 -106t59 -110.5q28 -51 56 -95.5t57 -92.5zM1008 655q-47 110 -95 207.5t-96 188.5q-15 31 -26 50.5t-23 41.5q-7 -13 -12.5 -23t-11 -19.5t-10.5 -21t-13 -26.5q-27 -54 -51.5 -103.5t-47.5 -97.5
t-46 -97t-46 -102q28 -5 73.5 -7.5t111.5 -2.5q68 0 118 2t85 4t57 4t33 2z" />
    <glyph glyph-name="B" unicode="B" horiz-adv-x="1130"
d="M1018 469q0 -89 -25.5 -160t-71 -125t-107 -92t-133 -62t-151 -35t-159.5 -11q-31 0 -73.5 1t-88.5 3q4 40 6 103.5t3 135.5t1 145.5v133.5v426q0 81 -1.5 168t-4.5 170t-6.5 157.5t-7.5 131.5q18 1 39.5 1.5t42.5 0.5h40.5h32.5q118 0 223.5 -24.5t185 -74.5t126.5 -126
t47 -179q0 -63 -18 -116t-48.5 -95.5t-69.5 -73.5t-81 -49q61 -16 115 -47t95 -76t65 -103t24 -128zM705 1145q0 53 -22.5 94.5t-60.5 70t-89.5 43.5t-110.5 15v-467h8q66 0 117 18t86.5 50t53.5 77t18 99zM803 453q0 61 -24.5 108.5t-68 80.5t-102 50t-127.5 17h-63
q0 -14 0.5 -52.5t1.5 -90.5t2.5 -111.5t3 -114.5t4 -100.5t4.5 -69.5q70 0 136.5 18.5t118 54.5t83 88.5t31.5 121.5z" />
    <glyph glyph-name="C" unicode="C" horiz-adv-x="1497"
d="M1436 100q-52 -31 -112.5 -57.5t-129 -46t-144.5 -30.5t-159 -11q-190 0 -335.5 58.5t-244.5 163.5t-149.5 250t-50.5 318q0 177 53.5 329.5t156 264.5t253 176t344.5 64q69 0 138 -6t133.5 -17t121 -26t100.5 -33q-12 -57 -31.5 -109t-36.5 -94q-21 11 -66 26t-103 29
t-123 23.5t-125 9.5q-148 0 -258.5 -46.5t-184 -131t-109.5 -202t-36 -259.5q0 -126 38 -233t110 -185t175.5 -122.5t233.5 -44.5q71 0 134 9.5t120.5 26t110 39.5t102.5 50q18 -31 39 -80.5t35 -102.5z" />
    <glyph glyph-name="D" unicode="D" horiz-adv-x="1640"
d="M1538 825q0 -157 -40.5 -280.5t-108.5 -216.5t-156.5 -157.5t-184.5 -105.5t-192.5 -59t-181.5 -18q-65 0 -129 2t-123 5t-112 7.5t-97 9.5q2 26 3.5 70t2.5 98t2 114.5t1.5 119.5t0.5 112v92v412q0 69 -1 139t-3 137.5t-5.5 130.5t-8.5 119q72 7 149 11q66 4 147.5 7
t160.5 3q183 0 342.5 -48t278 -142.5t187 -235.5t68.5 -326zM1311 823q0 135 -49.5 238.5t-138.5 174t-211.5 106.5t-268.5 36q-24 0 -56 -1.5t-63 -4.5t-56.5 -6.5t-35.5 -7.5q-1 -23 -2 -67.5t-2 -100t-1.5 -115t-1 -113t-1 -94t-0.5 -57.5q0 -25 0.5 -73.5t1 -108
t1.5 -124t2 -123t2 -104.5t1 -69q29 -6 78.5 -12.5t134.5 -6.5q134 0 254.5 38.5t212 117t145.5 197.5t54 280z" />
    <glyph glyph-name="E" unicode="E" horiz-adv-x="1163"
d="M215 8q1 24 2 58.5t1.5 73.5t1 79.5t1 76.5t0.5 63.5v41.5v619q0 77 -1 148q0 30 -0.5 62t-1 62t-1 57t-0.5 46q-1 23 -1.5 41.5t-1.5 36t-1.5 36t-1.5 41.5q41 -1 70.5 -1.5t70.5 -0.5q66 0 123.5 2t104.5 2q52 1 107.5 2.5t106 4t91.5 4t65 2.5q4 -16 7 -40t5 -50
t3 -51.5t0 -45.5h-59h-91t-101 -0.5t-89 -1.5q-24 -1 -57.5 -3.5t-64.5 -4.5q-36 -3 -75 -6q-1 -48 -3 -93q-2 -38 -2.5 -79t-0.5 -68v-282h180q79 0 136 1.5t102 4t83 5t78 3.5q2 -20 3.5 -47.5t1.5 -65.5q0 -23 -1.5 -50.5t-5.5 -43.5q-32 -1 -76 0.5t-93 3t-100 3
t-99 1.5q-28 0 -64 -0.5t-68 -1.5q-38 -1 -77 -2v-202q0 -31 0.5 -74.5t2.5 -84.5q2 -48 3 -97q62 -10 113.5 -12.5t99.5 -4.5q42 -1 90 -2t93.5 -1.5t83.5 -0.5h59q0 -15 -1.5 -39.5t-4 -51.5t-5.5 -53.5t-6 -45.5q-24 1 -65 2.5t-91.5 3.5t-106 4t-107.5 4q-51 0 -99.5 3
t-111.5 5q-25 0 -52 0.5t-50 1.5z" />
    <glyph glyph-name="F" unicode="F" horiz-adv-x="1092"
d="M967 1563q3 -12 5.5 -35t4.5 -51t3 -57t1 -54q-48 0 -91.5 -0.5t-87.5 -1t-90.5 -1.5t-99.5 -3q-57 -2 -108.5 -8t-85.5 -11v-223v-24v-40t0.5 -49.5t0.5 -53.5q1 -62 1 -138q32 0 65 1q28 1 60 1.5t59 1.5q106 2 198 4t165 2l4 -28q2 -12 3 -27t1 -31q0 -23 -1 -43.5
t-3 -35.5q-2 -18 -4 -31q-11 -1 -43 0t-76 2.5t-97 2.5t-106 1q-44 0 -83.5 -0.5t-70.5 -2.5q-36 -2 -67 -3q-1 -15 -2 -42q-1 -23 -1.5 -61.5t-0.5 -97.5q0 -21 0.5 -57t1.5 -79.5t2 -89.5t2.5 -87t3.5 -73t4 -46q-9 -2 -33.5 -4t-72.5 -2q-37 0 -64.5 1.5t-52.5 6.5
q2 110 4 217q1 46 2 96t1.5 100.5t1.5 98.5t1 90v434v120.5t-0.5 99.5t-1 94.5t-2.5 105.5v27t-1 26q-1 14 -1 29q53 3 108 6q48 2 104 4t108 4q64 2 134.5 5t132.5 5t107.5 3.5t57.5 1.5z" />
    <glyph glyph-name="G" unicode="G" horiz-adv-x="1638"
d="M1477 135q-37 -30 -95.5 -59.5t-130.5 -52.5t-153.5 -37.5t-165.5 -14.5q-193 0 -345 57t-258 162t-162 253t-56 329q0 182 58.5 331t165.5 255.5t256.5 164.5t330.5 58q155 0 279 -24t212 -56q-5 -43 -19 -97t-34 -108q-42 17 -93 32.5t-106.5 27.5t-114 19t-116.5 7
q-146 0 -257 -47.5t-186 -129.5t-113 -192t-38 -235q0 -147 44.5 -260t122.5 -189.5t185 -115.5t232 -39q115 0 201.5 23.5t129.5 54.5v154q0 24 -1.5 61.5t-3 77.5t-3.5 77t-4 58q12 2 28 4t33 3.5t32.5 2t25.5 0.5q34 0 63 -1t49 -3q0 -26 -0.5 -60.5t-1.5 -69.5t-1.5 -68
t-0.5 -56q0 -37 0.5 -81.5t1.5 -86t3.5 -76.5t5.5 -53z" />
    <glyph glyph-name="H" unicode="H" horiz-adv-x="1812"
d="M1608 1556q0 -23 -2.5 -83t-5 -138.5t-5 -165t-2.5 -163.5v-297v-422q0 -17 0.5 -48.5t2 -71t3.5 -83t5 -84.5q-19 -5 -44.5 -6.5t-56.5 -1.5q-34 0 -67.5 1.5t-55.5 6.5q2 23 4 70t3 108t2 131.5t1.5 141t0.5 136v115.5q-13 4 -35.5 7.5t-40.5 3.5q-84 0 -156 -1.5
t-138.5 -3.5t-130.5 -4.5t-132 -5.5q-40 -1 -91.5 -3t-100.5 -4.5t-89 -5.5t-57 -7v-406q0 -17 1 -48.5t2.5 -70.5t3.5 -82.5t3 -84.5q-15 -3 -41 -4.5t-57 -1.5q-35 0 -68 2.5t-55 5.5q1 27 2.5 81.5t2.5 124t2 148.5t1.5 154t1 140t0.5 107v164q0 32 -0.5 73t-1 85t-1 89
t-1.5 86t-2 75.5t-2 56.5q-1 27 -2 58t-2 57q-1 31 -2 61q8 2 21.5 3t31 1.5t37.5 1t39 0.5q14 0 29.5 -0.5t29.5 -1t25.5 -1.5t17.5 -3q0 -23 -2.5 -83.5t-5.5 -140t-5.5 -167t-2.5 -164.5v-96q32 -3 66.5 -5.5t76.5 -2.5q88 0 196 2.5t219.5 6.5t219 10t193.5 12
q0 105 -2 216t-4 204q-3 108 -7 212q19 3 50.5 6t91.5 3q20 0 35.5 -0.5t27.5 -1.5q14 -1 25 -3z" />
    <glyph glyph-name="I" unicode="I" horiz-adv-x="643"
d="M436 1552q0 -23 -2 -81t-5 -135t-5 -163.5t-2 -166.5v-644q0 -105 2.5 -190.5t7.5 -169.5q-20 -6 -44.5 -8t-55.5 -2q-35 0 -63 1.5t-60 6.5q2 27 3.5 82t2.5 125t2 149t1.5 154t0.5 140.5v107.5v164q0 93 -0.5 164.5t-1.5 126t-2 96t-2 75.5q-1 27 -2 56t-2 54
q-1 29 -2 56q17 3 54 4.5t79 1.5q28 0 54.5 -1t41.5 -3z" />
    <glyph glyph-name="J" unicode="J" horiz-adv-x="690"
d="M496 623q0 -151 -11 -260.5t-35.5 -192t-63.5 -143.5t-95 -115q-31 -29 -63 -57t-62 -52t-57 -44.5t-48 -34.5q-20 15 -35 33.5t-32 41.5t-33 49t-24 48q30 17 63.5 39t56.5 40q75 64 121.5 124t72 132.5t34 167t8.5 226.5q0 135 -4.5 263t-12 245t-17 220.5t-19.5 190.5
q26 6 63.5 9t69.5 3q16 0 33.5 -0.5t33.5 -1.5t29 -2t20 -2v-346q0 -61 1 -136.5t2.5 -154t2.5 -154t1 -136.5z" />
    <glyph glyph-name="K" unicode="K" horiz-adv-x="1503"
d="M1479 80q-13 -28 -32 -54t-41 -50t-44.5 -44.5t-42.5 -37.5q-21 21 -49.5 46.5t-63 54.5t-72.5 61t-77 65q-60 49 -110 89.5t-98 79t-99 77.5t-113 86q-29 23 -64 49t-65 49q-35 26 -70 53h-16v-227q0 -13 0.5 -40.5t1.5 -63t2 -75.5t2.5 -78t3 -71l2.5 -55
q-21 -3 -47.5 -5.5t-58.5 -2.5q-37 0 -71 3t-48 5q2 29 3.5 87t2.5 132.5t2 158.5t1.5 163.5t0.5 149v114.5v176q0 51 -0.5 104t-1.5 104t-2 96.5t-2 80.5q-1 28 -2 60.5t-2 60.5q-1 33 -2 65q11 3 41 5.5t74 2.5q56 0 81 -2.5t37 -5.5q-2 -28 -5 -76.5t-6 -111.5t-5 -138
t-2 -157v-293h6q27 31 53 61q23 26 47.5 55t42.5 52q50 62 96 118t88.5 108t83 101.5t79.5 98.5q26 33 47.5 60.5t42 53t40.5 51.5t42 56q21 -9 46 -27.5t49 -40.5t43.5 -44.5t28.5 -40.5q-44 -47 -80 -85.5t-70 -76.5t-70 -78.5t-81 -91.5q-94 -109 -175.5 -204
t-141.5 -175q35 -28 64.5 -51.5t58 -46t59 -46.5t68.5 -53q54 -43 99 -78.5t88 -68.5t88 -66.5t98 -72.5q32 -23 57 -42.5t50 -37.5t51 -37t59 -41z" />
    <glyph glyph-name="L" unicode="L" horiz-adv-x="1130"
d="M1006 92q0 -35 -3 -68t-8 -53q-9 1 -38.5 2.5t-72.5 3t-95.5 3.5t-107 3.5t-108 2.5t-98.5 2q-53 1 -100.5 3t-83.5 4q-42 3 -78 5q2 70 4 131.5t3 120.5t1.5 119.5t-0.5 128.5v448l-10 604q9 3 23.5 4.5t30 2.5t31.5 1.5t28 0.5q13 0 29 -0.5l32 -1t30 -1.5t23 -2
q-2 -14 -4 -45.5t-3.5 -72.5t-3.5 -87.5t-3 -90t-1.5 -80t-0.5 -58.5v-690q0 -34 0.5 -75t1.5 -77q1 -42 2 -85q15 -3 34 -7q17 -3 40.5 -5t52.5 -3q32 -1 87.5 -1.5t118.5 -1t127 -1t113 -0.5q4 -14 5.5 -37.5t1.5 -46.5z" />
    <glyph glyph-name="M" unicode="M" horiz-adv-x="1901"
d="M1839 27q-20 -8 -50.5 -16.5t-65.5 -15t-70.5 -11t-65.5 -4.5q-4 41 -8 80.5t-10.5 87t-16 107.5t-24.5 142q-17 108 -33.5 207t-36.5 209q-3 19 -7.5 42.5t-9.5 47t-10 44t-10 34.5q-18 -36 -41 -82.5t-48.5 -96.5t-52 -100.5t-50.5 -95.5q-34 -64 -61 -116t-52.5 -103
l-52.5 -105t-62 -122q-5 -11 -13.5 -29t-16.5 -35q-10 -19 -19 -41l-47 -22q-5 13 -11 29q-5 14 -13 33.5t-19 43.5q-34 82 -85 195.5t-109 243.5q-51 112 -97.5 213t-87.5 186q-7 -27 -15.5 -65.5t-17 -79.5t-17 -79.5t-15.5 -66.5q-7 -37 -18 -86.5t-23 -106.5t-24 -119
t-23 -124q-6 -34 -13 -72t-12.5 -74t-9.5 -67.5t-6 -52.5q-30 0 -66.5 3.5t-72 10t-65 15t-44.5 18.5q16 46 30 90q12 38 25 78.5t21 68.5q20 75 39 148.5t37.5 148.5t36.5 153.5t36 162.5q34 167 62 329.5t53 329.5l45 21q26 -56 58.5 -126.5t74.5 -160.5q37 -79 68.5 -148
t62 -135t62.5 -134t69 -146q17 -33 38 -76.5t41 -83.5l46 -94q28 53 54 103q11 21 23.5 44.5t24.5 46t23.5 43.5t20.5 39q38 70 68 127t58.5 111.5t58 111t64.5 125.5q25 48 48.5 95.5t43.5 90.5t36.5 80t27.5 62l43 18q11 -68 23.5 -149t29.5 -178q18 -108 35.5 -205
t35 -193t36.5 -196.5t41 -214.5q14 -72 30.5 -141.5t31.5 -125.5q18 -65 36 -124z" />
    <glyph glyph-name="N" unicode="N" horiz-adv-x="1935"
d="M1696 -51l-105 105q-45 45 -97.5 96.5t-98.5 93.5q-74 69 -135 126t-120 111t-121 109.5t-138 122.5q-62 55 -115 101.5t-103 90.5t-102 88t-112 94q-2 -26 -5 -52q-2 -22 -4 -44.5t-4 -38.5q-7 -84 -12.5 -151t-11 -130.5t-11.5 -131t-14 -154.5q-6 -75 -12 -151.5
t-11 -145t-8.5 -125.5t-5.5 -94q-36 1 -71.5 5t-68 9t-60.5 11t-48 12q22 100 43.5 221.5t40.5 282.5q10 83 19.5 169t17.5 177.5t15.5 190t13.5 206.5q3 50 6 102.5t5 99t3.5 82.5t1.5 52v31l35 18q38 -42 74.5 -81t73.5 -77t75.5 -76t79.5 -79q65 -61 119 -111t106 -96.5
t106.5 -95.5t121.5 -109q66 -58 123.5 -108t112 -97t110.5 -94t119 -100v291q0 68 -0.5 148.5t-1.5 158t-2 143.5t-2 105q-1 35 -2.5 81t-3 89.5t-2.5 76.5t-1 43q26 3 53.5 4.5t61.5 1.5q31 0 59.5 -1.5t42.5 -4.5q0 -14 -1 -45t-2 -70.5t-2 -84.5t-1 -86q0 -33 -0.5 -101
t-0.5 -158t-0.5 -196t-0.5 -215q0 -58 1 -122t2 -127t2.5 -122.5t2.5 -109t2 -87t1 -55.5z" />
    <glyph glyph-name="O" unicode="O" horiz-adv-x="1806"
d="M1700 815q0 -119 -28.5 -227.5t-80 -201t-124 -167.5t-160.5 -128.5t-190 -82t-212 -28.5q-111 0 -213 25.5t-190 73.5t-160.5 117.5t-123.5 157t-79 192t-28 222.5q0 110 27 212t77 190.5t121.5 162t160.5 125.5t194 80.5t222 28.5q110 0 211 -26t188.5 -73.5t159 -115
t122 -151t78.5 -181t28 -205.5zM1479 815q0 118 -46.5 219t-125.5 175.5t-184 116.5t-222 42q-122 0 -226 -47.5t-179.5 -128.5t-118.5 -189.5t-43 -230.5q0 -130 42.5 -238.5t119 -186.5t183.5 -121.5t236 -43.5q121 0 224 50t178.5 136t118.5 201.5t43 245.5z" />
    <glyph glyph-name="P" unicode="P" horiz-adv-x="1155"
d="M1055 1067q0 -120 -51 -213.5t-138 -159.5t-201.5 -102t-242.5 -41v-125q0 -173 3 -277t3 -149q-22 -3 -49.5 -5.5t-56.5 -2.5q-15 0 -32 0.5t-32.5 1t-28.5 1.5t-20 3q1 43 2 88q1 38 2 83t2 85q1 33 1 78t0.5 95.5t1 103t1 101t0.5 89.5v67q0 64 -0.5 141t-0.5 148
t-0.5 125t-0.5 72q-1 42 -2 90.5t-2 90.5q-1 49 -2 97q11 2 36.5 3t54.5 2t55.5 1.5t39.5 0.5q135 0 254.5 -32.5t209 -95.5t142 -154.5t52.5 -209.5zM831 1067q0 68 -29 122t-82 91.5t-127 57.5t-165 20q-2 -23 -3.5 -62t-2 -85t-0.5 -93.5v-87.5v-268q9 0 19 -1
q8 -1 19 -1h23q70 0 133 21t111 60.5t76 96.5t28 129z" />
    <glyph glyph-name="Q" unicode="Q" horiz-adv-x="1806"
d="M1479 815q0 77 -20.5 148t-58 132.5t-90.5 112t-117 86t-138 55t-154 19.5q-122 0 -226 -48t-179.5 -129.5t-118.5 -189.5t-43 -229q0 -130 42.5 -238.5t119 -186.5t183.5 -121.5t236 -43.5q121 0 224 50t178.5 136t118.5 201.5t43 245.5zM1409 141q27 -1 61 -1.5
t68.5 -1t65.5 -1t53 -0.5q14 0 34 0.5t39 1.5q22 1 46 2q2 -17 3 -35.5t1 -46.5q0 -15 -1.5 -36t-4 -42.5t-6.5 -41t-9 -31.5q-28 5 -67 10t-84 10t-94.5 9.5t-100.5 9.5q-78 7 -144 12t-128 8.5t-125 6.5t-137 6q-108 3 -207 30.5t-184.5 76.5t-155 118t-118.5 155.5
t-76 189t-27 218.5q0 110 27 212t77 190.5t121.5 162t160.5 125.5t194 80.5t222 28.5q108 0 208 -25.5t187.5 -72.5t159.5 -114t123.5 -150.5t80 -181.5t28.5 -208q0 -106 -24.5 -206.5t-70 -188.5t-110 -159t-143.5 -118z" />
    <glyph glyph-name="R" unicode="R" horiz-adv-x="1403"
d="M1251 10q-20 -11 -54 -14.5t-73 -3.5q-14 0 -31.5 0.5t-31.5 1.5q-17 1 -33 2q0 24 1.5 64.5t3.5 89.5t3.5 101.5t1.5 100.5q0 78 -5 126.5t-18 75.5t-34.5 36.5t-54.5 9.5q-158 0 -284.5 -6t-219.5 -6v-193q0 -87 0.5 -151t1.5 -110.5t1.5 -77.5t0.5 -52
q-17 -5 -40.5 -7.5t-57.5 -2.5q-15 0 -32 0.5t-33.5 1.5t-30.5 2.5t-23 3.5q1 43 3 88q2 38 3 82.5t2 83.5q1 51 1.5 108t1 127.5t1 158t0.5 198.5q0 53 -1 123.5t-2.5 145.5t-3 148.5t-3.5 134.5t-3.5 102.5t-2.5 51.5q29 2 63 4q29 2 67.5 2.5t82.5 0.5q114 0 219 -27.5
t186 -83t129.5 -138.5t48.5 -194q0 -57 -12.5 -108t-34.5 -93.5t-52.5 -75.5t-65.5 -55q16 2 32 3q14 1 29.5 1.5t28.5 0.5q104 0 165.5 -23t94.5 -71.5t43 -123t10 -176.5q0 -49 2 -109.5t4 -116.5t4 -100t2 -61zM776 1079q0 70 -26.5 123t-73 88.5t-111 53.5t-139.5 18
q-1 -57 -2 -113q-1 -48 -1.5 -102t-0.5 -98v-267q5 0 11 -1q5 -1 11.5 -1h12.5q57 0 114 17.5t102.5 54.5t74 93t28.5 134z" />
    <glyph glyph-name="S" unicode="S" horiz-adv-x="1036"
d="M901 436q0 -102 -35.5 -188.5t-100 -150t-156 -99t-203.5 -35.5q-41 0 -84 4t-84 12t-78 19.5t-66 26.5q0 16 2.5 41.5t7.5 55.5t14 62.5t21 61.5q22 -14 51 -28t62.5 -25t70.5 -18t74 -7q64 0 116.5 17t90 50t58 81.5t20.5 111.5q0 57 -23 102t-60.5 83.5t-85 72.5
t-97.5 68.5t-97.5 73t-85 86t-60.5 106t-23 133.5q0 82 28 157t85.5 132t146.5 91t211 34q36 0 73 -2.5t70 -6.5t60 -9.5t44 -10.5q0 -24 -3 -51.5t-7.5 -54.5t-9.5 -52t-10 -45q-16 5 -40 10.5t-52 10.5t-59 8.5t-62 3.5q-126 0 -190 -57.5t-64 -151.5q0 -49 23 -88.5
t60 -75t84.5 -69t97.5 -69t97.5 -76.5t84.5 -91.5t60 -112.5t23 -141z" />
    <glyph glyph-name="T" unicode="T" horiz-adv-x="1272"
d="M1253 1479q0 -31 -2 -61.5t-4 -47.5q-12 -1 -40 -0.5t-67 1.5t-86 2t-98 1q-26 0 -63.5 -1.5t-71.5 -3.5q-40 -3 -82 -5q0 -79 -1 -150q0 -30 -0.5 -61.5t-0.5 -60v-53v-40.5v-464q0 -48 0.5 -102t2 -108.5t3 -106.5t3 -95t4 -75t4.5 -46q-16 -8 -50 -10t-65 -2
q-34 0 -62.5 2.5t-48.5 7.5q0 32 1 91.5t2.5 135.5t2.5 163.5t1 176.5v414q0 45 -0.5 95l-1 100t-1.5 96.5t-2 83.5q-108 -7 -206 -14q-42 -3 -85 -6.5t-83 -7t-74.5 -7.5t-58.5 -8q-2 12 -4 29q-2 14 -3.5 34t-1.5 43q0 25 1.5 53t4.5 48l48 2q20 1 43 2t43 2q38 2 96 4.5
t125.5 4.5t140 4.5t139 4.5t122 3.5t89.5 2.5q65 2 128 4.5t114.5 4.5t88 3t48.5 1q5 -16 6.5 -38t1.5 -46z" />
    <glyph glyph-name="U" unicode="U" horiz-adv-x="1788"
d="M1602 1548q0 -49 -3.5 -134.5t-3.5 -203.5q0 -73 -1 -152.5t-2.5 -153.5t-3 -136t-3.5 -100q-9 -188 -59 -320.5t-139 -216t-215.5 -122t-288.5 -38.5q-148 0 -261 44t-193 127.5t-127 204t-62 274.5q-7 71 -12.5 133t-9.5 125t-7.5 130t-7.5 148q-5 127 -7.5 227.5
t-2.5 163.5q23 3 54.5 5.5t57.5 2.5q32 0 67 -2.5t52 -5.5q-1 -33 -1.5 -67.5t-1 -79t-1 -103t-0.5 -139.5q0 -16 0.5 -49.5t1 -76t1.5 -90t2.5 -92.5t3 -83.5t3.5 -62.5q11 -115 37 -212t78.5 -167t137.5 -109t214 -39q103 0 179.5 23t131 62.5t89 92t55 110.5t28 118
t7.5 116q0 83 -0.5 167.5t-1.5 161t-2 139.5t-3 104q-1 40 -3.5 80.5t-5 76.5t-5.5 65.5t-6 47.5q29 6 62 9t61 3t63 -1.5t54 -4.5z" />
    <glyph glyph-name="V" unicode="V" horiz-adv-x="1522"
d="M1522 1487q-52 -87 -97 -166t-87.5 -157.5t-85.5 -159.5t-91 -173q-39 -74 -70.5 -134.5t-61 -119t-59.5 -120t-65 -138.5q-19 -40 -38.5 -85t-37 -87t-32 -77.5t-23.5 -55.5l-45 -26q-31 62 -63.5 138t-75.5 173q-37 82 -68 148t-61.5 128.5t-63 128t-71.5 146.5
q-42 84 -79 162.5t-75 153.5t-79.5 149.5t-92.5 150.5q20 20 46.5 37.5t56.5 31.5t61 24t59 16q40 -89 76 -167t71.5 -154.5t72.5 -156.5t79 -175q25 -55 47 -101.5t43 -90t42.5 -87.5t45.5 -94q8 -15 17 -35.5t18 -39.5q11 -22 21 -44q38 79 76 159t80 165.5t88.5 179
t99.5 201.5q36 74 64 132.5t53 110.5t48 102.5t48 110.5q24 -4 54 -15.5t59.5 -26.5t55 -31t40.5 -31z" />
    <glyph glyph-name="W" unicode="W" horiz-adv-x="1954"
d="M1896 1499q-6 -17 -15 -43t-19.5 -56t-21 -61t-19.5 -59q-23 -73 -49.5 -157t-54 -172.5t-56 -178.5t-55.5 -174q-39 -119 -70.5 -219t-54.5 -186q-19 -67 -32 -122.5t-24 -90.5l-41 -21q-22 56 -46 112q-20 48 -44 105t-45 107q-9 22 -28.5 67t-45 102.5t-55 123
t-58 128t-55 118t-46.5 93.5q-14 -32 -33.5 -84t-50.5 -133q-28 -74 -48.5 -129t-36.5 -100.5t-30 -88t-31 -91.5q-18 -51 -31 -90.5t-24 -74t-21 -67t-22 -69.5l-55 -29q-11 32 -22.5 64t-23.5 67t-26 75.5t-29 90.5q-24 77 -57.5 175.5t-73 208t-83 225t-87 227t-85 214
t-77.5 185.5q20 10 49 21.5t62 22t67 19.5t64 15q9 -34 18.5 -64.5t21 -68t27 -87.5t37.5 -124q16 -54 39 -122t48 -139.5t50.5 -142t47.5 -129.5q7 -18 16 -43l18 -50t17 -46t12 -31q23 47 49 119.5t58 163.5q34 95 64.5 179.5t57.5 161.5t50.5 148.5t44.5 141.5l33 16
q22 -64 42.5 -118.5t43.5 -109t50 -116t62 -139.5q50 -112 101.5 -223.5t99.5 -215.5q10 26 26.5 71.5t33.5 95t32 95t23 72.5q14 47 31 104.5t35.5 121t37 130t35.5 130.5q17 65 29 119t20 92q32 -3 66 -10.5t64.5 -16t56.5 -18t42 -17.5z" />
    <glyph glyph-name="X" unicode="X" horiz-adv-x="1483"
d="M1450 70q-37 -47 -85.5 -82t-102.5 -49q-65 92 -146 206t-186 248q-54 69 -101.5 130.5t-89.5 117.5q-39 -57 -79 -112q-34 -47 -71.5 -100.5t-66.5 -96.5q-40 -58 -80 -117.5t-76.5 -113.5t-67.5 -99.5t-52 -75.5q-50 17 -101 51t-88 74q29 40 111.5 143t210.5 283
q68 94 128.5 177t108.5 149q-10 16 -33.5 47.5t-54.5 71.5t-67.5 85.5t-73.5 90.5q-19 24 -46 55t-56.5 65t-60 68t-57 63t-47 51t-30.5 32q31 40 73 77.5t89 63.5q20 -21 45 -50t52.5 -64t57.5 -73.5t60 -78.5q26 -34 53.5 -72t54.5 -75t52 -72t45.5 -63t35 -47.5
t19.5 -25.5q23 32 44 62l42 60t43 62.5t47 69.5q35 53 65 99.5t57 91t52.5 88.5t52.5 90q25 -10 54 -27t56.5 -35.5t51 -37t37.5 -31.5q-24 -31 -55.5 -71t-67.5 -87t-76 -100.5t-81 -110.5q-28 -38 -62 -83t-64 -86q-35 -48 -71 -95q46 -66 100.5 -136t122.5 -155
q54 -67 97 -122.5t84.5 -107.5t87.5 -105t106 -115z" />
    <glyph glyph-name="Y" unicode="Y" horiz-adv-x="1253"
d="M1231 1401q-11 -10 -29.5 -23.5t-44.5 -34t-59 -49t-72 -69.5q-56 -58 -110 -131t-96.5 -150.5t-68.5 -154t-26 -142.5v-110q0 -21 1.5 -65.5t3.5 -100t5 -116t6 -114t6 -93.5t5 -54q-8 -2 -21.5 -3t-29 -1.5t-31.5 -1t-29 -0.5q-35 0 -72.5 4t-60.5 10q4 99 8 199
q2 43 3 90t2.5 95t2 94.5t0.5 88.5v90q0 44 -13.5 94.5t-36.5 103t-53 105t-63 100t-67 89t-64 72.5q-24 24 -47 46.5t-48 43t-52.5 39t-59.5 34.5q7 26 19.5 51.5t28 49.5t33.5 45t36 37q32 -24 58 -45t49.5 -42.5t47 -45t50.5 -52.5q42 -45 78.5 -91.5t66.5 -91
t53.5 -85.5t41.5 -76q15 -29 28 -57.5t19 -56.5q6 27 17 55t23.5 54t24.5 47.5t21 35.5q30 49 57 89.5t56 78t62 75t75 81.5q18 20 34 36.5t32 31.5t32.5 30t36.5 33q20 -12 40.5 -32.5t38.5 -44t32 -48.5t20 -47z" />
    <glyph glyph-name="Z" unicode="Z" horiz-adv-x="1483"
d="M1466 223q0 -24 -1.5 -58.5t-3.5 -69t-4.5 -64t-4.5 -43.5q-17 0 -50 1t-73 2.5t-85 2.5t-87 2t-77.5 1.5t-57.5 0.5q-106 0 -218 -1t-224.5 -2.5t-222.5 -3.5t-212 -5l-28 28q25 35 54 79t58.5 91.5t58.5 94.5t54 86q54 90 99.5 165.5t89 148.5t90 150t102.5 170
q32 54 65 111.5t59 105.5q31 56 60 109q-49 2 -96 4q-40 2 -83 3t-73 1q-49 0 -103 -0.5t-108.5 -2t-108 -3.5t-100.5 -4.5t-86.5 -5t-66.5 -6.5q0 16 0.5 43.5t2.5 60t5.5 65.5t9.5 60q57 0 132.5 -1t160.5 -2.5t174.5 -3t173.5 -1.5q118 0 203 1t119 3q19 1 45.5 2.5
t51.5 3.5q29 2 61 4l34 -26l-12 -20q-5 -8 -9.5 -16t-6.5 -11q-106 -183 -256 -439.5t-340 -570.5q-23 -36 -49.5 -84t-49.5 -92q-27 -51 -55 -105q56 0 100.5 0.5t81.5 1t70 1.5t66.5 2t70.5 2.5t82 3.5q115 3 247 12t271 18z" />
    <glyph glyph-name="bracketleft" unicode="[" horiz-adv-x="795"
d="M713 1563q0 -34 -2 -71t-4 -65q-19 -1 -48 -3.5t-64.5 -4t-76.5 -3t-84 -1.5v-1478l248 20q6 -21 6 -59q0 -28 -2.5 -59t-5.5 -56q-28 -2 -73.5 -4t-92.5 -3.5t-88.5 -3t-63.5 -1.5q-85 0 -124 6q1 44 2 122t2 168.5t1.5 182t0.5 162.5v565q0 36 -0.5 85.5t-1 105
t-1 113.5t-1 112t-1 99.5t-1.5 76.5q74 2 145.5 5t134.5 6.5t113 7t80 5.5q2 -6 2 -13.5v-16.5z" />
    <glyph glyph-name="backslash" unicode="\" horiz-adv-x="1204"
d="M-37 1470q12 12 34.5 29.5t49 35.5t54 33.5t49.5 22.5q12 -22 36 -60t51.5 -80t55 -82t45.5 -66l639 -889q44 -61 80.5 -108.5t68.5 -87.5t60.5 -75.5t56.5 -72.5q-15 -12 -38 -29t-49 -33.5t-53.5 -31.5t-51.5 -23q-19 28 -49.5 74t-63.5 94t-64 92.5t-49 69.5l-659 919
q-34 47 -61 84t-50.5 68.5t-45.5 59.5t-46 56z" />
    <glyph glyph-name="bracketright" unicode="]" horiz-adv-x="795"
d="M565 -229q-74 -2 -146.5 -5t-135 -7t-112.5 -7.5t-79 -5.5q-2 6 -2 13v18q0 34 2 70.5t4 64.5q19 1 48 3.5t64.5 4t76.5 3t84 1.5v1499l-248 -20q-6 21 -6 59q0 28 2.5 59t5.5 56q29 2 74 4t92 3.5t88.5 3t62.5 1.5q86 0 125 -6q-1 -44 -2 -122t-2 -168.5t-1.5 -182
t-0.5 -162.5v-483q0 -36 0.5 -93.5t1 -124t1 -138t1 -136.5t1.5 -118t1 -84z" />
    <glyph glyph-name="asciicircum" unicode="^" horiz-adv-x="1038"
d="M1006 922q-34 -34 -79 -62t-96 -41q-7 15 -23 42t-33.5 55.5t-32 52.5t-19.5 32l-201 328l-176 -293q-3 -6 -12 -21.5t-21.5 -36t-26.5 -44.5t-27.5 -46.5t-24 -40.5t-15.5 -28q-49 14 -95 41.5t-83 61.5q11 13 32.5 43.5t43.5 63.5t39.5 60.5t21.5 34.5l262 404
q22 3 44.5 5.5t39.5 2.5q19 0 40.5 -2.5t41.5 -5.5l279 -424q4 -7 19.5 -31.5t34.5 -54t38 -56.5t29 -40z" />
    <glyph glyph-name="underscore" unicode="_" horiz-adv-x="1024"
d="M1036 -326h-1046v179h1046v-179z" />
    <glyph glyph-name="grave" unicode="`" horiz-adv-x="700"
d="M119 1901q9 15 24 34.5t33 39t36.5 36.5t33.5 29l327 -367q-12 -17 -32.5 -36t-38.5 -31z" />
    <glyph glyph-name="a" unicode="a" horiz-adv-x="1327"
d="M1327 68q-38 -28 -93.5 -52t-109.5 -36q-31 74 -72.5 155t-86.5 160q-31 3 -64 5t-74.5 3t-95.5 1.5t-129 0.5q-33 0 -67 -0.5t-64.5 -1.5t-56.5 -3t-43 -5q-22 -33 -45 -72t-45.5 -80t-42.5 -82t-35 -79q-24 5 -50.5 13t-53.5 18.5t-52.5 24t-46.5 28.5q28 34 67 93
t85 135t95.5 163.5t99 177t96 177t86.5 164t70 136.5t46 94l51 19q16 -33 48 -96t74 -144t92 -174.5t101 -188t100.5 -185t92 -165.5t75 -129t48.5 -75zM877 492q-31 57 -54.5 101t-46.5 86.5t-47.5 87.5t-56.5 103q-51 -96 -103 -191t-100 -187q15 -3 30.5 -4.5t35 -2.5
t45 -1.5t61.5 -0.5q58 0 97.5 1.5t66.5 3t43.5 3t28.5 1.5z" />
    <glyph glyph-name="b" unicode="b" horiz-adv-x="1165"
d="M1040 375q0 -102 -48 -176t-132 -122t-198.5 -71.5t-247.5 -23.5h-41.5t-52 0.5t-55.5 1t-52 2.5q2 28 3 77.5t1.5 106.5t1 115t0.5 104v338q0 35 -0.5 79.5t-1 92t-2 96t-2.5 91t-2 77.5t-2 56q19 1 41 1.5t43.5 0.5h40.5h33q130 0 239.5 -18t189 -56.5t124.5 -97.5
t45 -140q0 -50 -17.5 -93t-47.5 -77.5t-69 -59t-83 -36.5q71 -12 125.5 -36t91.5 -59t56 -78.5t19 -94.5zM752 889q0 75 -83 117.5t-247 42.5v-340h33q84 0 141 13.5t91.5 37.5t49.5 57t15 72zM827 369q0 80 -78 127t-241 47h-86v-119t0.5 -110t2 -91t3.5 -61q92 0 165.5 12
t125.5 37.5t80 64.5t28 93z" />
    <glyph glyph-name="c" unicode="c" horiz-adv-x="1393"
d="M1296 115q-91 -62 -216.5 -100t-280.5 -38t-277 43t-206 123t-128.5 193t-44.5 254t45 257t129 198.5t205 128t273 45.5q77 0 151 -10.5t138 -26t114 -34.5t80 -36q-9 -43 -31.5 -92.5t-44.5 -89.5q-24 16 -66 34.5t-96 34t-117.5 25.5t-129.5 10q-100 0 -181.5 -32
t-139 -90.5t-89 -140.5t-31.5 -183q0 -93 29.5 -171t86.5 -134t139.5 -87.5t187.5 -31.5q64 0 118 7t103 21.5t95.5 36.5t94.5 52q26 -36 50.5 -79.5t39.5 -86.5z" />
    <glyph glyph-name="d" unicode="d" horiz-adv-x="1532"
d="M1389 629q0 -113 -29 -205t-79.5 -164.5t-119 -125.5t-147.5 -88t-164.5 -52t-171.5 -17q-143 0 -253.5 7.5t-205.5 19.5q3 42 4 86t1 86.5t-0.5 81.5t-0.5 72v530q0 43 -1 93t-3 98t-4.5 89t-5.5 66q74 4 151 8q66 3 143.5 5t149.5 2q97 0 189 -14.5t174 -44.5
t150.5 -77t118 -113t77 -151t27.5 -192zM1161 627q0 104 -36 181t-103 127.5t-162.5 75.5t-214.5 25q-26 0 -58 -1.5t-62 -4.5t-55 -6t-38 -6q-2 -39 -3.5 -84t-2.5 -89.5t-1.5 -84.5t-0.5 -68q0 -81 1 -161.5t2.5 -150.5t3.5 -124t3 -82q14 -2 31.5 -5t42 -5.5t58.5 -4
t81 -1.5q122 0 217.5 30.5t161.5 90t100.5 147t34.5 201.5z" />
    <glyph glyph-name="e" unicode="e" horiz-adv-x="1180"
d="M215 -14q1 26 2 64.5t1.5 81.5t1 87.5t1 84t0.5 70.5v46v264q0 69 -1 134q-1 56 -1.5 116.5t-1.5 103.5q-1 26 -2 46.5t-2 40t-2 40t-2 45.5q23 -1 41.5 -1.5t36.5 -0.5h37h41q74 0 136 2t113 2q116 2 191.5 6.5t128.5 6.5q5 -18 8 -42.5t5 -51t3 -52.5t0 -47h-50.5h-70
t-80.5 -0.5t-83 -1.5q-27 -1 -67 -2t-78 -3q-44 -2 -91 -3q-1 -52 -3 -100q-1 -41 -2 -85t-1 -73v-37h215q122 0 208.5 4.5t143.5 9.5q2 -21 3 -43.5t1 -62.5q0 -26 -1.5 -49.5t-4.5 -40.5q-64 2 -138.5 5t-178.5 3q-31 0 -73.5 -0.5t-81.5 -1.5q-46 -1 -93 -2v-113
q0 -34 0.5 -80.5t2.5 -89.5q2 -50 3 -102q29 -3 62 -5t66.5 -3.5t65.5 -2t58 -1.5q93 -4 158.5 -4.5t111.5 -0.5q0 -17 -1.5 -40.5t-4 -50t-5.5 -52.5t-7 -47q-26 1 -63.5 3t-80.5 4.5t-88.5 4.5t-87.5 4q-55 2 -113 4.5t-118 4.5q-27 1 -56.5 1.5t-54.5 1.5q-29 1 -57 1z
" />
    <glyph glyph-name="f" unicode="f" horiz-adv-x="1143"
d="M338 -18q-23 0 -45.5 0.5t-39.5 1.5q-20 1 -38 2q1 26 2 63.5t1.5 80.5t1 88t1 84.5t0.5 70.5v47v264q0 69 -1 134q-1 56 -1.5 116.5t-1.5 103.5q-2 51 -3.5 90t-4.5 82q26 -2 68.5 -2h87.5q74 0 136 2t113 2q116 2 202 6.5t138 6.5q5 -18 8 -43t5 -52t3 -53t1 -45h-54
h-77t-87.5 -0.5t-86.5 -1.5q-27 -1 -65.5 -3t-74.5 -4.5t-63.5 -4.5t-32.5 -4q0 -7 -1 -34t-1.5 -63t-1 -77.5t-1 -77.5t-1 -62.5t-0.5 -33.5v-29h162q51 0 108.5 1.5t109.5 3.5t94 5t63 6q6 -39 6 -108q0 -12 -0.5 -27t-1 -29.5t-1.5 -27t-3 -21.5q-20 2 -60.5 3.5
t-88.5 2.5t-97 2t-86 1q-31 0 -66.5 -0.5t-66.5 -1.5q-36 -1 -72 -3v-106q0 -17 0.5 -41t1 -52t1 -57.5t1.5 -58.5q2 -67 4 -141q-3 -1 -13 -2t-23.5 -2t-28.5 -1.5t-29 -0.5z" />
    <glyph glyph-name="g" unicode="g" horiz-adv-x="1436"
d="M1266 119q-49 -34 -106.5 -60.5t-120 -44.5t-127 -27.5t-128.5 -9.5q-152 0 -271 44t-201.5 124.5t-125.5 194t-43 252.5q0 131 45 245.5t129 199.5t205 133.5t273 48.5q138 0 247.5 -25.5t200.5 -60.5q-5 -20 -13 -45.5t-18 -51t-20.5 -49t-20.5 -41.5q-40 19 -86.5 35
t-96.5 28t-102.5 18.5t-103.5 6.5q-100 0 -179.5 -33t-135 -92t-85.5 -141t-30 -180q0 -104 30 -183.5t86 -133.5t137 -81.5t183 -27.5q42 0 82.5 4.5t75.5 12t64 17.5t49 21v152q0 19 -1 48.5t-2.5 60.5t-2.5 59t-2 45q8 2 21 3t26.5 2.5t26.5 2t22 0.5q38 0 68.5 -1
t46.5 -3q0 -20 -0.5 -47t-0.5 -54.5t-0.5 -52.5t-0.5 -43v-67t0.5 -77.5t2 -72.5t3.5 -53z" />
    <glyph glyph-name="h" unicode="h" horiz-adv-x="1651"
d="M1448 1217q0 -51 -7 -165t-7 -284v-436v-34t0.5 -58t3 -99.5t6.5 -158.5q-20 -5 -48.5 -7t-62.5 -2q-37 0 -62.5 2t-49.5 7q2 52 3 117.5t2.5 137t2.5 145t2 140.5q-48 -1 -92 -2.5t-92 -3t-104.5 -4t-131.5 -4.5q-44 -2 -103 -4t-116 -4t-103.5 -4.5t-64.5 -6.5v-206
v-54t0.5 -78.5t1.5 -91.5t2 -94q-17 -3 -34.5 -4.5t-51.5 -1.5q-38 0 -74 2.5t-61 7.5q3 44 5.5 78.5t4 72.5t2 85.5t0.5 116.5v180q0 54 -0.5 126.5t-2 146t-3.5 138t-4 101.5q-1 30 -2 64t-2 63q-1 34 -2 67q17 3 58 4.5t83 1.5q31 0 54.5 -1.5t35.5 -4.5q0 -25 -1.5 -59
t-3.5 -81.5t-3.5 -111t-1.5 -147.5v-113q15 0 35.5 -0.5t43.5 -0.5t47.5 -0.5t47.5 -0.5q96 0 172 1t147.5 3t144.5 6.5t163 10.5q0 116 -0.5 207.5t-2.5 156.5q-2 76 -3 133q10 2 19.5 3.5t24 3t35.5 2t54 0.5q22 0 39 -0.5t30 -1.5q15 -1 27 -2z" />
    <glyph glyph-name="i" unicode="i" horiz-adv-x="637"
d="M424 293q0 -19 0.5 -53.5t1.5 -75.5t2.5 -84.5t3.5 -81.5q-17 -3 -36.5 -4.5t-53.5 -1.5q-38 0 -74 2.5t-61 7.5q3 44 5.5 91t4 91.5t2 83t0.5 64.5v432q0 66 -1.5 137t-4 134t-5.5 112.5t-5 71.5q17 3 58 4.5t83 1.5q31 0 54.5 -1.5t35.5 -4.5q-1 -21 -2.5 -54.5t-3 -82
t-3 -114t-1.5 -149.5v-526z" />
    <glyph glyph-name="j" unicode="j" horiz-adv-x="657"
d="M356 1231q35 0 65.5 -2.5t47.5 -5.5q-3 -84 -6 -159q-1 -32 -2 -64.5t-2 -62t-1.5 -54t-0.5 -39.5v-340q0 -117 -5.5 -200t-20.5 -144.5t-40.5 -106.5t-66.5 -86q-44 -45 -86.5 -76.5t-67.5 -50.5q-16 13 -33.5 29.5t-34 35t-31.5 38t-26 39.5q11 9 34 26.5t48 40.5
q40 34 64 72t38 88q17 59 22 180.5t5 294.5q0 19 -1.5 61.5t-4 97t-6 114t-7 113t-6.5 93.5t-6 54q28 8 61 11t70 3z" />
    <glyph glyph-name="k" unicode="k" horiz-adv-x="1323"
d="M1292 123q-13 -25 -31.5 -49.5t-38 -47t-39 -41t-34.5 -30.5q-20 18 -35.5 31t-34.5 28t-44 36t-64 54q-60 50 -108.5 88.5t-95 75t-96.5 74t-112 84.5q-29 23 -51 37.5t-36 23.5q-17 11 -28 17h-22v-127q0 -13 0.5 -40.5t1.5 -63t2 -75.5t2.5 -78t3 -71l2.5 -55
q-21 -3 -47.5 -5.5t-58.5 -2.5q-37 0 -71 3t-48 5q3 43 4.5 117.5t2.5 163t1 182.5v176v141t-0.5 147.5t-2.5 147t-7 139.5q11 3 41 6t74 3q28 0 47 -1t32 -2t21 -2.5t14 -3.5q-1 -13 -3.5 -43.5t-5 -71t-4 -87t-1.5 -91.5v-245h6q38 34 73 66q30 27 62 56.5t53 49.5
q137 125 234.5 225t165.5 172q21 -9 42.5 -26.5t41 -37.5t35.5 -40.5t24 -36.5q-18 -14 -45 -37t-61 -53t-73 -65t-81 -73l-285 -258q59 -46 119 -91t119 -87.5t115.5 -83t107.5 -76.5q32 -22 57.5 -40t50 -35.5t50.5 -35.5t59 -40z" />
    <glyph glyph-name="l" unicode="l" horiz-adv-x="1104"
d="M1006 86q0 -35 -3 -65t-8 -50q-9 1 -40.5 3t-77 4.5t-101 5t-113 4.5t-112.5 3.5t-100 2.5q-54 1 -97 2t-75 2q-37 1 -66 2q2 70 4 122.5t3 101.5t1.5 101t-0.5 119v312q0 99 -2 187q-1 38 -1.5 76.5t-1.5 74.5t-2 66t-3 50q9 3 23.5 4.5t30 2.5t31.5 1.5t28 0.5
q13 0 29 -0.5l32 -1t30 -1.5t23 -2q-2 -14 -4 -45.5t-3.5 -72.5t-3.5 -87.5t-3 -90t-1.5 -80t-0.5 -58.5v-348q0 -34 0.5 -77t1.5 -81l2 -90q15 -3 34 -6q17 -2 40.5 -4.5t52.5 -3.5q32 -1 87.5 -1.5t118.5 -1t127 -1t113 -0.5q4 -14 5.5 -35.5t1.5 -44.5z" />
    <glyph glyph-name="m" unicode="m" horiz-adv-x="1878"
d="M1825 27q-42 -19 -103.5 -30.5t-126.5 -16.5q-4 33 -8.5 62.5t-11.5 67.5t-18 92t-27 136q-11 55 -23.5 115.5t-26.5 122.5t-29 124t-30 119q-19 -35 -39.5 -69t-43 -70.5t-48.5 -78.5t-57 -93q-40 -67 -73 -122.5t-64 -108.5t-62 -109.5t-67 -124.5l-47 -23
q-26 51 -53.5 100t-59 104.5t-69 121t-83.5 148.5q-30 54 -55.5 98.5t-48 84t-44 75.5t-42.5 73q-19 -74 -38.5 -151t-37.5 -151t-34 -144t-29 -131q-7 -34 -14.5 -71.5t-13.5 -73.5t-10.5 -67t-6.5 -52q-29 1 -63.5 5t-67 9.5t-60 13.5t-43.5 17q7 18 19 52.5t24.5 74.5
t25 80.5t19.5 68.5q14 51 32 119t38.5 146t43 164t45 172.5t44.5 172t41 162.5l51 16q57 -105 137 -236t168 -290q34 -61 70 -123t67 -113q36 -59 70 -114q42 70 82 133q17 27 34.5 55.5t34 55t31.5 50t25 40.5q40 63 81 130t80.5 133.5t77 131.5t70.5 123l64 16
q26 -151 69 -317.5t86 -358.5q11 -47 24 -103t27.5 -113t28.5 -111.5t27 -99t23.5 -76.5t17.5 -43z" />
    <glyph glyph-name="n" unicode="n" horiz-adv-x="1763"
d="M1526 -51q-39 39 -82 79q-37 35 -82.5 77t-93.5 83q-51 45 -117.5 101t-141 116.5t-153 122.5t-154 120.5t-144 110t-122.5 89.5q-5 -33 -9 -68q-4 -30 -8.5 -67t-8.5 -72q-4 -32 -9 -88.5t-11 -124.5t-12 -142.5t-11 -143.5t-8.5 -126.5t-4.5 -91.5q-29 0 -61.5 3
t-63.5 7.5t-58.5 10.5t-47.5 12q21 98 39.5 214t35 236.5t30 238t22.5 218.5q5 50 8 99t5.5 91t3.5 74t1 48v30l35 19q28 -28 54 -53t55.5 -51t64.5 -55t80 -65q52 -42 116.5 -93.5t136 -107.5t146 -114.5t146.5 -114t139 -106t123 -90.5v330q0 71 -1.5 145.5t-3.5 144.5
t-4.5 132t-4.5 110q26 3 48 4.5t56 1.5q31 0 59.5 -1.5t42.5 -4.5q-1 -12 -2.5 -43t-2 -71.5t-1 -85.5t-0.5 -87v-542q0 -88 1.5 -156.5t3 -122t3 -92t1.5 -66.5z" />
    <glyph glyph-name="o" unicode="o" horiz-adv-x="1546"
d="M1192 600q0 87 -30 165t-84 137t-128.5 93.5t-163.5 34.5q-87 0 -165.5 -28.5t-138 -84t-95 -135.5t-35.5 -184q0 -105 35 -185t95.5 -134t141.5 -81.5t173 -27.5q95 0 169 34t124 92.5t76 137t26 166.5zM143 590q0 139 48.5 254.5t134.5 199t204.5 129.5t257.5 46
q85 0 164 -21.5t147.5 -61.5t124.5 -96t95.5 -125t61.5 -149t22 -168q0 -132 -45.5 -245t-126 -196t-191 -130t-241.5 -47q-105 0 -194.5 23t-162.5 64t-128.5 97.5t-93.5 124.5t-57.5 144.5t-19.5 156.5z" />
    <glyph glyph-name="p" unicode="p" horiz-adv-x="1139"
d="M1016 817q0 -112 -45.5 -193t-126 -134t-189.5 -79.5t-237 -31.5v-94q0 -39 0.5 -78.5t2 -77t3.5 -70.5t4 -59q-22 -3 -49.5 -5.5t-56.5 -2.5q-15 0 -32.5 0.5t-34 1t-30 1.5t-20.5 3q2 45 5 104q2 51 3.5 123t1.5 166v496q0 133 -1 214.5t-3 110.5q11 2 32.5 3.5t46 2
t47.5 1t36 0.5q134 0 251 -22.5t204 -71t137.5 -124.5t50.5 -184zM793 811q0 110 -90 168.5t-275 58.5q-3 -43 -6.5 -107t-3.5 -145v-217q8 0 18 -1q8 -1 19.5 -1h23.5q68 0 125.5 15t99.5 45.5t65.5 76.5t23.5 107z" />
    <glyph glyph-name="q" unicode="q" horiz-adv-x="1577"
d="M143 590q0 139 48.5 254.5t134.5 199t204.5 129.5t257.5 46q120 0 231 -42t196.5 -121.5t136.5 -195t51 -262.5q0 -81 -17.5 -153.5t-47 -134t-66.5 -109t-76 -78.5q43 -1 94.5 -2t104 -2t102.5 -1.5t90 -0.5q0 -50 -5.5 -104t-16.5 -105q-53 8 -139.5 18.5t-188.5 20.5
q-67 6 -116 11t-94.5 9t-95 7t-118.5 6h-10q-157 0 -280 50t-207.5 134t-128.5 194.5t-44 231.5zM1192 600q0 92 -29.5 171t-83.5 136.5t-131 90t-172 32.5q-87 0 -164 -28.5t-134.5 -84t-91.5 -135.5t-34 -184q0 -105 33 -185t91 -134t137 -81.5t171 -27.5q106 0 183 33.5
t127 91.5t74 136.5t24 168.5z" />
    <glyph glyph-name="r" unicode="r" horiz-adv-x="1192"
d="M799 834q0 53 -23 92t-65.5 65t-103.5 38.5t-136 12.5h-22.5t-22.5 -2l-4 -68q-2 -29 -3 -64t-1 -66v-248h14q94 0 163 17t114.5 48.5t67.5 75.5t22 99zM782 500q39 -41 86.5 -90t99 -100.5t106 -103t108.5 -97.5q-18 -22 -38.5 -43t-42.5 -39t-42.5 -34t-38.5 -28
q-25 28 -61 69t-78 88t-86 95.5t-84 91.5t-72 76t-51 49q-18 -3 -41 -6t-47 -5t-45.5 -3.5t-36.5 -1.5v-66q0 -61 1.5 -117.5t3 -103.5t2.5 -81.5t1 -49.5q-19 -3 -42.5 -4.5t-55.5 -1.5q-15 0 -33 0.5t-35 1t-31 1.5t-20 3q1 75 2 142q0 29 0.5 58.5t1.5 56.5t1.5 49.5
t0.5 37.5q1 40 1 95.5v120.5t-0.5 135.5t-0.5 140.5q0 45 -0.5 105t-1 116t-1.5 99.5t-3 55.5q20 2 52 3.5t65 2t60 1t36 0.5q145 0 257.5 -24.5t189 -71t116 -115t39.5 -156.5q0 -76 -27 -135.5t-65 -103.5t-79.5 -72t-70.5 -41z" />
    <glyph glyph-name="s" unicode="s" horiz-adv-x="993"
d="M860 344q0 -73 -23.5 -139.5t-75.5 -117.5t-136 -81.5t-205 -30.5q-39 0 -80.5 5t-82 13.5t-77 20.5t-63.5 27q5 43 19.5 97t33.5 104q20 -14 50.5 -28t66 -25t73.5 -18t72 -7q57 0 98.5 12t68 33.5t39.5 51t13 65.5q0 55 -37 94.5t-93 73t-120.5 67t-120.5 77.5
t-93 103.5t-37 145.5q0 82 31 145t87.5 106t135.5 65t176 22q36 0 78 -4t81 -10t71.5 -13t49.5 -12q-6 -51 -15.5 -101.5t-19.5 -91.5q-16 5 -43 12.5t-60 14t-70 11.5t-74 5q-107 0 -162.5 -37.5t-55.5 -103.5q0 -37 21.5 -66t56.5 -54.5t80 -49.5t92 -50.5t92 -57t80 -70
t56.5 -89t21.5 -114.5z" />
    <glyph glyph-name="t" unicode="t" horiz-adv-x="1163"
d="M1133 1153q0 -31 -2.5 -61.5t-4.5 -47.5q-12 -1 -27.5 0t-39 2t-58.5 2t-86 1q-26 0 -66 -1t-77 -3q-43 -2 -90 -5q0 -47 -1 -95q-1 -42 -1 -90v-93v-316q0 -71 1.5 -141t3.5 -130t5 -105t6 -66q-7 -4 -20 -6t-29 -3.5t-33 -2t-32 -0.5q-34 0 -62.5 2.5t-48.5 7.5
q0 65 3 181.5t3 295.5v264q0 45 -0.5 82t-1 70.5t-1 66.5t-1.5 70q-87 -7 -169 -15q-35 -3 -71.5 -6.5t-71.5 -7.5t-66.5 -8t-55.5 -8q-2 13 -4 30q-2 14 -3 33.5t-1 43.5t1.5 52t4.5 48q8 1 19 2q10 1 23.5 2t33.5 2q38 2 96 4.5t125.5 5t140 4.5t139 4.5t122 4t89.5 2.5
q131 5 203 8.5t96 3.5q5 -15 7 -37t2 -47z" />
    <glyph glyph-name="u" unicode="u" horiz-adv-x="1614"
d="M1450 1214q0 -24 -0.5 -43t-1 -42.5t-1.5 -56.5t-3 -85q-1 -36 -2 -76.5t-2.5 -81.5t-2.5 -82t-3 -79q-9 -188 -52.5 -320.5t-121.5 -216t-190 -122t-259 -38.5q-264 0 -416.5 160t-187.5 467q-8 66 -13 128.5t-9 117.5t-6.5 99.5t-4.5 74.5q-1 23 -3 53t-3.5 58t-2.5 50
t-1 29q28 8 54 11.5t58 3.5q44 0 71.5 -5t47.5 -10q-1 -4 -1.5 -26.5t-1 -54t-1 -68t-0.5 -70.5q0 -24 1 -58t2.5 -72.5t3.5 -78t5 -75.5q11 -113 33 -211t68 -170t123.5 -113t199.5 -41q95 0 162.5 22.5t113 61t72.5 89.5t40.5 108.5t17.5 118.5t4 118q0 56 -1.5 133.5
t-4.5 159.5q-3 80 -8.5 136t-12.5 91q56 13 123 13q28 0 63 -1.5t54 -5.5z" />
    <glyph glyph-name="v" unicode="v" horiz-adv-x="1221"
d="M1196 1161q-15 -25 -37.5 -66t-46.5 -87.5t-47 -93.5t-41 -83q-61 -124 -123 -257t-133 -287q-19 -40 -39.5 -86t-39 -89t-34 -79t-24.5 -56l-45 -18q-31 62 -62.5 135t-74.5 170q-37 82 -70.5 155t-66.5 144.5t-68 143.5t-76 153q-12 23 -28.5 56t-36.5 71.5t-42.5 80
t-46.5 81.5q42 35 97 60.5t112 37.5q27 -59 40 -88t19.5 -43t9.5 -21t10 -22t21 -46.5l42 -94.5q21 -46 46 -103t50 -117t49.5 -118.5t44.5 -107t34 -83t19 -47.5q6 15 22.5 54t41 95.5t56 126t67.5 146.5q35 75 62.5 136.5t51 116.5t45.5 107.5t47 110.5q25 -4 52.5 -13
t54 -21t50 -25.5t38.5 -28.5z" />
    <glyph glyph-name="w" unicode="w" horiz-adv-x="1901"
d="M1860 1159q-14 -26 -39.5 -77t-53.5 -117q-19 -47 -34 -81t-28 -62t-25 -53t-26 -55.5t-30.5 -70t-38.5 -94.5q-46 -116 -91.5 -223.5t-76.5 -194.5q-12 -32 -20 -53t-14 -37t-11 -29.5t-10 -31.5l-53 -21q-39 98 -76 190q-16 39 -32.5 80.5t-33 81t-32 75t-27.5 63.5
q-15 33 -35 79t-42 96t-45 100.5t-44 92.5q-14 -32 -37.5 -82.5t-58.5 -128.5q-60 -129 -100.5 -223t-71.5 -166q-21 -49 -34 -82.5t-22 -58.5t-16.5 -45t-17.5 -43l-56 -21q-7 22 -20.5 57t-30.5 78.5t-37 93t-40.5 100t-40 98.5t-35.5 89q-35 86 -65 162.5t-61.5 156
t-69 167.5t-87.5 198q19 10 45.5 21t56.5 21.5t61.5 19.5t61.5 14q5 -20 18.5 -59t31.5 -88.5t39 -105.5t41.5 -110.5t39 -103t31.5 -84.5q7 -18 21 -55.5t29 -77.5l28.5 -76t19.5 -51q14 23 31.5 58.5t37.5 77t40.5 86.5t40.5 87q39 84 70 153.5t56.5 128t46 106.5t38.5 90
l57 18q12 -31 21.5 -56t23 -58.5t34 -82t54.5 -125.5q25 -55 51.5 -118t53 -127t52.5 -125.5t50 -112.5q15 33 29.5 67.5t28 67.5t26 64t23.5 57q20 48 36 85t32 75t34 82.5t41 107.5q26 72 41.5 118.5t27.5 80.5q72 -12 125.5 -34t92.5 -44z" />
    <glyph glyph-name="x" unicode="x" horiz-adv-x="1278"
d="M1255 74q-12 -15 -31.5 -34t-42 -38t-45.5 -36t-42 -27q-31 40 -68 86t-77 95t-81 98.5t-80 96.5q-18 23 -38 48t-39.5 48t-36 41.5t-25.5 28.5q-13 -14 -31 -37q-16 -20 -39 -49t-55 -71q-43 -57 -82 -111t-73.5 -101.5t-63 -88t-49.5 -70.5q-45 17 -91 50t-83 73
q21 24 52.5 62.5t69 84.5t77.5 96t77 95q35 43 56.5 69t38 47t32 42.5t39.5 54.5q-15 18 -47 55.5t-72.5 84.5t-85.5 99.5t-87 100.5l-77 88t-55 61q15 21 34 41t40 37.5t43 32t43 24.5q18 -21 42.5 -52.5t53.5 -68t60.5 -76.5t62.5 -79q40 -50 69 -85t49 -59t33 -39t21 -24
q31 38 61.5 79t73.5 101q37 51 66.5 91t53.5 73.5t44 62.5t39 58q25 -10 50.5 -25t49.5 -31.5t44 -33t34 -29.5q-24 -27 -50.5 -59t-57.5 -70t-67.5 -84t-80.5 -100q-15 -19 -38 -48.5t-45 -57.5q-26 -33 -52 -68q5 -6 14.5 -18t26 -32.5t41.5 -50.5t60 -71q32 -38 58.5 -69
t51 -59.5t49 -55.5t51.5 -56.5t58 -63.5t69 -77z" />
    <glyph glyph-name="y" unicode="y" horiz-adv-x="1196"
d="M1165 1069q-10 -10 -23 -19t-32 -24t-46.5 -39t-66.5 -65q-60 -62 -113.5 -124.5t-94 -130t-64 -141.5t-23.5 -159v-117q0 -31 1 -67t3.5 -71t5 -66t5.5 -52q-8 -2 -21 -3t-28 -1.5t-31 -1t-29 -0.5q-35 0 -64 1t-52 7q2 46 5 94q2 42 3.5 93t1.5 100v96
q0 73 -23.5 144.5t-61 137t-82.5 122.5t-89 102q-48 49 -105.5 95t-111.5 81q8 26 22.5 52.5t32 51t36.5 44.5t36 32q32 -24 58.5 -45t51 -42.5t48.5 -45.5t51 -53q55 -60 95.5 -113t69 -102t47.5 -94t31 -89q12 48 38 102.5t64 113t86.5 119.5t104.5 122q18 20 33.5 35.5
t30 29.5t29 27.5t32.5 28.5q40 -25 79 -69t60 -97z" />
    <glyph glyph-name="z" unicode="z" horiz-adv-x="1286"
d="M1266 211q0 -25 -1.5 -58t-3.5 -65t-5 -59t-5 -41q-18 2 -45 4t-58.5 3.5t-66 2t-67.5 0.5q-214 0 -436 -3t-426 -9l-29 28q25 35 54 79t58.5 91.5t58.5 94.5t54 86q11 18 25.5 42t37 61.5t54.5 91.5t78 132q32 54 64.5 110.5t58.5 103.5q31 55 59 106q-45 0 -84 1
q-33 1 -65 1h-46q-50 0 -105 -1.5t-109 -4.5t-104 -7t-91 -10q0 15 1 43.5t3.5 62t6 67t7.5 57.5q48 0 116.5 -1.5t148.5 -3t166.5 -3t170.5 -1.5q45 0 83.5 1t74 2t69 3t68.5 3l27 -29q-18 -26 -50 -79t-75.5 -125.5t-95.5 -160.5t-109 -186q-51 -88 -96.5 -171t-79.5 -147
q-40 -75 -74 -141q24 0 73 0.5t112 2t134 3.5t138 5q57 2 102 3t83.5 3t72.5 5t68 7z" />
    <glyph glyph-name="braceleft" unicode="{" horiz-adv-x="819"
d="M715 -59q2 -15 3.5 -39.5t2 -51t0.5 -50.5v-36q-9 -1 -23 -1.5t-30 -1t-31.5 -1t-26.5 -0.5q-40 0 -89.5 9.5t-92 37.5t-71.5 78.5t-29 132.5q0 55 1.5 118t3.5 123.5t3.5 112.5t1.5 83q0 21 -8 37t-22 26.5t-32.5 17t-39.5 9.5q-17 -19 -41.5 -30t-53.5 -11t-51.5 11
t-38 29.5t-23.5 44t-8 54.5t8 54.5t23.5 44.5t38 29.5t51.5 10.5t52 -10t38 -27q54 8 79.5 34.5t25.5 64.5q0 24 -1.5 65.5t-3 91.5t-4 104t-4 104t-3 91t-1.5 64q0 55 15 92.5t39.5 62t56.5 38t66 20t67 7.5t60 1q21 0 44 -1t40 -3q3 -11 4.5 -34.5t1.5 -43.5
q0 -29 -1 -51.5t-3 -44.5q-37 0 -71.5 -1t-61 -9t-42.5 -26t-16 -52q0 -45 2 -99.5t4 -112t4 -113t2 -101.5q0 -103 -46 -160t-138 -88q32 -3 65 -15.5t60 -38t44 -65.5t17 -98q0 -28 -1 -75.5t-2 -101l-2 -107t-1 -95.5q0 -40 17.5 -61.5t45 -31.5t61 -12t65.5 -3z" />
    <glyph glyph-name="bar" unicode="|" horiz-adv-x="922"
d="M551 -401q-14 -4 -41.5 -6.5t-58.5 -2.5q-25 0 -46.5 1t-33.5 3q0 9 1.5 54t3 110.5t2.5 141.5t1 147v1280v25t-0.5 52t-1 67t-1 68.5t-1.5 58t-2 34.5q17 2 38.5 4t41.5 2q24 0 52 -1t44 -3q0 -7 -1 -41.5t-2 -83.5t-2 -107t-1 -114v-1204q0 -46 0.5 -98t1 -103.5
t1.5 -99t2 -86t2 -64.5t1 -34z" />
    <glyph glyph-name="braceright" unicode="}" horiz-adv-x="819"
d="M104 1403q-2 15 -3.5 39.5t-2 51t-0.5 50v35.5q9 1 23 1.5t30 1t31.5 1t26.5 0.5q41 0 90 -9.5t92 -37.5t72 -78.5t29 -132.5q0 -54 -1.5 -117.5t-4 -123.5t-4 -111.5t-1.5 -83.5q0 -43 30.5 -63.5t72.5 -26.5q17 18 41 29.5t53 11.5t51.5 -11t38 -30t23.5 -44.5t8 -54.5
t-8 -54.5t-23.5 -44t-38 -29.5t-51.5 -11t-52 10t-38 27q-54 -8 -79.5 -34t-25.5 -64q0 -24 1.5 -65.5t3 -91.5t4 -104t4 -104t3 -90.5t1.5 -64.5q0 -55 -15 -93t-39.5 -62.5t-56.5 -38t-65.5 -20t-66.5 -7.5t-60 -1q-22 0 -44.5 1t-39.5 3q-3 11 -5 34.5t-2 43.5
q0 29 1.5 52t3.5 45q37 0 71 1t60.5 9t42.5 26t16 52q0 44 -2 99t-4 112t-4 113t-2 102q0 103 46 159.5t138 87.5q-32 3 -65 16t-60 38.5t-44 65.5t-17 97q0 29 1 76t2 100.5t2 107.5t1 95t-17.5 62.5t-45 31.5t-61 12t-65.5 3z" />
    <glyph glyph-name="asciitilde" unicode="~" horiz-adv-x="1038"
d="M991 788q-6 -54 -25.5 -106t-51 -92.5t-73.5 -65t-93 -24.5q-26 0 -62 8.5t-77 22t-83.5 28.5t-80.5 28.5t-69.5 22t-49.5 8.5q-32 0 -52 -27t-31 -60q-13 -39 -18 -87q-24 1 -52.5 6.5t-54.5 13.5t-46.5 18.5t-28.5 21.5q9 60 27.5 118t47.5 103.5t69.5 73.5t95.5 28
q31 0 70 -8.5t81 -22t85 -28.5t81.5 -28.5t70 -22t50.5 -8.5q37 0 58 23.5t32 51.5q12 33 16 74q13 0 37 -6t49.5 -16t47.5 -22.5t30 -25.5z" />
    <glyph glyph-name="uni00A0" unicode="&#xa0;" horiz-adv-x="639"
 />
    <glyph glyph-name="uni00AD" unicode="&#xad;" horiz-adv-x="594"
d="M152 299q-9 13 -20.5 33t-22.5 43t-19.5 46t-13.5 42q37 17 90 42.5t107 52t100.5 51.5t70.5 40q8 -8 18 -24.5t19.5 -35.5t17 -36.5t9.5 -28.5q-26 -24 -56 -48t-71 -51t-96.5 -57.5t-132.5 -68.5zM152 666q-9 13 -20.5 33t-22.5 42.5t-19.5 45.5t-13.5 42
q37 17 90 42.5t107 52.5t100.5 52t70.5 40q8 -9 18 -25.5t19.5 -35t17 -36t9.5 -28.5q-26 -24 -56 -48t-71 -51t-96.5 -57.5t-132.5 -68.5z" />
    <glyph glyph-name="quoteleft" unicode="&#x2018;"
d="M53 1159q15 22 41 57q22 30 56 78.5t83 120.5l117 170q38 -12 65 -25t58 -34q-27 -61 -45 -103.5t-30 -71t-18.5 -45.5t-10.5 -26q-14 -35 -30 -76.5t-30 -77.5q-16 -42 -30 -84q-28 0 -63.5 12t-68.5 30t-59 38.5t-35 36.5z" />
    <glyph glyph-name="quoteright" unicode="&#x2019;"
d="M475 1466q-15 -21 -41 -56q-22 -30 -55.5 -79t-83.5 -121l-117 -170q-38 13 -65 25.5t-58 34.5q27 61 45.5 103.5t30.5 71t18.5 45.5t10.5 26q15 35 30.5 76.5t29.5 77.5q16 42 30 83q29 0 64 -12t68 -30t58.5 -38.5t34.5 -36.5z" />
    <glyph glyph-name="quotedblleft" unicode="&#x201c;" horiz-adv-x="934"
d="M53 1159q15 22 41 57q22 30 56 78.5t83 120.5l117 170q38 -12 65 -25t58 -34q-27 -61 -45 -103.5t-30 -71t-18.5 -45.5t-10.5 -26q-14 -35 -30 -76.5t-30 -77.5q-16 -42 -30 -84q-28 0 -63.5 12t-68.5 30t-59 38.5t-35 36.5zM457 1159q15 22 41 57q22 30 56 78.5
t83 120.5l117 170q38 -12 65 -25t58 -34q-27 -61 -45.5 -103.5t-30.5 -71t-18.5 -45.5t-10.5 -26q-14 -35 -30 -76.5t-30 -77.5q-16 -42 -30 -84q-28 0 -63.5 12t-68.5 30t-58.5 38.5t-34.5 36.5z" />
    <glyph glyph-name="quotedblright" unicode="&#x201d;" horiz-adv-x="934"
d="M879 1470q-15 -21 -41 -56q-22 -30 -56 -79t-84 -121l-116 -170q-39 13 -65.5 25.5t-57.5 34.5q27 61 45 103.5t30 71t18.5 45.5t10.5 26q15 35 30.5 76.5t29.5 77.5q16 42 30 83q29 0 64 -12t68 -30t59 -38.5t35 -36.5zM475 1470q-15 -21 -41 -56q-22 -30 -55.5 -79
t-83.5 -121l-117 -170q-38 13 -65 25.5t-58 34.5q27 61 45.5 103.5t30.5 71t18.5 45.5t10.5 26q15 35 30.5 76.5t29.5 77.5q16 42 30 83q29 0 64 -12t68 -30t58.5 -38.5t34.5 -36.5z" />
    <glyph glyph-name="ordfeminine" horiz-adv-x="778"
d="M762 993q-5 -12 -17 -31t-26 -40t-29 -40.5t-26 -31.5q-21 5 -44 15t-44.5 25t-39.5 34t-30 41q-18 -22 -37.5 -43t-45.5 -37t-60.5 -25.5t-81.5 -9.5q-52 0 -95.5 13.5t-75 40.5t-48.5 67t-17 92q0 99 68.5 152t212.5 53h155v37q0 32 -8.5 52.5t-23.5 32.5t-35.5 16.5
t-44.5 4.5q-47 0 -88 -5t-71 -12q-35 -8 -65 -18q-5 13 -10.5 32t-10 38t-8 35.5t-5.5 23.5q21 9 55.5 17t75 14t84 9t82.5 3q68 0 116 -12.5t78.5 -41t45 -75.5t14.5 -116v-230q0 -18 11 -31.5t26.5 -23t33 -16t29.5 -9.5zM217 1077q0 -42 24.5 -67t80.5 -25q48 0 79 16
t49 40t24.5 51t6.5 49v22q-15 0 -30 1q-13 1 -26 1h-24q-45 0 -79.5 -3t-57.5 -12.5t-35 -26.5t-12 -46z" />
    <glyph glyph-name="ordmasculine" horiz-adv-x="850"
d="M799 1206q0 -83 -23 -149t-70.5 -112t-119 -70.5t-168.5 -24.5q-88 0 -157 24.5t-116 69.5t-71.5 109t-24.5 143q0 84 27 149t76.5 109.5t119 68t154.5 23.5q87 0 156.5 -24.5t117.5 -69.5t73.5 -107.5t25.5 -138.5zM625 1202q0 48 -14.5 85t-41 63t-63 39.5t-80.5 13.5
q-42 0 -79 -12.5t-64.5 -38t-43.5 -64.5t-16 -92q0 -51 15 -89t41 -63.5t61.5 -38t77.5 -12.5q207 0 207 209z" />
    <glyph glyph-name="fraction" horiz-adv-x="1204"
d="M1225 1477q-24 -28 -46 -56.5t-45.5 -60t-50.5 -68.5t-61 -84l-660 -919q-12 -17 -30 -43t-39 -56t-43.5 -63t-43.5 -64t-39 -58t-30 -46q-21 9 -43.5 21t-44 24.5t-40.5 25.5t-34 25q28 37 56.5 73t61 76t69 87.5t80.5 107.5l639 889q18 26 45 66.5l55 82.5t52 80t36 60
q46 -19 88.5 -48t67.5 -52z" />
    <glyph glyph-name="foursuperior" horiz-adv-x="774"
d="M723 870q-25 0 -51 1q-22 1 -46.5 1h-45.5v-63q0 -29 0.5 -57t2.5 -50q2 -26 3 -49q-7 -1 -23 -2.5t-33.5 -2t-33.5 -1t-23 -0.5q-15 0 -32 1t-29 3q1 15 2 41q1 22 1.5 55.5t0.5 81.5v37q-54 0 -122 -1.5t-128 -3.5q-70 -3 -143 -5q-1 9 -2 23.5t-1.5 31.5t-1 34.5
t-0.5 31.5l420 557q10 2 24 4t30 2q8 0 21.5 -0.5t28 -1t27 -1t17.5 -1.5q-1 -42 -3 -90q-2 -41 -2.5 -93t-0.5 -106v-241q16 0 40.5 0.5t48.5 2.5q28 2 58 3q0 -14 -0.5 -35l-1 -42t-1 -39t-1.5 -26zM416 1311l-226 -307l226 2v305z" />
    <glyph glyph-name="A.alt" horiz-adv-x="1536"
d="M1012 653q-53 107 -100 207t-95 191q-7 15 -12.5 25.5t-10 19t-9.5 16.5t-11 18q-7 -13 -12.5 -23t-10.5 -19.5t-10.5 -21t-13.5 -26.5l-52 -104t-50 -99l-50 -98t-51 -100q-9 -18 -26.5 -52.5t-40 -78.5t-47.5 -93.5t-48.5 -97.5t-43 -89.5t-31.5 -69.5
q-11 -25 -21.5 -46.5t-20 -43.5t-19 -45t-17.5 -50q-25 7 -53 17.5t-55.5 24t-53.5 30t-47 35.5q29 46 53.5 85t48.5 81q42 72 74 129t61.5 111.5t60 114t69.5 136.5q38 75 69 137t59.5 121t58 120t64.5 134q39 81 71.5 153.5t55.5 131.5l60 22q12 -28 27 -61.5t31.5 -70.5
t34.5 -76l36 -78q37 -82 68 -148t61.5 -128.5t63 -128t71.5 -146.5q32 -66 59 -122.5t52.5 -110t52.5 -106t59 -110.5q28 -51 56 -95.5t57 -92.5q-40 -35 -97 -65t-120 -44q-12 33 -24.5 62.5t-25 58t-26.5 58t-29 61.5q-9 21 -25 56t-34.5 77t-39 87t-39.5 87t-35.5 77
t-26.5 56zM897 467q0 -26 -19 -52t-46 -46.5t-55.5 -33.5t-47.5 -13q-28 0 -50.5 12.5t-38.5 33t-25 46.5t-9 53q0 24 17 51.5t43 51t57 38.5t59 15q29 0 51 -16.5t36 -40.5t21 -51t7 -48z" />
    <glyph glyph-name="A.alt1" horiz-adv-x="1536"
d="M1534 82q-40 -35 -97 -65t-120 -44q-25 66 -49.5 123t-55.5 121q-29 63 -59.5 129.5t-65.5 128.5q-33 -34 -68 -77t-71 -92t-71 -103.5t-68 -112.5q-13 0 -27 -1q-12 -1 -25.5 -2t-25.5 -3q-31 48 -70.5 101.5t-81 104.5t-80.5 95t-71 72q-15 -25 -33.5 -59.5t-38 -74.5
t-39.5 -82.5t-38 -84.5q-11 -25 -20 -46.5t-17.5 -43t-16.5 -44t-16 -49.5q-25 7 -53 17.5t-55.5 24t-53.5 30t-47 35.5q29 46 53.5 85t48.5 81q42 72 74 129t61.5 111.5t60 114t69.5 136.5q38 75 69 137t59.5 121t58 120t64.5 134q39 81 71.5 153.5t55.5 131.5l60 22
q12 -28 27 -61.5t31.5 -70.5t34.5 -76l36 -78q37 -82 68 -148t61.5 -128.5t63 -128t71.5 -146.5q32 -66 59 -122.5t52.5 -110t52.5 -106t59 -110.5q28 -51 56 -95.5t57 -92.5zM1008 655q-47 110 -95 207.5t-96 188.5q-15 31 -26 50.5t-23 41.5q-7 -13 -12.5 -23t-11 -19.5
t-10.5 -21t-13 -26.5q-54 -109 -103 -210.5t-96 -207.5q56 -58 117 -124t125 -155q24 39 57 82t67.5 83.5t66.5 75.5t53 58z" />
    <glyph glyph-name="A.alt2" horiz-adv-x="1536"
d="M1534 82q-20 -18 -46 -34.5t-56 -30.5t-61.5 -25.5t-63.5 -18.5q-25 66 -48 123t-51 123q-13 32 -25 61t-24 56.5t-24.5 55.5t-26.5 59q-39 4 -75 6t-81.5 3t-107 1h-152.5q-40 0 -79 -0.5t-74 -2t-64.5 -4t-50.5 -5.5q-15 -25 -31 -58.5t-32.5 -71.5t-34 -79.5
t-35.5 -83.5q-11 -25 -20 -46.5t-17 -43t-16 -44t-17 -49.5q-25 7 -54.5 17.5t-59.5 24t-58 30t-49 35.5q29 46 57 91.5t49 88.5q35 68 65 129t60 126t63 138.5t73 167.5q17 39 31 73.5t28 68.5t29 71.5t32.5 83.5t39 103.5t48.5 132.5q-28 -1 -74.5 -4.5t-99.5 -8.5
t-106 -11t-94 -13q-2 10 -4 25q-2 13 -3 31.5t-1 41.5q0 25 1.5 53t4.5 48q35 1 68 2q28 1 57.5 2t48.5 2q57 3 133 6.5t155.5 7t153.5 6.5t125 4q65 2 132 4.5t124 4.5t97.5 3t52.5 1q5 -16 6.5 -38t1.5 -46q0 -31 -2 -61.5t-4 -47.5q-19 1 -51.5 1.5t-67.5 0.5h-67h-50
h-32.5h-39.5t-37.5 -0.5t-25.5 -1.5q18 -50 33 -91t30 -79t30.5 -77t34.5 -86t42.5 -106t54.5 -136q34 -85 62.5 -153.5t54.5 -128.5t51.5 -115.5t52.5 -114.5q25 -53 53.5 -101t57.5 -96zM1032 655q-54 156 -106.5 296.5t-106.5 267.5q-9 21 -15.5 35.5t-12 27t-10.5 24.5
t-11 27q-63 -177 -131.5 -347.5t-134.5 -332.5q14 -2 36.5 -4t50 -3.5t59.5 -2t65 -0.5q136 0 216 6t101 6z" />
    <glyph glyph-name="C.alt" horiz-adv-x="1044"
d="M961 172q-11 -60 -29.5 -118t-38.5 -103q-166 47 -309 121.5t-248 176.5t-165 231t-60 286q0 109 33.5 208t91 185.5t134 159t163 127.5t178 91.5t178.5 51.5q23 -45 36 -96t21 -111q-72 -14 -145.5 -40t-141 -64.5t-126 -89t-102 -113t-68.5 -137t-25 -160.5
q0 -110 43.5 -203.5t124.5 -170t196 -135t259 -97.5z" />
    <glyph glyph-name="CO.liga" horiz-adv-x="2081"
d="M1759 813q0 87 -30 165t-84 137t-128.5 93.5t-162.5 34.5q-87 0 -165.5 -28.5t-138.5 -84t-95 -135.5t-35 -184q0 -105 35 -185t95 -134t141 -81.5t173 -27.5q95 0 169 34t124 92.5t76 137t26 166.5zM711 803q0 139 48.5 254.5t134.5 199t204 129.5t258 46q128 0 240 -48
t195 -131.5t131 -197t48 -244.5q0 -132 -45.5 -245t-126 -196t-191 -130t-241.5 -47q-105 0 -194.5 23t-162 64t-128.5 97.5t-93.5 124.5t-57 144.5t-19.5 156.5zM995 2q-5 -24 -15 -52t-22 -56.5t-26 -55t-27 -47.5q-175 61 -319 155.5t-247 221.5t-159.5 286t-56.5 349
q0 142 33 266t89.5 229.5t133 190.5t163 149.5t178.5 106.5t181 61q23 -45 39 -94.5t29 -112.5q-72 -18 -146.5 -52t-143.5 -84.5t-130 -117t-106 -149t-71 -180t-26 -209.5q0 -144 47.5 -268.5t133.5 -226.5t205 -180.5t263 -129.5z" />
    <glyph glyph-name="E.alt" horiz-adv-x="983"
d="M928 109q-6 -19 -21 -46.5t-33 -56t-37.5 -54.5t-35.5 -42q-53 31 -99.5 60.5t-91 60.5t-90 63.5t-96.5 69.5q-47 35 -100 76t-100 78t-81 65t-43 37v16l170 158q23 20 47.5 45.5t47 50t41 46.5t28.5 34q-35 48 -82.5 99.5t-95.5 107.5q-27 30 -52.5 60t-46.5 55.5
t-36.5 45t-22.5 29.5v17q21 18 56.5 45.5t77.5 58t86.5 61.5t84.5 56q33 21 72 43.5t79.5 44.5t79.5 43t71.5 38t56 28.5t33.5 15.5q15 -21 28.5 -47t24.5 -54t20 -56t15 -54q-23 -8 -47.5 -17t-47.5 -18q-42 -17 -83.5 -32.5t-73.5 -32.5q-39 -19 -70 -34.5t-59.5 -32.5
t-58 -37.5t-66.5 -49.5q20 -35 55.5 -79.5t77.5 -92.5q31 -33 63 -67t59 -63t47 -50t26 -27q-14 -14 -28 -28.5t-28 -28.5q-23 -25 -48 -52.5t-48 -50.5q-45 -48 -86 -94t-70 -88q31 -25 58 -45.5t54 -39t55.5 -36.5t62.5 -39q43 -26 93.5 -54.5t98.5 -53.5
q26 -14 53.5 -27.5t55.5 -27.5z" />
    <glyph glyph-name="G.alt" horiz-adv-x="1251"
d="M893 -49q-166 47 -309 121.5t-248 176.5t-165 231t-60 286q0 109 33.5 208t91 185.5t134 159t163 127.5t178 91.5t178.5 51.5q23 -45 36 -96t21 -111q-72 -14 -145.5 -40t-141 -64.5t-126 -89t-102 -113t-68.5 -137t-25 -160.5q0 -97 34 -183t98 -159t155.5 -131.5
t205.5 -101.5l6.5 39t6.5 40.5t6 36.5t4 29q4 26 9 64.5t10 78.5t9.5 75.5t6.5 56.5q22 -1 49.5 -3.5t57 -6.5t59.5 -10.5t57 -14.5q-5 -27 -11.5 -60.5t-13.5 -67t-12.5 -65t-9.5 -55.5q-6 -37 -14.5 -88t-16.5 -102t-13.5 -93.5t-6.5 -62.5q-35 -8 -63.5 -18t-57.5 -25z
" />
    <glyph glyph-name="LL.liga" horiz-adv-x="1444"
d="M1169 92q0 -35 -2.5 -68t-7.5 -53q-9 1 -45 2.5t-87.5 3t-114.5 3.5t-127 3.5t-123.5 2.5t-104.5 2q-53 1 -113.5 3t-111.5 4q-60 3 -119 5q2 70 4 131.5t3 120.5t1.5 119.5t-0.5 128.5v448l-10 604q9 3 23.5 4.5t30 2.5t31.5 1.5t28 0.5q13 0 29 -0.5l32 -1t30 -1.5
t23 -2q-2 -14 -4 -45.5t-3.5 -72.5t-3.5 -87.5t-3 -90t-1.5 -80t-0.5 -58.5v-690q0 -34 0.5 -75t1.5 -77q1 -42 2 -85q37 -3 75 -7q32 -3 68.5 -5t65.5 -3q21 0 59.5 -0.5t86.5 -1t101.5 -1t105 -1t97 -0.5h78.5q3 -14 4.5 -37.5t1.5 -46.5zM1411 516q0 -10 -0.5 -24
t-2 -28.5t-2.5 -28t-3 -21.5q-10 2 -52 4t-98.5 3.5t-118.5 3t-112 1.5q-20 0 -45.5 0.5l-51 1t-48 1t-35.5 1.5q-16 2 -30 2t-28 2q2 51 3 92t2 80.5t1.5 80t0.5 89.5v328l-9 440q7 2 17.5 3.5t22.5 2t23.5 0.5h20.5h28h39t37 -0.5t23 -1.5q-1 -10 -2 -33t-2 -53t-2.5 -64
t-2 -66t-1 -58.5t-0.5 -42.5v-316q0 -27 0.5 -70t1 -88t1 -86.5t1.5 -66.5q23 -5 42 -6.5t50 -3.5q24 0 64.5 -0.5t87 -0.5t93 -0.5t81.5 -0.5q2 -5 3.5 -14.5t2 -20t0.5 -21.5v-20z" />
    <glyph glyph-name="LA.liga" horiz-adv-x="1753"
d="M1309 92q0 -35 -3 -68t-8 -53q-9 1 -52 2.5t-106.5 3t-139.5 3.5t-151.5 3.5t-142.5 2.5t-112 2q-53 1 -118.5 3t-124.5 4q-69 3 -138 5q2 70 4 131.5t3 120.5t1.5 119.5t-0.5 128.5v448l-10 604q9 3 23.5 4.5t30 2.5t31.5 1.5t28 0.5q13 0 29 -0.5l32 -1t30 -1.5t23 -2
q-2 -14 -4 -45.5t-3.5 -72.5t-3.5 -87.5t-3 -90t-1.5 -80t-0.5 -58.5v-690q0 -34 0.5 -75t1.5 -77q1 -42 2 -85q48 -3 94 -7q39 -3 81 -5t71 -3q22 0 67.5 -0.5t105 -1t126 -1t129.5 -1t116.5 -0.5h86.5q3 -14 4.5 -37.5t1.5 -46.5zM1769 506q-18 -13 -40.5 -25t-48.5 -22.5
t-53.5 -19t-55.5 -13.5q-29 66 -64 140t-77 147q-28 2 -56.5 3.5t-64.5 2.5t-83.5 1.5t-115.5 0.5q-60 0 -115 -1.5t-86 -6.5q-19 -30 -40 -65.5t-41 -73t-38.5 -75t-33.5 -71.5q-22 5 -48 12t-52 16.5t-50 21t-43 26.5q25 31 60 85t76 123t86.5 148.5t91 161t88.5 161
t79 148.5t63.5 123.5t41.5 85.5l47 16q14 -31 42.5 -88t67 -130t83 -158t91 -170.5t92 -167.5t84.5 -150t68.5 -117t44.5 -69zM1352 891q-25 48 -45.5 88t-40.5 79.5t-42 81.5t-50 95q-24 -48 -46.5 -91.5t-44 -85.5t-43 -83.5t-43.5 -83.5q14 -2 26.5 -3.5t28.5 -2.5
t38 -1.5t55 -0.5q52 0 87 1.5t58.5 3t37.5 2.5t24 1z" />
    <glyph glyph-name="LE.liga" horiz-adv-x="1661"
d="M784 438q2 24 3 59t2 74t1.5 80t0.5 76.5v63v40.5v242v80t-0.5 84.5t-1.5 83t-3 74.5q-1 24 -1.5 42t-1.5 35.5t-1.5 35.5t-1.5 42q21 -1 38 -1.5t33 -0.5h33h38q33 0 73 0.5t79.5 1.5t74.5 1.5t59 0.5q23 0 58.5 2t74.5 4t75.5 4t60.5 3q4 -16 7 -38.5t4.5 -46.5
t2.5 -48t0 -43q-18 0 -44.5 -0.5t-59.5 -1t-69.5 -1t-74.5 -0.5q-12 0 -34.5 -0.5t-48.5 -1.5t-51 -2t-42 -2q-19 -2 -38.5 -3t-41.5 -3q-1 -25 -2 -54.5t-2 -59.5t-1.5 -59.5t-0.5 -55.5v-25h190q80 0 130.5 1.5t87 3.5t67.5 4.5t72 5.5q2 -20 3 -41t1 -58
q0 -22 -0.5 -50.5t-5.5 -45.5q-66 -2 -147.5 3t-178.5 5q-29 0 -67 -1t-70 -1q-23 0 -41.5 -1t-40.5 -1v-96q0 -27 0.5 -58.5l1 -63t2 -61.5t2.5 -53q62 -11 118.5 -12.5t104.5 -3.5q42 -2 84 -3t79.5 -1h68h51.5q0 -15 -1.5 -38t-3.5 -48t-5 -50t-6 -44q-24 1 -58.5 2.5
t-77 3t-91.5 4t-101 4.5q-51 0 -99.5 3t-111.5 5h-51t-49 2q-14 2 -27 2h-27zM1169 92q0 -35 -2.5 -68t-7.5 -53q-9 1 -45 2.5t-87.5 3t-114.5 3.5t-127 3.5t-123.5 2.5t-104.5 2q-53 1 -113.5 3t-111.5 4q-60 3 -119 5q2 70 4 131.5t3 120.5t1.5 119.5t-0.5 128.5v448
l-10 604q9 3 23.5 4.5t30 2.5t31.5 1.5t28 0.5q13 0 29 -0.5l32 -1t30 -1.5t23 -2q-2 -14 -4 -45.5t-3.5 -72.5t-3.5 -87.5t-3 -90t-1.5 -80t-0.5 -58.5v-690q0 -34 0.5 -75t1.5 -77q1 -42 2 -85q37 -3 75 -7q32 -3 68.5 -5t65.5 -3q21 0 59.5 -0.5t86.5 -1t101.5 -1t105 -1
t97 -0.5h78.5q3 -14 4.5 -37.5t1.5 -46.5z" />
    <glyph glyph-name="LI.liga" horiz-adv-x="1200"
d="M1006 92q0 -35 -3 -68t-8 -53q-9 1 -38.5 2.5t-72.5 3t-95.5 3.5t-107 3.5t-108 2.5t-98.5 2q-53 1 -100.5 3t-83.5 4q-42 3 -78 5q2 70 4 131.5t3 120.5t1.5 119.5t-0.5 128.5v448l-10 604q9 3 23.5 4.5t30 2.5t31.5 1.5t28 0.5q13 0 29 -0.5l32 -1t30 -1.5t23 -2
q-2 -14 -4 -45.5t-3.5 -72.5t-3.5 -87.5t-3 -90t-1.5 -80t-0.5 -58.5v-690q0 -34 0.5 -75t1.5 -77q1 -42 2 -85q15 -3 34 -7q17 -3 40.5 -5t52.5 -3q32 -1 87.5 -1.5t118.5 -1t127 -1t113 -0.5q4 -14 5.5 -37.5t1.5 -46.5zM981 707v-48.5v-70.5t1 -83t3 -85
q-7 -1 -18.5 -2.5t-23.5 -2t-23.5 -1t-20.5 -0.5q-35 0 -67.5 1.5t-55.5 6.5q2 40 4 71t3.5 65.5t2 77.5t0.5 107v164q0 48 -1 102t-2.5 106t-2.5 98.5t-2 80.5q-1 24 -1.5 62.5t-1.5 77.5t-1.5 71t-1.5 43q17 3 50 4.5t71 1.5q29 0 57.5 -1.5t40.5 -4.5q0 -22 -1.5 -63.5
t-3.5 -96.5t-3.5 -119t-1.5 -132v-430z" />
    <glyph glyph-name="LO.liga" horiz-adv-x="1929"
d="M1618 993q0 76 -27.5 144t-75.5 119t-113.5 80.5t-141.5 29.5t-143 -25t-116.5 -72.5t-78.5 -117.5t-29 -160q0 -80 26 -148t75 -118t120 -78.5t162 -28.5q82 0 146 30t107.5 81t66 119t22.5 145zM684 983q0 123 41.5 227.5t116 181t177.5 119.5t226 43q134 0 242 -46
t184 -124t117 -180t41 -213q0 -120 -41 -223t-114.5 -179t-174 -119.5t-219.5 -43.5q-143 0 -254 46t-187 123.5t-115.5 178t-39.5 209.5zM1169 92q0 -35 -2.5 -68t-7.5 -53q-9 1 -45 2.5t-87.5 3t-114.5 3.5t-127 3.5t-123.5 2.5t-104.5 2q-53 1 -113.5 3t-111.5 4
q-60 3 -119 5q2 70 4 131.5t3 120.5t1.5 119.5t-0.5 128.5v448l-10 604q9 3 23.5 4.5t30 2.5t31.5 1.5t28 0.5q13 0 29 -0.5l32 -1t30 -1.5t23 -2q-2 -14 -4 -45.5t-3.5 -72.5t-3.5 -87.5t-3 -90t-1.5 -80t-0.5 -58.5v-690q0 -34 0.5 -75t1.5 -77q1 -42 2 -85q37 -3 75 -7
q32 -3 68.5 -5t65.5 -3q21 0 59.5 -0.5t86.5 -1t101.5 -1t105 -1t97 -0.5h78.5q3 -14 4.5 -37.5t1.5 -46.5z" />
    <glyph glyph-name="LU.liga" horiz-adv-x="1946"
d="M1006 92q0 -35 -3 -68t-8 -53q-9 1 -38.5 2.5t-72.5 3t-95.5 3.5t-107 3.5t-108 2.5t-98.5 2q-53 1 -100.5 3t-83.5 4q-42 3 -78 5q2 70 4 131.5t3 120.5t1.5 119.5t-0.5 128.5v448l-10 604q9 3 23.5 4.5t30 2.5t31.5 1.5t28 0.5q13 0 29 -0.5l32 -1t30 -1.5t23 -2
q-2 -14 -4 -45.5t-3.5 -72.5t-3.5 -87.5t-3 -90t-1.5 -80t-0.5 -58.5v-690q0 -34 0.5 -75t1.5 -77q1 -42 2 -85q15 -3 34 -7q17 -3 40.5 -5t52.5 -3q32 -1 87.5 -1.5t118.5 -1t127 -1t113 -0.5q4 -14 5.5 -37.5t1.5 -46.5zM1272 594q100 0 161.5 30.5t95 79t45 108.5
t11.5 118v102.5t-0.5 114.5t-1 106.5t-2.5 79.5q-1 28 -2.5 57.5t-4 57t-5 50t-4.5 36.5q13 3 29.5 5.5t34 4t34.5 2t29 0.5q20 0 47 -0.5t49 -3.5q0 -14 -1 -36.5t-1 -45.5q-2 -34 -2 -76.5v-95.5t-0.5 -107.5t-2 -104.5t-2.5 -91t-3 -67q-8 -135 -45.5 -230t-103.5 -154.5
t-158.5 -86.5t-211.5 -27q-219 0 -342 118t-145 345q-4 51 -8 93t-7.5 83.5t-6 87t-5.5 102.5q-2 44 -3.5 87t-2.5 81t-1.5 70t-0.5 53q22 5 49 6.5t45 1.5q13 0 30.5 -0.5t35 -1.5t32.5 -2.5t23 -3.5v-88q0 -35 -1 -81.5t-1 -119.5q0 -17 0.5 -57.5t2 -87.5t3 -91.5
t2.5 -70.5q9 -77 27.5 -141t54.5 -110.5t93 -72.5t141 -26z" />
    <glyph glyph-name="O.alt" horiz-adv-x="1810"
d="M1700 815q0 -119 -28.5 -227.5t-80 -201t-124 -167.5t-160.5 -128.5t-190 -82t-212 -28.5q-111 0 -213 25.5t-190 73.5t-160.5 117.5t-123.5 157t-79 192t-28 222.5q0 110 27 212t77 190.5t121.5 162t160.5 125.5t194 80.5t222 28.5q110 0 211 -26t188.5 -73.5t159 -115
t122 -151t78.5 -181t28 -205.5zM1479 815q0 118 -46.5 219t-125.5 175.5t-184 116.5t-222 42q-122 0 -226 -47.5t-179.5 -128.5t-118.5 -189.5t-43 -230.5q0 -130 42.5 -238.5t119 -186.5t183.5 -121.5t236 -43.5q121 0 224 50t178.5 136t118.5 201.5t43 245.5zM1053 768
q0 -26 -19 -52t-46 -46.5t-55.5 -33.5t-47.5 -13q-28 0 -50.5 12.5t-38.5 33t-25 46.5t-9 53q0 25 17 52.5t42.5 50.5t57 38t59.5 15q29 0 51 -16.5t36 -40.5t21 -51t7 -48z" />
    <glyph glyph-name="Q.alt" horiz-adv-x="1497"
d="M1384 958q0 -107 -27.5 -196t-75 -162t-111 -132t-136.5 -107t-151.5 -86t-155.5 -70q39 -15 96.5 -33t121.5 -34t128.5 -27t118.5 -11q29 0 58.5 4t52.5 11q14 5 26.5 8t26.5 6q0 -24 -2.5 -53.5t-7.5 -60.5t-12 -61t-15 -54q-9 -2 -18.5 -4.5t-20.5 -4.5q-34 -6 -88 -6
q-72 0 -139 12.5t-134.5 33t-138.5 45.5t-149.5 50t-168 47t-194.5 36q-31 4 -51.5 6t-33.5 3t-20.5 1h-12.5q0 11 1.5 34.5t4.5 52.5t8.5 58.5t13.5 50.5q8 0 27 -1.5t44.5 -4t56 -6.5t61.5 -8.5t60 -9.5t52 -11q26 5 55.5 15.5t55.5 21.5q15 6 30 12.5t29 14.5
q-120 18 -218.5 72.5t-169 135.5t-109.5 184t-39 220q0 131 49 247t134.5 202t200.5 136t246 50q132 0 248.5 -48t203.5 -132.5t138 -199t51 -247.5zM1174 954q0 89 -32.5 168t-89.5 139t-134 95t-166 35t-167.5 -29t-137 -85t-92 -138t-33.5 -187q0 -91 36.5 -170.5
t98.5 -138.5t143.5 -93t171.5 -34q87 0 160.5 36t127.5 96.5t84 139.5t30 166z" />
    <glyph glyph-name="R.alt" horiz-adv-x="1339"
d="M817 1077q0 68 -25.5 121.5t-71.5 90.5t-110 57t-141 20h-21.5t-21.5 -2v-47t-2 -47q-2 -42 -2 -83.5v-76.5v-352h8q68 0 137 19.5t124.5 59t90.5 99.5t35 141zM803 690q17 -23 43 -50t55 -56q49 -49 80 -81t57 -60t55 -58.5t74 -77.5q29 -28 51 -50t43.5 -42t44 -41.5
t50.5 -50.5q-37 -54 -89 -93.5t-106 -68.5q-35 48 -90 115t-121 145q-51 59 -86 99t-66.5 75t-66.5 73t-86 93q-8 8 -19 19.5t-22 17.5q-47 -17 -97 -28.5t-85 -16.5v-39q0 -87 1.5 -169.5t3 -150.5t2.5 -118t1 -72q-18 -5 -42.5 -7.5t-59.5 -2.5q-15 0 -33 0.5t-35 1.5
t-31 2.5t-20 3.5q2 48 2 93.5t2 88.5q1 37 2 75t2 73t1.5 64t0.5 48v631q0 38 -0.5 86t-1 98.5t-1.5 100t-2 90.5t-2.5 70t-2.5 39q20 2 50 3.5t61.5 2.5t59.5 1.5t44 0.5q138 0 253.5 -31t198.5 -90.5t129 -147t46 -200.5q0 -72 -21 -133.5t-55.5 -113t-79 -92t-92.5 -69.5
z" />
    <glyph glyph-name="R.alt1" horiz-adv-x="1317"
d="M836 786q104 0 166.5 -22.5t96 -69.5t44 -121t10.5 -176q0 -49 2 -109.5t4 -117t4 -100.5t2 -60q-24 -14 -59.5 -20t-77.5 -6q-14 0 -29.5 1t-27.5 3q-8 2 -14.5 3t-14.5 3q0 24 2 65t5 90t5 102t2 101q0 78 -5.5 126.5t-19 75.5t-36 36.5t-55.5 9.5q-78 0 -136 -3.5
t-105 -7.5t-89 -7.5t-88 -3.5v-183q0 -87 0.5 -151t1.5 -110t1.5 -77t0.5 -53q-17 -5 -40 -7.5t-58 -2.5q-15 0 -32 0.5t-33.5 1.5t-30.5 2.5t-23 3.5q2 22 2 43.5t2 44.5q2 38 3 83t1 83q0 50 0.5 107t1.5 127.5t1.5 158.5t0.5 199q0 53 -0.5 123.5t-1.5 145.5t-3 148.5
t-3.5 134.5t-3.5 102.5t-4 51.5q14 2 30 2.5t33 2.5q29 2 67.5 2h82.5q114 0 219 -27.5t186 -83t129.5 -138.5t48.5 -194q0 -58 -12.5 -109t-34 -93.5t-52 -75t-66.5 -54.5zM776 1079q0 71 -26.5 123t-73 85.5t-111 50t-139.5 16.5v-55.5t-2 -53.5q-2 -48 -2 -99.5v-96.5
v-267h12q5 0 11 -1t12 -1q57 0 114 17.5t102.5 54.5t74 93t28.5 134z" />
    <glyph glyph-name="S.alt" horiz-adv-x="877"
d="M543 807q46 -30 87.5 -64t72.5 -74.5t49 -89.5t18 -108q0 -57 -21 -114t-55.5 -111.5t-78.5 -105t-90.5 -95.5t-91.5 -83t-81 -66q-43 32 -84.5 76t-70.5 87q57 39 119.5 85t115 96t87 102.5t34.5 103.5q0 40 -16 72t-45 60.5t-70 55.5t-92 58q-46 29 -85.5 62t-69 73
t-46 88.5t-16.5 106.5q0 63 24 124.5t62 120t85.5 111.5t94.5 98t88.5 80t67.5 58q40 -26 78 -67t67 -85q-27 -21 -63.5 -49t-76 -60.5t-78 -69.5t-68.5 -77.5t-49 -84t-19 -89.5q0 -37 18 -66.5t48 -55.5t69.5 -50.5t81.5 -52.5z" />
    <glyph glyph-name="Y.alt" horiz-adv-x="1253"
d="M725 537q0 -95 3 -184t7.5 -161.5t9 -124.5t7.5 -73q-9 -2 -22.5 -3.5t-28.5 -2t-31 -0.5h-29q-35 0 -72.5 3t-60.5 9q2 51 4 100.5t4 100.5q2 43 3.5 89.5t2.5 94.5t1.5 94.5t0.5 89.5v105q-42 69 -83 139t-85 139q-37 59 -78 123.5t-84 129.5t-87 127.5t-87 117.5
q21 18 46 34t51 29.5t52 25t50 20.5q33 -47 70.5 -105.5t77 -121.5t78 -128t72.5 -124.5t62 -110.5t46 -86q18 35 45.5 86t62 110.5t72.5 124.5t77.5 128t77 121.5t70.5 105.5q21 -6 47 -18t53 -27t52.5 -31.5t46.5 -32.5q-43 -55 -87 -117.5t-87 -127.5t-84 -129.5
t-78 -123.5q-43 -69 -84.5 -139t-83.5 -139v-137z" />
    <glyph glyph-name="A.sup" horiz-adv-x="1217"
d="M1206 506q-18 -13 -40.5 -25t-48.5 -22.5t-54 -19t-55 -13.5q-29 66 -64.5 140t-77.5 147q-28 2 -56 3.5t-64 2.5t-83.5 1.5t-115.5 0.5q-60 0 -115 -1.5t-86 -6.5q-19 -30 -40 -65.5t-41.5 -73t-39 -75t-32.5 -71.5q-22 5 -48 12t-52 16.5t-50 21t-43 26.5q25 31 60 85
t76 123t86.5 148.5t91 161t88.5 161t79 148.5t63.5 123.5t41.5 85.5l47 16q14 -31 42.5 -88t66.5 -130t83 -158t91.5 -170.5t91.5 -167.5t84 -150t69 -117t45 -69zM788 891q-25 48 -45.5 88t-40.5 79.5t-41.5 81.5t-50.5 95q-24 -48 -46 -91.5t-44 -85.5t-43 -83.5
t-43 -83.5q14 -2 26.5 -3.5t28.5 -2.5t38 -1.5t55 -0.5q52 0 87 1.5t58.5 3t37 2.5t23.5 1zM1096 141q0 -20 -1.5 -41.5t-3.5 -39.5l-6 -42q-43 4 -86 7q-37 2 -79.5 4t-77.5 2q-69 0 -150 -2.5t-152 -5.5q-83 -4 -165 -9q-26 -2 -68 -5.5t-82 -6.5q-47 -4 -98 -8
q-1 20 -3 41q-2 18 -2.5 40t-0.5 42q0 15 1.5 31t3.5 30q3 16 5 31q15 0 46 -0.5t70.5 -1.5t83.5 -1.5t85 -0.5q32 0 67 0.5t71 2t71.5 3t68.5 2.5q77 4 152 8q100 6 157.5 8t86.5 2l3 -24q3 -24 3 -66z" />
    <glyph glyph-name="B.sup" horiz-adv-x="1102"
d="M981 143q0 -20 -1 -41.5t-3 -39.5l-4 -42q-38 4 -76 7q-32 2 -69 4t-68 2q-30 0 -63.5 -0.5t-68 -2t-68 -2.5t-64.5 -3q-72 -4 -144 -9q-23 -2 -59 -5.5t-71 -6.5q-40 -4 -85 -8q-1 21 -3 42q-2 18 -2.5 39.5t-0.5 41.5q0 15 1 31t3 30q2 16 4 31q13 0 40.5 -0.5t62 -1.5
t73 -1.5t74.5 -0.5q55 0 120 2.5t122 5.5q67 4 133 8q87 6 136.5 8t74.5 2l3 -24q3 -24 3 -66zM977 780q0 -96 -52.5 -162.5t-140 -107.5t-200.5 -59.5t-234 -18.5q-31 0 -72.5 1t-89.5 1q3 23 5 68t3.5 98.5t2 108t0.5 96.5v352q0 21 -0.5 52t-2 67.5t-3.5 76t-4 76.5
t-4 69t-5 54q18 2 48.5 3.5t62 2.5t59.5 2t41 1q108 0 200 -16.5t159.5 -51t106 -88t38.5 -127.5q0 -49 -17 -89.5t-47 -71t-70.5 -52t-86.5 -33.5q71 -8 127 -30t95 -54.5t60 -75t21 -92.5zM696 1251q0 75 -81 111.5t-228 36.5v-299h8q158 0 229.5 41t71.5 110zM774 780
q0 74 -76 118t-237 44h-78q0 -8 0.5 -33t1 -59t1.5 -72.5t2 -74t2.5 -64t2.5 -41.5q89 0 160 9.5t120 31t75 56t26 85.5z" />
    <glyph glyph-name="C.sup" horiz-adv-x="1327"
d="M1206 551q-85 -56 -193.5 -88.5t-250.5 -32.5q-141 0 -252 39t-187.5 111.5t-116.5 175.5t-40 231t40.5 233.5t117 180.5t186.5 116.5t248 41.5q71 0 137.5 -8.5t124 -22t102.5 -30t72 -32.5q-2 -19 -9 -42.5t-16 -48t-20 -47t-21 -40.5q-18 12 -54 27.5t-85 29
t-108.5 22.5t-124.5 9q-94 0 -165.5 -26.5t-119.5 -76.5t-72 -123t-24 -165q0 -84 22 -152.5t68 -117.5t117 -76t170 -27q110 0 198.5 25.5t175.5 79.5q26 -38 46 -76.5t34 -89.5zM1188 141q0 -20 -1.5 -41.5t-3.5 -39.5q-3 -21 -5 -42q-44 4 -87 7q-37 2 -79.5 4t-77.5 2
q-69 0 -150 -2.5t-152 -5.5q-83 -4 -165 -9q-26 -2 -68 -5.5t-82 -6.5q-47 -4 -98 -8q-1 20 -3 41q-2 18 -2.5 40t-0.5 42q0 15 1.5 31t3.5 30q3 16 5 31q15 0 46 -0.5t70.5 -1.5t83.5 -1.5t85 -0.5q32 0 67 0.5t71 2t71.5 3t68.5 2.5q77 4 152 8q100 6 157.5 8t86.5 2
l3 -24q3 -24 3 -66z" />
    <glyph glyph-name="D.sup" horiz-adv-x="1430"
d="M1262 1022q0 -102 -26 -186t-72 -149.5t-108 -114t-134 -80t-150 -47t-156 -15.5q-130 0 -230 7t-187 18q6 78 5 156.5t-1 138.5v483q0 38 -1 86.5t-3 95.5t-4 87.5t-5 62.5q35 2 69 3t69 3q60 5 130 5.5t136 0.5q133 0 254 -32.5t213 -100.5t146.5 -173t54.5 -249z
M1055 1020q0 96 -33 168t-93.5 120.5t-147.5 72.5t-195 24q-23 0 -51 -1t-54 -3t-48 -5t-34 -7q-2 -35 -3.5 -78t-2 -86t-0.5 -81.5v-64.5t0.5 -63.5t1 -81t1.5 -89.5t2 -88t2 -76.5t1 -55.5q12 -3 27.5 -5.5t37 -4.5t51 -3.5t71.5 -1.5q111 0 198 25t147 76t91 128t31 181z
M1282 141q0 -20 -1.5 -41.5t-3.5 -39.5q-3 -21 -5 -42q-44 4 -87 7q-37 2 -79.5 4t-77.5 2q-34 0 -80 -0.5t-97.5 -2t-106 -2.5t-106.5 -3q-121 -4 -253 -9q-26 -2 -68 -5.5t-82 -6.5q-47 -4 -98 -8q-1 20 -3 41q-2 18 -2.5 40t-0.5 42q0 15 1.5 31t3.5 30q3 16 5 31
q15 0 46 -0.5t70.5 -1.5t83.5 -1.5t85 -0.5q32 0 74.5 0.5t91 2t100 3t100.5 2.5q115 4 240 8q100 6 157.5 8t86.5 2l3 -24q3 -24 3 -66z" />
    <glyph glyph-name="E.sup" horiz-adv-x="1071"
d="M195 438q1 24 2.5 59t2 74t1 80t0.5 76.5v63v40.5v242v80t-0.5 84.5t-1 83t-2.5 74.5q-1 24 -1.5 42t-1.5 35.5t-2 35.5t-2 42q21 -1 38 -1.5t33 -0.5h33h38q33 0 73 0.5t79.5 1.5t74.5 1.5t59 0.5q23 0 58.5 2t74.5 4t75.5 4t60.5 3q4 -16 7 -38.5t4.5 -46.5t2.5 -48
t0 -43q-18 0 -44.5 -0.5t-59 -1t-69.5 -1t-75 -0.5q-11 0 -33.5 -0.5t-48.5 -1.5t-51.5 -2t-42.5 -2q-34 -3 -80 -6q-1 -25 -2 -54.5t-2 -59.5t-1.5 -59.5t-0.5 -55.5v-25h191q80 0 130 1.5t87 3.5t67.5 4.5t71.5 5.5q2 -20 3 -41t1 -58q0 -22 -0.5 -50.5t-5.5 -45.5
q-66 -2 -147.5 3t-178.5 5q-29 0 -67 -1t-70 -1q-23 0 -41.5 -1t-40.5 -1v-96q0 -27 0.5 -58.5l1 -63t2 -61.5t2.5 -53q62 -11 119 -12.5t105 -3.5q42 -2 83.5 -3t79 -1h68h51.5q0 -15 -1.5 -38t-3.5 -48t-5 -50t-6 -44q-24 1 -58.5 2.5t-77 3t-91.5 4t-101 4.5
q-50 0 -99 3.5t-112 4.5h-51t-49 2q-14 2 -26.5 2h-26.5zM920 141q0 -20 -1 -41.5t-3 -39.5q-2 -21 -5 -42q-35 4 -69 7q-29 2 -63 4t-62 2q-56 0 -116.5 -2.5t-112.5 -5.5q-61 -4 -119 -9q-21 -2 -54.5 -5.5t-65.5 -6.5q-38 -4 -79 -8q-1 20 -2 41q-1 18 -1.5 40t-0.5 42
q0 15 1 31t3 30q2 16 4 31q12 0 36.5 -0.5t56 -1.5t67 -1.5t67.5 -0.5q51 0 106.5 2.5t103.5 5.5q55 4 108 8q80 6 126 8t70 2q2 -10 3 -24q1 -12 1.5 -28.5t0.5 -37.5z" />
    <glyph glyph-name="F.sup" horiz-adv-x="1038"
d="M307 434q-35 0 -62 1t-50 3q1 24 2.5 59t2 74t1 80t0.5 76.5v63v40.5v242v80t-0.5 84.5t-1 83t-2.5 74.5q-1 24 -1.5 42t-1.5 35.5t-2 35.5t-2 42q21 -1 38 -1.5t33 -0.5h33h38q66 0 122.5 2t104.5 2q52 1 101 2.5t91.5 4t77 4t58.5 2.5q4 -16 7 -38.5t4.5 -46.5t2.5 -48
t0 -43q-18 0 -52 -0.5t-76 -1t-86.5 -1t-82.5 -0.5q-21 0 -48 -1t-54.5 -3t-54.5 -4.5t-50 -5.5q-1 -28 -2.5 -71t-2 -88t-1 -87.5t-0.5 -70.5v-25h191q57 0 97.5 1t73.5 2.5t65 4t73 4.5q2 -20 4 -39.5t2 -56.5q0 -23 -1.5 -50.5t-4.5 -45.5q-32 0 -62 1.5t-63 3t-70.5 2.5
t-85.5 1q-49 0 -107.5 -1t-111.5 -3v-96q0 -31 2.5 -106t5.5 -212q-3 -1 -13 -2t-23.5 -2t-28.5 -1.5t-27 -0.5zM920 141q0 -20 -1 -41.5t-3 -39.5q-2 -21 -5 -42q-35 4 -69 7q-29 2 -63 4t-62 2q-56 0 -116.5 -2.5t-112.5 -5.5q-61 -4 -119 -9q-21 -2 -54.5 -5.5
t-65.5 -6.5q-38 -4 -79 -8q-1 20 -2 41q-1 18 -1.5 40t-0.5 42q0 15 1 31t3 30q2 16 4 31q12 0 36.5 -0.5t56 -1.5t67 -1.5t67.5 -0.5q51 0 106.5 2.5t103.5 5.5q55 4 108 8q80 6 126 8t70 2q2 -10 3 -24q1 -12 1.5 -28.5t0.5 -37.5z" />
    <glyph glyph-name="G.sup" horiz-adv-x="1364"
d="M1186 559q-45 -31 -97.5 -55t-108.5 -40.5t-115 -25t-117 -8.5q-138 0 -246.5 40t-183 113t-113.5 176t-39 230q0 120 40.5 224t117 181t186.5 121t248 44q64 0 119.5 -6t105.5 -16.5t95 -25t87 -30.5q-6 -42 -23 -88.5t-42 -96.5q-36 20 -79.5 34.5t-89 25t-90.5 15.5
t-85 5q-91 0 -162 -27.5t-120 -78t-74 -123t-25 -162.5q0 -177 95 -274t282 -97q78 0 139 15t98 35v114q0 16 -1 43.5t-2.5 57.5t-3 57.5t-1.5 42.5q9 2 22 3.5t27.5 2.5t27.5 1.5t21 0.5q12 0 26.5 -0.5t29.5 -1t27.5 -1t19.5 -1.5q0 -18 -0.5 -42t-0.5 -49t-0.5 -48
t-0.5 -39v-62t0.5 -71.5t2 -66t3.5 -46.5zM1188 141q0 -20 -1.5 -41.5t-3.5 -39.5q-3 -21 -5 -42q-44 4 -87 7q-37 2 -79.5 4t-77.5 2q-69 0 -150 -2.5t-152 -5.5q-83 -4 -165 -9q-26 -2 -68 -5.5t-82 -6.5q-47 -4 -98 -8q-1 20 -3 41q-2 18 -2.5 40t-0.5 42q0 15 1.5 31
t3.5 30q3 16 5 31q15 0 46 -0.5t70.5 -1.5t83.5 -1.5t85 -0.5q32 0 67 0.5t71 2t71.5 3t68.5 2.5q77 4 152 8q100 6 157.5 8t86.5 2l3 -24q3 -24 3 -66z" />
    <glyph glyph-name="H.sup" horiz-adv-x="1501"
d="M1317 1556q0 -48 -7 -150t-7 -257v-397v-30.5t1 -53t3 -90.5t6 -144q-19 -5 -44.5 -6.5t-56.5 -1.5q-32 0 -61 1.5t-49 6.5q2 48 3.5 107.5t2.5 124.5t1.5 132t0.5 128q-43 0 -81.5 -1.5t-81 -3.5t-93 -4.5t-117.5 -5.5q-39 -2 -91.5 -3.5t-103.5 -3t-92 -3.5t-57 -6
v-188v-48.5v-70.5t1 -83t3 -85q-17 -5 -43 -5.5t-57 -0.5q-35 0 -60.5 1.5t-48.5 6.5q3 40 5 71t3.5 65.5t2 77.5t0.5 107v164v73t-0.5 85t-1.5 89t-2 86t-2 75.5t-3 56.5q0 29 -1 59t-3 56q-2 15 -2 30.5v30.5q17 3 47 4.5t68 1.5q15 0 30.5 -0.5t30 -1t26 -1.5t17.5 -3
q0 -22 -1.5 -52.5t-3.5 -73.5t-3.5 -101t-1.5 -135v-103q26 0 67 -1t83 -1q87 0 153.5 1t128.5 4t128 7.5t153 10.5v187.5t-2 142.5q-2 34 -2 63t-2 55q18 5 54.5 7t74.5 2q29 0 47 -1.5t41 -3.5zM1335 141q0 -20 -1.5 -41.5t-3.5 -39.5q-3 -21 -5 -42q-43 4 -86 7
q-37 2 -79.5 4t-78.5 2q-34 0 -80 -0.5t-97.5 -2t-106 -2.5t-106.5 -3q-121 -4 -253 -9q-26 -2 -68 -5.5t-82 -6.5q-47 -4 -98 -8q-1 20 -3 41q-2 18 -2.5 40t-0.5 42q0 15 2 31t4 30q3 16 5 31q14 0 45 -0.5t70.5 -1.5t84 -1.5t84.5 -0.5q32 0 74.5 0.5t91 2t100 3
t100.5 2.5q115 4 240 8q101 6 158 8t86 2l3 -24q3 -24 3 -66z" />
    <glyph glyph-name="I.sup" horiz-adv-x="588"
d="M393 707v-48.5v-70.5t1 -83t3 -85q-7 -1 -18.5 -2.5t-23.5 -2t-23.5 -1t-20.5 -0.5q-35 0 -67.5 1.5t-55.5 6.5q3 40 5 71t3.5 65.5t2 77.5t0.5 107v164q0 48 -1 102t-2.5 106t-3 98.5t-2.5 80.5q-1 24 -1.5 62.5t-1.5 77.5t-1.5 71t-1.5 43q17 3 50 4.5t71 1.5
q29 0 57.5 -1.5t40.5 -4.5q0 -22 -1.5 -63.5t-3.5 -96.5t-3.5 -119t-1.5 -132v-430zM444 133v-41.5t-1 -39.5q-1 -21 -1 -42q-14 1 -29 2q-13 1 -27 1.5t-26 0.5q-22 0 -47.5 -1t-48 -2.5t-39.5 -2.5t-22 -2q-8 -2 -20.5 -3.5t-23.5 -3.5q-13 -2 -26 -3q0 21 -1 42
q-1 18 -1 39.5v41.5v31t1 30q1 16 1 31q5 0 15 -0.5t23 -1.5t27 -1.5t27 -0.5q12 0 29 1.5t35.5 3t36 3t28.5 2.5q9 1 22 2l26 2t24.5 1.5t15.5 0.5q0 -10 1 -24q1 -12 1 -28.5v-37.5z" />
    <glyph glyph-name="J.sup" horiz-adv-x="698"
d="M461 956q0 -106 -6.5 -182t-22 -131.5t-40.5 -96t-62 -77.5q-42 -42 -79.5 -73t-60.5 -50q-14 12 -30.5 29t-33 35.5t-30.5 37.5t-24 37q11 11 32.5 25.5t42.5 36.5q29 28 49.5 52.5t34 53t21 63.5t11 82.5t4.5 111.5t1 149q0 17 -1.5 56t-4 88.5t-5.5 104t-6 103
t-6 84.5t-5 49q51 12 118 12q16 0 33.5 -0.5t33 -2t28 -2.5t18.5 -3q-2 -38 -2 -73.5t-2 -69.5q-1 -30 -2 -59.5t-2 -56t-1.5 -48.5t-0.5 -37v-248zM506 133v-41.5t-1 -39.5q-1 -21 -1 -42q-14 1 -29 2q-13 1 -27 1.5t-26 0.5q-22 0 -57.5 -1t-69.5 -2.5t-60.5 -2.5
t-31.5 -2q-8 -2 -20.5 -3.5t-23.5 -3.5q-13 -2 -26 -3q0 21 -1 42q-1 18 -1 39.5v41.5v31t1 30q1 16 1 31q5 0 15 -0.5t23 -1.5t27 -1.5t27 -0.5q12 0 39 1.5t57 3t56.5 3t38.5 2.5q8 1 21 2t26.5 2t25 1.5t15.5 0.5q0 -10 1 -24q1 -12 1 -28.5v-37.5z" />
    <glyph glyph-name="K.sup" horiz-adv-x="1176"
d="M1182 510q-9 -20 -26 -43t-37 -45.5t-40 -42t-35 -31.5q-29 29 -81 73t-109 93q-43 35 -79.5 64.5t-72 57.5t-73 57t-82.5 63q-22 17 -46.5 35.5t-47.5 35.5q-13 10 -26 19t-26 20h-10v-166q0 -10 0.5 -30.5t1 -46t1 -54.5t1.5 -56.5t2 -52t2 -40.5q-8 -1 -24 -2.5
t-34 -2t-35.5 -1t-29.5 -0.5q-26 0 -51 3t-35 3q2 22 3 64.5t2 96.5t1.5 115t0.5 119v109v84v129q0 38 -0.5 76.5t-1 75t-1 69.5t-1.5 59q0 22 -1.5 44.5t-1.5 43.5q-2 13 -2 25v24q8 4 30 5.5t54 1.5q21 0 42.5 -0.5t39.5 -1t31.5 -2t17.5 -3.5q-1 -21 -3.5 -56t-4 -81
t-3 -101t-1.5 -116v-213h4q10 11 19 22.5t20 22.5q17 19 34.5 40t31.5 38q72 91 133.5 165t118.5 146q20 24 36 44t30.5 38.5t29 37.5t31.5 40q15 -5 36 -20.5t41.5 -34.5t37 -38.5t22.5 -31.5q-33 -35 -59 -63.5t-51 -56t-51 -57t-58 -67.5q-34 -39 -63 -72t-55 -62.5
t-49 -57.5t-44 -57q25 -21 44 -36t37 -29t38 -28.5t47 -35.5q39 -31 72 -57.5t64.5 -50.5t64 -48.5t71.5 -52.5q22 -17 40.5 -31t36.5 -27.5t37.5 -27t43.5 -29.5zM1090 129q0 -20 -1.5 -41.5t-3.5 -39.5l-6 -42l-86 6q-37 2 -79.5 4t-77.5 2q-69 0 -139.5 -0.5t-128.5 -1.5
q-68 -1 -130 -2q-26 -2 -68 -5.5t-82 -6.5q-47 -4 -98 -8q-1 20 -3 41q-2 18 -2.5 40t-0.5 42q0 15 2 31t4 30q3 16 5 31q14 0 45 -0.5t70.5 -1.5t84 -1.5t84.5 -0.5q63 0 127.5 0.5t116.5 1.5q61 1 117 2q100 6 157 8t86 2q2 -10 4 -24q3 -24 3 -66z" />
    <glyph glyph-name="L.sup" horiz-adv-x="907"
d="M823 516q0 -10 -0.5 -24t-2 -28.5t-2.5 -28t-3 -21.5q-10 2 -52 4t-98.5 3.5t-118.5 3t-112 1.5q-20 0 -45.5 0.5l-51 1t-48 1t-35.5 1.5q-16 2 -29.5 2t-27.5 2q2 51 3 92t1.5 80.5t1 80t0.5 89.5v328l-8 440q14 5 39.5 5.5t44.5 0.5h27.5h38.5t37.5 -0.5t23.5 -1.5
q-1 -10 -2.5 -33t-2.5 -53t-2 -64t-2 -66t-1.5 -58.5t-0.5 -42.5v-316q0 -27 0.5 -70t1 -88t1 -86.5t1.5 -66.5q23 -5 42.5 -6.5t50.5 -3.5q24 0 64.5 -0.5t86.5 -0.5t92.5 -0.5t81.5 -0.5q2 -5 3.5 -14.5t2 -20t0.5 -21.5v-20zM831 135q0 -20 -1 -41.5t-3 -39.5l-4 -42
q-33 4 -66 7q-29 2 -61.5 4t-60.5 2q-56 0 -104 -1.5t-84 -3.5q-42 -3 -78 -6q-21 -2 -54.5 -5.5t-65.5 -6.5q-38 -4 -79 -8q-1 20 -2 41q-1 18 -1.5 40t-0.5 42q0 15 1 31t3 30q2 16 4 31q12 0 36.5 -0.5t56 -1.5t67 -1.5t67.5 -0.5q38 0 79.5 1.5t76.5 3.5q40 3 80 5
q40 3 70 5t52.5 3t39 1.5t28.5 0.5q1 -10 2 -24q1 -12 1.5 -28.5t0.5 -37.5z" />
    <glyph glyph-name="M.sup" horiz-adv-x="1610"
d="M1503 446q-15 -6 -46 -12t-67 -11t-70.5 -8t-55.5 -3q-3 31 -6.5 60t-8.5 63.5t-11.5 78t-16.5 103.5q-7 40 -11 63.5t-7 43.5t-6.5 44t-10.5 64q-2 15 -6 37t-8 45.5t-7.5 45t-5.5 34.5q-14 -26 -32.5 -59.5t-38 -70.5l-39 -74t-35.5 -71q-22 -46 -42 -87l-40 -82
t-41.5 -85.5t-46.5 -97.5l-119 -16l-16 40t-19 46q-26 60 -61 138.5t-78 172.5q-18 41 -31.5 71.5t-25 57t-23.5 52t-27 56.5q-9 -42 -17 -79.5t-17 -77.5q-6 -28 -13.5 -64t-16.5 -77.5t-18 -86.5l-18 -90q-4 -25 -8.5 -53t-8.5 -54.5t-7 -49l-5 -37.5q-22 0 -52 2.5
t-61.5 7t-62 10.5t-53.5 13q5 17 10 33.5t10 33.5q10 26 19.5 55.5t15.5 51.5q29 109 56 216.5t53 229.5t45.5 241.5t38.5 239.5l82 17q18 -41 42.5 -92t53.5 -117q27 -58 50.5 -108.5t46 -99t46 -98t50.5 -106.5q12 -25 26.5 -55.5t28.5 -61.5l35 -69q11 20 20.5 38
t20.5 38q17 31 34 66t31 61q27 51 49.5 92.5t43.5 81.5t42.5 81t46.5 91q18 35 35 70t32 66.5t27.5 58t20.5 44.5l88 15q8 -51 17.5 -109.5t21.5 -130.5q13 -80 26 -151t26 -140.5t26.5 -143t28.5 -157.5q11 -52 21.5 -102t23.5 -90q8 -25 14 -48t12 -45zM1458 141
q0 -20 -1.5 -41.5t-3.5 -39.5q-3 -21 -5 -42q-44 4 -87 7q-37 2 -79.5 4t-77.5 2q-34 0 -86.5 -0.5t-115.5 -2t-132 -2.5t-136 -3q-157 -4 -333 -9q-26 -2 -69.5 -5.5t-85.5 -6.5q-49 -4 -103 -8q-1 20 -3 41q-2 18 -2.5 40t-0.5 42q0 15 1.5 31t3.5 30q3 16 5 31
q15 0 47.5 -0.5t74 -1.5t87.5 -1.5t86 -0.5q32 0 81.5 0.5t109 2t125.5 3t130 2.5q150 4 320 8q100 6 157.5 8t86.5 2l3 -24q3 -24 3 -66z" />
    <glyph glyph-name="N.sup" horiz-adv-x="1497"
d="M1233 412l-76 75l-34.5 34.5l-37.5 37.5t-37.5 37t-35.5 33q-54 51 -98 94t-86 84t-85 82t-94 88q-91 83 -151 134.5t-99 76.5q-3 -29 -7 -66.5t-7 -66.5q-11 -122 -18.5 -213t-12.5 -156q-8 -109 -13.5 -192.5t-8.5 -139.5q-28 1 -60.5 3.5t-62.5 6t-55.5 7.5t-40.5 8
q17 74 32 162t29 207q16 121 28 252.5t19 289.5q3 36 5.5 74.5t4 72.5t2 60.5t0.5 38.5v23l72 12q54 -63 109 -116t116 -112q48 -44 80 -75t62 -59t63 -58.5t82 -73.5q48 -42 83.5 -73.5t67.5 -60t66 -59t80 -69.5v180q0 50 -0.5 105t-1.5 106t-2 94t-2 68q-2 54 -4.5 109.5
t-7.5 103.5q9 2 25.5 2.5t35 1t37 0.5h31.5q21 0 42.5 -0.5t30.5 -3.5q0 -11 -0.5 -33.5t-1.5 -52t-1.5 -62t-0.5 -63.5q0 -23 -0.5 -72t-0.5 -115t-0.5 -143.5t-0.5 -156.5q0 -64 1.5 -136t3 -136t2.5 -113.5t1 -69.5zM1335 141q0 -20 -1.5 -41.5t-3.5 -39.5q-3 -21 -5 -42
q-43 4 -86 7q-37 2 -79.5 4t-78.5 2q-34 0 -80.5 -0.5t-99.5 -2t-109 -2.5t-110 -3q-126 -4 -262 -9q-26 -2 -68 -5.5t-82 -6.5q-47 -4 -98 -8q-1 20 -3 41q-2 18 -2.5 40t-0.5 42q0 15 1.5 31t3.5 30q3 16 5 31q15 0 46 -0.5t70.5 -1.5t83.5 -1.5t85 -0.5q32 0 75.5 0.5
t93 2t102.5 3t104 2.5q119 4 249 8q101 6 158 8t86 2l3 -24q3 -24 3 -66z" />
    <glyph glyph-name="O.sup" horiz-adv-x="1479"
d="M1100 993q0 76 -27.5 144t-76 119t-114 80.5t-141.5 29.5t-142.5 -25t-116 -72.5t-78.5 -117.5t-29 -160q0 -80 26 -148t75 -118t120 -78.5t162 -28.5q82 0 146 30t107.5 81t66 119t22.5 145zM166 983q0 123 41.5 227.5t116 181t177.5 119.5t226 43q134 0 241.5 -46
t184 -124t117.5 -180t41 -213q0 -120 -41 -223t-114.5 -179t-174 -119.5t-219.5 -43.5q-143 0 -254 46t-187 123.5t-115.5 178t-39.5 209.5zM1335 141q0 -20 -1.5 -41.5t-3.5 -39.5q-3 -21 -5 -42q-43 4 -86 7q-37 2 -79.5 4t-78.5 2q-34 0 -80.5 -0.5t-99.5 -2t-109 -2.5
t-110 -3q-126 -4 -262 -9q-26 -2 -68 -5.5t-82 -6.5q-47 -4 -98 -8q-1 20 -3 41q-2 18 -2.5 40t-0.5 42q0 15 1.5 31t3.5 30q3 16 5 31q15 0 46 -0.5t70.5 -1.5t83.5 -1.5t85 -0.5q32 0 75.5 0.5t93 2t102.5 3t104 2.5q119 4 249 8q101 6 158 8t86 2l3 -24q3 -24 3 -66z" />
    <glyph glyph-name="P.sup" horiz-adv-x="1022"
d="M905 1210q0 -97 -40.5 -170t-110.5 -122t-162.5 -75t-196.5 -28v-86q0 -127 2 -203t2 -108q-8 -1 -22.5 -2.5t-30.5 -2t-31 -1t-26 -0.5h-26t-29.5 0.5t-26.5 2t-17 3.5q0 15 0.5 30.5t2.5 32.5q0 28 1 60t1 63q0 36 0.5 90.5t1.5 111t1.5 107.5t0.5 80q0 48 -0.5 104.5
t-0.5 108t-0.5 91t-0.5 51.5q0 27 -0.5 56.5t-1.5 57.5t-1.5 51.5t-0.5 38.5q11 1 36 1.5t53 1t53 1t34 0.5q64 0 128.5 -7.5t124 -24.5t111.5 -44t90 -65.5t60 -89t22 -115.5zM694 1198q0 50 -24 85t-65 57.5t-94 33t-112 10.5q-1 -16 -2 -40.5t-1.5 -53.5t-0.5 -59.5
v-59.5v-174q11 -2 23.5 -3t21.5 -1q51 0 97 12t81 37.5t55.5 64t20.5 91.5zM924 137q0 -20 -1 -41.5t-3 -39.5q-2 -21 -5 -42q-38 4 -76 7q-32 2 -69 4t-68 2q-60 0 -122 -1.5t-113 -3.5q-60 -3 -115 -6q-23 -2 -59 -5.5t-71 -6.5q-40 -4 -85 -8q-1 21 -3 42
q-2 18 -2.5 39.5t-0.5 41.5q0 15 1 31t3 30q2 16 4 31q13 0 40.5 -0.5t62 -1.5t73 -1.5t74.5 -0.5q55 0 111.5 1.5t102.5 3.5q54 3 104 5q86 6 136 8t75 2l3 -24q3 -24 3 -66z" />
    <glyph glyph-name="Q.sup" horiz-adv-x="1446"
d="M1061 1008q0 79 -26.5 145t-74.5 113t-114 73.5t-144 26.5q-83 0 -149 -28.5t-112.5 -79t-71.5 -119.5t-25 -150t25 -149.5t71 -117.5t111.5 -76.5t146.5 -27.5q88 0 155.5 27t113.5 78t70 123t24 162zM135 983q0 122 42 225t118 179t182.5 118.5t235.5 42.5
q116 0 217.5 -37.5t177 -106t119 -163.5t43.5 -209q0 -84 -19 -155t-49 -128t-67 -99t-74 -66l78 -2q11 0 34.5 -0.5t51 -0.5t53.5 -0.5t41 -0.5q11 0 24.5 0.5t27.5 1.5l32 2q3 -16 3.5 -35t0.5 -45q0 -15 -1.5 -34t-3.5 -37t-5 -33.5t-6 -24.5q-41 8 -106 14t-136 14
q-59 5 -109 8.5t-98 6.5t-97.5 5t-107.5 3q-130 3 -240 42t-190.5 110.5t-126 173.5t-45.5 231zM1335 141q0 -20 -1.5 -41.5t-3.5 -39.5q-3 -21 -5 -42q-43 4 -86 7q-37 2 -79.5 4t-78.5 2q-34 0 -80.5 -0.5t-99.5 -2t-109 -2.5t-110 -3q-126 -4 -262 -9q-26 -2 -68 -5.5
t-82 -6.5q-47 -4 -98 -8q-1 20 -3 41q-2 18 -2.5 40t-0.5 42q0 15 1.5 31t3.5 30q3 16 5 31q15 0 46 -0.5t70.5 -1.5t83.5 -1.5t85 -0.5q32 0 75.5 0.5t93 2t102.5 3t104 2.5q119 4 249 8q101 6 158 8t86 2l3 -24q3 -24 3 -66z" />
    <glyph glyph-name="R.sup" horiz-adv-x="1100"
d="M682 1202q0 49 -18.5 83.5t-52 56.5t-80.5 32t-103 10h-15.5t-15.5 -2q-2 -38 -2 -79v-78v-238h4q50 0 100.5 11t91 36.5t66 66.5t25.5 101zM711 905q12 -12 34 -33t43 -43q19 -18 36.5 -36t38 -38t44 -43.5l54.5 -54.5q21 -21 37 -36.5t31 -30t31.5 -30t37.5 -36.5
q-13 -20 -33 -39.5t-42.5 -37.5t-45.5 -33.5t-43 -26.5q-26 34 -67.5 84t-98.5 115q-42 48 -73 82t-58 61t-52.5 50.5t-54.5 49.5q-34 -12 -72 -17.5t-63 -8.5v-29q0 -64 0.5 -121.5t1.5 -104t1.5 -80.5t0.5 -50q-6 -1 -20.5 -2.5t-32.5 -2l-36 -1t-31 -0.5h-24.5t-26 0.5
t-22 1.5t-13.5 2v68.5t2 64.5q1 27 1.5 55t1 53.5t1 46.5t0.5 35v461v63t-0.5 71.5t-1 72.5t-1 66t-1.5 51t-2 28q14 2 37 3t50 2t57 1.5t58 0.5q114 0 206.5 -21t158 -63.5t101.5 -106.5t36 -151q0 -57 -15 -104.5t-40.5 -86.5t-59 -69t-71.5 -52zM1024 143q0 -20 -1 -41.5
t-3 -39.5l-4 -42q-38 4 -76 7q-32 2 -69 4t-68 2q-30 0 -65 -0.5t-72.5 -2t-75 -2.5t-72.5 -3q-82 -4 -166 -9q-23 -2 -59 -5.5t-71 -6.5q-40 -4 -85 -8q-1 21 -3 42q-2 18 -2.5 39.5t-0.5 41.5q0 15 1 31t3 30q2 16 4 31q13 0 40.5 -0.5t62 -1.5t73 -1.5t74.5 -0.5
q27 0 60 0.5t67.5 2t69.5 3t67 2.5q76 4 154 8q87 6 136.5 8t74.5 2l3 -24q3 -24 3 -66z" />
    <glyph glyph-name="S.sup" horiz-adv-x="817"
d="M727 745q0 -72 -23.5 -131.5t-70.5 -102t-117 -66t-162 -23.5q-37 0 -77.5 4t-78.5 10.5t-71 16t-55 20.5q0 12 3 33.5t8.5 47t13 52.5t16.5 49q21 -10 51 -20t62 -18t63 -13.5t55 -5.5q90 0 136 39t46 104q0 39 -16 70t-42.5 56.5t-59.5 48t-68 45.5q-38 26 -76 55
t-68.5 65t-49.5 80.5t-19 102.5q0 64 24.5 119t73 95.5t121 63.5t168.5 23q27 0 55.5 -1.5t54 -4.5t46 -6.5t32.5 -8.5q0 -18 -2 -41.5t-5 -48.5t-7 -48t-8 -38q-12 4 -29 8.5t-38 8t-43.5 6t-45.5 2.5q-36 0 -71 -6.5t-62 -22t-44 -41t-17 -63.5q0 -28 18.5 -53.5
t47.5 -49.5t65 -47.5t71 -48.5q38 -27 73 -57.5t62 -68t43.5 -84.5t16.5 -106zM737 129q0 -20 -1 -41.5t-3 -39.5l-4 -42q-36 3 -70 6q-29 2 -62.5 4t-61.5 2q-56 0 -97 -0.5t-70 -1.5q-33 -1 -57 -2q-20 -2 -54 -5.5t-66 -6.5q-38 -4 -78 -8q-1 20 -2 41q-1 18 -1.5 40
t-0.5 42q0 15 1 31t3 30q2 16 4 31q11 0 36 -0.5t56.5 -1.5t67 -1.5t67.5 -0.5q23 0 55.5 0.5t63.5 1.5q36 1 74 2q80 6 125.5 8t70.5 2q1 -10 2 -24q1 -12 1.5 -28.5t0.5 -37.5z" />
    <glyph glyph-name="T.sup" horiz-adv-x="1012"
d="M983 1495q0 -12 -0.5 -27.5t-1 -30.5t-1 -27.5t-1.5 -18.5q-14 1 -40.5 2t-61 1.5t-73 1t-75.5 1t-69.5 0.5h-55.5q0 -22 -0.5 -62.5t-0.5 -83t-0.5 -78t-0.5 -47.5v-307q0 -53 1 -114.5t2.5 -117t4 -98.5t4.5 -59q-7 -3 -21 -5t-30.5 -3t-32 -1.5t-26.5 -0.5
q-12 0 -26.5 0.5t-28.5 1t-26.5 2t-21.5 2.5q1 14 2 56t2 100.5t2 126.5t1 133v268q0 32 -0.5 69t-0.5 73.5t-0.5 70.5t-0.5 61q-39 -3 -79 -5t-75 -5q-59 -5 -115 -11t-90 -11q-5 15 -6.5 43t-1.5 53q0 19 1.5 45.5t4.5 40.5q17 2 45 3t51 1q28 1 73.5 3.5t99 4.5
t111.5 4.5t111 4.5t96.5 3t67.5 1q48 2 94.5 3.5t84.5 3t64.5 2.5t35.5 1q3 -13 3.5 -35t0.5 -39zM958 137q0 -20 -1.5 -41.5t-3.5 -39.5q-3 -21 -5 -42q-43 4 -86 7q-37 2 -79.5 4t-77.5 2q-69 0 -139 -2t-127 -4q-67 -3 -128 -7q-26 -2 -68 -5.5t-82 -6.5q-47 -4 -98 -8
q-1 20 -3 41q-2 18 -2.5 40t-0.5 42q0 15 2 31t4 30q3 16 5 31q14 0 45 -0.5t70.5 -1.5t84 -1.5t84.5 -0.5q63 0 127 2t115 4q60 3 115 6q100 6 157 8t86 2l3 -24q3 -24 3 -66z" />
    <glyph glyph-name="U.sup" horiz-adv-x="1393"
d="M715 594q100 0 161.5 30.5t95 79t45 108.5t11.5 118v102.5t-0.5 114.5t-1 106.5t-2.5 79.5q-1 28 -2.5 57.5t-4 57t-5 50t-4.5 36.5q13 3 29.5 5.5t34 4t34.5 2t29 0.5q20 0 47 -0.5t49 -3.5q0 -14 -1 -36.5t-1 -45.5q-2 -34 -2 -76.5v-95.5t-0.5 -107.5t-2 -104.5
t-2.5 -91t-3 -67q-8 -135 -45.5 -230t-103.5 -154.5t-158.5 -86.5t-211.5 -27q-219 0 -342 118t-145 345q-4 51 -8 93t-7.5 83.5t-6 87t-5.5 102.5q-2 44 -3.5 87t-2.5 81t-1.5 70t-0.5 53q22 5 49 6.5t45 1.5q13 0 30.5 -0.5t35 -1.5t32.5 -2.5t23 -3.5v-88q0 -35 -1 -81.5
t-1 -119.5q0 -17 0.5 -57.5t2 -87.5t3 -91.5t2.5 -70.5q9 -77 27.5 -141t54.5 -110.5t92.5 -72.5t141.5 -26zM1251 137q0 -20 -1.5 -41.5t-3.5 -39.5q-3 -21 -5 -42q-48 4 -95 7q-40 2 -85 4t-80 2q-34 0 -76.5 -0.5t-89 -1.5t-94.5 -2t-93 -2q-106 -3 -216 -7
q-26 -2 -68 -5.5t-82 -6.5q-47 -4 -98 -8q-1 20 -3 41q-2 18 -2.5 40t-0.5 42q0 15 1.5 31t3.5 30q3 16 5 31q15 0 46 -0.5t70.5 -1.5t83.5 -1.5t85 -0.5q32 0 71.5 0.5t82.5 1.5t88 2t87 2q99 3 203 6q100 6 165.5 8t94.5 2l3 -24q3 -24 3 -66z" />
    <glyph glyph-name="V.sup" horiz-adv-x="1155"
d="M1149 1497q-34 -59 -65.5 -116.5t-62.5 -115.5t-62 -118.5t-66 -126.5q-28 -54 -52 -100t-46 -90.5l-44 -89t-46 -95.5q-14 -29 -29 -63t-28.5 -65.5t-24 -57t-15.5 -37.5l-65 -4q-17 40 -44 94.5t-61 126.5q-27 59 -49.5 105.5t-43.5 90.5t-43.5 91.5t-51.5 107.5
q-60 123 -115.5 230.5t-118.5 218.5q20 14 45.5 27.5t53 24.5t53.5 20t47 14q30 -64 54 -115.5t47 -101t48 -103.5t56 -123q21 -48 40.5 -90.5t39 -82.5t40 -79.5t42.5 -82.5q26 57 48 104.5t46 96.5t52 107t67 136q27 53 49 98.5t41.5 86.5t36.5 78.5t34 74.5
q20 -1 48.5 -9t57 -19.5t52.5 -24t35 -23.5zM1083 137q0 -20 -1.5 -41.5t-3.5 -39.5q-3 -21 -5 -42q-43 4 -86 7q-37 2 -79.5 4t-78.5 2q-34 0 -74 -0.5t-82.5 -1.5t-85.5 -2t-83 -2q-93 -3 -189 -7q-26 -2 -67.5 -5.5t-81.5 -6.5q-47 -4 -98 -8q-1 20 -3 41q-2 18 -3 40
t-1 42q0 15 2 31t4 30q3 16 5 31q15 0 46 -0.5t70.5 -1.5t83.5 -1.5t84 -0.5q32 0 69 0.5t76.5 1.5t79.5 2t77 2q87 3 176 6q100 6 157 8t86 2l3 -24q3 -24 3 -66z" />
    <glyph glyph-name="W.sup" horiz-adv-x="1493"
d="M1462 1513q-4 -13 -11 -32.5t-15 -41.5t-15.5 -44.5l-13.5 -40.5q-18 -53 -37 -114.5t-39 -126t-40.5 -130t-41.5 -127.5q-28 -87 -50.5 -160.5t-39.5 -136.5q-14 -48 -23.5 -89t-17.5 -67l-55 -14q-9 22 -18 42t-17 40q-15 35 -31.5 77t-33.5 77q-7 16 -21 49t-32.5 75
t-39.5 90t-42 94t-41 86.5t-35 67.5q-10 -23 -24 -60.5t-36 -96.5q-21 -55 -37 -95t-29 -73.5t-24.5 -64t-23.5 -66.5q-13 -38 -22 -62.5t-16.5 -44.5t-14.5 -39.5t-15 -46.5l-66 -20q-17 48 -39.5 108t-50.5 136q-34 92 -74.5 203t-83 225t-85 222t-80.5 195q14 8 40 16
t56 16t59.5 14.5t51.5 11.5q8 -25 14.5 -47.5t14.5 -50t19.5 -64t28.5 -90.5q23 -78 55.5 -169t61.5 -179q5 -14 11.5 -32.5t13.5 -36.5t13 -32.5t9 -21.5q16 32 35.5 85t42.5 122q26 70 46 124t37 100.5t31.5 90.5t28.5 94l76 17q17 -42 30.5 -76.5t28 -70t32.5 -77
t44 -98.5q35 -82 74 -159t74 -154q8 24 16.5 52t17.5 57t17 56t14 48q11 32 23.5 72.5t26 86.5t26.5 95.5t25 97.5t21 87t16 67q24 -3 54 -8t58.5 -11.5t52.5 -13.5t35 -13zM1366 141q0 -20 -1.5 -41.5t-3.5 -39.5q-3 -21 -5 -42q-44 4 -87 7q-37 2 -79.5 4t-77.5 2
q-34 0 -83 -0.5t-105 -2t-117 -2.5t-119 -3q-136 -4 -287 -9q-26 -2 -67.5 -5.5t-81.5 -6.5q-47 -4 -98 -8q-1 20 -3 41q-2 18 -3 40t-1 42q0 15 2 31t4 30q3 16 5 31q15 0 46 -0.5t70.5 -1.5t83.5 -1.5t84 -0.5q32 0 77.5 0.5t98.5 2t111 3t113 2.5q130 4 274 8
q100 6 157.5 8t86.5 2l3 -24q3 -24 3 -66z" />
    <glyph glyph-name="X.sup" horiz-adv-x="1085"
d="M1083 504q-13 -18 -35 -37.5t-47 -37.5t-50.5 -31.5t-45.5 -18.5q-24 34 -53 74t-61.5 83.5t-66 89.5t-65.5 91q-18 26 -33 46.5t-29 38.5t-27.5 36t-28.5 39l-60 -82q-24 -34 -47 -66.5t-43 -64.5q-29 -43 -58.5 -86.5t-56.5 -83.5t-49 -74.5t-37 -59.5q-18 6 -42 19.5
t-48.5 30t-46.5 33.5t-35 32q14 17 35.5 43t50.5 63.5t67 87.5t85 115q51 70 96 129t80 107q-7 12 -24 35t-39.5 52t-49 62t-53.5 66q-21 26 -48.5 59t-54.5 65.5t-49.5 59.5t-33.5 39q14 15 35.5 31.5t46 33t48.5 30t42 22.5q28 -35 58.5 -80.5t70.5 -97.5q26 -35 52.5 -73
t49.5 -72t41 -60.5t27 -38.5q17 24 31 44l28 40t29 42t33 50q25 39 44.5 68t37.5 55t35 53.5t38 61.5q19 -7 44 -21t50 -30t45.5 -31.5t30.5 -26.5q-32 -40 -77 -99t-105 -140q-11 -13 -23 -30.5t-25 -36t-25 -36.5t-23 -33q-14 -17 -26.5 -35.5t-24.5 -35.5l33 -44
t31.5 -40.5t36 -44t44.5 -54.5q38 -50 72 -92.5t66 -81t64.5 -75.5t67.5 -76zM1026 141q0 -20 -1.5 -41.5t-3.5 -39.5q-3 -21 -5 -42q-44 4 -87 7q-37 2 -79.5 4t-77.5 2q-69 0 -147 -2.5t-145 -5.5q-78 -4 -156 -9q-26 -2 -68 -5.5t-82 -6.5q-47 -4 -98 -8q-1 20 -3 41
q-2 18 -2.5 40t-0.5 42q0 15 1.5 31t3.5 30q3 16 5 31q15 0 46 -0.5t70.5 -1.5t83.5 -1.5t85 -0.5q63 0 134.5 2.5t133.5 5.5q72 4 143 8q100 6 157.5 8t86.5 2l3 -24q3 -24 3 -66z" />
    <glyph glyph-name="Y.sup" horiz-adv-x="997"
d="M973 1440q-17 -14 -54 -41.5t-96 -87.5q-40 -42 -81 -98.5t-74 -116.5t-53.5 -119t-20.5 -107v-53q0 -16 1 -48t3 -72t4 -83.5t4 -82t4.5 -67t3.5 -38.5q-6 -1 -20 -3t-30.5 -3.5t-32 -2.5t-25.5 -1q-13 0 -29 0.5t-31 2t-28.5 3.5t-22.5 4q0 35 2 71.5t4 73.5
q2 32 3 58.5t1.5 52.5t0.5 53v58v67q0 34 -11 75t-29 84t-42 86t-49.5 82t-51 71.5t-47.5 54.5q-35 35 -69.5 65.5t-81.5 53.5q5 18 20.5 40.5t35 43t39.5 36t34 19.5q43 -26 80 -59t77 -76q62 -66 98.5 -126.5t61.5 -113.5q9 -20 18.5 -48.5t14.5 -49.5q5 18 13.5 38.5
t18 40.5t18.5 37t15 27q45 71 89.5 127.5t101.5 112.5q29 29 56.5 50.5t57.5 43.5q15 -9 30.5 -25.5t29.5 -35.5t24.5 -38.5t14.5 -35.5zM944 141q0 -20 -1.5 -41.5t-3.5 -39.5q-3 -21 -5 -42q-44 4 -87 7q-37 2 -79.5 4t-77.5 2q-69 0 -139.5 -2.5t-128.5 -5.5
q-68 -4 -131 -9q-26 -2 -63 -5.5t-71 -6.5q-40 -4 -81 -8q-1 20 -3 41q-2 18 -2.5 40t-0.5 42q0 15 1.5 31t3.5 30q3 16 5 31q15 0 40.5 -0.5t59 -1.5t72.5 -1.5t80 -0.5q63 0 127 2.5t117 5.5q62 4 118 8q100 6 157.5 8t86.5 2l3 -24q3 -24 3 -66z" />
    <glyph glyph-name="Z.sup" horiz-adv-x="1147"
d="M1106 633q0 -21 -1.5 -51.5t-3 -60.5t-3.5 -55.5t-4 -35.5q-13 0 -36.5 0.5t-53 1t-62.5 1.5t-64 1.5t-57 1t-43 0.5q-156 0 -305 -1.5t-299 -6.5l-41 41q35 53 73.5 115t76.5 121q41 66 74 120.5t65 107.5t65.5 109t73.5 125q12 20 21.5 37t18.5 32.5t18 30.5t18 33
q12 20 23 40t20 38q-24 2 -53.5 3t-60 1.5t-59 1t-50.5 0.5q-55 0 -109.5 -1t-104.5 -2.5t-92.5 -4.5t-72.5 -8q0 12 1.5 37t5 54t9 57t12.5 47q36 -1 70.5 -2.5t73 -2.5t85.5 -1.5t109 -0.5q76 0 142 1t125 2.5t112 3.5t103 4l57 -45q-11 -17 -15.5 -24.5t-6.5 -10.5
q-76 -133 -179 -307.5t-241 -403.5q-9 -13 -14.5 -22.5t-10.5 -19.5l-10.5 -21l-13.5 -27l-41 -76q65 0 107 0.5t76 1.5t65.5 2t74.5 2q42 1 80 2t77 3t81.5 5t93.5 7zM1075 141q0 -20 -1.5 -41.5t-3.5 -39.5q-3 -21 -5 -42q-44 4 -87 7q-37 2 -79.5 4t-77.5 2
q-34 0 -73.5 -0.5t-81 -2t-83 -2.5t-79.5 -3q-90 -4 -180 -9q-26 -2 -68 -5.5t-82 -6.5q-47 -4 -98 -8q-1 20 -3 41q-2 18 -2.5 40t-0.5 42q0 15 1.5 31t3.5 30q3 16 5 31q15 0 46 -0.5t70.5 -1.5t83.5 -1.5t85 -0.5q32 0 68.5 0.5t74.5 2t76.5 3t73.5 2.5q83 4 167 8
q100 6 157.5 8t86.5 2l3 -24q3 -24 3 -66z" />
    <glyph glyph-name="A.inf" horiz-adv-x="1206"
d="M1206 76q-18 -13 -40.5 -25t-48.5 -22.5t-54 -19t-55 -13.5q-29 66 -64.5 140t-77.5 147q-28 2 -56 3.5t-64 2.5t-83.5 1.5t-115.5 0.5q-60 0 -115 -1.5t-86 -6.5q-19 -30 -40 -65.5t-41.5 -73t-39 -75t-32.5 -71.5q-22 5 -48 12t-52 16.5t-50 21t-43 26.5q25 31 60 85
t76 123t86.5 148.5t91 161t88.5 161t79 148.5t63.5 123.5t41.5 85.5l47 16q14 -31 42.5 -88t66.5 -130t83 -158t91.5 -170.5t91.5 -167.5t84 -150t69 -117t45 -69zM788 461q-25 48 -45.5 88t-40.5 79.5t-41.5 81.5t-50.5 95q-47 -95 -89.5 -177.5t-86.5 -166.5
q14 -2 26.5 -3.5t28.5 -2.5t38 -1.5t55 -0.5q52 0 87 1.5t58.5 3t37 2.5t23.5 1zM1087 1466q0 -20 -1.5 -41.5t-3.5 -39.5q-3 -21 -5 -42q-43 4 -86 7q-37 2 -79.5 4t-77.5 2q-69 0 -150 -2.5t-152 -5.5q-83 -4 -165 -9q-26 -2 -68 -5.5t-82 -6.5q-47 -4 -98 -8q-1 21 -3 42
q-2 18 -2.5 39.5t-0.5 41.5q0 15 1.5 31t3.5 30q3 16 5 31q15 0 46 -0.5t70.5 -1.5t83.5 -1.5t85 -0.5q32 0 67 0.5t71 2t71.5 3t68.5 2.5q77 4 152 8q100 6 157 8t86 2l3 -24q3 -24 3 -66z" />
    <glyph glyph-name="B.inf" horiz-adv-x="1102"
d="M981 1473q0 -20 -1 -42t-3 -40q-2 -21 -4 -41l-76 6q-32 2 -69 4t-68 2q-30 0 -63.5 -0.5t-68 -2t-68 -2.5t-64.5 -3l-144 -8q-23 -2 -59 -6t-71 -7q-40 -4 -85 -8q-1 21 -3 42q-2 18 -2.5 39.5t-0.5 41.5q0 15 1 31t3 30q2 16 4 31q13 0 40.5 -0.5t62 -1.5t73 -1.5
t74.5 -0.5q55 0 120 2.5t122 5.5q67 4 133 8q87 7 136.5 9t74.5 2l3 -24q3 -24 3 -66zM977 348q0 -96 -52.5 -162.5t-140 -107.5t-200.5 -59.5t-234 -18.5q-31 0 -72.5 1t-89.5 1q3 23 5 68t3.5 98t2 108t0.5 97v352q0 21 -0.5 52t-2 67.5t-3.5 76t-4 76.5t-4 69t-5 54
q18 2 48.5 3t62 2.5t59.5 2t41 0.5q108 0 200 -16.5t159.5 -51t106 -87.5t38.5 -127q0 -49 -17 -89.5t-47 -71t-70.5 -52t-86.5 -33.5q71 -8 127 -30t95 -54.5t60 -75t21 -92.5zM696 819q0 75 -81 111.5t-228 36.5v-299h8q158 0 229.5 41t71.5 110zM774 348q0 74 -76 118
t-237 44h-78q0 -8 0.5 -33t1 -59t1.5 -72.5t2 -74t2 -64t3 -41.5q89 0 160 9.5t120 31t75 56t26 85.5z" />
    <glyph glyph-name="C.inf" horiz-adv-x="1327"
d="M1206 111q-85 -56 -193.5 -88.5t-250.5 -32.5q-141 0 -252 39t-187.5 111.5t-116.5 175.5t-40 231t40.5 233.5t117 180.5t186.5 116t248 41q71 0 137.5 -8.5t124 -21.5t102.5 -29.5t72 -32.5q-2 -19 -9 -42.5t-16 -48t-20 -47t-21 -40.5q-18 12 -54 27.5t-85 29
t-108.5 22.5t-124.5 9q-94 0 -165.5 -26.5t-119.5 -76.5t-72 -123t-24 -165q0 -84 22 -152.5t68 -117.5t117 -76t170 -27q110 0 198.5 25.5t175.5 78.5q26 -38 46.5 -76.5t33.5 -88.5zM1188 1460q0 -20 -1.5 -41.5t-3.5 -39.5q-3 -21 -5 -42q-44 4 -87 7q-37 2 -79.5 4
t-77.5 2q-69 0 -150 -2.5t-152 -5.5q-83 -4 -165 -9q-26 -2 -68 -5.5t-82 -6.5q-47 -4 -98 -8q-1 20 -3 41q-2 18 -2.5 40t-0.5 42q0 15 1.5 31t3.5 30q3 16 5 31q15 0 46 -0.5t70.5 -1.5t83.5 -1.5t85 -0.5q32 0 67 0.5t71 2t71.5 3t68.5 2.5q77 4 152 8q100 6 157.5 8
t86.5 2l3 -24q3 -24 3 -66z" />
    <glyph glyph-name="D.inf" horiz-adv-x="1430"
d="M1262 584q0 -102 -26 -186t-72 -149.5t-108 -114t-134 -80t-150 -47t-156 -15.5q-130 0 -230 7t-187 17q6 79 5 157t-1 138v484q0 38 -1 86.5t-3 95.5t-4 87t-5 62q35 2 69 3.5t69 3.5q60 5 130 5.5t136 0.5q133 0 254 -32.5t213 -100.5t146.5 -173t54.5 -249zM1055 582
q0 96 -33 168t-93.5 120.5t-147.5 72.5t-195 24q-23 0 -51 -1t-54 -3.5t-48 -5.5t-34 -7q-2 -34 -3.5 -77.5t-2 -86t-0.5 -81v-64.5q0 -25 0.5 -63t1 -81.5t1.5 -89.5t2 -88t1.5 -77t1.5 -56q12 -2 27.5 -4.5t37 -4.5t51 -3.5t71.5 -1.5q111 0 198 25t147 76t91 128t31 181z
M1282 1470q0 -20 -1.5 -41.5t-3.5 -39.5q-3 -21 -5 -41q-44 3 -87 6q-37 2 -79.5 4t-77.5 2q-34 0 -80 -0.5t-97.5 -2t-106 -2.5t-106.5 -3q-121 -4 -253 -9q-26 -2 -68 -5.5t-82 -6.5q-47 -4 -98 -8q-1 21 -3 42q-2 18 -2.5 39.5t-0.5 41.5q0 15 1.5 31t3.5 30q3 16 5 31
q15 0 46 -0.5t70.5 -1.5t83.5 -1.5t85 -0.5q32 0 74.5 0.5t91 2t100 3t100.5 2.5q115 4 240 8q100 7 157.5 9t86.5 2l3 -24q3 -24 3 -67z" />
    <glyph glyph-name="E.inf" horiz-adv-x="1071"
d="M195 6q2 24 3 59t1.5 74t1 79.5t0.5 76.5v63.5v40.5v242v79.5t-0.5 84t-1 83t-2.5 75.5q-1 24 -1.5 42t-1.5 35.5t-2 35.5t-2 42q21 -1 38 -1.5t33 -0.5h33h38q33 0 73 0.5t79.5 1.5t74.5 1.5t59 0.5q23 0 58.5 1.5t74.5 4t75.5 4.5t60.5 3q4 -16 7 -38.5t4.5 -46.5
t2.5 -48t0 -44q-18 0 -44.5 -0.5t-59 -0.5t-69.5 -0.5t-75 -0.5q-11 0 -33.5 -0.5t-48.5 -1.5t-51.5 -2t-42.5 -2q-34 -3 -80 -6q-1 -25 -2 -54.5t-2 -59.5t-1.5 -59.5t-0.5 -55.5v-25h191q80 0 130 1.5t87 3.5t67.5 4.5t71.5 4.5q2 -20 3 -40.5t1 -57.5q0 -23 -0.5 -51
t-5.5 -45q-66 -2 -147.5 3t-178.5 5q-29 0 -67 -1t-70 -1q-23 0 -41.5 -1t-40.5 -1v-96q0 -27 0.5 -58.5l1 -63t2 -61.5t2.5 -53q62 -11 119 -12.5t105 -3.5q42 -2 83.5 -3t79 -1h68h51.5q0 -15 -1.5 -38t-3.5 -48t-5 -50t-6 -44q-24 1 -58.5 2.5t-77 3t-91.5 4t-101 4.5
q-50 0 -99 3.5t-112 4.5h-51t-49 2q-14 2 -26.5 2h-26.5zM920 1479q0 -20 -1 -42t-3 -40q-2 -21 -5 -41q-35 3 -69 6q-29 2 -63 4t-62 2q-56 0 -116.5 -2.5t-112.5 -5.5q-61 -4 -119 -8q-21 -2 -54.5 -5.5t-65.5 -7.5q-38 -4 -79 -8l-2 42q-1 18 -1.5 39.5t-0.5 41.5
q0 15 1 31t3 30q2 16 4 31q12 0 36.5 -0.5t56 -1.5t67 -1.5t67.5 -0.5q51 0 106.5 3t103.5 6q55 4 108 8q80 6 126 8t70 2q2 -10 3 -24q1 -12 1.5 -28.5t0.5 -37.5z" />
    <glyph glyph-name="F.inf" horiz-adv-x="1038"
d="M307 4q-35 0 -62 1t-50 3q2 24 3 59t1.5 74t1 79.5t0.5 76.5v63.5v40.5v242v79.5t-0.5 84t-1 83t-2.5 75.5q-1 24 -1.5 42t-1.5 35.5t-2 35.5t-2 42q21 -1 38 -1.5t33 -0.5h33h38q66 0 122.5 2t104.5 2q52 1 101 2.5t91.5 4t77 4t58.5 2.5q4 -16 7 -38.5t4.5 -46.5
t2.5 -48t0 -44q-18 0 -52 -0.5t-76 -0.5t-86.5 -0.5t-82.5 -0.5q-21 0 -48 -1t-54.5 -3t-54.5 -4.5t-50 -5.5q-1 -28 -2.5 -71t-2 -88t-1 -87.5t-0.5 -70.5v-25h191q57 0 97.5 1t73.5 2.5t65 4t73 4.5q2 -20 4 -39.5t2 -56.5q0 -23 -1.5 -50.5t-4.5 -45.5q-32 0 -62 1.5
t-63 3t-70.5 2.5t-85.5 1q-49 0 -107.5 -1t-111.5 -3v-96q0 -31 2.5 -106t5.5 -212q-3 -1 -13 -2t-23.5 -2t-28.5 -1.5t-27 -0.5zM920 1470q0 -20 -1 -41.5t-3 -39.5q-2 -21 -5 -41q-35 3 -69 6q-29 2 -63 4t-62 2q-56 0 -116.5 -2.5t-112.5 -5.5q-61 -4 -119 -9
q-21 -2 -54.5 -5.5t-65.5 -6.5q-38 -4 -79 -8l-2 42q-1 18 -1.5 39.5t-0.5 41.5q0 15 1 31t3 30q2 16 4 31q12 0 36.5 -0.5t56 -1.5t67 -1.5t67.5 -0.5q51 0 106.5 2.5t103.5 5.5q55 4 108 8q80 7 126 9t70 2q2 -10 3 -24q1 -12 1.5 -29t0.5 -38z" />
    <glyph glyph-name="G.inf" horiz-adv-x="1364"
d="M1186 119q-45 -31 -97.5 -55t-108.5 -40.5t-115 -25t-117 -8.5q-138 0 -246.5 40t-183 113t-113.5 176t-39 230q0 120 40.5 223.5t117 180.5t186.5 121t248 44q64 0 119.5 -6t105.5 -16.5t95 -25t87 -30.5q-6 -42 -23 -88t-42 -96q-36 19 -79.5 34t-89 25t-90.5 15.5
t-85 5.5q-91 0 -162 -27.5t-120 -78.5t-74 -123t-25 -162q0 -178 95 -274.5t282 -96.5q78 0 139 14.5t98 34.5v115q0 16 -1 43.5t-2.5 57.5t-3 57.5t-1.5 42.5q9 2 22 3.5t27.5 2.5t27.5 1.5t21 0.5q12 0 26.5 -0.5t29.5 -1t27.5 -1t19.5 -1.5q0 -18 -0.5 -42t-0.5 -49
t-0.5 -48t-0.5 -39v-62t0.5 -71.5t2 -66t3.5 -46.5zM1188 1470q0 -20 -1.5 -41.5t-3.5 -39.5q-3 -21 -5 -41q-44 3 -87 6q-37 2 -79.5 4t-77.5 2q-69 0 -150 -2.5t-152 -5.5q-83 -4 -165 -9q-26 -2 -68 -5.5t-82 -6.5q-47 -4 -98 -8q-1 21 -3 42q-2 18 -2.5 39.5t-0.5 41.5
q0 15 1.5 31t3.5 30q3 16 5 31q15 0 46 -0.5t70.5 -1.5t83.5 -1.5t85 -0.5q32 0 67 0.5t71 2t71.5 3t68.5 2.5q77 4 152 8q100 7 157.5 9t86.5 2l3 -24q3 -24 3 -67z" />
    <glyph glyph-name="H.inf" horiz-adv-x="1501"
d="M1317 1143q0 -48 -7 -150.5t-7 -257.5v-397v-30.5t1 -53t3 -90.5t6 -144q-19 -5 -44.5 -6.5t-56.5 -1.5q-32 0 -61 1.5t-49 6.5q2 48 3.5 107.5t2.5 124.5t1.5 132t0.5 128q-43 0 -81.5 -1.5t-81 -3.5t-93 -4.5t-117.5 -4.5q-39 -2 -91.5 -3.5t-103.5 -3t-92 -4t-57 -6.5
v-188v-48.5v-70.5t1 -82.5t3 -85.5q-17 -5 -43 -5.5t-57 -0.5q-35 0 -60.5 1.5t-48.5 6.5q3 40 5 71.5t3.5 66t2 77.5t0.5 107v164q0 48 -0.5 114t-1.5 132.5t-2.5 125t-4.5 92.5q0 29 -1 59t-3 56q-2 16 -2 31v31q17 3 47 4.5t68 1.5q15 0 30.5 -0.5t30 -1t26 -1.5t17.5 -3
q0 -22 -1.5 -53t-3.5 -74t-3.5 -101t-1.5 -135v-102q26 0 67 -1t83 -1q87 0 153.5 1t128.5 4t128 7t153 10v187.5t-2 142.5q-2 34 -2 63.5t-2 55.5q18 5 54.5 6.5t74.5 1.5q29 0 47 -1t41 -3zM1335 1483q0 -20 -1.5 -41.5t-3.5 -39.5q-3 -21 -5 -42l-86 6q-37 2 -79.5 4
t-78.5 2q-34 0 -80 -0.5t-97.5 -2t-106 -2.5t-106.5 -3q-121 -4 -253 -8q-26 -2 -68 -5.5t-82 -7.5q-47 -4 -98 -8q-1 21 -3 42q-2 18 -2.5 39.5t-0.5 41.5q0 15 2 31t4 30q3 16 5 31q14 0 45 -0.5t70.5 -1.5t84 -1.5t84.5 -0.5q32 0 74.5 1t91 2t100 3t100.5 3q115 4 240 8
q101 6 158 8t86 2l3 -24q3 -24 3 -66z" />
    <glyph glyph-name="I.inf" horiz-adv-x="588"
d="M393 297v-48.5v-70.5t1 -82.5t3 -85.5q-7 -1 -18.5 -2.5t-23.5 -2t-23.5 -1t-20.5 -0.5q-35 0 -67.5 1.5t-55.5 6.5q3 40 5 71.5t3.5 66t2 77.5t0.5 107v164q0 48 -1 102t-2.5 106t-3 98.5t-2.5 80.5q-1 24 -1.5 62t-1.5 77t-1.5 71t-1.5 44q17 3 50 4.5t71 1.5
q29 0 57.5 -1.5t40.5 -4.5q0 -22 -1.5 -64t-3.5 -97t-3.5 -119t-1.5 -132v-430zM444 1477v-42t-1 -40q-1 -21 -1 -41q-14 1 -29 2q-13 1 -27 1.5t-26 0.5q-22 0 -47.5 -1t-48 -2.5t-39.5 -2.5t-22 -2q-8 -2 -20.5 -3.5t-23.5 -3.5l-26 -4q0 21 -1 42q-1 18 -1 39.5v41.5v31
t1 30q1 16 1 31q5 0 15 -0.5t23 -1.5t27 -1.5t27 -0.5q12 0 29 1.5t35.5 3.5t36 3.5t28.5 2.5q9 1 22 2l26 2t24.5 1.5t15.5 0.5q0 -10 1 -24q1 -12 1 -28.5v-37.5z" />
    <glyph glyph-name="J.inf" horiz-adv-x="698"
d="M461 526q0 -106 -6.5 -182t-22 -131.5t-40.5 -96t-62 -77.5q-42 -42 -79.5 -73t-60.5 -50q-14 12 -30.5 29t-33 35.5t-30.5 37.5t-24 37q11 11 32.5 25.5t42.5 36.5q29 28 49.5 52.5t34 53t21 63.5t11 82.5t4.5 111.5t1 149q0 17 -1.5 56t-4 88.5t-5.5 104t-6 103
t-6 84.5t-5 49q51 12 118 12q16 0 33.5 -0.5t33 -2t28 -2.5t18.5 -3q-2 -38 -2 -73.5t-2 -69.5q-1 -30 -2 -59.5t-2 -56t-1.5 -48.5t-0.5 -37v-248zM528 1460v-41.5t-1 -39.5q-1 -21 -1 -42q-14 1 -29 2q-13 1 -27 1.5t-26 0.5q-22 0 -57 -1t-69 -2.5t-60.5 -2.5t-32.5 -2
q-8 -2 -20 -3t-23 -3l-26 -4q0 21 -1 42q-1 18 -1 39.5v41.5v31t1 30q1 16 1 31q5 0 15 -0.5t23 -1.5t27 -1.5t27 -0.5q12 0 38.5 1.5t56.5 3t57 3t38 2.5q9 1 22 2l26 2t24.5 1.5t15.5 0.5q0 -10 1 -24q1 -12 1 -28.5v-37.5z" />
    <glyph glyph-name="K.inf" horiz-adv-x="1176"
d="M1182 94q-9 -20 -26 -43t-37 -45.5t-40 -42t-35 -31.5q-29 29 -81 73t-109 93q-43 36 -79.5 65t-72 57t-73 57t-82.5 63q-22 17 -46.5 36t-47.5 36q-13 9 -26 18.5t-26 20.5h-10v-166q0 -15 0.5 -51.5t2 -79.5t3 -84t2.5 -66q-8 -1 -24 -2.5t-34 -2t-35.5 -1t-29.5 -0.5
q-26 0 -51 3t-35 3q2 22 3 64.5t2 96.5t1.5 115t0.5 119.5v109v83.5v129q0 38 -0.5 76.5t-1 75t-1 69.5t-1.5 59q0 22 -1.5 44.5t-1.5 44.5q-2 12 -2 24v25q17 6 84 6q21 0 42.5 -0.5t39.5 -1t31.5 -1.5t17.5 -3q-1 -21 -3.5 -56.5t-4 -81.5t-3 -101t-1.5 -116v-213h4
q10 11 19 22.5t20 22.5q17 19 34.5 40t31.5 38q72 91 133.5 165t118.5 147q20 24 36 43.5t30.5 38t29 37.5t31.5 40q15 -5 36 -20.5t41.5 -34.5t37 -38.5t22.5 -31.5q-33 -35 -59 -63.5t-51 -56t-51 -56.5t-58 -67q-34 -39 -63 -72t-55 -63t-49 -58t-44 -57q25 -21 44 -36
t37 -28.5l38 -28.5t47 -36q39 -31 72 -57t64.5 -50.5t64 -48.5t71.5 -53q22 -17 40.5 -31t36.5 -27.5t37.5 -27t43.5 -29.5zM1090 1466q0 -20 -1.5 -41.5t-3.5 -39.5l-6 -42q-43 4 -86 7q-37 2 -79.5 4t-77.5 2q-69 0 -139.5 -0.5t-128.5 -1.5q-68 -1 -130 -2
q-26 -2 -68 -5.5t-82 -7.5q-47 -4 -98 -8q-1 21 -3 42q-2 18 -2.5 39.5t-0.5 41.5q0 15 2 31t4 30q3 16 5 31q14 0 45 -0.5t70.5 -1.5t84 -1.5t84.5 -0.5q63 0 127.5 0.5t116.5 1.5q61 1 117 2q100 6 157 8t86 2q2 -10 4 -24q3 -24 3 -66z" />
    <glyph glyph-name="L.inf" horiz-adv-x="907"
d="M823 92q0 -10 -0.5 -24t-2 -28.5t-2.5 -28t-3 -21.5q-10 1 -52 3.5t-98.5 4t-118.5 3t-112 1.5q-20 0 -45.5 0.5l-51 1t-48 1t-35.5 1.5q-16 2 -29.5 2t-27.5 2q2 51 3 92t1.5 80.5t1 80t0.5 89.5v328l-8 440q14 5 39.5 5.5t44.5 0.5h27.5h38.5t37.5 -0.5t23.5 -1.5
q-1 -10 -2.5 -33t-2.5 -53t-2 -64t-2 -66t-1.5 -58.5t-0.5 -42.5v-315q0 -28 0.5 -71t1 -88t1 -86.5t1.5 -66.5q23 -5 42.5 -6.5t50.5 -3.5q24 0 64.5 -0.5t86.5 -0.5t92.5 -0.5t81.5 -0.5q2 -5 3.5 -14.5t2 -20t0.5 -21.5v-20zM831 1468q0 -20 -1 -41.5t-3 -39.5
q-2 -21 -4 -41l-66 6q-29 2 -61.5 4t-60.5 2q-56 0 -104 -1.5t-84 -3.5q-42 -3 -78 -5q-21 -2 -54.5 -6t-65.5 -7q-38 -4 -79 -8l-2 42q-1 18 -1.5 39.5t-0.5 41.5q0 15 1 31t3 30q2 16 4 31q12 0 36.5 -0.5t56 -1.5t67 -1.5t67.5 -0.5q38 0 79.5 1.5t76.5 3.5q40 3 80 5
q40 3 70 5l52.5 3.5t39 2t28.5 0.5q1 -10 2 -24q1 -12 1.5 -29t0.5 -38z" />
    <glyph glyph-name="M.inf" horiz-adv-x="1610"
d="M1503 27q-15 -6 -46 -12.5t-67 -11.5t-70.5 -8t-55.5 -3q-3 31 -6.5 60t-8.5 63.5t-11.5 78t-16.5 103.5q-7 40 -11 63.5t-7 44t-6.5 44t-10.5 63.5q-2 15 -6 37t-8 45.5t-7.5 45t-5.5 34.5q-14 -26 -32.5 -59.5t-38 -70.5l-39 -74t-35.5 -71q-22 -46 -42 -87l-40 -82
t-41.5 -85.5t-46.5 -97.5l-119 -16l-16 40t-19 46q-26 60 -61 138.5t-78 172.5q-18 42 -31.5 72.5t-25 56.5t-23.5 52t-27 57q-9 -42 -17 -80t-17 -78q-6 -28 -13.5 -64t-16.5 -77.5t-18 -86.5l-18 -90q-4 -25 -8.5 -53t-8.5 -54.5t-7 -49l-5 -37.5q-22 0 -52 2.5t-61.5 7
t-62 10.5t-53.5 13q5 17 10 33.5t10 33.5q10 26 19.5 55.5t15.5 51.5q29 109 56 216.5t53 229.5t45.5 241.5t38.5 239.5l82 17q18 -40 42.5 -91.5t53.5 -117.5q27 -58 50.5 -108.5t46 -99t46 -98t50.5 -106.5q12 -24 26.5 -54.5t28.5 -61.5l35 -70q11 20 20.5 38t20.5 38
q17 31 34 66t31 61q27 51 49.5 92.5t43.5 81.5t42.5 81t46.5 91q18 35 35 70t32 66.5t27.5 58t20.5 44.5l88 15q8 -51 17.5 -109.5t21.5 -130.5q13 -80 26 -150.5t26 -140.5t26.5 -143t28.5 -158q11 -52 21.5 -102t23.5 -90q8 -25 14 -48t12 -44zM1458 1475q0 -20 -1.5 -42
t-3.5 -40q-3 -21 -5 -41q-44 3 -87 6q-37 2 -79.5 4t-77.5 2q-34 0 -86.5 -0.5t-115.5 -2t-132 -2.5t-136 -3q-157 -4 -333 -8q-26 -2 -69.5 -6t-85.5 -7q-49 -4 -103 -8q-1 21 -3 42q-2 18 -2.5 39.5t-0.5 41.5q0 15 1.5 31t3.5 30q3 16 5 31q15 0 47.5 -0.5t74 -1.5
t87.5 -1.5t86 -0.5q32 0 81.5 0.5t109 2t125.5 3t130 2.5q150 4 320 8q100 7 157.5 9t86.5 2l3 -24q3 -24 3 -66z" />
    <glyph glyph-name="N.inf" horiz-adv-x="1497"
d="M1233 -2l-76 76l-34.5 34.5t-37.5 37t-37.5 36.5t-35.5 33q-54 51 -98 94t-86 84t-85 82t-94 88q-91 84 -151 135t-99 76q-3 -29 -7 -66.5t-7 -66.5q-11 -122 -18.5 -213t-12.5 -156q-8 -109 -13.5 -192.5t-8.5 -138.5q-28 1 -60.5 3.5t-62.5 5.5t-55.5 7t-40.5 8
q17 74 32 162t29 207q8 61 15 123.5t13 129.5t10.5 139t8.5 151q3 36 5.5 74.5t4 72t2 60t0.5 38.5v23l72 12q27 -31 54 -59.5t55 -56t57 -55t59 -56.5q48 -45 80 -76t62 -59t63 -58t82 -73q48 -42 83.5 -74t67.5 -60.5t66 -59t80 -69.5v181q0 50 -0.5 105t-1.5 106t-2 93.5
t-2 67.5q-2 54 -4.5 109.5t-7.5 103.5q9 2 25.5 2.5t35 1t37 0.5h31.5q21 0 42.5 -0.5t30.5 -3.5q0 -10 -0.5 -33t-1.5 -52t-1.5 -62t-0.5 -64q0 -23 -0.5 -72t-0.5 -115t-0.5 -143.5t-0.5 -156.5q0 -64 1.5 -136t3 -136t2.5 -113.5t1 -69.5zM1335 1475q0 -20 -1.5 -42
t-3.5 -40q-3 -21 -5 -41l-86 6q-37 2 -79.5 4t-78.5 2q-34 0 -80.5 -0.5t-99.5 -2t-109 -2.5t-110 -3q-126 -4 -262 -8q-13 -1 -30.5 -2.5t-37.5 -3.5t-41 -3.5t-41 -3.5q-47 -4 -98 -8q-1 21 -3 42q-2 18 -2.5 39.5t-0.5 41.5q0 15 1.5 31t3.5 30q3 16 5 31q15 0 46 -0.5
t70.5 -1.5t83.5 -1.5t85 -0.5q32 0 75.5 0.5t93 2t102.5 3t104 2.5q119 4 249 8q50 3 89 5.5t68.5 3.5t50.5 1.5t36 0.5l3 -24q3 -24 3 -66z" />
    <glyph glyph-name="O.inf" horiz-adv-x="1479"
d="M1100 557q0 76 -27.5 144t-76 119t-114 80.5t-141.5 29.5t-142.5 -25t-116 -72.5t-78.5 -117.5t-29 -160q0 -80 26 -148t75 -118t120 -78.5t162 -28.5q82 0 146 30t107.5 81t66 119t22.5 145zM166 547q0 123 41.5 227.5t116 181t177.5 119.5t226 43q134 0 241.5 -46
t184 -124t117.5 -180t41 -213q0 -120 -41 -223t-114.5 -179t-174 -119.5t-219.5 -43.5q-143 0 -254 46t-187 123.5t-115.5 178t-39.5 209.5zM1335 1464q0 -20 -1.5 -41.5t-3.5 -39.5q-3 -21 -5 -42q-43 4 -86 7q-37 2 -79.5 4t-78.5 2q-34 0 -80.5 -0.5t-99.5 -2t-109 -2.5
t-110 -3q-126 -4 -262 -9q-26 -2 -68 -5.5t-82 -6.5q-47 -4 -98 -8q-1 20 -3 41q-2 18 -2.5 40t-0.5 42q0 15 1.5 31t3.5 30q3 16 5 31q15 0 46 -0.5t70.5 -1.5t83.5 -1.5t85 -0.5q32 0 75.5 0.5t93 2t102.5 3t104 2.5q119 4 249 8q101 6 158 8t86 2l3 -24q3 -24 3 -66z" />
    <glyph glyph-name="P.inf" horiz-adv-x="1022"
d="M905 793q0 -97 -40.5 -170t-110.5 -122.5t-162.5 -75.5t-196.5 -28v-86q0 -127 2 -203t2 -108q-8 -2 -22.5 -3t-30.5 -1.5t-31 -1t-26 -0.5h-26t-29.5 0.5t-26.5 2t-17 3.5q0 15 0.5 30.5t2.5 32.5q0 28 1 60t1 63q0 36 0.5 90.5t1.5 111.5t1.5 107.5t0.5 79.5
q0 48 -0.5 104.5t-0.5 108t-0.5 91t-0.5 51.5q0 27 -0.5 56.5t-1.5 58t-1.5 52t-0.5 38.5q11 1 36 1.5t53 1t53 1t34 0.5q64 0 128.5 -7.5t124 -24.5t111.5 -44t90 -65.5t60 -89.5t22 -115zM694 780q0 50 -24 85.5t-65 58t-94 33t-112 10.5q-1 -16 -2 -41t-1.5 -53.5
t-0.5 -59.5v-59v-174q11 -2 23.5 -3.5t21.5 -1.5q51 0 97 12t81 37.5t55.5 64t20.5 91.5zM924 1466q0 -20 -1 -41.5t-3 -39.5q-2 -21 -5 -42q-38 4 -76 7q-32 2 -69 4t-68 2q-60 0 -122 -1.5t-113 -3.5q-60 -3 -115 -5q-23 -2 -59 -6t-71 -7q-40 -4 -85 -8q-1 21 -3 42
q-2 18 -2.5 39.5t-0.5 41.5q0 15 1 31t3 30q2 16 4 31q13 0 40.5 -0.5t62 -1.5t73 -1.5t74.5 -0.5q55 0 111.5 1.5t102.5 3.5q54 3 104 5q86 6 136 8t75 2l3 -24q3 -24 3 -66z" />
    <glyph glyph-name="Q.inf" horiz-adv-x="1446"
d="M1061 588q0 79 -26.5 145t-74.5 113t-114 73.5t-144 26.5q-83 0 -149 -28.5t-112.5 -79t-71.5 -119.5t-25 -150t25 -149t71 -117t111.5 -76.5t146.5 -27.5q88 0 155.5 27t113.5 77.5t70 122.5t24 162zM1139 162q11 0 34.5 -0.5t51 -1.5t53.5 -1.5t41 -0.5q11 0 24.5 0.5
t27.5 2.5q16 2 32 3q3 -16 3.5 -35t0.5 -45q0 -15 -1.5 -33.5t-3.5 -37t-5 -34t-6 -24.5q-41 8 -106 14.5t-136 14.5q-59 4 -109 7.5t-98 6.5t-97.5 5t-107.5 3q-130 3 -240 42t-190.5 110.5t-126 173.5t-45.5 231q0 122 42 225t118 179t182.5 118.5t235.5 42.5
q116 0 217.5 -37.5t177 -105.5t119 -163t43.5 -210q0 -84 -19 -155t-49 -128t-67 -99t-74 -66zM1335 1473q0 -20 -1.5 -42t-3.5 -40q-3 -21 -5 -41l-86 6q-37 2 -79.5 4t-78.5 2q-34 0 -80.5 -0.5t-99.5 -2t-109 -2.5t-110 -3q-126 -4 -262 -8q-13 -1 -30.5 -2.5t-37.5 -3.5
t-41 -3.5t-41 -3.5q-47 -4 -98 -8q-1 21 -3 42q-2 18 -2.5 39.5t-0.5 41.5q0 15 1.5 31t3.5 30q3 16 5 31q15 0 46 -0.5t70.5 -1.5t83.5 -1.5t85 -0.5q32 0 75.5 0.5t93 2t102.5 3t104 2.5q119 4 249 8q50 3 89 5.5t68.5 3.5t50.5 1.5t36 0.5l3 -24q3 -24 3 -66z" />
    <glyph glyph-name="R.inf" horiz-adv-x="1100"
d="M682 784q0 49 -18.5 84t-52 57t-80.5 32t-103 10h-15.5t-15.5 -2q-2 -39 -2 -80v-78v-238h4q50 0 100.5 11t91 36.5t66 66.5t25.5 101zM711 487q12 -12 34 -33t43 -42l36.5 -36.5t38 -37.5t44 -43.5l54.5 -54.5q21 -21 37 -36.5t31 -30.5t31.5 -30.5t37.5 -36.5
q-13 -20 -33 -39.5t-42.5 -37.5t-45.5 -33.5t-43 -26.5q-26 34 -67.5 84t-98.5 115q-42 48 -73 82t-58 61.5t-52.5 51t-54.5 49.5q-34 -13 -72 -18.5t-63 -8.5v-29q0 -64 0.5 -121.5t1.5 -104t1.5 -80.5t0.5 -50q-6 -2 -20.5 -3t-32.5 -1.5l-36 -1t-31 -0.5h-24.5t-26 0.5
t-22 1t-13.5 2.5v68.5t2 64.5q1 27 1.5 55t1 53.5t1 47t0.5 35.5v460v63t-0.5 71.5t-1 72.5t-1 66t-1.5 51.5t-2 28.5q14 2 37 3t50 1.5t57 1t58 0.5q114 0 206.5 -21t158 -63.5t101.5 -106.5t36 -151q0 -57 -15 -104.5t-40.5 -86.5t-59 -69t-71.5 -52zM1024 1481
q0 -20 -1 -42t-3 -40q-2 -21 -4 -41l-76 6q-32 2 -69 4t-68 2q-30 0 -65 -0.5t-72.5 -2t-75 -2.5t-72.5 -3q-82 -4 -166 -8q-23 -2 -59 -5.5t-71 -7.5q-40 -4 -85 -8q-1 21 -3 42q-2 18 -2.5 39.5t-0.5 41.5q0 15 1 31t3 30q2 16 4 31q13 0 40.5 -0.5t62 -1.5t73 -1.5
t74.5 -0.5q27 0 60 1t67.5 2t69.5 3t67 3q76 4 154 8q87 6 136.5 8t74.5 2l3 -24q3 -24 3 -66z" />
    <glyph glyph-name="S.inf" horiz-adv-x="817"
d="M727 319q0 -72 -23.5 -131.5t-70.5 -102t-117 -66t-162 -23.5q-37 0 -77.5 4t-78.5 10.5t-71 16t-55 20.5q0 12 3 33.5t8.5 47t13 52.5t16.5 49q21 -10 51 -20t62 -18t63 -13.5t55 -5.5q90 0 136 39t46 104q0 39 -16 70t-42.5 56.5t-59.5 48t-68 45.5q-38 26 -76 55
t-68.5 65t-49.5 80.5t-19 102.5q0 64 24.5 119t73 95.5t121 63.5t168.5 23q27 0 55.5 -1.5t54 -4.5t46 -6.5t32.5 -8.5q0 -18 -2 -41.5t-5 -48.5t-7 -48t-8 -38q-12 4 -29 8.5t-38 8t-43.5 6t-45.5 2.5q-36 0 -71 -6.5t-62 -22t-44 -41t-17 -63.5q0 -28 18.5 -53.5
t47.5 -49.5t65 -47.5t71 -48.5q38 -27 73 -57.5t62 -68t43.5 -84.5t16.5 -106zM737 1466q0 -20 -1 -41.5t-3 -39.5l-4 -42q-36 4 -70 7q-29 2 -62.5 4t-61.5 2q-56 0 -97 -0.5t-70 -1.5q-33 -1 -57 -2q-20 -2 -54 -5.5t-66 -7.5q-38 -4 -78 -8l-2 42q-1 18 -1.5 39.5
t-0.5 41.5q0 15 1 31t3 30q2 16 4 31q11 0 36 -0.5t56.5 -1.5t67 -1.5t67.5 -0.5q23 0 55.5 0.5t63.5 1.5q36 1 74 2q80 6 125.5 8t70.5 2q1 -10 2 -24q1 -12 1.5 -28.5t0.5 -37.5z" />
    <glyph glyph-name="T.inf" horiz-adv-x="1012"
d="M983 1075q0 -12 -0.5 -27.5t-1 -30.5t-1 -27.5t-1.5 -18.5q-14 1 -40.5 2t-61 1.5t-73 1t-75.5 1t-69.5 0.5h-55.5q0 -21 -0.5 -62t-0.5 -83.5t-0.5 -78t-0.5 -46.5v-308q0 -53 1 -114.5t2.5 -117t4 -98.5t4.5 -59q-7 -3 -21 -5t-30.5 -3t-32 -1.5t-26.5 -0.5
q-12 0 -26.5 0.5t-28.5 1t-26.5 2t-21.5 2.5q1 14 2 56t2 100.5t2 126.5t1 133v268q0 32 -0.5 69t-0.5 74t-0.5 71t-0.5 61q-39 -3 -79 -5.5t-75 -5.5q-59 -5 -115 -11t-90 -11q-5 15 -6.5 43t-1.5 53q0 19 1.5 45.5t4.5 40.5q17 2 45 3t51 1q28 2 73.5 4t99 4t111.5 4.5
t111 4.5t96 3t68 1q48 2 94.5 3.5t84.5 3t64.5 2.5t35.5 1q3 -12 3.5 -34.5t0.5 -39.5zM958 1475q0 -20 -1.5 -42t-3.5 -40q-3 -21 -5 -41l-86 6q-37 2 -79.5 4t-77.5 2q-69 0 -139 -2t-127 -4q-67 -3 -128 -6q-26 -2 -68 -5.5t-82 -7.5q-47 -4 -98 -8q-1 21 -3 42
q-2 18 -2.5 39.5t-0.5 41.5q0 15 2 31t4 30q3 16 5 31q14 0 45 -0.5t70.5 -1.5t84 -1.5t84.5 -0.5q63 0 127 2t115 4q60 3 115 6q100 7 157 9t86 2l3 -24q3 -24 3 -66z" />
    <glyph glyph-name="U.inf" horiz-adv-x="1393"
d="M715 164q100 0 161.5 30.5t95 79t45 108.5t11.5 118v102.5t-0.5 114.5t-1 106.5t-2.5 79.5q-1 28 -2.5 57.5t-4 57t-5 50t-4.5 36.5q13 3 29.5 5.5t34 4t34.5 2t29 0.5q20 0 47 -0.5t49 -3.5q0 -14 -1 -36.5t-1 -45.5q-2 -34 -2 -76.5v-95.5t-0.5 -107.5t-2 -104.5
t-2.5 -91.5t-3 -67.5q-8 -135 -45.5 -229.5t-103.5 -154t-158.5 -86.5t-211.5 -27q-219 0 -342 118t-145 345q-4 51 -8 93t-7.5 83.5t-6 87t-5.5 102.5q-2 44 -3.5 87t-2.5 81t-1.5 70t-0.5 53q22 5 49 6.5t45 1.5q13 0 30.5 -0.5t35 -1.5t32.5 -2.5t23 -3.5v-88
q0 -35 -1 -81.5t-1 -119.5q0 -17 0.5 -57.5t2 -87.5t3 -91.5t2.5 -70.5q9 -77 27.5 -141t54.5 -110.5t92.5 -72.5t141.5 -26zM1251 1470q0 -20 -1.5 -41.5t-3.5 -39.5q-3 -21 -5 -41q-48 3 -95 6q-40 2 -85 4t-80 2q-34 0 -76.5 -0.5t-89 -1.5t-94.5 -2t-93 -2
q-106 -3 -216 -6q-13 -1 -30.5 -2.5t-37.5 -3.5t-41 -3.5t-41 -3.5q-47 -4 -98 -8q-1 21 -3 42q-2 18 -2.5 39.5t-0.5 41.5q0 15 1.5 31t3.5 30q3 16 5 31q15 0 46 -0.5t70.5 -1.5t83.5 -1.5t85 -0.5q32 0 71.5 0.5t82.5 1.5t88 2t87 2q99 3 203 6q100 7 165.5 9t94.5 2
l3 -24q3 -24 3 -67z" />
    <glyph glyph-name="V.inf" horiz-adv-x="1155"
d="M1149 1069q-34 -59 -65.5 -116.5t-62.5 -115.5t-62 -118.5t-66 -126.5q-28 -54 -52 -100t-46 -90.5l-44 -89t-46 -95.5q-14 -29 -29 -63t-28.5 -65.5t-24 -57t-15.5 -37.5l-65 -4q-17 40 -44 94.5t-61 126.5q-27 59 -49.5 105.5t-43.5 90.5t-43.5 91.5t-51.5 107.5
q-60 123 -115.5 230.5t-118.5 218.5q20 14 45.5 27.5t53 24.5t53.5 20t47 14q30 -64 54 -115.5t47 -101t48 -103.5t56 -123q21 -48 40.5 -90.5t39 -82.5t40 -80t42.5 -83q26 58 48 105t46 96.5t52 107.5t67 136q27 53 49 98.5t41.5 86.5t36.5 78.5t34 74.5q20 -1 48.5 -9
t57 -19.5t52.5 -24t35 -23.5zM1083 1470q0 -20 -1.5 -41.5t-3.5 -39.5q-3 -21 -5 -41l-86 6q-37 2 -79.5 4t-78.5 2q-34 0 -74 -0.5t-82.5 -1.5t-85.5 -2t-83 -2q-93 -3 -189 -6q-26 -2 -67.5 -6t-81.5 -7q-47 -4 -98 -8q-1 21 -3 42q-2 18 -3 39.5t-1 41.5q0 15 2 31t4 30
q3 16 5 31q15 0 46 -0.5t70.5 -1.5t83.5 -1.5t84 -0.5q32 0 69 0.5t76.5 1.5t79.5 2t77 2q87 3 176 6q100 7 157 9t86 2l3 -24q3 -24 3 -67z" />
    <glyph glyph-name="W.inf" horiz-adv-x="1493"
d="M1462 1108q-4 -13 -11 -33t-15 -42t-15.5 -44.5l-13.5 -40.5q-18 -53 -37 -114.5t-39 -126t-40.5 -130t-41.5 -126.5q-28 -87 -50.5 -160.5t-39.5 -136.5q-14 -48 -23.5 -89t-17.5 -67l-55 -14q-9 21 -18 41.5t-17 40.5q-15 35 -31.5 76.5t-33.5 76.5q-7 17 -21 50
t-32.5 75t-39.5 89.5t-42 93.5t-41 86.5t-35 68.5q-10 -23 -24 -61t-36 -97q-21 -54 -37 -94t-29 -73.5t-24.5 -64.5t-23.5 -67q-13 -37 -22 -62t-16.5 -45t-14.5 -39t-15 -46l-66 -21q-17 48 -39.5 108.5t-50.5 135.5q-34 92 -74.5 203t-83 225t-85 222.5t-80.5 195.5
q14 8 40 16t56 15.5t59.5 14.5t51.5 11q8 -25 14.5 -47.5t14.5 -50t19.5 -64t28.5 -90.5q12 -38 26 -81t29.5 -87.5t31 -90t30.5 -89.5q5 -14 11.5 -32t13.5 -36t13 -33t9 -22q16 32 35.5 85.5t42.5 121.5q26 70 46 124t37 101t31.5 91t28.5 94l76 16q17 -42 30.5 -76.5
t28 -70t32.5 -76.5t44 -98q35 -82 74 -159t74 -155q8 24 16.5 52.5t17.5 57.5t17 55.5t14 47.5q11 32 23.5 72.5t26 86.5t26.5 95.5t25 97.5t21 87t16 67q24 -2 54 -7t58.5 -11.5t52.5 -13.5t35 -13zM1366 1470q0 -20 -1.5 -41.5t-3.5 -39.5q-3 -21 -5 -41q-44 3 -87 6
q-37 2 -79.5 4t-77.5 2q-34 0 -83 -0.5t-105 -2t-117 -2.5t-119 -3q-136 -4 -287 -9q-26 -2 -67.5 -5.5t-81.5 -6.5q-47 -4 -98 -8q-1 21 -3 42q-2 18 -3 39.5t-1 41.5q0 15 2 31t4 30q3 16 5 31q15 0 46 -0.5t70.5 -1.5t83.5 -1.5t84 -0.5q32 0 77.5 0.5t98.5 2t111 3
t113 2.5q130 4 274 8q100 7 157.5 9t86.5 2l3 -24q3 -24 3 -67z" />
    <glyph glyph-name="X.inf" horiz-adv-x="1085"
d="M1083 113q-13 -18 -35 -37.5t-47 -37.5t-50.5 -31.5t-45.5 -18.5q-24 34 -53 74t-61.5 83.5t-66 89.5t-65.5 91q-18 26 -33 46.5t-29 38.5t-27.5 35.5t-28.5 38.5l-60 -82q-24 -34 -47 -66.5t-43 -64.5q-29 -43 -58.5 -86.5t-56.5 -83t-49 -74t-37 -59.5q-18 6 -42 19.5
t-48.5 30t-46.5 33.5t-35 32q14 17 35.5 43t50.5 63.5t67 87.5t85 115q51 69 96 128.5t80 107.5q-7 12 -24 35t-39.5 52t-49 62t-53.5 66q-21 25 -48.5 58.5t-54.5 66t-49.5 59.5t-33.5 39q14 15 35.5 31.5t46 33t48.5 30t42 22.5q28 -35 58.5 -80.5t70.5 -97.5
q26 -36 52.5 -73.5t49.5 -71.5t41 -60.5t27 -38.5q17 24 31 44l28 40t29 42t33 50q25 38 44.5 67t37.5 55.5t35 53.5t38 62q19 -7 44 -21t50 -30t45.5 -31.5t30.5 -26.5q-32 -40 -77 -99t-105 -141q-11 -13 -23 -30t-25 -35.5t-25 -36.5t-23 -33q-14 -17 -26.5 -35.5
t-24.5 -35.5l33 -44t31.5 -40.5t36 -44t44.5 -54.5q38 -50 72 -92.5t66 -81t64.5 -75.5t67.5 -76zM1026 1475q0 -20 -1.5 -42t-3.5 -40q-3 -21 -5 -41q-44 3 -87 6q-37 2 -79.5 4t-77.5 2q-69 0 -147 -2.5t-145 -5.5l-156 -8q-13 -1 -30.5 -2.5t-37.5 -3.5t-41 -3.5
t-41 -3.5q-47 -4 -98 -8q-1 21 -3 42q-2 18 -2.5 39.5t-0.5 41.5q0 15 1.5 31t3.5 30q3 16 5 31q15 0 46 -0.5t70.5 -1.5t83.5 -1.5t85 -0.5q63 0 134.5 2.5t133.5 5.5q72 4 143 8q100 7 157.5 9t86.5 2l3 -24q3 -24 3 -66z" />
    <glyph glyph-name="Y.inf" horiz-adv-x="997"
d="M973 1018q-17 -14 -54 -41.5t-96 -87.5q-40 -42 -81 -98.5t-74 -116.5t-53.5 -119t-20.5 -106v-54q0 -16 1 -48t3 -72t4 -83.5t4 -82t4 -67t4 -38.5q-6 -1 -20 -3t-30.5 -3.5t-32 -2.5t-25.5 -1q-13 0 -29 0.5t-31 2t-28.5 3.5t-22.5 4q0 35 2 71.5t4 74.5q2 31 3 57.5
t1.5 52.5t0.5 53v58v67q0 34 -11 75t-29 84t-42 86t-49.5 82t-51 71.5t-47.5 54.5q-35 35 -69.5 65.5t-81.5 53.5q5 18 20.5 40.5t35 43t39.5 36t34 19.5q43 -26 80 -59t77 -76q62 -66 98.5 -126.5t61.5 -113.5q9 -20 18.5 -48t14.5 -50q5 18 13.5 38.5t18 40.5t18.5 37
t15 27q45 71 89.5 127.5t101.5 112.5q29 29 56.5 50.5t57.5 43.5q15 -9 30.5 -25.5t29.5 -35.5t24.5 -38.5t14.5 -35.5zM944 1466q0 -20 -1.5 -41.5t-3.5 -39.5q-3 -21 -5 -42q-44 4 -87 7q-37 2 -79.5 4t-77.5 2q-69 0 -139.5 -2.5t-128.5 -5.5q-68 -4 -131 -9
q-26 -2 -63 -5.5t-71 -6.5q-40 -4 -81 -8q-1 21 -3 42q-2 18 -2.5 39.5t-0.5 41.5q0 15 1.5 31t3.5 30q3 16 5 31q15 0 40.5 -0.5t59 -1.5t72.5 -1.5t80 -0.5q63 0 127 2.5t117 5.5q62 4 118 8q100 6 157.5 8t86.5 2l3 -24q3 -24 3 -66z" />
    <glyph glyph-name="Z.inf" horiz-adv-x="1147"
d="M1106 205q0 -21 -1.5 -51.5t-3 -60.5t-3.5 -55.5t-4 -35.5q-12 0 -36 0.5t-53.5 1t-62.5 1.5t-64 1.5t-57.5 1t-42.5 0.5q-156 0 -305 -1.5t-299 -6.5l-41 41q35 53 73.5 115t76.5 120q41 66 74 121t65 108t65.5 109t73.5 125q12 20 21.5 37t18.5 32.5t18 30.5t18 33
q12 20 23 40t20 38q-17 2 -35 2t-35 2q-15 0 -37 0.5t-44.5 0.5t-41.5 0.5t-30 0.5q-55 0 -109.5 -1t-104.5 -2.5t-92.5 -4.5t-72.5 -8q0 12 1.5 37t5 54t9 57t12.5 47q36 -2 70.5 -3.5t73 -2t85.5 -1t109 -0.5q76 0 142 1t125 2.5t112 3.5t103 4l57 -45
q-11 -17 -15.5 -24.5t-6.5 -10.5q-76 -133 -179 -307.5t-241 -403.5q-9 -13 -14.5 -22.5t-10.5 -19.5l-10.5 -21l-13.5 -27l-41 -76q65 0 107 0.5t76 1.5t65.5 2t74.5 2q42 1 80 2t77 3t81.5 5t93.5 7zM1075 1475q0 -20 -1.5 -42t-3.5 -40q-3 -21 -5 -41q-44 3 -87 6
q-37 2 -79.5 4t-77.5 2q-34 0 -73.5 -0.5t-81 -2t-83 -2.5t-79.5 -3l-180 -8q-13 -1 -30.5 -2.5t-37.5 -3.5t-41 -3.5t-41 -3.5q-47 -4 -98 -8q-1 21 -3 42q-2 18 -2.5 39.5t-0.5 41.5q0 15 1.5 31t3.5 30q3 16 5 31q15 0 46 -0.5t70.5 -1.5t83.5 -1.5t85 -0.5
q32 0 68.5 0.5t74.5 2t76.5 3t73.5 2.5q83 4 167 8q100 7 157.5 9t86.5 2l3 -24q3 -24 3 -66z" />
    <glyph glyph-name="A.psc" horiz-adv-x="1227"
d="M1217 76q-36 -26 -89.5 -47.5t-109.5 -32.5q-29 66 -64 140t-77 147q-28 2 -56.5 3.5t-64.5 2.5t-83.5 1.5t-115.5 0.5q-60 0 -115 -1.5t-86 -6.5q-19 -30 -40 -65.5t-41 -73t-38.5 -75t-33.5 -71.5q-22 5 -48 12t-52 16.5t-50 21t-43 26.5q25 31 60 85t76 123
t86.5 148.5t91 161t88.5 161t79 148.5t63.5 123.5t41.5 85.5l47 16q14 -31 42.5 -88t67 -130t83.5 -158t91.5 -170.5t91.5 -167.5t84 -150t69 -117t45 -69zM799 461q-25 48 -45.5 88t-40.5 79.5t-42 81.5t-50 95q-48 -95 -90.5 -177.5t-86.5 -166.5q14 -2 26.5 -3.5
t28.5 -2.5t38 -1.5t55 -0.5q52 0 87 1.5t58.5 3t37.5 2.5t24 1z" />
    <glyph glyph-name="B.psc" horiz-adv-x="1102"
d="M977 346q0 -96 -52.5 -162.5t-140 -107.5t-200.5 -59.5t-234 -18.5q-31 0 -72.5 1t-89.5 1q3 23 5 68t3.5 98t2 108t0.5 97v352q0 21 -0.5 52t-2 67.5t-3.5 76t-4 76.5t-4 69t-5 54q18 2 48.5 3t62 2.5t59.5 2t41 0.5q108 0 200 -16.5t159.5 -51t106 -87.5t38.5 -127
q0 -49 -17 -89.5t-47 -71t-70.5 -52t-86.5 -33.5q71 -9 127 -30.5t95 -54t60 -75t21 -92.5zM696 817q0 74 -81 111t-228 37v-299h8q158 0 229.5 41t71.5 110zM774 346q0 74 -76 118t-237 44h-78q0 -8 0.5 -33t1 -59t1.5 -72.5t2 -74t2 -64t3 -41.5q89 0 160 9.5t120 31
t75 56t26 85.5z" />
    <glyph glyph-name="C.psc" horiz-adv-x="1327"
d="M1206 111q-85 -56 -193.5 -88.5t-250.5 -32.5q-141 0 -252 39t-187.5 111.5t-116.5 175.5t-40 231t40.5 233.5t117 180.5t186.5 116t248 41q71 0 137.5 -8.5t124 -21.5t102.5 -29.5t72 -32.5q-2 -19 -9 -42.5t-16 -48t-20 -47t-21 -40.5q-18 12 -54 27.5t-85 29
t-108.5 22.5t-124.5 9q-94 0 -165.5 -26.5t-119.5 -76.5t-72 -123t-24 -165q0 -84 22 -152.5t68 -117.5t117 -76t170 -27q110 0 198.5 25.5t175.5 78.5q26 -38 46.5 -76.5t33.5 -88.5z" />
    <glyph glyph-name="D.psc" horiz-adv-x="1430"
d="M1262 584q0 -102 -26 -186t-72 -149.5t-108 -114t-134 -80t-150 -47t-156 -15.5q-130 0 -230 7t-187 17q6 79 5 157t-1 138v484q0 38 -1 86.5t-3 95.5t-4 87t-5 62q35 2 69 3.5t69 3.5q60 5 130 5.5t136 0.5q133 0 254 -32.5t213 -100.5t146.5 -173t54.5 -249zM1055 582
q0 96 -33 168t-93.5 120.5t-147.5 72.5t-195 24q-23 0 -51 -1t-54 -3.5t-48 -5.5t-34 -7q-2 -34 -3.5 -77.5t-2 -86t-0.5 -81v-64.5q0 -25 0.5 -63t1 -81.5t1.5 -89.5t2 -88t1.5 -77t1.5 -56q12 -2 27.5 -4.5t37 -4.5t51 -3.5t71.5 -1.5q111 0 198 25t147 76t91 128t31 181z
" />
    <glyph glyph-name="E.psc" horiz-adv-x="1094"
d="M195 6q2 24 3 59t1.5 74t1 79.5t0.5 76.5v63.5v40.5v242v79.5t-0.5 84t-1 83t-2.5 75.5q-1 24 -1.5 42t-1.5 35.5t-2 35.5t-2 42q21 -1 38 -1.5t33 -0.5h33h38q33 0 73 0.5t79.5 1.5t74.5 1.5t59 0.5q23 0 58.5 1.5t74.5 4t75.5 4.5t60.5 3q4 -16 7 -38.5t4.5 -46.5
t2.5 -48t0 -44q-18 0 -44.5 -0.5t-59 -0.5t-69.5 -0.5t-75 -0.5q-11 0 -33.5 -0.5t-48.5 -1.5t-51.5 -2t-42.5 -2q-34 -3 -80 -6q-1 -25 -2 -54.5t-2 -59.5t-1.5 -59.5t-0.5 -55.5v-25h191q80 0 130 1.5t87 3.5t67.5 4.5t71.5 4.5q2 -20 3 -40.5t1 -57.5q0 -23 -0.5 -51
t-5.5 -45q-66 -2 -147.5 3t-178.5 5q-29 0 -67 -1t-70 -1q-23 0 -41.5 -1t-40.5 -1v-96q0 -27 0.5 -58.5l1 -63t2 -61.5t2.5 -53q62 -11 119 -12.5t105 -3.5q42 -2 83.5 -3t79 -1h68h51.5q0 -15 -1.5 -38t-3.5 -48t-5 -50t-6 -44q-24 1 -58.5 2.5t-77 3t-91.5 4t-101 4.5
q-50 0 -99 3.5t-112 4.5h-51t-49 2q-14 2 -26.5 2h-26.5z" />
    <glyph glyph-name="F.psc" horiz-adv-x="1038"
d="M307 4q-35 0 -62 1t-50 3q2 24 3 59t1.5 74t1 79.5t0.5 76.5v63.5v40.5v242v79.5t-0.5 84t-1 83t-2.5 75.5q-1 24 -1.5 42t-1.5 35.5t-2 35.5t-2 42q21 -1 38 -1.5t33 -0.5h33h38q66 0 122.5 2t104.5 2q52 1 101 2.5t91.5 4t77 4t58.5 2.5q4 -16 7 -38.5t4.5 -46.5
t2.5 -48t0 -44q-18 0 -52 -0.5t-76 -0.5t-86.5 -0.5t-82.5 -0.5q-21 0 -48 -1t-54.5 -3t-54.5 -4.5t-50 -5.5q-1 -28 -2.5 -71t-2 -88t-1 -87.5t-0.5 -70.5v-25h191q57 0 97.5 1t73.5 2.5t65 4t73 4.5q2 -20 4 -39.5t2 -56.5q0 -23 -1.5 -50.5t-4.5 -45.5q-32 0 -62 1.5
t-63 3t-70.5 2.5t-85.5 1q-49 0 -107.5 -1t-111.5 -3v-96q0 -31 2.5 -106t5.5 -212q-3 -1 -13 -2t-23.5 -2t-28.5 -1.5t-27 -0.5z" />
    <glyph glyph-name="G.psc" horiz-adv-x="1364"
d="M1186 119q-45 -31 -97.5 -55t-108.5 -40.5t-115 -25t-117 -8.5q-138 0 -246.5 40t-183 113t-113.5 176t-39 230q0 120 40.5 223.5t117 180.5t186.5 121t248 44q64 0 119.5 -6t105.5 -16.5t95 -25t87 -30.5q-6 -42 -23 -88t-42 -96q-36 19 -79.5 34t-89 25t-90.5 15.5
t-85 5.5q-91 0 -162 -27.5t-120 -78.5t-74 -123t-25 -162q0 -178 95 -274.5t282 -96.5q78 0 139 14.5t98 34.5v115q0 16 -1 43.5t-2.5 57.5t-3 57.5t-1.5 42.5q9 2 22 3.5t27.5 2.5t27.5 1.5t21 0.5q12 0 26.5 -0.5t29.5 -1t27.5 -1t19.5 -1.5q0 -18 -0.5 -42t-0.5 -49
t-0.5 -48t-0.5 -39v-62t0.5 -71.5t2 -66t3.5 -46.5z" />
    <glyph glyph-name="H.psc" horiz-adv-x="1501"
d="M1317 1143q0 -48 -7 -150.5t-7 -257.5v-397v-30.5t1 -53t3 -90.5t6 -144q-19 -5 -44.5 -6.5t-56.5 -1.5q-32 0 -61 1.5t-49 6.5q2 48 3.5 107.5t2.5 124.5t1.5 132t0.5 128q-43 0 -81.5 -1.5t-81 -3.5t-93 -4.5t-117.5 -4.5q-39 -2 -91.5 -3.5t-103.5 -3t-92 -4t-57 -6.5
v-188v-48.5v-70.5t1 -82.5t3 -85.5q-17 -5 -43 -5.5t-57 -0.5q-35 0 -60.5 1.5t-48.5 6.5q3 40 5 71.5t3.5 66t2 77.5t0.5 107v164q0 48 -0.5 114t-1.5 132.5t-2.5 125t-4.5 92.5q0 29 -1 59t-3 56q-2 16 -2 31v31q17 3 47 4.5t68 1.5q15 0 30.5 -0.5t30 -1t26 -1.5t17.5 -3
q0 -22 -1.5 -53t-3.5 -74t-3.5 -101t-1.5 -135v-102q26 0 67 -1t83 -1q87 0 153.5 1t128.5 4t128 7t153 10v187.5t-2 142.5q-2 34 -2 63.5t-2 55.5q18 5 54.5 6.5t74.5 1.5q29 0 47 -1t41 -3z" />
    <glyph glyph-name="I.psc" horiz-adv-x="588"
d="M393 297v-48.5v-70.5t1 -82.5t3 -85.5q-7 -1 -18.5 -2.5t-23.5 -2t-23.5 -1t-20.5 -0.5q-35 0 -67.5 1.5t-55.5 6.5q3 40 5 71.5t3.5 66t2 77.5t0.5 107v164q0 48 -1 102t-2.5 106t-3 98.5t-2.5 80.5q-1 24 -1.5 62t-1.5 77t-1.5 71t-1.5 44q17 3 50 4.5t71 1.5
q29 0 57.5 -1.5t40.5 -4.5q0 -22 -1.5 -64t-3.5 -97t-3.5 -119t-1.5 -132v-430z" />
    <glyph glyph-name="J.psc" horiz-adv-x="698"
d="M461 526q0 -106 -6.5 -182t-22 -131.5t-40.5 -96t-62 -77.5q-42 -42 -79.5 -73t-60.5 -50q-14 12 -30.5 29t-33 35.5t-30.5 37.5t-24 37q11 11 32.5 25.5t42.5 36.5q29 28 49.5 52.5t34 53t21 63.5t11 82.5t4.5 111.5t1 149q0 17 -1.5 56t-4 88.5t-5.5 104t-6 103
t-6 84.5t-5 49q51 12 118 12q16 0 33.5 -0.5t33 -2t28 -2.5t18.5 -3q-2 -38 -2 -73.5t-2 -69.5q-1 -30 -2 -59.5t-2 -56t-1.5 -48.5t-0.5 -37v-248z" />
    <glyph glyph-name="K.psc" horiz-adv-x="1176"
d="M1182 94q-9 -20 -26 -43t-37 -45.5t-40 -42t-35 -31.5q-29 29 -81 73t-109 93q-43 36 -79.5 65t-72 57t-73 57t-82.5 63q-22 17 -46.5 36t-47.5 36q-13 9 -26 18.5t-26 20.5h-10v-166q0 -15 0.5 -51.5t2 -79.5t3 -84t2.5 -66q-8 -1 -24 -2.5t-34 -2t-35.5 -1t-29.5 -0.5
q-26 0 -51 3t-35 3q2 22 3 64.5t2 96.5t1.5 115t0.5 119.5v109v83.5v129q0 38 -0.5 76.5t-1 75t-1 69.5t-1.5 59q0 22 -1.5 44.5t-1.5 44.5q-2 12 -2 24v25q17 6 84 6q21 0 42.5 -0.5t39.5 -1t31.5 -1.5t17.5 -3q-1 -21 -3.5 -56.5t-4 -81.5t-3 -101t-1.5 -116v-213h4
q10 11 19 22.5t20 22.5q17 19 34.5 40t31.5 38q72 91 133.5 165t118.5 147q20 24 36 43.5t30.5 38t29 37.5t31.5 40q15 -5 36 -20.5t41.5 -34.5t37 -38.5t22.5 -31.5q-33 -35 -59 -63.5t-51 -56t-51 -56.5t-58 -67q-34 -39 -63 -72t-55 -63t-49 -58t-44 -57q25 -21 44 -36
t37 -28.5l38 -28.5t47 -36q39 -31 72 -57t64.5 -50.5t64 -48.5t71.5 -53q22 -17 40.5 -31t36.5 -27.5t37.5 -27t43.5 -29.5z" />
    <glyph glyph-name="L.psc" horiz-adv-x="907"
d="M823 92q0 -10 -0.5 -24t-2 -28.5t-2.5 -28t-3 -21.5q-10 1 -52 3.5t-98.5 4t-118.5 3t-112 1.5q-20 0 -45.5 0.5l-51 1t-48 1t-35.5 1.5q-16 2 -29.5 2t-27.5 2q2 51 3 92t1.5 80.5t1 80t0.5 89.5v328l-8 440q14 5 39.5 5.5t44.5 0.5h27.5h38.5t37.5 -0.5t23.5 -1.5
q-1 -10 -2.5 -33t-2.5 -53t-2 -64t-2 -66t-1.5 -58.5t-0.5 -42.5v-315q0 -28 0.5 -71t1 -88t1 -86.5t1.5 -66.5q23 -5 42.5 -6.5t50.5 -3.5q24 0 64.5 -0.5t86.5 -0.5t92.5 -0.5t81.5 -0.5q2 -5 3.5 -14.5t2 -20t0.5 -21.5v-20z" />
    <glyph glyph-name="M.psc" horiz-adv-x="1610"
d="M1503 27q-15 -6 -46 -12.5t-67 -11.5t-70.5 -8t-55.5 -3q-3 31 -6.5 60t-8.5 63.5t-11.5 78t-16.5 103.5q-7 40 -11 63.5t-7 44t-6.5 44t-10.5 63.5q-2 15 -6 37t-8 45.5t-7.5 45t-5.5 34.5q-14 -26 -32.5 -59.5t-38 -70.5l-39 -74t-35.5 -71q-22 -46 -42 -87l-40 -82
t-41.5 -85.5t-46.5 -97.5l-119 -16l-16 40t-19 46q-26 60 -61 138.5t-78 172.5q-18 42 -31.5 72.5t-25 56.5t-23.5 52t-27 57q-9 -42 -17 -80t-17 -78q-6 -28 -13.5 -64t-16.5 -77.5t-18 -86.5l-18 -90q-4 -25 -8.5 -53t-8.5 -54.5t-7 -49l-5 -37.5q-22 0 -52 2.5t-61.5 7
t-62 10.5t-53.5 13q5 17 10 33.5t10 33.5q10 26 19.5 55.5t15.5 51.5q29 109 56 216.5t53 229.5t45.5 241.5t38.5 239.5l82 17q18 -40 42.5 -91.5t53.5 -117.5q27 -58 50.5 -108.5t46 -99t46 -98t50.5 -106.5q12 -24 26.5 -54.5t28.5 -61.5l35 -70q11 20 20.5 38t20.5 38
q17 31 34 66t31 61q27 51 49.5 92.5t43.5 81.5t42.5 81t46.5 91q18 35 35 70t32 66.5t27.5 58t20.5 44.5l88 15q8 -51 17.5 -109.5t21.5 -130.5q13 -80 26 -150.5t26 -140.5t26.5 -143t28.5 -158q11 -52 21.5 -102t23.5 -90q8 -25 14 -48t12 -44z" />
    <glyph glyph-name="N.psc" horiz-adv-x="1497"
d="M1233 -2l-76 76l-34.5 34.5t-37.5 37t-37.5 36.5t-35.5 33q-54 51 -98 94t-86 84t-85 82t-94 88q-91 84 -151 135t-99 76q-3 -29 -7 -66.5t-7 -66.5q-11 -122 -18.5 -213t-12.5 -156q-8 -109 -13.5 -192.5t-8.5 -138.5q-28 1 -60.5 3.5t-62.5 5.5t-55.5 7t-40.5 8
q17 74 32 162t29 207q8 61 15 123.5t13 129.5t10.5 139t8.5 151q3 36 5.5 74.5t4 72t2 60t0.5 38.5v23l72 12q27 -31 54 -59.5t55 -56t57 -55t59 -56.5q48 -45 80 -76t62 -59t63 -58t82 -73q48 -42 83.5 -74t67.5 -60.5t66 -59t80 -69.5v181q0 50 -0.5 105t-1.5 106t-2 93.5
t-2 67.5q-2 54 -4.5 109.5t-7.5 103.5q9 2 25.5 2.5t35 1t37 0.5h31.5q21 0 42.5 -0.5t30.5 -3.5q0 -10 -0.5 -33t-1.5 -52t-1.5 -62t-0.5 -64q0 -23 -0.5 -72t-0.5 -115t-0.5 -143.5t-0.5 -156.5q0 -64 1.5 -136t3 -136t2.5 -113.5t1 -69.5z" />
    <glyph glyph-name="O.psc" horiz-adv-x="1479"
d="M1100 557q0 76 -27.5 144t-76 119t-114 80.5t-141.5 29.5t-142.5 -25t-116 -72.5t-78.5 -117.5t-29 -160q0 -80 26 -148t75 -118t120 -78.5t162 -28.5q82 0 146 30t107.5 81t66 119t22.5 145zM166 547q0 123 41.5 227.5t116 181t177.5 119.5t226 43q134 0 241.5 -46
t184 -124t117.5 -180t41 -213q0 -120 -41 -223t-114.5 -179t-174 -119.5t-219.5 -43.5q-143 0 -254 46t-187 123.5t-115.5 178t-39.5 209.5z" />
    <glyph glyph-name="P.psc" horiz-adv-x="1022"
d="M905 793q0 -97 -40.5 -170t-110.5 -122.5t-162.5 -75.5t-196.5 -28v-86q0 -127 2 -203t2 -108q-8 -2 -22.5 -3t-30.5 -1.5t-31 -1t-26 -0.5h-26t-29.5 0.5t-26.5 2t-17 3.5q0 15 0.5 30.5t2.5 32.5q0 28 1 60t1 63q0 36 0.5 90.5t1.5 111.5t1.5 107.5t0.5 79.5
q0 48 -0.5 104.5t-0.5 108t-0.5 91t-0.5 51.5q0 27 -0.5 56.5t-1.5 58t-1.5 52t-0.5 38.5q11 1 36 1.5t53 1t53 1t34 0.5q64 0 128.5 -7.5t124 -24.5t111.5 -44t90 -65.5t60 -89.5t22 -115zM694 780q0 50 -24 85.5t-65 58t-94 33t-112 10.5q-1 -16 -2 -41t-1.5 -53.5
t-0.5 -59.5v-59v-174q11 -2 23.5 -3.5t21.5 -1.5q51 0 97 12t81 37.5t55.5 64t20.5 91.5z" />
    <glyph glyph-name="Q.psc" horiz-adv-x="1446"
d="M1061 588q0 79 -26.5 145t-74.5 113t-114 73.5t-144 26.5q-83 0 -149 -28.5t-112.5 -79t-71.5 -119.5t-25 -150t25 -149t71 -117t111.5 -76.5t146.5 -27.5q88 0 155.5 27t113.5 77.5t70 122.5t24 162zM1139 162q11 0 34.5 -0.5t51 -1.5t53.5 -1.5t41 -0.5q11 0 24.5 0.5
t27.5 2.5q16 2 32 3q3 -16 3.5 -35t0.5 -45q0 -15 -1.5 -33.5t-3.5 -37t-5 -34t-6 -24.5q-41 8 -106 14.5t-136 14.5q-59 4 -109 7.5t-98 6.5t-97.5 5t-107.5 3q-130 3 -240 42t-190.5 110.5t-126 173.5t-45.5 231q0 122 42 225t118 179t182.5 118.5t235.5 42.5
q116 0 217.5 -37.5t177 -105.5t119 -163t43.5 -210q0 -84 -19 -155t-49 -128t-67 -99t-74 -66z" />
    <glyph glyph-name="R.psc" horiz-adv-x="1100"
d="M682 784q0 49 -18.5 84t-52 57t-80.5 32t-103 10h-15.5t-15.5 -2q-2 -39 -2 -80v-78v-238h4q50 0 100.5 11t91 36.5t66 66.5t25.5 101zM711 487q12 -12 34 -33t43 -42l36.5 -36.5t38 -37.5t44 -43.5l54.5 -54.5q21 -21 37 -36.5t31 -30.5t31.5 -30.5t37.5 -36.5
q-13 -20 -33 -39.5t-42.5 -37.5t-45.5 -33.5t-43 -26.5q-26 34 -67.5 84t-98.5 115q-42 48 -73 82t-58 61.5t-52.5 51t-54.5 49.5q-34 -13 -72 -18.5t-63 -8.5v-29q0 -64 0.5 -121.5t1.5 -104t1.5 -80.5t0.5 -50q-6 -2 -20.5 -3t-32.5 -1.5l-36 -1t-31 -0.5h-24.5t-26 0.5
t-22 1t-13.5 2.5v68.5t2 64.5q1 27 1.5 55t1 53.5t1 47t0.5 35.5v460v63t-0.5 71.5t-1 72.5t-1 66t-1.5 51.5t-2 28.5q14 2 37 3t50 1.5t57 1t58 0.5q114 0 206.5 -21t158 -63.5t101.5 -106.5t36 -151q0 -57 -15 -104.5t-40.5 -86.5t-59 -69t-71.5 -52z" />
    <glyph glyph-name="S.psc" horiz-adv-x="817"
d="M727 319q0 -72 -23.5 -131.5t-70.5 -102t-117 -66t-162 -23.5q-37 0 -77.5 4t-78.5 10.5t-71 16t-55 20.5q0 12 3 33.5t8.5 47t13 52.5t16.5 49q21 -10 51 -20t62 -18t63 -13.5t55 -5.5q90 0 136 39t46 104q0 39 -16 70t-42.5 56.5t-59.5 48t-68 45.5q-38 26 -76 55
t-68.5 65t-49.5 80.5t-19 102.5q0 64 24.5 119t73 95.5t121 63.5t168.5 23q27 0 55.5 -1.5t54 -4.5t46 -6.5t32.5 -8.5q0 -18 -2 -41.5t-5 -48.5t-7 -48t-8 -38q-12 4 -29 8.5t-38 8t-43.5 6t-45.5 2.5q-36 0 -71 -6.5t-62 -22t-44 -41t-17 -63.5q0 -28 18.5 -53.5
t47.5 -49.5t65 -47.5t71 -48.5q38 -27 73 -57.5t62 -68t43.5 -84.5t16.5 -106z" />
    <glyph glyph-name="T.psc" horiz-adv-x="1012"
d="M983 1075q0 -12 -0.5 -27.5t-1 -30.5t-1 -27.5t-1.5 -18.5q-14 1 -40.5 2t-61 1.5t-73 1t-75.5 1t-69.5 0.5h-55.5q0 -21 -0.5 -62t-0.5 -83.5t-0.5 -78t-0.5 -46.5v-308q0 -53 1 -114.5t2.5 -117t4 -98.5t4.5 -59q-7 -3 -21 -5t-30.5 -3t-32 -1.5t-26.5 -0.5
q-12 0 -26.5 0.5t-28.5 1t-26.5 2t-21.5 2.5q1 14 2 56t2 100.5t2 126.5t1 133v268q0 32 -0.5 69t-0.5 74t-0.5 71t-0.5 61q-39 -3 -79 -5.5t-75 -5.5q-59 -5 -115 -11t-90 -11q-5 15 -6.5 43t-1.5 53q0 19 1.5 45.5t4.5 40.5q17 2 45 3t51 1q28 2 73.5 4t99 4t111.5 4.5
t111 4.5t96 3t68 1q48 2 94.5 3.5t84.5 3t64.5 2.5t35.5 1q3 -12 3.5 -34.5t0.5 -39.5z" />
    <glyph glyph-name="U.psc" horiz-adv-x="1393"
d="M715 164q100 0 161.5 30.5t95 79t45 108.5t11.5 118v102.5t-0.5 114.5t-1 106.5t-2.5 79.5q-1 28 -2.5 57.5t-4 57t-5 50t-4.5 36.5q13 3 29.5 5.5t34 4t34.5 2t29 0.5q20 0 47 -0.5t49 -3.5q0 -14 -1 -36.5t-1 -45.5q-2 -34 -2 -76.5v-95.5t-0.5 -107.5t-2 -104.5
t-2.5 -91.5t-3 -67.5q-8 -135 -45.5 -229.5t-103.5 -154t-158.5 -86.5t-211.5 -27q-219 0 -342 118t-145 345q-4 51 -8 93t-7.5 83.5t-6 87t-5.5 102.5q-2 44 -3.5 87t-2.5 81t-1.5 70t-0.5 53q22 5 49 6.5t45 1.5q13 0 30.5 -0.5t35 -1.5t32.5 -2.5t23 -3.5v-88
q0 -35 -1 -81.5t-1 -119.5q0 -17 0.5 -57.5t2 -87.5t3 -91.5t2.5 -70.5q9 -77 27.5 -141t54.5 -110.5t92.5 -72.5t141.5 -26z" />
    <glyph glyph-name="V.psc" horiz-adv-x="1155"
d="M1149 1069q-34 -59 -65.5 -116.5t-62.5 -115.5t-62 -118.5t-66 -126.5q-28 -54 -52 -100t-46 -90.5l-44 -89t-46 -95.5q-14 -29 -29 -63t-28.5 -65.5t-24 -57t-15.5 -37.5l-65 -4q-17 40 -44 94.5t-61 126.5q-27 59 -49.5 105.5t-43.5 90.5t-43.5 91.5t-51.5 107.5
q-60 123 -115.5 230.5t-118.5 218.5q20 14 45.5 27.5t53 24.5t53.5 20t47 14q30 -64 54 -115.5t47 -101t48 -103.5t56 -123q21 -48 40.5 -90.5t39 -82.5t40 -80t42.5 -83q26 58 48 105t46 96.5t52 107.5t67 136q27 53 49 98.5t41.5 86.5t36.5 78.5t34 74.5q20 -1 48.5 -9
t57 -19.5t52.5 -24t35 -23.5z" />
    <glyph glyph-name="W.psc" horiz-adv-x="1493"
d="M1462 1108q-4 -13 -11 -33t-15 -42t-15.5 -44.5l-13.5 -40.5q-18 -53 -37 -114.5t-39 -126t-40.5 -130t-41.5 -126.5q-28 -87 -50.5 -160.5t-39.5 -136.5q-14 -48 -23.5 -89t-17.5 -67l-55 -14q-9 21 -18 41.5t-17 40.5q-15 35 -31.5 76.5t-33.5 76.5q-7 17 -21 50
t-32.5 75t-39.5 89.5t-42 93.5t-41 86.5t-35 68.5q-10 -23 -24 -61t-36 -97q-21 -54 -37 -94t-29 -73.5t-24.5 -64.5t-23.5 -67q-13 -37 -22 -62t-16.5 -45t-14.5 -39t-15 -46l-66 -21q-17 48 -39.5 108.5t-50.5 135.5q-34 92 -74.5 203t-83 225t-85 222.5t-80.5 195.5
q14 8 40 16t56 15.5t59.5 14.5t51.5 11q8 -25 14.5 -47.5t14.5 -50t19.5 -64t28.5 -90.5q12 -38 26 -81t29.5 -87.5t31 -90t30.5 -89.5q5 -14 11.5 -32t13.5 -36t13 -33t9 -22q16 32 35.5 85.5t42.5 121.5q26 70 46 124t37 101t31.5 91t28.5 94l76 16q17 -42 30.5 -76.5
t28 -70t32.5 -76.5t44 -98q35 -82 74 -159t74 -155q8 24 16.5 52.5t17.5 57.5t17 55.5t14 47.5q11 32 23.5 72.5t26 86.5t26.5 95.5t25 97.5t21 87t16 67q24 -2 54 -7t58.5 -11.5t52.5 -13.5t35 -13z" />
    <glyph glyph-name="X.psc" horiz-adv-x="1085"
d="M1083 113q-13 -18 -35 -37.5t-47 -37.5t-50.5 -31.5t-45.5 -18.5q-24 34 -53 74t-61.5 83.5t-66 89.5t-65.5 91q-18 26 -33 46.5t-29 38.5t-27.5 35.5t-28.5 38.5l-60 -82q-24 -34 -47 -66.5t-43 -64.5q-29 -43 -58.5 -86.5t-56.5 -83t-49 -74t-37 -59.5q-18 6 -42 19.5
t-48.5 30t-46.5 33.5t-35 32q14 17 35.5 43t50.5 63.5t67 87.5t85 115q51 69 96 128.5t80 107.5q-7 12 -24 35t-39.5 52t-49 62t-53.5 66q-21 25 -48.5 58.5t-54.5 66t-49.5 59.5t-33.5 39q14 15 35.5 31.5t46 33t48.5 30t42 22.5q28 -35 58.5 -80.5t70.5 -97.5
q26 -36 52.5 -73.5t49.5 -71.5t41 -60.5t27 -38.5q17 24 31 44l28 40t29 42t33 50q25 38 44.5 67t37.5 55.5t35 53.5t38 62q19 -7 44 -21t50 -30t45.5 -31.5t30.5 -26.5q-32 -40 -77 -99t-105 -141q-11 -13 -23 -30t-25 -35.5t-25 -36.5t-23 -33q-14 -17 -26.5 -35.5
t-24.5 -35.5l33 -44t31.5 -40.5t36 -44t44.5 -54.5q38 -50 72 -92.5t66 -81t64.5 -75.5t67.5 -76z" />
    <glyph glyph-name="Y.psc" horiz-adv-x="997"
d="M973 1018q-17 -14 -54 -41.5t-96 -87.5q-40 -42 -81 -98.5t-74 -116.5t-53.5 -119t-20.5 -106v-54q0 -16 1 -48t3 -72t4 -83.5t4 -82t4 -67t4 -38.5q-6 -1 -20 -3t-30.5 -3.5t-32 -2.5t-25.5 -1q-13 0 -29 0.5t-31 2t-28.5 3.5t-22.5 4q0 35 2 71.5t4 74.5q2 31 3 57.5
t1.5 52.5t0.5 53v58v67q0 34 -11 75t-29 84t-42 86t-49.5 82t-51 71.5t-47.5 54.5q-35 35 -69.5 65.5t-81.5 53.5q5 18 20.5 40.5t35 43t39.5 36t34 19.5q43 -26 80 -59t77 -76q62 -66 98.5 -126.5t61.5 -113.5q9 -20 18.5 -48t14.5 -50q5 18 13.5 38.5t18 40.5t18.5 37
t15 27q45 71 89.5 127.5t101.5 112.5q29 29 56.5 50.5t57.5 43.5q15 -9 30.5 -25.5t29.5 -35.5t24.5 -38.5t14.5 -35.5z" />
    <glyph glyph-name="Z.psc" horiz-adv-x="1147"
d="M1106 205q0 -21 -1.5 -51.5t-3 -60.5t-3.5 -55.5t-4 -35.5q-12 0 -36 0.5t-53.5 1t-62.5 1.5t-64 1.5t-57.5 1t-42.5 0.5q-156 0 -305 -1.5t-299 -6.5l-41 41q35 53 73.5 115t76.5 120q41 66 74 121t65 108t65.5 109t73.5 125q12 20 21.5 37t18.5 32.5t18 30.5t18 33
q12 20 23 40t20 38q-17 2 -35 2t-35 2q-15 0 -37 0.5t-44.5 0.5t-41.5 0.5t-30 0.5q-55 0 -109.5 -1t-104.5 -2.5t-92.5 -4.5t-72.5 -8q0 12 1.5 37t5 54t9 57t12.5 47q36 -2 70.5 -3.5t73 -2t85.5 -1t109 -0.5q76 0 142 1t125 2.5t112 3.5t103 4l57 -45
q-11 -17 -15.5 -24.5t-6.5 -10.5q-76 -133 -179 -307.5t-241 -403.5q-9 -13 -14.5 -22.5t-10.5 -19.5l-10.5 -21l-13.5 -27l-41 -76q65 0 107 0.5t76 1.5t65.5 2t74.5 2q42 1 80 2t77 3t81.5 5t93.5 7z" />
    </font>
</defs>
</svg>
