<?xml version="1.0" standalone="no"?>
<!DOCTYPE svg PUBLIC "-//W3C//DTD SVG 1.1//EN" "http://www.w3.org/Graphics/SVG/1.1/DTD/svg11.dtd" >
<svg>
<metadata>
Created by FontForge 20110222 at Wed May 14 23:42:17 2014
 By Orthosie Webhosting
Digitized data (c)2005, Ascender Corporation. All rights reserved.
</metadata>
<defs>
<font id="PericlesLight" horiz-adv-x="530" >
  <font-face
    font-family="PericlesLight"
    font-weight="300"
    font-stretch="normal"
    units-per-em="2048"
    panose-1="2 11 3 4 3 0 0 2 0 4"
    ascent="1638"
    descent="-410"
    x-height="1204"
    cap-height="1567"
    bbox="-12 -436 3047 2042"
    underline-thickness="94"
    underline-position="-254"
    unicode-range="U+000D-FB02"
  />
<missing-glyph horiz-adv-x="1024"
 />
    <glyph glyph-name="uniFB01" unicode="fi" horiz-adv-x="1663"
d="M223 -20q1 29 1.5 66.5t1 78.5t1 83t0.5 79v66.5v45.5v283q0 53 -1 108q-1 47 -1.5 102.5t-1.5 104.5q0 15 -0.5 42.5t-1.5 57t-2 56t-2 41.5q17 0 40 0.5t49 0.5t53 0.5t51 0.5q48 0 104.5 1t114.5 2.5t111.5 3.5t95.5 3q8 0 21 0.5t26 1.5t24 1.5t17 0.5q2 -7 3 -20.5
t2.5 -29t2 -31t0.5 -27.5h-116.5t-162.5 -2q-14 0 -34.5 -1t-44 -1.5t-49.5 -1.5t-50 -2q-57 -2 -121 -4q-1 -98 -3 -183q-1 -36 -1.5 -73t-1 -70t-0.5 -59.5v-42.5v-78h221q45 0 95 0.5t98 2t91 3.5t75 4q1 -13 1.5 -20.5t0.5 -14v-14v-19.5t-1 -27.5t-3 -27.5
q-22 2 -58.5 3.5t-80 2.5t-89 1.5t-84.5 0.5q-32 0 -77.5 -1t-87.5 -3q-49 -2 -101 -4v-158q0 -28 0.5 -72t1.5 -92t2 -93.5t2 -75.5q-6 -2 -19.5 -3.5t-29.5 -1.5q-17 0 -32 0.5t-26 1.5q-13 1 -24 3zM1435 432v-43.5v-74v-92t0.5 -97.5t1 -91t0.5 -73q-8 -2 -26 -3t-39 -1
q-17 0 -34 1t-36 3q3 45 5 93t3 97t1.5 97t0.5 92v377q1 69 0 138.5t-2.5 133.5t-4 118.5t-5.5 94.5q17 0 32 1t50 1q20 0 35.5 -1t27.5 -3q-1 -42 -3 -80t-3.5 -80.5t-2.5 -94.5t-1 -124v-389z" />
    <glyph glyph-name="uniFB02" unicode="fl" horiz-adv-x="2169"
d="M223 -20q1 29 1.5 66.5t1 78.5t1 83t0.5 79v66.5v45.5v283q0 53 -1 108q-1 47 -1.5 102.5t-1.5 104.5q0 15 -0.5 42.5t-1.5 57t-2 56t-2 41.5q17 0 40 0.5t49 0.5t53 0.5t51 0.5q48 0 104.5 1t114.5 2.5t111.5 3.5t95.5 3q8 0 21 0.5t26 1.5t24 1.5t17 0.5q2 -7 3 -20.5
t2.5 -29t2 -31t0.5 -27.5h-116.5t-162.5 -2q-14 0 -34.5 -1t-44 -1.5t-49.5 -1.5t-50 -2q-57 -2 -121 -4q-1 -98 -3 -183q-1 -36 -1.5 -73t-1 -70t-0.5 -59.5v-42.5v-78h221q45 0 95 0.5t98 2t91 3.5t75 4q1 -13 1.5 -20.5t0.5 -14v-14v-19.5t-1 -27.5t-3 -27.5
q-22 2 -58.5 3.5t-80 2.5t-89 1.5t-84.5 0.5q-32 0 -77.5 -1t-87.5 -3q-49 -2 -101 -4v-158q0 -28 0.5 -72t1.5 -92t2 -93.5t2 -75.5q-6 -2 -19.5 -3.5t-29.5 -1.5q-17 0 -32 0.5t-26 1.5q-13 1 -24 3zM2079 43q0 -23 -1 -38t-3 -32q-10 1 -40.5 3t-74.5 4t-98 4.5t-111 4.5
t-113 3t-104 2q-34 1 -66 1.5t-59 1t-47.5 1t-30.5 0.5q2 51 3 95.5t1.5 86t1 81.5t0.5 83v414q0 86 -1 168q0 35 -0.5 72.5t-1 73.5t-1.5 69.5t-2 60.5q35 6 72 6q20 0 38.5 -1t26.5 -3q-1 -25 -2 -59t-2 -73t-1.5 -80t-1 -79t-1 -71.5t-0.5 -57.5v-370v-107.5t1 -97.5
q1 -51 1 -98q27 -2 57 -5q26 -2 57.5 -3.5t63.5 -2.5t83.5 -2t112 -2t123.5 -1.5t116 -0.5q2 -6 3 -21t1 -30z" />
    <glyph glyph-name="YT.liga" unicode="YT" horiz-adv-x="2314"
d="M1090 1554h85.5h110.5t124.5 -0.5t127.5 0t120 1t101 1.5q32 0 78 1t97 3t104.5 3.5t100.5 3.5t84 3t56 1q4 -6 5.5 -20.5t1.5 -26.5q0 -14 -1.5 -31.5t-3.5 -30.5q-48 2 -107.5 3t-137.5 1q-15 0 -35 -0.5t-43.5 -1t-48 -1t-48.5 -1.5q-55 -2 -116 -4q0 -14 -0.5 -45
t-0.5 -70.5t-1 -85t-1 -90t-0.5 -83.5t-0.5 -66v-496q0 -70 1 -147.5t2.5 -149.5t3.5 -132.5t5 -96.5q-12 -3 -30.5 -4.5t-32.5 -1.5h-38.5t-33.5 2q2 131 4 268.5t2 296.5v442q0 59 -0.5 122.5t-1 123.5t-1 113.5t-1.5 93.5q-80 -1 -161 -4q-69 -2 -150.5 -5.5t-153.5 -8.5
q-78 -110 -146 -220.5t-130 -216.5q-22 -37 -50 -88.5t-55 -105t-50.5 -103t-37.5 -82.5v-94q1 -19 1.5 -57.5t1 -86.5t1.5 -102.5t2 -107.5t2.5 -99.5t3.5 -78.5q-8 -2 -27 -3t-36 -1q-22 0 -40.5 1t-35.5 3q2 95 5 194q2 85 3.5 183.5t1.5 189.5v59q-14 33 -37.5 82.5
t-51 103t-55.5 105t-50 88.5q-71 121 -151.5 249.5t-174.5 252.5q26 26 52.5 43t52.5 27q37 -48 82 -115.5t91.5 -144t93 -157t87 -154.5t73 -135.5t50.5 -100.5q19 39 49.5 99.5t69 133t82.5 151t89 153.5t88.5 141.5t80.5 113.5z" />
    <glyph glyph-name="WT.liga" unicode="WT" horiz-adv-x="3076"
d="M1778 1556q9 -2 19 -4l20 -4q38 0 93 0.5t119 1.5t133 2t134.5 2t124 1.5t100.5 0.5q32 0 78 1t97 3t104 3.5t100 3.5t84.5 3t56.5 1q3 -6 4.5 -20.5t1.5 -26.5q0 -14 -1 -31.5t-3 -30.5q-48 2 -107.5 3t-137.5 1q-15 0 -35 -0.5t-43.5 -1t-48 -1t-48.5 -1.5
q-55 -2 -116 -4q0 -14 -0.5 -45t-0.5 -70.5t-1 -85t-1 -90t-0.5 -83.5t-0.5 -66v-496q0 -70 1 -147.5t2.5 -149.5t3.5 -132.5t5 -96.5q-12 -3 -31 -4.5t-33 -1.5h-37.5t-33.5 2q2 131 4 268.5t2 296.5v442q0 59 -0.5 122.5t-1 123.5t-1 113.5t-1.5 93.5q-92 -1 -184 -4
q-39 -1 -81.5 -2.5t-85 -4t-83.5 -5.5t-76 -6q-9 -25 -17 -50t-14 -47q-18 -58 -43.5 -141.5t-54 -179t-58 -197.5t-55.5 -197q-35 -130 -69.5 -246.5t-59.5 -209.5q-11 -35 -17.5 -72.5t-13.5 -66.5l-26 -29q-7 24 -19.5 58.5t-27.5 72.5t-30.5 76t-27.5 69
q-10 24 -33 76.5t-54 122.5t-67.5 151.5t-73.5 163.5t-72 158.5t-64 136.5q-4 -10 -15.5 -40.5t-25.5 -69.5t-28 -80.5t-25 -73.5q-27 -78 -53.5 -155t-51 -148t-46.5 -134.5t-40 -115.5q-15 -46 -25 -76t-18.5 -56t-16.5 -53t-20 -67l-39 -22q-12 52 -32 120t-41 136
q-27 87 -65 200.5t-82.5 239.5t-92 258t-92.5 256q-32 88 -64 169t-61 153q32 14 66 25.5t71 21.5q13 -42 24.5 -78t23.5 -73t25.5 -78t31.5 -93q19 -56 44 -129.5t51.5 -152.5t53 -156.5t49.5 -142.5q6 -16 16 -45t22.5 -64.5t25.5 -74t25 -72.5t21 -61t13 -40
q48 148 81 246t54 162q8 19 22.5 60.5t33 95.5t39 116.5t40.5 123t37 114.5t29 92l33 16q35 -77 80 -174.5t93 -201t95.5 -206t85.5 -188.5q2 -3 8.5 -19.5t16.5 -41t22 -53t23 -56t20.5 -50.5t14.5 -36q26 90 51 180.5t48 173.5t42.5 154.5t34.5 122.5q28 94 58 200t60 218
q6 24 13.5 51.5t14.5 54t13.5 51t10.5 43.5z" />
    <glyph glyph-name="VT.liga" unicode="VT" horiz-adv-x="2609"
d="M1366 1556q13 -1 39.5 -1.5t58 -1t65 -1t60.5 -0.5q39 0 95 0.5t118.5 1.5t128 1.5t123.5 0.5q32 0 78 1t97 3t104.5 3.5t100.5 3.5t84 3t56 1q3 -6 4.5 -20.5t1.5 -26.5q0 -14 -1 -31.5t-3 -30.5q-48 2 -107.5 3t-137.5 1q-15 0 -35 -0.5t-43.5 -1t-48 -1t-48.5 -1.5
q-55 -2 -116 -4q0 -14 -0.5 -45t-0.5 -70.5t-1 -85t-1 -90t-0.5 -83.5t-0.5 -66v-496q0 -70 1 -147.5t2.5 -149.5t3.5 -132.5t5 -96.5q-12 -3 -30.5 -4.5t-32.5 -1.5h-38.5t-33.5 2q2 131 4 268.5t2 296.5v442q0 59 -0.5 122.5t-1 123.5t-1 113.5t-1.5 93.5q-80 -1 -161 -4
q-34 -1 -72.5 -2.5t-77.5 -3.5t-78 -4.5t-74 -5.5q-29 -58 -62.5 -127.5t-69 -144.5t-72.5 -154.5t-74 -157.5q-35 -74 -72 -156t-75 -165.5t-75.5 -164.5t-72.5 -153q-26 -53 -46 -99.5t-40 -91.5l-62 -30q-25 59 -51.5 123.5t-54.5 126.5q-48 106 -91.5 200.5t-85.5 185
t-84.5 182t-87.5 191.5q-29 65 -62 134t-66.5 135.5t-67 128t-62.5 112.5q54 39 125 62q34 -75 70 -155t74 -159q42 -87 89 -190t94 -208t91 -203.5t80 -176.5q4 -8 11.5 -24t16.5 -36.5t20 -44t21 -47.5q25 -55 54 -120q35 76 79 175t92.5 208t98.5 220.5t96 211.5
q40 87 72 159t60 136t53 122.5t51 118.5z" />
    <glyph glyph-name="TT.liga" unicode="TT" horiz-adv-x="2214"
d="M2185 1524q0 -14 -1 -31.5t-3 -30.5q-48 2 -107.5 3t-138.5 1q-29 0 -77.5 -1t-96.5 -3q-55 -2 -116 -4q0 -14 -0.5 -45t-1 -70.5t-1 -85t-1 -90t-1 -83.5t-0.5 -66v-496q0 -70 1 -147.5t2.5 -149.5t4 -132.5t5.5 -96.5q-13 -3 -31.5 -4.5t-32.5 -1.5h-37.5t-33.5 2
q2 131 4 268.5t2 296.5v442q0 59 -0.5 123t-1 125t-1 115t-1.5 94h-265q-14 0 -50.5 -0.5t-78 -0.5t-79 -0.5t-54.5 -0.5h-35.5h-44t-48.5 -0.5t-49 -0.5q-56 -1 -118 -1q0 -14 -0.5 -44.5t-0.5 -69.5t-1 -84t-1 -88.5t-0.5 -82t-0.5 -65.5v-496q0 -70 1 -147.5t2.5 -149.5
t4 -132.5t5.5 -96.5q-13 -3 -31.5 -4.5t-32.5 -1.5h-38.5t-33.5 2q2 131 4.5 268.5t2.5 296.5v442q0 59 -0.5 122.5t-1 123.5t-1.5 113.5t-2 93.5q-106 -2 -206 -6q-43 -1 -88.5 -3t-89.5 -4.5t-84 -5.5t-72 -6q-2 10 -3 28.5t-1 35.5q0 14 1 30t3 27q8 1 36 1.5t62 1l68 1
t55 0.5q53 1 122 1.5t144 1t151 1t142 0.5h444q51 0 118 1t137 2t136 3t115 3q48 0 108.5 1.5t119 3.5t109 3.5t79.5 1.5q3 -6 4.5 -22.5t1.5 -28.5z" />
    <glyph glyph-name="TV.liga" unicode="TV" horiz-adv-x="2609"
d="M2466 1583q32 -9 66 -22.5t59 -30.5q-29 -56 -67 -133t-81 -166.5t-89 -186.5t-91 -194q-34 -74 -71.5 -156t-75.5 -165.5t-75.5 -164.5t-72.5 -153q-26 -53 -46 -99.5t-40 -91.5l-61 -30q-25 59 -52 123.5t-55 126.5q-48 106 -91 200.5t-85 185t-84.5 182t-87.5 191.5
q-26 59 -55.5 120.5t-60 121.5t-60.5 117t-57 106q-31 2 -66.5 2h-77.5q-15 0 -35 -0.5t-43.5 -1t-48 -1t-48.5 -1.5q-55 -2 -116 -4q0 -14 -0.5 -45t-0.5 -70.5t-1 -85t-1 -90t-0.5 -83.5t-0.5 -66v-496q0 -70 1 -147.5t2.5 -149.5t4 -132.5t5.5 -96.5q-13 -3 -31.5 -4.5
t-32.5 -1.5h-38.5t-33.5 2q2 131 4.5 268.5t2.5 296.5v442q0 59 -0.5 122.5t-1 123.5t-1.5 113.5t-2 93.5q-103 -7 -202 -14q-42 -3 -87.5 -6.5t-89.5 -7t-85.5 -7.5t-75.5 -8q-2 9 -3 28t-1 36q0 14 1 30t3 27h30.5t61.5 2q56 2 130 5.5t154 7t159 7t145 4.5q32 0 78 1
t98 3t105.5 3.5t101 3.5t85 3t56.5 1q31 -78 66 -156.5t73 -157.5q42 -87 89.5 -190t94 -208t91 -203.5t80.5 -176.5q4 -8 11 -24t16.5 -36.5t20.5 -44t21 -47.5q25 -55 53 -120q35 76 79.5 175t93 208t98.5 220.5t96 211.5q40 87 73.5 163t63 144t56.5 130.5t53 123.5z" />
    <glyph glyph-name="TW.liga" unicode="TW" horiz-adv-x="3002"
d="M2832 1567q35 -6 69 -17t60 -20q-7 -16 -15.5 -40t-17 -50.5l-17 -53t-15.5 -49.5q-18 -58 -43.5 -141t-54 -178.5t-58 -197.5t-55.5 -197q-35 -130 -69.5 -247t-59.5 -210q-11 -35 -18 -72.5t-13 -66.5l-26 -29q-7 24 -19.5 58.5t-27.5 73t-30.5 76.5t-27.5 68
q-10 24 -33 76.5t-54 122.5t-67.5 151.5t-73.5 163.5t-72 158.5t-64 136.5q-5 -10 -16.5 -40.5t-25 -69.5t-28 -80.5t-25.5 -73.5q-27 -78 -53 -154.5t-50.5 -147.5t-46.5 -134.5t-40 -116.5q-15 -46 -25 -76t-18.5 -56t-16.5 -53t-20 -67q-10 -7 -19 -12q-8 -5 -14 -8
t-6 -2q-12 52 -32 120t-42 136q-27 87 -65 200.5t-82 239.5t-91.5 258t-92.5 256q-26 69 -52 135.5t-51 126.5q-29 2 -60.5 2h-68.5q-15 0 -35 -0.5t-43.5 -1t-48 -1t-48.5 -1.5q-55 -2 -116 -4q0 -14 -0.5 -45t-0.5 -70.5t-1 -85t-1 -90t-0.5 -83.5t-0.5 -66v-496
q0 -70 1 -147.5t2.5 -149.5t4 -132.5t5.5 -96.5q-13 -3 -31.5 -4.5t-32.5 -1.5h-38.5t-33.5 2q2 131 4.5 268.5t2.5 296.5v442q0 59 -0.5 122.5t-1 123.5t-1.5 113.5t-2 93.5q-103 -7 -202 -14q-42 -3 -87.5 -6.5t-89.5 -7t-85.5 -7.5t-75.5 -8q-2 9 -3 28t-1 36q0 14 1 30
t3 27h30.5t61.5 2q56 2 130 5.5t154 7t159 7t145 4.5q32 0 78 1t97 3t104 3.5t100 3.5t84.5 3t56.5 1q2 -3 2 -6.5t2 -8.5q12 -39 23 -73t22.5 -69.5t24.5 -75t30 -89.5q20 -56 44.5 -129.5t51.5 -152.5t53.5 -156.5t49.5 -142.5q6 -16 16 -45t22.5 -64.5t25.5 -74
t24.5 -72.5t21 -61t13.5 -40q47 148 80 246t55 162q8 19 22.5 60.5t33 95.5t39 116.5t40.5 123t37 114.5t29 92l33 16q35 -76 80 -174t93 -201.5t95 -206t86 -188.5q1 -3 8 -19.5t17 -41t21.5 -53t23 -56t20.5 -50.5t14 -36q26 90 51.5 180.5t48 173.5t42 154.5t34.5 122.5
q28 94 58 200t61 218q6 24 13.5 52.5t14.5 56.5t13 53.5t10 44.5z" />
    <glyph glyph-name="TY.liga" unicode="TY" horiz-adv-x="2333"
d="M1765 524q0 -19 1 -57.5t1.5 -86.5t1.5 -102.5t2 -107.5t3 -99.5t4 -78.5q-8 -2 -27.5 -3t-36.5 -1q-21 0 -40 1t-36 3q3 95 6 194q2 85 3.5 183.5t1.5 189.5v59q-14 33 -38 82.5t-51.5 103t-55.5 105t-50 88.5q-66 111 -137.5 231.5t-157.5 235.5q-35 2 -78.5 2h-91.5
q-15 0 -35 -0.5t-43.5 -1t-48 -1t-48.5 -1.5q-55 -2 -116 -4q0 -14 -0.5 -45t-0.5 -70.5t-1 -85t-1 -90t-0.5 -83.5t-0.5 -66v-496q0 -70 1 -147.5t2.5 -149.5t4 -132.5t5.5 -96.5q-13 -3 -31.5 -4.5t-32.5 -1.5h-38.5t-33.5 2q2 131 4.5 268.5t2.5 296.5v442
q0 59 -0.5 122.5t-1 123.5t-1.5 113.5t-2 93.5q-103 -7 -202 -14q-42 -3 -87.5 -6.5t-89.5 -7t-85.5 -7.5t-75.5 -8q-2 9 -3 28t-1 36q0 14 1 30t3 27h30.5t61.5 2q56 2 130 5.5t154 7t159 7t145 4.5q32 0 77.5 1t96.5 3t103.5 3.5t99 3.5t83.5 3t56 1h8q36 -48 80 -116
t90.5 -145.5t92.5 -158t86.5 -154.5t73 -135.5t50.5 -99.5q18 39 49.5 100.5t71 134.5t84.5 153t91 156.5t90 143.5t81 115q13 -5 28 -12t30 -15.5t27.5 -18.5t21.5 -20q-94 -124 -174.5 -252.5t-151.5 -249.5q-22 -37 -50 -88.5t-55 -105t-50.5 -103t-37.5 -82.5v-94z" />
    <glyph glyph-name="TH.liga" unicode="TH" horiz-adv-x="2830"
d="M1372 1522q0 -14 -1 -31.5t-3 -30.5q-24 1 -71 2t-102.5 2t-111 1.5t-94.5 0.5q-15 0 -35 -0.5t-43.5 -1t-48 -1t-48.5 -1.5q-55 -2 -116 -4q0 -14 -0.5 -45t-0.5 -70.5t-1 -85t-1 -90t-0.5 -83.5t-0.5 -66v-496q0 -70 1 -147.5t2.5 -149.5t4 -132.5t5.5 -96.5
q-13 -3 -31.5 -4.5t-32.5 -1.5h-38.5t-33.5 2q2 131 4.5 268.5t2.5 296.5v442q0 59 -0.5 122.5t-1 123.5t-1.5 113.5t-2 93.5q-103 -7 -202 -14q-42 -3 -87.5 -6.5t-89.5 -7t-85.5 -7.5t-75.5 -8q-2 9 -3 28t-1 36q0 14 1 30t3 27h30.5t61.5 2q56 2 130 5.5t154 7t159 7
t145 4.5q32 0 87.5 1t121.5 2.5t136.5 3t132.5 3t109 2.5t66 1q3 -6 4.5 -20.5t1.5 -26.5zM2533 1571q20 0 34.5 -1t27.5 -3q-1 -7 -1.5 -34t-1.5 -65t-2 -82.5t-1.5 -87.5t-1 -79t-0.5 -58v-618q0 -65 1 -145t2 -156.5t2 -141.5t1 -100q-13 -5 -32 -6.5t-30 -1.5h-35.5
t-35.5 2q2 94 3 219.5t3 292.5l2 248q-12 2 -31 2.5t-39.5 1t-39 0.5h-29.5q-46 0 -107.5 -0.5t-130 -1.5t-139.5 -2.5t-136 -3t-119.5 -3t-90.5 -2.5q-104 -3 -164 -4.5t-92 -3.5v-155q-1 -57 -0.5 -118.5t1.5 -121.5t2.5 -116.5t2.5 -104.5t2.5 -84t1.5 -55q-4 -1 -12 -2
t-18 -1.5t-19 -1t-15 -0.5q-18 0 -36 0.5t-35 2.5q2 43 3.5 96t2.5 113.5t1.5 126t0.5 133.5v622q-2 62 -3.5 123.5t-4.5 103.5q11 2 30.5 3.5t42.5 1.5q19 0 32 -1.5t26 -3.5q-1 -31 -1.5 -51.5t-1 -37.5t-1 -33t-1 -37.5t-0.5 -51.5t-1 -75v-146q27 -3 65.5 -4.5
t79.5 -1.5h79h64q93 0 201 2t218 5t216 7t195 9v223q-1 75 -2.5 149t-3 136.5t-3 109t-3.5 66.5q17 2 32.5 3t44.5 1z" />
    <glyph glyph-name=".notdef" horiz-adv-x="1024"
 />
    <glyph glyph-name=".null" horiz-adv-x="0"
 />
    <glyph glyph-name=".null" horiz-adv-x="0"
 />
    <glyph glyph-name="nonmarkingreturn" unicode="&#xd;" horiz-adv-x="639"
 />
    <glyph glyph-name="space" unicode=" " horiz-adv-x="639"
 />
    <glyph glyph-name="exclam" unicode="!" horiz-adv-x="616"
d="M309 1556q16 0 32 -1t30 -3q-1 -43 -2 -100t-1.5 -119.5t-1 -126.5t-1.5 -123q-1 -37 -2 -93.5t-2.5 -121.5t-2.5 -133t-2.5 -128t-2 -107t-1.5 -70q-8 -2 -19 -2h-22h-26t-23 2q-4 125 -7 224.5t-5.5 185t-4 162.5t-3.5 155q-1 30 -1.5 79t-0.5 104.5t-0.5 111
t-1.5 98.5q18 3 37.5 4.5t33.5 1.5zM395 39q0 -15 -14 -34t-33.5 -35t-40.5 -27t-35 -11q-16 0 -29.5 12t-23 29.5t-15 37.5t-5.5 36q0 20 12.5 40.5t31.5 37.5t42 28t45 11q17 0 29 -12t20 -30.5t12 -40.5t4 -42z" />
    <glyph glyph-name="quotedbl" unicode="&#x22;" horiz-adv-x="842"
d="M233 1608q6 0 15.5 -0.5l19 -1t17.5 -1t12 -1.5q0 -17 -1 -42.5t-2.5 -52.5t-2.5 -51t-2 -39q-1 -25 -4 -61.5t-6 -76.5t-6 -78t-5 -66q-5 -2 -21.5 -3t-25.5 -1t-23 1t-20 3q-1 22 -2.5 57t-3 72.5t-2.5 73t-2 59.5q-1 21 -1.5 47.5t-1 54.5t-1 54.5t-0.5 46.5
q14 3 34.5 4.5t34.5 1.5zM614 1608q6 0 15.5 -0.5l19 -1t17.5 -1t12 -1.5q0 -17 -1 -42.5t-2.5 -52.5t-2.5 -51t-2 -39q-1 -25 -4 -61.5t-6 -76.5t-6 -78t-5 -66q-5 -2 -21.5 -3t-25.5 -1t-23 1t-20 3q-1 22 -2.5 57t-3 72.5t-2.5 73t-2 59.5q-1 21 -1.5 47.5t-1 54.5
t-1 54.5t-0.5 46.5q14 3 34.5 4.5t34.5 1.5z" />
    <glyph glyph-name="numbersign" unicode="#" horiz-adv-x="1368"
d="M1262 508q0 -14 -1.5 -33t-3.5 -39q-64 6 -157 6h-81t-136 -2q-3 -12 -7.5 -25.5t-7.5 -27.5q-8 -29 -20.5 -75.5t-26.5 -98.5t-27.5 -104.5t-23.5 -94.5q-29 5 -64 12t-63 15q17 51 32 95t30.5 89.5t32.5 97t38 115.5q-86 -2 -177 -3.5t-173 -4.5l-12 -43
q-9 -29 -21.5 -75.5t-26.5 -98.5t-27.5 -104.5t-23.5 -94.5q-29 5 -64 12t-63 15q16 49 31 92t30 87t31.5 93.5t36.5 110.5q-29 -2 -54.5 -2t-45.5 -2q-32 -3 -62.5 -5t-58.5 -7q-12 -2 -21 -2.5t-20 -2.5q-2 13 -3 28t-1 44q0 14 1 32t3 28q18 -1 53 -2.5t75 -2.5
t79.5 -1.5t67.5 -0.5h16l109 381q-56 -2 -102.5 -4t-78.5 -4q-32 -3 -62.5 -5t-57.5 -7q-13 -2 -21.5 -2t-19.5 -2q-2 12 -3 27t-1 44q0 14 1 32.5t3 27.5q18 -1 53 -2t74.5 -2t79 -1.5t67.5 -0.5h94l31 106q8 28 18 68t21 84.5t21 88t16 77.5q28 -7 59.5 -15.5t57.5 -17.5
q-10 -31 -20.5 -62.5t-21.5 -67.5t-23 -77.5t-26 -91.5q-8 -26 -14 -48t-12 -42q48 1 98.5 2.5t97.5 3t87.5 3.5t68.5 3l27 92q8 28 18 68t21 84.5t20.5 88t15.5 77.5q28 -7 59.5 -15.5t57.5 -17.5q-10 -31 -20 -62.5t-21 -67.5t-23 -77.5t-26 -91.5q-6 -20 -10.5 -37
t-9.5 -33l110 6q35 2 72.5 4.5t85.5 4.5q2 -10 2 -25.5v-32.5q0 -14 -1 -32.5t-3 -38.5q-64 6 -158 6h-53.5t-85.5 -2l-28 -101.5t-23.5 -84t-24 -85t-29.5 -106.5q45 3 93.5 6t95.5 6q35 2 72.5 4t85.5 4q2 -9 2 -24.5v-32.5zM561 913q-16 -57 -27.5 -100t-23 -84.5
t-24.5 -88.5t-31 -112q39 1 84 2t91.5 2.5t91 3.5t83.5 3l106 381q-80 -2 -171 -3.5t-179 -3.5z" />
    <glyph glyph-name="dollar" unicode="$" horiz-adv-x="1036"
d="M547 -74q-9 -2 -25 -3t-28 -1q-11 0 -26 1t-26 3q0 20 0.5 47.5t0.5 55t0.5 52.5t0.5 40q-40 0 -83 3t-84.5 8.5t-79.5 12.5t-70 15q3 25 9 61t16 64q28 -9 62.5 -16.5t71 -13.5t74.5 -9.5t72 -3.5q167 0 245.5 62.5t78.5 172.5q0 51 -22 90.5t-58.5 71.5t-85.5 59.5
t-103 53.5t-109.5 56.5t-100.5 70.5t-74 92.5t-29 122.5q0 66 24.5 120t69 94t106 64.5t136.5 30.5q0 31 -1 76t-1 86q11 2 25.5 3t25.5 1h28t25 -2l-6 -160q53 0 100.5 -2.5t98.5 -7.5q-2 -26 -4.5 -61.5t-7.5 -63.5q-23 4 -53 7.5t-60.5 6.5t-59 4.5t-49.5 1.5
q-131 0 -201.5 -50.5t-70.5 -149.5q0 -42 21 -75t56.5 -62t82.5 -55t100 -54q54 -27 110 -59t102.5 -74t76 -96t29.5 -125q0 -72 -20.5 -133t-62 -107.5t-104.5 -78t-149 -46.5z" />
    <glyph glyph-name="percent" unicode="%" horiz-adv-x="1548"
d="M1278 1581q9 -4 22 -11.5t25.5 -16t24 -17t18.5 -14.5q-38 -50 -86 -118t-102 -142l-703 -981q-18 -24 -45.5 -63t-59 -84l-63 -90t-55.5 -81q-11 4 -25 11.5t-27.5 16.5t-25.5 18.5t-20 15.5q33 42 67.5 87.5t67.5 89.5t63.5 85t55.5 75l682 949q18 24 42 59t50 72.5
t51 74t43 64.5zM1466 285q0 -69 -19.5 -126.5t-58.5 -98t-98 -63t-137 -22.5q-60 0 -112.5 16.5t-91 50t-61 83.5t-22.5 117q0 65 17 123.5t54 102.5t95.5 70.5t141.5 26.5q66 0 120 -18.5t92 -54t59 -87.5t21 -120zM1358 279q0 62 -16 101t-41.5 61.5t-58.5 31t-68 8.5
q-57 0 -95 -18t-60.5 -49t-32 -72t-9.5 -86q0 -57 16.5 -94.5t42 -60t58 -31.5t63.5 -9q91 0 146 55t55 163zM682 1274q0 -69 -19.5 -126t-58.5 -97.5t-98 -63t-137 -22.5q-60 0 -112.5 16.5t-91 49.5t-61 83t-22.5 117q0 65 17 123.5t53.5 102.5t95 70.5t141.5 26.5
q66 0 120 -18.5t92.5 -54t59.5 -87.5t21 -120zM573 1268q0 62 -16 101.5t-41.5 62t-58.5 30.5t-68 8q-57 0 -94.5 -18t-60 -49t-32 -72t-9.5 -86q0 -57 16.5 -94t42 -59.5t58 -31.5t63.5 -9q91 0 145.5 54t54.5 163z" />
    <glyph glyph-name="ampersand" unicode="&#x26;" horiz-adv-x="1862"
d="M754 -53q-142 0 -252.5 31.5t-186 92t-114.5 148.5t-39 201q0 87 28 164t83 137.5t137.5 101.5t191.5 56q-145 46 -212.5 131.5t-67.5 203.5q0 77 27 141t82 110.5t138 72t195 25.5q72 0 137.5 -6.5t128.5 -20.5q-6 -29 -12.5 -61.5t-16.5 -63.5q-52 17 -115 27t-126 10
q-67 0 -125 -14.5t-100.5 -44.5t-66.5 -76t-24 -109q0 -67 32 -115t80.5 -81t105 -51t104.5 -25q3 -16 3.5 -32t0.5 -32q0 -15 -1.5 -31.5t-4.5 -27.5q-107 -5 -195 -32t-150.5 -74.5t-97 -115.5t-34.5 -155q0 -179 118.5 -274t350.5 -95q73 0 143 11.5t135.5 31.5t125 46.5
t110.5 56.5v569q-27 2 -58 5q-26 2 -58 4l-64 4q3 23 4.5 50.5t3.5 55.5q31 0 57 -1.5t52.5 -3.5t57 -4.5t70.5 -4.5q90 -5 178 -10t168 -5q48 0 94 4t80 11q-2 -34 -3.5 -61.5t-4.5 -53.5q-23 -6 -60.5 -10t-80.5 -4q-14 0 -35.5 1t-47 2.5t-54 3.5t-55.5 4q-64 5 -136 11
v-641q-67 -42 -141 -76.5t-153.5 -59.5t-162.5 -38.5t-167 -13.5z" />
    <glyph glyph-name="quotesingle" unicode="'" horiz-adv-x="461"
d="M233 1608q6 0 15.5 -0.5l19 -1t17.5 -1t12 -1.5q0 -17 -1 -42.5t-2.5 -52.5t-2.5 -51t-2 -39q-1 -25 -4 -61.5t-6 -76.5t-6 -78t-5 -66q-5 -2 -21.5 -3t-25.5 -1t-23 1t-20 3q-1 22 -2.5 57t-3 72.5t-2.5 73t-2 59.5q-1 21 -1.5 47.5t-1 54.5t-1 54.5t-0.5 46.5
q14 3 34.5 4.5t34.5 1.5z" />
    <glyph glyph-name="parenleft" unicode="(" horiz-adv-x="801"
d="M612 1604q17 -7 38.5 -23.5t33.5 -32.5l-16 -16t-13 -14q-57 -76 -108.5 -165.5t-91 -193.5t-63 -224.5t-23.5 -258.5t23 -256.5t62.5 -221t92 -192t112.5 -170.5q2 -2 8 -8.5t9 -9.5q-13 -16 -31.5 -34.5t-34.5 -29.5q-26 28 -63.5 72.5t-78.5 106t-81 139t-72.5 171
t-52.5 203t-20 234.5q0 126 20.5 236.5t53.5 205t74 172.5t82.5 138.5t78.5 103.5t61 68z" />
    <glyph glyph-name="parenright" unicode=")" horiz-adv-x="801"
d="M188 -244q-17 6 -38 23t-33 33q8 8 15.5 16t12.5 14q57 76 109 165.5t91.5 193.5t63 224.5t23.5 258.5t-23 256.5t-62.5 221.5t-92.5 192t-113 170q-2 2 -7.5 8.5t-8.5 9.5q12 16 31 34.5t34 29.5q26 -28 63.5 -72.5t78.5 -106t81.5 -139t73 -171t52.5 -203t20 -234.5
q0 -126 -20.5 -236.5t-53.5 -205t-74.5 -172.5t-82.5 -138.5t-78 -103.5t-62 -68z" />
    <glyph glyph-name="asterisk" unicode="*" horiz-adv-x="969"
d="M457 1124q-40 2 -88 7.5t-98 13t-99.5 17t-91.5 18.5q1 13 3.5 31t6.5 36.5t9 35.5t10 28q42 -13 91.5 -29.5t99.5 -34.5t97 -36t84 -33q-6 51 -11.5 104.5t-10 104t-8 94.5t-5.5 75q17 2 34.5 2.5t29.5 0.5h12t17 -0.5t17.5 -1t12.5 -1.5q-1 -32 -4 -75.5t-7.5 -93
t-10.5 -103t-12 -106.5q37 15 84 33t97 36t99.5 34.5t91.5 29.5q5 -11 10 -28t9 -35.5t6.5 -36.5t3.5 -31q-42 -9 -91 -18.5t-98.5 -17t-97.5 -13t-88 -7.5q53 -63 114 -135.5t118 -152.5q-8 -7 -20.5 -17t-26.5 -20t-28 -19.5t-26 -15.5q-24 41 -50 84.5t-50.5 87.5
t-46 87.5t-37.5 82.5q-16 -39 -37.5 -82.5t-46 -87.5t-50.5 -87.5t-50 -84.5q-12 6 -26 15.5t-28 19.5t-26.5 20t-20.5 17q26 34 55.5 72.5t60.5 77t61.5 74.5t56.5 64z" />
    <glyph glyph-name="plus" unicode="+" horiz-adv-x="1073"
d="M504 135h-32.5t-25.5 2q1 24 2.5 51.5t2.5 54.5t2 51t2 42q2 22 3 48.5t2 54t2.5 55t2.5 51.5q-48 -3 -97.5 -6t-97.5 -7q-16 -1 -38 -2.5t-45 -3t-43.5 -3t-34.5 -3.5q-13 -2 -21.5 -2t-19.5 -2q-2 12 -3.5 27.5t-1.5 44.5q0 14 1.5 32t3.5 27q18 -1 46 -2t59.5 -2
t63.5 -1.5t60 -0.5q31 0 76.5 1.5t99.5 4.5q5 56 7.5 101t2.5 79q0 28 -0.5 60.5t-1.5 64t-2 59.5t-2 46q9 2 27.5 3t32.5 1q29 0 44 -1t27 -3q-1 -18 -3 -42.5t-4 -52t-4.5 -55.5t-4.5 -53q-9 -99 -12 -197q49 4 103 7t105 6q18 1 42.5 2t51.5 2l54 2t51 2q2 -9 2 -24.5
v-32.5q0 -14 -1 -33t-3 -39q-16 2 -40 3t-51.5 1.5t-55.5 1t-52 0.5q-34 0 -89 -1.5t-124 -4.5q-3 -68 -3.5 -122.5t-0.5 -88.5q0 -24 0.5 -52t1 -55.5t2 -51.5l2.5 -40q-20 -2 -38.5 -3t-32.5 -1z" />
    <glyph glyph-name="comma" unicode="," horiz-adv-x="553"
d="M256 184q35 -12 71.5 -32.5t59.5 -40.5q-9 -14 -20.5 -29.5t-28 -39t-39.5 -57t-57 -83.5q-13 -20 -29.5 -43.5t-33 -48t-33 -48.5t-29.5 -43l-49 29q24 51 41 89t29.5 66t21 47.5t14.5 33.5q12 27 24.5 56t23 55.5t19.5 49.5t15 39z" />
    <glyph glyph-name="hyphen" unicode="-" horiz-adv-x="594"
d="M459 895q-24 -20 -52 -40.5t-63 -43.5t-79 -48.5t-101 -55.5q-5 9 -12 22.5t-13.5 28t-12.5 28.5t-9 25q35 16 75.5 36t82 41t80 42t69.5 39q3 -5 8 -15l10.5 -21t10 -21.5t6.5 -16.5zM459 524q-24 -20 -52 -40.5t-63 -43.5t-79 -48.5t-101 -55.5q-5 9 -12 22.5t-13.5 28
t-12.5 29t-9 24.5q35 16 75.5 36t82 41t80 42t69.5 39q3 -4 8 -14l10.5 -21t10 -22t6.5 -17z" />
    <glyph glyph-name="period" unicode="."
d="M362 84q0 -19 -14 -38.5t-33.5 -35t-40 -25.5t-34.5 -10q-16 0 -29.5 9.5t-23.5 25t-15.5 35t-5.5 39.5q0 18 12.5 39t31.5 38t42.5 28.5t44.5 11.5q16 0 28 -12.5t20.5 -30.5t12.5 -38.5t4 -35.5z" />
    <glyph glyph-name="slash" unicode="/" horiz-adv-x="1204"
d="M1110 1585q25 -15 51 -34t47 -38q-20 -25 -40.5 -51.5t-43 -56.5t-48 -64.5t-56.5 -76.5q-85 -119 -173.5 -243t-177.5 -248.5t-177.5 -248t-174.5 -241.5q-18 -24 -45 -63t-58 -83.5t-61.5 -89.5t-54.5 -80q-26 16 -55.5 33.5t-52.5 34.5q33 42 62 78.5t59 74.5t63 80.5
t74 96.5l682 948q16 23 39.5 57t49 72t49.5 75.5t42 67.5z" />
    <glyph glyph-name="zero" unicode="0" horiz-adv-x="1526"
d="M1415 662q0 -154 -46 -280.5t-135 -216.5t-220 -139t-301 -49q-143 0 -255 45.5t-189 131.5t-117.5 210.5t-40.5 282.5q0 141 41 265.5t122.5 218t203.5 148t284 54.5q165 0 287.5 -52t204 -142.5t121.5 -213t40 -263.5zM1292 662q0 104 -27 204t-89 178t-163.5 125.5
t-250.5 47.5q-143 0 -243 -46.5t-163 -125.5t-91.5 -184t-28.5 -222q0 -123 29.5 -223.5t89.5 -172t151 -110.5t215 -39q163 0 272.5 46t176 124t94.5 181t28 217z" />
    <glyph glyph-name="one" unicode="1" horiz-adv-x="842"
d="M539 1464h32.5t32.5 -2q-1 -36 -2.5 -86t-2 -107t-1 -118t-0.5 -119v-563q0 -137 2.5 -253.5t7.5 -219.5q-12 -2 -29 -3t-32 -1q-17 0 -35 0.5t-37 3.5q2 62 3.5 139.5t2.5 158t1.5 158t0.5 140.5v176q0 34 -0.5 102.5t-1.5 151.5t-2.5 169t-3.5 155l-172 -146
q-24 -22 -50.5 -45t-51.5 -45t-47.5 -42t-38.5 -36q-17 16 -36.5 40t-31.5 42q8 6 24.5 19t37 30t44 36.5t45.5 38t41 34.5t31 26q51 44 100 86t81 74q23 3 43 4.5t45 1.5z" />
    <glyph glyph-name="two" unicode="2" horiz-adv-x="1233"
d="M926 123q55 1 95.5 2t71.5 2t55.5 2t47.5 2q0 -31 -2.5 -69t-7.5 -66q-78 3 -137 4.5t-116 1.5h-119h-146q-81 0 -145 -1t-123.5 -3t-121 -5t-137.5 -7l-24 37q21 23 54 60.5t71.5 82.5t79 94t75.5 94q58 75 114 153.5t100 163t71 176.5t27 193q0 66 -21.5 125.5
t-66.5 104t-115 70.5t-168 26q-22 0 -46 -2.5t-44 -5.5q-5 34 -6.5 61t-1.5 56q8 2 20.5 3t25.5 1.5t24.5 1t17.5 0.5q123 0 217 -31.5t157 -88.5t95 -136.5t32 -175.5q0 -103 -31 -204.5t-84 -202t-125 -199.5t-153 -197l-106 -129h166q16 0 47.5 0.5t71.5 1t85 1t87.5 1
t79 1.5t59.5 1z" />
    <glyph glyph-name="three" unicode="3" horiz-adv-x="926"
d="M788 434q0 -123 -48 -211t-127 -144.5t-179 -83t-205 -26.5h-19.5h-25t-24.5 0.5t-19 1.5q-5 31 -7.5 62t-2.5 59q10 -1 24.5 -1.5t29.5 -0.5h29.5h25.5q105 0 185 27t134 73.5t81.5 109t27.5 132.5q0 91 -36 152t-97.5 98.5t-142.5 55t-171 20.5q-2 6 -3 24.5t-1 30.5
q0 17 1 29t3 20q59 4 119.5 19t109 47t79 83.5t30.5 127.5q0 51 -24 93t-69 72t-109.5 46t-145.5 16q-12 0 -31 -1t-28 -3q-5 25 -8 58t-3 55q14 3 36.5 4.5t39.5 1.5q97 0 181.5 -22t147.5 -64t99.5 -103.5t36.5 -140.5q0 -53 -14.5 -103t-47.5 -93.5t-87 -78t-132 -55.5
q113 -16 187.5 -56t119 -93.5t62.5 -115.5t18 -122z" />
    <glyph glyph-name="four" unicode="4" horiz-adv-x="1249"
d="M1157 545q0 -12 -0.5 -28t-1 -32.5t-1.5 -32t-3 -26.5q-26 1 -58.5 1.5t-65.5 1t-65.5 1t-58.5 0.5v-164q0 -36 0.5 -73t1.5 -71.5t2 -65t2 -52.5q-20 -2 -38.5 -3t-30.5 -1h-28t-28 2q1 25 2 66q1 35 1.5 93.5t0.5 143.5v125q-51 0 -113.5 -1t-129 -2.5t-133.5 -4
t-128 -4.5t-112.5 -3.5t-85.5 -2.5q-2 18 -3 48t-1 58q183 245 361 483.5t362 479.5q12 3 26.5 4.5t28.5 1.5q9 0 17.5 -0.5t15.5 -1.5l16 -2q-1 -63 -3 -138q-2 -64 -2.5 -149t-0.5 -182v-475q18 0 49 0.5t67 1.5t72.5 2t65.5 2zM788 1290l-567 -758l567 7v751z" />
    <glyph glyph-name="five" unicode="5" horiz-adv-x="1018"
d="M870 1470q19 0 36 1.5t32 1.5q-2 -29 -5 -61t-5 -58q-41 5 -88.5 8t-92.5 4.5t-83 2.5t-60 1q-25 0 -56 -0.5t-58 -2.5q-32 -2 -64 -3l-16 -92q-7 -39 -14.5 -83t-12.5 -79q-6 -39 -12 -76.5t-11 -70.5t-8.5 -60.5t-5.5 -46.5q101 -19 179.5 -57.5t132.5 -93.5t82 -126
t28 -155q0 -90 -31 -170.5t-88 -140.5t-139 -95.5t-184 -35.5q-39 0 -74.5 4t-73.5 12q0 26 3.5 56.5t8.5 51.5q29 -5 63 -8.5t69 -3.5q81 0 142 24t101.5 67.5t61 104.5t20.5 136q0 154 -107.5 239.5t-324.5 116.5q5 23 11 55t12.5 70.5t14.5 82.5t15 89q19 112 35 215
t21 181q8 0 32 -1t41 -1q54 -2 112.5 -4.5t123.5 -2.5q18 0 45.5 0.5t59 1t66 1t66.5 1.5z" />
    <glyph glyph-name="six" unicode="6" horiz-adv-x="1145"
d="M1038 434q0 -101 -33 -185t-93 -144.5t-143 -94t-183 -33.5q-96 0 -179.5 30.5t-145 92t-97 153t-35.5 212.5q0 131 26 252.5t80.5 246t138 257.5t197.5 288q10 -4 22.5 -11t25.5 -16t25.5 -18.5t21.5 -17.5q-59 -72 -122.5 -161t-121 -189t-103 -207.5t-69.5 -216.5
q32 50 72 85.5t86 58.5t95.5 33.5t100.5 10.5q95 0 174.5 -29.5t137 -85t90 -134.5t32.5 -177zM915 430q0 76 -25 135.5t-68.5 100.5t-103 62.5t-128.5 21.5q-72 0 -133.5 -21.5t-106.5 -63t-70.5 -101t-25.5 -134.5q0 -81 24 -144t68 -105.5t105 -64.5t135 -22
q86 0 148 28.5t102.5 75.5t59.5 107.5t19 124.5z" />
    <glyph glyph-name="seven" unicode="7" horiz-adv-x="1182"
d="M594 1436h130.5h124t108 0.5t83.5 1.5l15 -19l-305 -739q-50 -118 -94.5 -225t-82.5 -195q-32 -83 -65 -161t-57 -140l-31.5 9t-35.5 10t-34.5 11t-27.5 11q32 65 66.5 138t73 159t83 187.5t96.5 224.5q17 41 37.5 88.5t41.5 98t42.5 102t41.5 98.5q47 111 93 225
q-61 1 -121 2q-51 1 -107.5 1.5t-101.5 0.5q-63 0 -131.5 -1.5t-133 -3.5t-121 -4.5t-95.5 -4.5q0 31 2.5 63t7.5 66q16 0 47 -1t56 -1q44 -1 93 -1.5t100.5 -0.5h102.5h99z" />
    <glyph glyph-name="eight" unicode="8" horiz-adv-x="1167"
d="M715 811q87 -23 146.5 -62t96.5 -90t53.5 -113t16.5 -130q0 -97 -34 -176.5t-94 -135t-140.5 -86t-173.5 -30.5q-97 0 -178 29.5t-139.5 84.5t-91 134t-32.5 178q0 62 15 121.5t50 110.5t93.5 91t145.5 62q-60 12 -107.5 42t-80.5 73.5t-50.5 98.5t-17.5 117
q0 84 28.5 150.5t79.5 113t121.5 71t155.5 24.5q83 0 154 -25t122.5 -72t81 -113t29.5 -149q0 -56 -14.5 -108.5t-44.5 -95.5t-77.5 -73t-113.5 -42zM903 414q0 79 -23.5 139t-65 100t-99 60t-125.5 20q-74 0 -133 -20.5t-100.5 -61t-64 -100t-22.5 -137.5
q0 -69 22.5 -126.5t64 -99t99.5 -65t130 -23.5q75 0 134 23t99.5 64.5t62 99.5t21.5 127zM840 1128q0 48 -18 93t-52 79.5t-83.5 55t-111.5 20.5q-63 0 -110.5 -20.5t-80 -55t-49 -79.5t-16.5 -93q0 -60 19.5 -108.5t55 -82.5t83.5 -52.5t105 -18.5q60 0 107.5 19.5t81 54
t51.5 83t18 105.5z" />
    <glyph glyph-name="nine" unicode="9" horiz-adv-x="1137"
d="M96 1024q0 101 33.5 185t93.5 144.5t143 94t183 33.5q96 0 179.5 -30.5t145 -92t97 -152.5t35.5 -213q0 -134 -29 -259.5t-87.5 -251t-147.5 -256.5t-210 -277q-10 4 -24 12t-28 18t-27 21.5t-21 22.5q68 81 139 169.5t133 184.5t110.5 199t72.5 212q-31 -50 -73.5 -86
t-91 -59t-100 -34t-102.5 -11q-94 0 -172.5 29.5t-134 85t-86.5 134.5t-31 177zM219 1028q0 -153 82 -236t234 -83q69 0 131.5 21.5t110.5 62.5t76 100.5t28 134.5q0 81 -24.5 144t-68 105.5t-104.5 64.5t-135 22q-86 0 -148.5 -28.5t-103 -75.5t-59.5 -107.5t-19 -124.5z
" />
    <glyph glyph-name="colon" unicode=":"
d="M362 84q0 -19 -14 -38.5t-33.5 -35t-40 -25.5t-34.5 -10q-16 0 -29.5 9.5t-23.5 25t-15.5 35t-5.5 39.5q0 18 12.5 36.5t31.5 33.5t42.5 24.5t44.5 9.5q13 0 25 -10.5t21 -26t14 -34t5 -33.5zM371 901q0 -19 -13.5 -38.5t-33 -35t-40.5 -25t-36 -9.5q-16 0 -29.5 9.5
t-23.5 24.5t-15.5 34.5t-5.5 39.5q0 18 12.5 36.5t31.5 33.5t42.5 25t44.5 10q13 0 25 -10.5t21 -26.5t14.5 -34.5t5.5 -33.5z" />
    <glyph glyph-name="semicolon" unicode=";"
d="M256 184q35 -12 71.5 -32.5t59.5 -40.5q-9 -14 -20.5 -29.5t-28 -39t-39.5 -57t-57 -83.5q-13 -20 -29.5 -43.5t-33 -48t-33 -48.5t-29.5 -43l-49 29q24 51 41 89t29.5 66t21 47.5t14.5 33.5q12 27 24.5 56t23 55.5t19.5 49.5t15 39zM373 901q0 -19 -14 -38.5t-33.5 -35
t-40.5 -25t-35 -9.5q-16 0 -29.5 9.5t-23.5 24.5t-15.5 34.5t-5.5 39.5q0 18 12.5 36.5t31.5 33.5t42.5 25t44.5 10q13 0 25 -10.5t21 -26.5t14.5 -34.5t5.5 -33.5z" />
    <glyph glyph-name="less" unicode="&#x3c;" horiz-adv-x="860"
d="M88 565q0 14 1 27t3 24q152 100 303 196t303 192q14 -20 29.5 -45.5t26.5 -53.5q-33 -19 -63.5 -37t-64 -38.5t-73 -44t-90.5 -55t-116.5 -72t-151.5 -93.5q128 -80 213.5 -131.5t146 -87t106.5 -62t95 -55.5q-11 -27 -27.5 -54.5t-30.5 -47.5q-152 96 -303 192t-303 195
q-2 11 -3 24t-1 27z" />
    <glyph glyph-name="equal" unicode="=" horiz-adv-x="1073"
d="M948 340q0 -14 -1 -33t-3 -39q-64 6 -158 6q-34 0 -91 -1.5t-126.5 -4.5t-146.5 -7t-152 -9q-32 -3 -62.5 -5t-57.5 -7q-13 -2 -21.5 -2t-19.5 -2q-2 12 -3.5 27t-1.5 44q0 14 1.5 32t3.5 28q37 -2 84.5 -4.5t103.5 -2.5q23 0 55 1.5t69.5 3.5t79.5 5t85 7q48 3 100.5 6
t101.5 6q36 2 73 4t85 4q2 -9 2 -24.5v-32.5zM948 887q0 -14 -1 -33t-3 -39q-64 6 -158 6q-34 0 -91 -1.5t-126.5 -4.5t-146.5 -7t-152 -9q-32 -3 -62.5 -5.5t-57.5 -7.5q-13 -2 -21.5 -2t-19.5 -2q-2 13 -3.5 28t-1.5 44q0 14 1.5 32t3.5 27q37 -2 84.5 -4t103.5 -2
q23 0 55 1t69.5 3.5t79.5 5.5t85 7q48 3 100.5 6t101.5 6q36 2 73 4t85 4q2 -9 2 -24.5v-32.5z" />
    <glyph glyph-name="greater" unicode="&#x3e;" horiz-adv-x="860"
d="M772 565q0 -14 -1 -27t-3 -24q-301 -196 -606 -387q-14 20 -31.5 47.5t-28.5 54.5q33 19 63.5 37t65 37.5t74.5 43t92 54t118 71t151 93.5q-85 53 -150.5 93.5t-116.5 71t-90.5 54t-73 43t-63.5 37.5t-63 37q11 28 25 55.5t28 47.5q153 -96 303.5 -192t302.5 -196
q2 -11 3 -24t1 -27z" />
    <glyph glyph-name="question" unicode="?" horiz-adv-x="948"
d="M834 1163q0 -90 -32.5 -157t-84.5 -113t-115 -71.5t-125 -33.5q-1 -25 -1.5 -71t-0.5 -98v-103.5t-2 -87.5q-5 -2 -18.5 -3t-22.5 -1q-12 0 -29.5 1t-23.5 3q-1 37 -3.5 94t-6 122t-6.5 131t-5 120h37q73 0 131.5 17t99 50t62 82.5t21.5 114.5q0 128 -80 193t-230 65
q-65 0 -124 -8t-107 -20q-2 12 -4.5 28.5t-5 33.5t-4 32.5t-2.5 25.5q48 11 114.5 18t134.5 7q102 0 182 -25t136 -72.5t85.5 -116.5t29.5 -157zM524 39q0 -15 -13.5 -34t-33 -35t-40.5 -27t-36 -11q-16 0 -29.5 10t-23 26.5t-15 37t-5.5 41.5q0 20 12.5 40.5t31.5 37.5
t42 28t45 11q18 0 30 -11t20 -29t11.5 -40.5t3.5 -44.5z" />
    <glyph glyph-name="at" unicode="@" horiz-adv-x="1632"
d="M1522 838q0 -94 -21.5 -170.5t-59 -130.5t-87.5 -83.5t-107 -29.5q-40 0 -78.5 14t-70.5 42.5t-55 73t-33 105.5q-31 -70 -70.5 -116t-81.5 -72t-84 -36.5t-78 -10.5q-50 0 -91.5 18.5t-71 53.5t-46 85.5t-16.5 114.5q0 70 23.5 144t72 135t123 100t176.5 39
q28 0 52.5 -1t50 -3t54 -5t62.5 -7h29q-5 -34 -9 -80t-7 -91.5t-4.5 -85t-1.5 -61.5q0 -67 11.5 -114.5t32.5 -77t50.5 -43t64.5 -13.5q38 0 69 21.5t53.5 62t35 98.5t12.5 132q0 160 -49.5 271.5t-133 181.5t-193.5 101.5t-232 31.5q-98 0 -181 -27.5t-150 -76t-118 -115
t-85.5 -144.5t-52 -164t-17.5 -174q0 -136 31.5 -255t100.5 -207.5t179 -139.5t268 -51q53 0 105 5.5t100.5 15t92 23t79.5 28.5q3 -6 7.5 -17t8 -22.5t7 -22.5t4.5 -18q-33 -22 -79.5 -39.5t-101.5 -29.5t-116.5 -18t-124.5 -6q-167 0 -291 56.5t-205.5 156.5t-122 236.5
t-40.5 296.5q0 104 21 204t61.5 189.5t100.5 165t138 130.5t173.5 85.5t207.5 30.5q158 0 288.5 -47t224 -135.5t145 -216.5t51.5 -291zM1001 999q-7 2 -22.5 5t-36 5.5t-44 4.5t-44.5 2q-63 0 -114 -28t-87 -73t-55.5 -101t-19.5 -112q0 -34 7 -66t23 -56.5t43 -39
t66 -14.5q49 0 87.5 20t68 51t51 70t35.5 77t21.5 71t8.5 53z" />
    <glyph glyph-name="A" unicode="A" horiz-adv-x="1536"
d="M895 1323q59 -124 125.5 -265.5t135 -286t135.5 -285t128 -263.5q23 -46 49 -94.5t48 -83.5q-26 -19 -58 -35t-67 -28q-11 25 -21.5 48.5t-22 48.5t-24.5 53t-29 63q-15 34 -32 70.5t-34.5 73.5t-35 73t-35.5 69q-49 2 -90 3t-91 1.5t-117 1t-169 0.5q-91 0 -166.5 -1.5
t-134.5 -6.5q-16 -30 -36.5 -70t-43 -85t-46 -93.5t-44.5 -95.5q-18 -40 -36 -78t-33 -75q-31 11 -64 26.5t-59 34.5q24 43 44 78t40 74t50.5 99.5t67.5 134.5t77.5 157t81.5 166t79.5 161.5t70 143t54.5 111.5t33 67q52 111 89 190.5t56 124.5l14 4q23 -51 53 -111t58 -120
zM727 594q83 1 156 3q31 1 63 2t60.5 2.5t52 3t37.5 3.5q-34 79 -73 164.5t-80.5 174t-83.5 179t-83 179.5q-43 -93 -84 -180t-82 -173t-82.5 -173t-83.5 -181q21 -1 53.5 -1.5t71 -1t79.5 -1t79 -0.5z" />
    <glyph glyph-name="B" unicode="B" horiz-adv-x="1130"
d="M997 457q0 -122 -52.5 -211.5t-141 -148t-205 -87t-244.5 -28.5q-23 0 -52.5 0.5t-61.5 3.5q2 37 2.5 96.5t1 129.5t0.5 143v137v454q0 81 -1 168.5t-3 170.5t-4 155.5t-5 124.5q20 1 34.5 1.5t27 1t24.5 1t27 0.5q114 0 215 -23.5t177 -70.5t120.5 -119t44.5 -170
q0 -74 -22 -135t-61.5 -107t-95 -76.5t-122.5 -42.5q96 -9 170 -41t124.5 -81t76.5 -112t26 -134zM872 453q0 68 -24 123.5t-73 95.5t-122.5 62t-171.5 22h-123v-64.5t0.5 -112t1.5 -138t2.5 -142.5t3.5 -125.5t5 -87.5q108 0 200 23.5t158.5 69.5t104.5 114.5t38 159.5z
M776 1174q0 143 -107.5 214.5t-310.5 71.5v-594h66q84 0 149.5 22.5t110.5 63t68.5 97t23.5 125.5z" />
    <glyph glyph-name="C" unicode="C" horiz-adv-x="1497"
d="M1360 207q11 -22 23 -50t20 -59q-102 -54 -231.5 -89.5t-284.5 -35.5q-180 0 -323.5 55t-243.5 157t-153.5 248t-53.5 327q0 179 54.5 329.5t157 259t251 169.5t337.5 61q72 0 134 -5t118.5 -14.5t109 -23t103.5 -29.5q-8 -31 -19 -63t-22 -58q-41 14 -87 28t-97.5 25
t-110.5 18t-127 7q-163 0 -289 -52t-211 -146t-129 -223.5t-44 -284.5q0 -159 47.5 -283t133 -209t205.5 -129.5t265 -44.5q135 0 249.5 31.5t217.5 83.5z" />
    <glyph glyph-name="D" unicode="D" horiz-adv-x="1649"
d="M1534 834q0 -157 -38 -280.5t-103 -217.5t-151 -160t-182.5 -108t-197 -61t-194.5 -19q-118 0 -228.5 4.5t-201.5 13.5q3 28 4 72t2 97t1 112.5v117.5t-0.5 111.5t-0.5 95.5v439q0 140 -1.5 271t-4.5 247q33 3 84 6t109 6t117 4.5t107 1.5q188 0 349 -48t279 -143
t184.5 -235.5t66.5 -326.5zM1409 829q0 132 -46.5 249t-141 204t-238.5 137.5t-338 50.5q-28 0 -65.5 -1.5t-77 -4.5t-76.5 -7t-64 -9q-1 -35 -1.5 -83.5t-0.5 -102.5v-108.5v-102.5v-557q0 -122 1.5 -216.5t3.5 -156.5q21 -2 47.5 -5t60 -5.5t74.5 -4.5t92 -2
q171 0 313 46.5t243.5 138t157.5 227t56 313.5z" />
    <glyph glyph-name="E" unicode="E" horiz-adv-x="1145"
d="M616 698q-103 0 -163.5 -2t-92.5 -4v-100q-1 -64 -0.5 -130.5t1.5 -129t2.5 -118t3.5 -97.5q38 -4 76.5 -6.5t74.5 -4t68 -2.5t57 -2q35 -1 74 -2t77.5 -1.5t75 -0.5h66.5q0 -8 -1 -23t-2.5 -31.5t-4 -33.5t-4.5 -30q-78 8 -163.5 11t-178.5 5q-60 2 -131.5 4t-143.5 4
h-39t-32 2q5 87 6.5 196.5t1.5 246.5v888q-2 62 -3.5 117.5t-4.5 97.5q9 0 28.5 1t50.5 1q36 0 75 1t78 2.5t76 2.5t68 1q88 2 162.5 6.5t151.5 5.5q2 -12 3 -27.5t2.5 -32.5t2 -33.5t0.5 -29.5h-55h-79t-89 -0.5t-86 -1.5q-22 -1 -58.5 -1.5t-74.5 -1.5t-71 -2t-48 -3
q-5 -106 -8 -213t-5 -215v-195q27 -3 59 -4.5t64.5 -1.5h63.5h57q50 0 100.5 1.5t98.5 3.5t92.5 4t81.5 3q1 -10 1.5 -16.5t0.5 -13v-14.5v-23v-18.5t-1 -19.5q-1 -11 -1 -22q-20 1 -64 1.5t-96.5 0.5h-106.5h-94z" />
    <glyph glyph-name="F" unicode="F" horiz-adv-x="1077"
d="M524 1556q53 2 112 4t114.5 3.5t103.5 3l80 2.5q2 -22 4 -52.5t4 -62.5q-51 0 -89.5 -0.5t-75 -1t-77.5 -1.5t-98 -3q-68 -3 -128.5 -5t-106.5 -5q-1 -66 -3 -124q-1 -25 -1.5 -50t-1 -47.5t-1 -41t-0.5 -30.5v-75.5v-94t0.5 -99.5t1.5 -92q12 -1 38 -1.5t59.5 -1t70 -1
t68.5 -0.5q85 0 170 4t164 4q0 -10 1 -20q1 -8 1 -17v-16v-39.5t-2 -33.5h-18t-37 2q-50 2 -112.5 3t-125.5 1q-46 0 -94.5 -1.5t-88.5 -3.5q-47 -3 -91 -6q-1 -19 -2 -52q-1 -29 -2 -77t-1 -122q0 -19 0.5 -49.5t1.5 -67t2.5 -77t2.5 -80t3 -76t3 -64.5q-11 -2 -33 -3
t-39 -1h-35t-30 2q2 104 4 210q2 91 3 195t1 195v463v140t-0.5 121.5t-2 116t-3.5 121.5q32 0 103.5 0.5t182.5 3.5z" />
    <glyph glyph-name="G" unicode="G" horiz-adv-x="1638"
d="M1448 414v-78t0.5 -83t2 -77.5t3.5 -62.5q-40 -28 -96.5 -53t-124.5 -44.5t-144.5 -31t-154.5 -11.5q-193 0 -345 57t-257.5 162t-161 253t-55.5 331q0 184 58.5 332.5t164.5 253t255.5 161t330.5 56.5q136 0 254.5 -18t207.5 -45q-5 -32 -11.5 -61.5t-18.5 -63.5
q-45 15 -96 28t-105.5 23t-110.5 16t-112 6q-170 0 -299 -52.5t-216 -144.5t-131 -216.5t-44 -268.5q0 -169 52 -298t144 -216t217 -131.5t271 -44.5q66 0 127.5 8t114.5 21.5t94.5 31.5t68.5 37v195q0 20 -0.5 51t-2 66.5t-2.5 71.5t-3 65q19 2 37.5 2h28.5h63v-25v-20
t-0.5 -22t-1.5 -31q0 -37 -1 -71t-1 -58z" />
    <glyph glyph-name="H" unicode="H" horiz-adv-x="1841"
d="M1544 1571q20 0 34.5 -1t27.5 -3q0 -7 -1 -34t-2 -65t-2 -82.5t-2 -87.5t-1.5 -79t-0.5 -58v-618q0 -65 1 -145t2.5 -156.5t2.5 -141.5t1 -100q-13 -5 -32 -6.5t-30 -1.5h-36t-36 2q2 94 3.5 219.5t3.5 292.5l2 248q-12 2 -31 2.5t-39.5 1t-39.5 0.5h-30
q-46 0 -107.5 -0.5t-130 -1.5t-139 -2.5t-135.5 -3t-120 -3t-91 -2.5q-103 -3 -163.5 -4.5t-92.5 -3.5v-155v-118.5t1.5 -121.5t2.5 -116.5t2.5 -104.5t3 -84t1.5 -55q-4 -1 -12.5 -2t-18 -1.5t-18.5 -1t-15 -0.5q-18 0 -36 0.5t-35 2.5q2 43 3.5 96t2.5 113.5t1.5 126
t0.5 133.5v888q-1 31 -1.5 62.5t-1.5 61.5t-2 56.5t-3 47.5q9 0 28.5 1t50.5 1q19 0 35 -1t29 -3q-3 -62 -6 -130.5t-5.5 -139.5t-4.5 -142t-3 -139v-146q27 -3 66 -4.5t80 -1.5h79h64q93 0 201 2t218 5t216 7t195 9v223q-1 75 -2.5 149t-3.5 136.5t-3.5 109t-3.5 66.5
q17 2 33 3t45 1z" />
    <glyph glyph-name="I" unicode="I" horiz-adv-x="604"
d="M360 582v-118.5t1.5 -121.5t2.5 -116.5t2.5 -104.5t3 -84t1.5 -55q-4 -1 -12.5 -2t-18 -1.5t-18.5 -1t-15 -0.5q-18 0 -36 0.5t-35 2.5q2 43 3.5 96t2.5 113.5t1.5 126t0.5 133.5v888q-1 31 -1.5 62.5t-1.5 61.5t-2 56.5t-3 47.5q9 0 28.5 1t50.5 1q19 0 35 -1t29 -3
q-3 -62 -6 -130.5t-5.5 -139.5t-4.5 -142t-3 -139v-430z" />
    <glyph glyph-name="J" unicode="J" horiz-adv-x="690"
d="M463 616q0 -156 -11.5 -268.5t-36.5 -196t-64.5 -144.5t-94.5 -113q-51 -50 -103.5 -93.5t-99.5 -74.5q-17 18 -35 45t-30 53q28 18 51 33t45 32q58 49 100 95t71 94.5t47.5 102t28.5 118.5t13.5 143t3.5 176q0 277 -12 516.5t-29 426.5q20 2 41 3t41 1h34t34 -2
q0 -22 -0.5 -70.5t-0.5 -109v-128t1 -129.5q1 -28 1.5 -70.5t1 -91.5t1 -101.5t1 -99.5t1 -86t0.5 -61z" />
    <glyph glyph-name="K" unicode="K" horiz-adv-x="1421"
d="M1292 115q28 -23 59 -46l62 -46q-18 -32 -43.5 -60.5t-50.5 -50.5q-12 12 -31 30t-49 45t-72 62.5t-98 81.5q-63 53 -118 99.5t-108 91.5l-106 90t-112 94q-33 28 -73.5 61t-76.5 62q-42 33 -84 67h-33v-293q0 -35 0.5 -88.5t1.5 -112t2.5 -115.5t4.5 -99q-11 -2 -25 -2
h-27h-39t-36 2q1 30 1.5 89t1 133.5t1 159t0.5 165v151.5v119v186q0 42 -0.5 90.5t-1 96.5t-1 93.5t-1.5 82.5q0 24 -1 51.5t-2.5 55.5t-2.5 54t-1 48q11 3 35 3.5t51 0.5q8 0 18 -0.5t18 -1.5l20 -2q-6 -62 -11.5 -181t-5.5 -297v-323h13q18 19 48.5 50.5t66.5 70t75 80.5
t74 80t63 70t43 50q87 103 176.5 205t163.5 205q12 -9 25.5 -20t27 -23t26.5 -23.5t22 -21.5q-48 -50 -82 -87.5t-65.5 -73t-65.5 -74.5t-82 -93q-49 -55 -99.5 -110.5t-98.5 -107.5t-92 -99.5t-79 -87.5q36 -28 74.5 -61t77.5 -66.5t78.5 -66.5t76.5 -62
q65 -54 121.5 -101.5t111.5 -93t111.5 -91t122.5 -95.5z" />
    <glyph glyph-name="L" unicode="L" horiz-adv-x="1047"
d="M973 92q2 -8 2 -17.5v-23.5q0 -18 -2.5 -39.5t-7.5 -38.5q-10 1 -37.5 2.5t-67 3t-88 3t-101 2.5t-105.5 2t-101 2q-71 2 -132 3.5t-100 4.5q3 62 5 110t3.5 92t2 89t0.5 100v578q0 52 -1.5 112t-3.5 121.5t-4.5 121t-4.5 108.5t-3 85t-2 50q19 3 39.5 4.5t38.5 1.5
q8 0 18.5 -0.5t20.5 -1.5q11 -1 23 -2q-1 -14 -1.5 -43.5t-0.5 -68t-0.5 -82t-0.5 -85v-77.5v-60v-735q0 -50 0.5 -103.5t1.5 -98.5q1 -53 1 -103q28 -3 59 -6q26 -2 58.5 -4t64.5 -3q21 0 56 -1t75.5 -1.5t84.5 -1t84 -1t73.5 0t52.5 0.5z" />
    <glyph glyph-name="M" unicode="M" horiz-adv-x="1966"
d="M1649 1296q2 -10 8.5 -52t17 -105t23 -141t26 -160t26.5 -162t23.5 -146t18 -112.5t10.5 -61.5q12 -71 22.5 -122.5t19 -91t16.5 -71t16 -63.5q-32 -11 -70.5 -18t-76.5 -10q-6 32 -11.5 70.5t-12.5 89t-16.5 116.5t-23.5 154q-15 93 -29.5 183.5t-30.5 188t-33.5 205
t-37.5 234.5q-12 -26 -33.5 -71t-48.5 -100t-56.5 -115.5t-57.5 -117.5t-52 -106.5t-41 -81.5q-40 -80 -74 -149t-66.5 -136.5t-65.5 -138t-72 -152.5l-35 -12q-15 36 -39 95.5t-54 134t-64 159.5t-68 172q-33 84 -69 171t-69.5 168.5t-64 153.5t-53.5 124
q-16 -76 -33.5 -159.5t-35 -168.5t-35.5 -169t-36 -161q-14 -61 -30 -135t-32 -150.5t-31.5 -151t-27.5 -138.5q-37 2 -71.5 8t-63.5 14q9 38 20 76q9 32 19.5 69t18.5 68q43 159 82 330t77 350q15 77 31.5 160t33 167t31.5 166t27 158l35 7q15 -35 34.5 -81.5t41.5 -98.5
t45.5 -105t44.5 -100q21 -46 47.5 -111.5t54 -136t54.5 -139t49 -119.5q8 -18 19 -44t23.5 -56t25.5 -62t26 -63q30 -72 63 -152q46 97 87 182q18 36 36 74t35 72.5t31.5 63.5t23.5 48q28 55 60.5 121.5t67 139t70.5 148t70.5 148t66.5 139t59 121.5l45 8q8 -59 16 -110
q3 -22 6.5 -44t6.5 -42.5t6 -37t4 -26.5z" />
    <glyph glyph-name="N" unicode="N" horiz-adv-x="2007"
d="M401 1323q-6 -91 -11 -167q-2 -32 -4.5 -64.5t-4.5 -59.5t-3.5 -47.5t-2.5 -28.5q-8 -89 -14.5 -161t-12.5 -139.5t-11.5 -136.5t-12.5 -152q-6 -69 -12.5 -139t-12 -135.5t-10 -122.5t-6.5 -101q-15 0 -33.5 1t-37.5 2.5t-36.5 4t-30.5 6.5q9 48 17.5 101t16 112t15 127
t15.5 146q8 88 17 190t18.5 209.5t18.5 217.5t18 214q3 42 7 91.5t7.5 97t6 87t3.5 62.5l39 23q98 -102 197 -201t189 -188t166 -163.5t130 -125.5q81 -78 165 -162t165 -165.5t156 -156t139 -133.5v670q0 78 -1 150.5t-2.5 147.5t-4.5 156t-7 175q11 5 31 7.5t39 2.5
q11 0 31 -0.5t32 -3.5q-1 -28 -2.5 -74t-2 -94.5t-1 -93.5t-0.5 -72v-655q0 -96 0.5 -192t2 -175.5t3 -134.5t3.5 -68l-48 -30q-21 24 -41.5 49.5t-47.5 57t-63 71.5t-89 94q-192 195 -404.5 409t-435.5 431q-59 55 -121 115.5t-121 113.5z" />
    <glyph glyph-name="O" unicode="O" horiz-adv-x="1806"
d="M1696 809q0 -183 -60 -335.5t-166 -263t-251 -172t-314 -61.5q-168 0 -312.5 56.5t-250.5 160t-166.5 250.5t-60.5 328q0 114 27 217.5t77.5 193t122 162t160 123.5t192.5 79t219 28q168 0 311.5 -58t248.5 -160t164 -242.5t59 -305.5zM1571 793q0 147 -49 269.5
t-137.5 210.5t-211.5 136.5t-272 48.5q-97 0 -183.5 -24t-160 -68t-132 -105.5t-100 -137.5t-63.5 -163.5t-22 -183.5q0 -149 48 -274t136 -216t213 -141.5t278 -50.5q135 0 254 47.5t208.5 137.5t141.5 219.5t52 294.5z" />
    <glyph glyph-name="P" unicode="P" horiz-adv-x="1155"
d="M1030 1102q0 -111 -43.5 -202t-128 -156t-210 -100.5t-290.5 -35.5v-170q0 -131 2.5 -244t4.5 -200q-4 -2 -12.5 -2.5t-18 -1t-18 -0.5h-13.5q-25 0 -42 1t-25 3q3 90 6.5 230t3.5 345v652q0 59 -0.5 114.5t-1 101t-1 78.5t-1.5 48q12 1 28 1.5t33 1t33.5 1t30.5 0.5
q147 0 269 -32.5t209.5 -93.5t136 -146.5t48.5 -192.5zM901 1096q0 88 -37 156.5t-106 115.5t-168.5 71.5t-224.5 24.5q-1 -24 -2.5 -66.5t-2.5 -91.5t-1.5 -98t-0.5 -86v-401q13 -3 32.5 -4.5t31.5 -1.5q109 0 197.5 25t151 74t96.5 120t34 162z" />
    <glyph glyph-name="Q" unicode="Q" horiz-adv-x="1806"
d="M1442 55q27 0 68 0.5t88 1t95 1t89 1.5q2 -18 2 -31.5v-21.5q0 -18 -1.5 -44.5t-6.5 -51.5q-60 12 -137.5 17.5t-186.5 15.5q-83 7 -153 12.5t-137 9.5t-135 7t-146 5q-106 4 -204.5 30.5t-183.5 74.5t-154.5 116.5t-119.5 155.5t-77 192t-27 226q0 112 27 215.5
t77 192.5t121.5 162t160 124.5t193.5 80t221 28.5q107 0 206.5 -24.5t186 -71t157.5 -113t122 -150.5t79 -183.5t28 -211.5q0 -151 -36 -274.5t-100.5 -218.5t-152.5 -163t-193 -108zM1571 807q0 140 -49.5 259.5t-138 207t-211 137t-269.5 49.5q-98 0 -185 -24.5
t-160.5 -69.5t-132.5 -107.5t-100 -138.5t-63 -163t-22 -181q0 -155 48.5 -281t137.5 -215t214 -137.5t278 -48.5q143 0 263 50.5t206.5 144t135 225t48.5 293.5z" />
    <glyph glyph-name="R" unicode="R" horiz-adv-x="1401"
d="M1217 377q0 -153 3.5 -249.5t8.5 -131.5q-13 -3 -33.5 -4.5t-42.5 -1.5q-4 0 -12.5 0.5l-17 1t-16.5 1t-13 1.5q2 34 4 75t3.5 85.5t2 89t0.5 84.5q0 99 -6.5 161t-25 96.5t-51 47t-83.5 12.5q-91 0 -166 -3t-143.5 -6t-134.5 -6t-138 -3v-254v-204.5t2 -172.5
q-11 -2 -27.5 -3t-31.5 -1q-17 0 -32.5 0.5t-35.5 3.5q1 35 3 73q2 32 3 73t3 83q2 108 3 274t1 402q0 239 -3 402t-8 264q13 0 35 1q19 1 50 1h77q110 0 212.5 -25t181.5 -77t126.5 -132.5t47.5 -191.5q0 -81 -21 -146t-54.5 -115t-75 -85.5t-81.5 -57.5v-8q21 2 51 5
t60 5.5t56 4.5t40 2q92 0 147 -22t84 -67.5t38.5 -115.5t9.5 -166zM836 1120q0 173 -124 258.5t-352 85.5q-1 -77 -2 -150q-1 -63 -1.5 -129t-0.5 -114v-332q6 -1 16.5 -2t24 -2t28 -1.5t26.5 -0.5q76 0 145.5 23.5t123 71t85 120.5t31.5 172z" />
    <glyph glyph-name="S" unicode="S" horiz-adv-x="1036"
d="M870 418q0 -98 -33.5 -182t-95 -145t-148.5 -95.5t-194 -34.5q-34 0 -71 2.5t-74 8t-71.5 14t-63.5 20.5q1 12 3.5 28.5t6.5 33.5t9 33.5t9 29.5q51 -23 117 -38t137 -15q77 0 141 22t109.5 64.5t71 104.5t25.5 141q0 65 -22.5 116.5t-60.5 95.5t-88 82.5t-104 75.5
q-52 36 -104 74.5t-93.5 86t-67.5 106t-26 135.5q0 78 26.5 149.5t81.5 125.5t139.5 86t199.5 32q26 0 54 -1t55.5 -3t53 -5t44.5 -7q-2 -31 -6.5 -62t-10.5 -59q-38 8 -88 15t-98 7q-81 0 -142 -19.5t-102.5 -55.5t-62.5 -86t-21 -111q0 -54 21 -98t56.5 -83t81.5 -74
t97 -71q54 -37 109 -79t99.5 -94.5t72.5 -118.5t28 -152z" />
    <glyph glyph-name="T" unicode="T" horiz-adv-x="1272"
d="M1239 1524q0 -14 -1 -31.5t-3 -30.5q-48 2 -107.5 3t-138.5 1q-15 0 -35 -0.5t-43.5 -1t-48 -1t-48.5 -1.5q-55 -2 -116 -4q0 -14 -0.5 -45t-0.5 -70.5t-1 -85t-1 -90t-0.5 -83.5t-0.5 -66v-496q0 -70 1 -147.5t2.5 -149.5t4 -132.5t5.5 -96.5q-13 -3 -31.5 -4.5
t-32.5 -1.5h-38.5t-33.5 2q2 131 4.5 268.5t2.5 296.5v442q0 59 -0.5 122.5t-1 123.5t-1.5 113.5t-2 93.5q-103 -7 -202 -14q-42 -3 -87.5 -6.5t-89.5 -7t-85.5 -7.5t-75.5 -8q-2 9 -3 28t-1 36q0 14 1 30t3 27h30.5t61.5 2q56 2 130 5.5t154 7t159 7t145 4.5q32 0 78 1
t97 3t104 3.5t100 3.5t84.5 3t56.5 1q3 -6 4.5 -20.5t1.5 -26.5z" />
    <glyph glyph-name="U" unicode="U" horiz-adv-x="1804"
d="M1524 1563h31.5t35.5 -2q-3 -78 -5.5 -159t-2.5 -159t-1 -164.5t-2.5 -168t-3 -150t-3.5 -109.5q-10 -188 -62.5 -318t-140 -211t-208 -117t-267.5 -36q-292 0 -457 161t-200 488q-9 75 -12.5 142t-5 134t-3 138.5t-6.5 155.5q-2 63 -4.5 124.5t-4 112.5t-2.5 87.5
t-1 50.5q12 2 31.5 3t33.5 1q13 0 34.5 -1t35.5 -3q-1 -17 -1.5 -45t-1 -72.5t-1 -107.5t-0.5 -150q0 -32 1 -74.5t2 -89.5t3 -96.5t4 -95t4 -84t4 -64.5q12 -132 45 -242t96.5 -189t163 -123t244.5 -44q165 0 275 45t176.5 128t94 199.5t27.5 260.5q0 89 -0.5 176.5
t-1 165.5t-1.5 142.5t-3 107.5q-3 68 -6.5 134.5t-9.5 113.5q19 2 39.5 3t36.5 1z" />
    <glyph glyph-name="V" unicode="V" horiz-adv-x="1522"
d="M1376 1581q32 -9 66 -22.5t59 -30.5q-29 -56 -67 -133t-80.5 -166.5t-88.5 -186.5t-91 -194q-35 -74 -72 -156t-75 -165.5t-75.5 -164.5t-72.5 -153q-26 -53 -46 -99.5t-40 -91.5l-62 -30q-25 59 -51.5 123.5t-54.5 126.5q-48 106 -91.5 200.5t-85.5 185t-84.5 182
t-87.5 191.5q-29 65 -62 134t-66.5 135.5t-67 128t-62.5 112.5q54 39 125 62q34 -75 70 -155t74 -159q42 -87 89 -190t94 -208t91 -203.5t80 -176.5q4 -8 11.5 -24t16.5 -36.5t20 -44t21 -47.5q25 -55 54 -120q35 76 79 175t92.5 208t98.5 220.5t96 211.5q40 87 74 163
t63.5 144t56 130.5t52.5 123.5z" />
    <glyph glyph-name="W" unicode="W" horiz-adv-x="1954"
d="M1778 1563q35 -7 69 -17.5t60 -19.5q-7 -16 -15.5 -40t-17.5 -50.5t-17.5 -53t-15.5 -49.5q-18 -58 -43.5 -141.5t-54 -179t-58 -197.5t-55.5 -197q-35 -130 -69.5 -246.5t-59.5 -209.5q-11 -35 -17.5 -72.5t-13.5 -66.5l-26 -29q-7 24 -19.5 58.5t-27.5 72.5t-30.5 76
t-27.5 69q-10 24 -33 76.5t-54 122.5t-67.5 151.5t-73.5 163.5t-72 158.5t-64 136.5q-4 -10 -15.5 -40.5t-25.5 -69.5t-28 -80.5t-25 -73.5q-27 -78 -53.5 -155t-51 -148t-46.5 -134.5t-40 -115.5q-15 -46 -26.5 -81.5t-20.5 -64.5t-16.5 -54.5t-16.5 -51.5l-39 -22
q-12 52 -32 120t-41 136q-27 87 -65 200.5t-82.5 239.5t-92 258t-92.5 256q-32 88 -64 169t-61 153q32 14 66 25.5t71 21.5q13 -42 24.5 -78t23.5 -73t25.5 -78t31.5 -93q19 -56 44 -129.5t51.5 -152.5t53 -156.5t49.5 -142.5q6 -16 16 -44t21.5 -62t24.5 -70t24 -69
t20 -58.5t13 -38.5q50 143 84 239.5t55 161.5q8 19 22.5 60t33 94t39 114.5t40.5 121t37 113t29 91.5l39 16q35 -77 78.5 -173.5t90 -198.5t92 -203t83.5 -187q1 -3 8.5 -19t18 -40t23 -52t24.5 -55t22 -50t15 -36q26 90 51 178.5t47.5 169.5t41.5 150.5t34 120.5
q28 94 58 200t60 218q6 24 13.5 52.5t14.5 56t13.5 53.5t10.5 45z" />
    <glyph glyph-name="X" unicode="X" horiz-adv-x="1483"
d="M1157 360q32 -43 62 -84t61.5 -82t66 -83.5t74.5 -87.5q-47 -48 -102 -78q-68 94 -148 204.5t-182 243.5q-29 37 -63.5 82.5t-68.5 91.5t-64.5 87.5t-53.5 70.5q-56 -78 -108 -151q-22 -31 -45.5 -64.5t-46 -65.5t-43 -61.5t-35.5 -52.5q-31 -46 -67 -98t-72 -104.5
t-70.5 -102t-63.5 -91.5q-26 14 -54.5 34.5t-53.5 41.5q32 39 64.5 83t70 95.5t82 113t98.5 136.5q38 54 76 106.5t72 98.5q15 19 32 42t33.5 46.5t32 45t27.5 38.5q-14 19 -41.5 56t-63.5 83t-76.5 98t-80.5 101q-26 32 -65 79.5t-79.5 97t-78.5 94t-62 71.5q22 23 48.5 44
t51.5 38q21 -30 50 -67.5t61.5 -79.5t67 -86t68 -87t64 -82.5t54.5 -72.5q20 -27 44.5 -58.5t46.5 -60t38 -49t20 -25.5q25 34 52.5 72t56 78.5t56.5 81.5t54 80q59 88 117 173.5t109 172.5q28 -16 57.5 -36.5t52.5 -39.5q-46 -63 -108 -152t-150 -211q-30 -41 -69 -93.5
t-74 -100.5q-41 -55 -84 -113q32 -43 75.5 -100.5t91.5 -119.5t96 -124.5t89 -116.5z" />
    <glyph glyph-name="Y" unicode="Y" horiz-adv-x="1253"
d="M1133 1565q23 -22 41.5 -49.5t29.5 -53.5q-34 -26 -84 -68t-110 -102q-61 -65 -119.5 -147t-104 -169t-73 -173t-27.5 -160v-119q0 -19 0.5 -57.5t1 -86.5t1.5 -102.5t2.5 -107.5t3 -99.5t3.5 -78.5q-8 -2 -27 -3t-36 -1q-22 0 -40.5 1t-35.5 3q2 95 5 194
q2 85 3.5 183.5t1.5 189.5v96q0 74 -28.5 159.5t-75 170.5t-105 164.5t-118.5 140.5q-44 44 -93.5 86.5t-103.5 77.5q11 26 29 54t37 51q47 -39 95.5 -75.5t94.5 -86.5q88 -94 146.5 -179.5t101.5 -170.5q7 -14 18.5 -39t23.5 -55t22.5 -62t15.5 -60h4q8 45 24 89t34.5 82.5
t36.5 69t30 48.5q31 51 60.5 93t61.5 81t68 78.5t80 85.5q34 37 57 60.5t48 46.5z" />
    <glyph glyph-name="Z" unicode="Z" horiz-adv-x="1483"
d="M907 109q27 0 73 1.5t101 3t114 3t110.5 3.5t91 4t55.5 3q0 -32 -2.5 -68.5t-5.5 -64.5q-28 1 -69.5 2t-89.5 1.5t-97.5 1t-94.5 1t-81 0.5h-56q-93 0 -190.5 -0.5t-195 -2t-192.5 -3.5t-185 -4l-29 28q29 45 53.5 86.5t56.5 92.5q70 110 130 206.5t117 191t115 192
t124 208.5q17 29 36.5 62t39.5 68.5t39.5 71t37.5 68.5q42 77 84 156q-75 1 -142 3q-28 1 -58 1.5t-57.5 1t-51 0.5h-39.5q-65 0 -141 -1t-151.5 -3t-145 -5t-121.5 -7q0 31 1.5 66t6.5 69q28 0 52.5 -0.5t51.5 -1t58 -1t72 -1.5q99 -2 202.5 -3t202.5 -1q115 0 191.5 1
t120.5 3q14 0 30 1.5t32 3.5t30 4.5t24 4.5l25 -28q-37 -64 -69 -119.5t-63.5 -111t-65.5 -114.5t-75.5 -130.5t-93 -159.5t-118.5 -201q-11 -17 -31.5 -52t-46.5 -80t-55.5 -97t-58.5 -104q-69 -121 -148 -265q55 0 122 1.5t138 4t143.5 5t138.5 4.5z" />
    <glyph glyph-name="bracketleft" unicode="[" horiz-adv-x="795"
d="M258 1577q63 1 130.5 3.5t129.5 5.5t114.5 6t86.5 5q0 -20 -1 -49.5t-3 -48.5q-28 -2 -71.5 -4t-91.5 -3.5t-95.5 -2t-83.5 -0.5v-1643q27 1 71.5 2.5t94 3.5t97 4t79.5 5q0 -22 -1 -52t-3 -49q-20 -1 -55 -2t-77.5 -1.5t-88.5 -1t-87 -1t-73 -0.5h-47h-25q1 31 1 76.5
t0.5 99.5t1 114t1 120.5t0.5 118.5v108v604q0 52 -0.5 128t-1 158t-1 160.5t-1.5 135.5z" />
    <glyph glyph-name="backslash" unicode="\" horiz-adv-x="1204"
d="M184 1264q-31 42 -57 76.5t-48.5 64.5t-43 56.5t-41.5 51.5q22 19 48 38t52 34q13 -24 35.5 -58.5t48.5 -72.5t51.5 -75t44.5 -66l682 -948q56 -76 106 -138t87 -110q19 -22 34.5 -41.5t30.5 -40.5q-27 -20 -53 -36t-57 -32q-19 29 -47.5 71.5t-59.5 87.5t-60 87t-50 70z
" />
    <glyph glyph-name="bracketright" unicode="]" horiz-adv-x="795"
d="M539 -225q-63 -1 -130 -3.5t-129.5 -5.5t-115 -6.5t-86.5 -5.5q0 10 0.5 23.5l1 27t1 26.5t1.5 22q28 2 71.5 4t91.5 3.5t95.5 2t83.5 0.5v1642q-25 0 -70 -1t-94.5 -3t-97.5 -4.5t-80 -5.5q0 22 1 52t3 48q20 1 55 2t77.5 1.5t88.5 1t87 1t73 0.5h47h25q-1 -31 -1 -76.5
t-0.5 -99.5t-1 -113.5t-1 -120t-0.5 -118.5v-108v-605v-80t0.5 -98t1 -107.5t1 -108.5t1 -101t0.5 -86z" />
    <glyph glyph-name="asciicircum" unicode="^" horiz-adv-x="1038"
d="M522 1544q14 0 27 -1t24 -3q100 -152 196 -302.5t192 -303.5q-20 -14 -45.5 -29t-53.5 -26q-19 33 -37 63.5t-38.5 64t-44 73t-55 90.5t-72 117t-93.5 151q-80 -128 -131.5 -213.5t-87 -146t-62 -106.5t-55.5 -95q-27 11 -54.5 27t-47.5 30q191 305 387 606q11 2 24 3
t27 1z" />
    <glyph glyph-name="underscore" unicode="_" horiz-adv-x="1024"
d="M1032 -348h-1040v94h1040v-94z" />
    <glyph glyph-name="grave" unicode="`" horiz-adv-x="700"
d="M129 1942q6 8 17 21.5t24.5 27.5l27 28t23.5 23q34 -36 77 -81.5t88.5 -93.5t90.5 -95.5t82 -88.5l-51 -53z" />
    <glyph glyph-name="a" unicode="a" horiz-adv-x="1327"
d="M676 1223q22 -45 55.5 -112.5t75 -149t88 -172t94.5 -182.5t95 -181.5t89.5 -167t78 -140t59.5 -100.5q-28 -14 -60.5 -28.5t-60.5 -22.5q-16 35 -37.5 78.5t-45.5 90t-49.5 94t-49.5 89.5q-38 2 -76.5 3.5t-86 2t-108 1t-141.5 0.5q-72 0 -144 -1.5t-124 -5.5
q-24 -37 -50 -82.5t-52 -93t-50 -93.5t-45 -83q-28 8 -57 19t-58 28q29 45 66 108.5t79 139.5t87 161.5t91 174t90.5 176t85 167.5t75.5 150t61 123zM950 434q-55 112 -108 217q-22 45 -46.5 92.5t-47.5 93t-44.5 87.5t-39.5 75q-73 -140 -142.5 -279t-140.5 -282
q49 -5 113 -7.5t145 -2.5q85 0 137 1t80 1q25 0 53.5 1t40.5 3z" />
    <glyph glyph-name="b" unicode="b" horiz-adv-x="1143"
d="M1010 352q0 -93 -53 -162.5t-147 -115.5t-221 -69t-276 -23h-19.5h-24t-24 0.5t-20.5 1.5q2 31 2.5 76t1 97t0.5 106.5v103.5v360v114.5t-0.5 131t-1 128.5t-2.5 105q29 2 55.5 2h57.5q137 0 246.5 -20t186 -58t118 -94.5t41.5 -128.5q0 -93 -56 -163t-174 -113v-4
q76 -11 134 -36t97 -61t59 -81.5t20 -96.5zM879 354q0 50 -22.5 89.5t-69.5 67t-121 42t-177 14.5h-139v-142.5t0.5 -131t1.5 -114t2 -93.5q104 0 199 14.5t167.5 46.5t115.5 83t43 124zM805 891q0 57 -31.5 98t-90.5 68t-143.5 40t-189.5 13v-444h123q169 0 250.5 60.5
t81.5 164.5z" />
    <glyph glyph-name="c" unicode="c" horiz-adv-x="1335"
d="M1184 190q15 -23 26.5 -48t22.5 -50q-87 -52 -201.5 -84.5t-255.5 -32.5q-147 0 -263.5 42.5t-197 121t-123 191t-42.5 252.5t44.5 254.5t126 196t196 126.5t255.5 45q69 0 134 -7.5t122 -20.5t104.5 -29t81.5 -33q-8 -28 -17.5 -55t-20.5 -51q-33 17 -78.5 33.5
t-98 29.5t-110.5 21t-117 8q-114 0 -206 -36t-156.5 -103t-99 -163.5t-34.5 -217.5q0 -127 37 -220t103.5 -154.5t158.5 -91.5t201 -30q63 0 117.5 6.5t103.5 19.5t95 33t92 47z" />
    <glyph glyph-name="d" unicode="d" horiz-adv-x="1489"
d="M1339 623q0 -162 -54.5 -283.5t-148 -202.5t-218 -121.5t-265.5 -40.5q-128 0 -234.5 7t-193.5 16q0 15 0.5 42.5t0.5 61.5t1 70.5t1 70t0.5 60.5t0.5 41v526q0 30 -0.5 72t-1 86.5t-1 87.5t-1.5 74q42 4 90.5 7t100.5 5t106.5 3t106.5 1q140 0 268 -32t226.5 -102
t157 -181t58.5 -268zM1210 621q0 128 -44 219t-123.5 150t-189 86.5t-241.5 27.5q-26 0 -61 -2t-71 -5t-68.5 -7t-53.5 -9q-3 -40 -4.5 -95t-2.5 -111t-1 -105.5v-79.5q0 -246 2 -390.5t6 -203.5q28 -4 61.5 -7.5t70.5 -5t75.5 -2.5t75.5 -1q125 0 229 33.5t180 101t118 169
t42 237.5z" />
    <glyph glyph-name="e" unicode="e" horiz-adv-x="1098"
d="M352 -20q-15 0 -34 0.5t-38 0.5t-34.5 0.5t-22.5 0.5q3 99 3.5 200.5t0.5 216.5v283q0 72 -1 150t-3 178q0 15 -0.5 40.5t-1 52.5t-1 51.5t-1.5 39.5q25 0 58.5 0.5t70.5 0.5t74.5 0.5t69.5 0.5q84 0 151.5 3.5t130.5 6.5q18 1 37.5 1.5t37.5 1t31.5 1t18.5 0.5
q5 -20 7.5 -51t2.5 -57h-105.5t-150.5 -2q-15 0 -35.5 -1t-44 -2t-49 -2t-49.5 -2q-57 -3 -119 -6q-1 -67 -3 -129q-2 -53 -2.5 -106t-0.5 -84v-90h275q103 0 184.5 3.5t140.5 6.5q2 -12 3 -28t1 -42q0 -7 -0.5 -16t-1.5 -17l-2 -20q-14 0 -33 1t-36 1q-25 1 -62.5 2
t-79.5 2t-85 1.5t-81 0.5q-33 0 -71.5 -0.5t-72.5 -2.5q-40 -2 -79 -3v-166q0 -36 0.5 -88t2.5 -101q2 -57 3 -118q53 -6 111.5 -8.5t114.5 -5.5l86 -4q78 -3 136.5 -3.5t104.5 -0.5q0 -26 -2.5 -57t-7.5 -60q-6 0 -34 1.5t-66 4.5q-48 3 -99.5 5.5t-99.5 4.5
q-51 2 -115.5 4.5t-132.5 4.5z" />
    <glyph glyph-name="f" unicode="f" horiz-adv-x="1073"
d="M223 -20q1 29 1.5 66.5t1 78.5t1 83t0.5 79v66.5v45.5v283q0 53 -1 108q-1 47 -1.5 102.5t-1.5 104.5q0 15 -0.5 42.5t-1.5 57t-2 56t-2 41.5q17 0 40 0.5t49 0.5t53 0.5t51 0.5q48 0 104.5 1t114.5 2.5t111.5 3.5t95.5 3q8 0 21 0.5t26 1.5t24 1.5t17 0.5q2 -7 3 -20.5
t2.5 -29t2 -31t0.5 -27.5h-116.5t-162.5 -2q-14 0 -34.5 -1t-44 -1.5t-49.5 -1.5t-50 -2q-57 -2 -121 -4q-1 -98 -3 -183q-1 -36 -1.5 -73t-1 -70t-0.5 -59.5v-42.5v-78h221q45 0 95 0.5t98 2t91 3.5t75 4q1 -13 1.5 -20.5t0.5 -14v-14v-19.5t-1 -27.5t-3 -27.5
q-22 2 -58.5 3.5t-80 2.5t-89 1.5t-84.5 0.5q-32 0 -77.5 -1t-87.5 -3q-49 -2 -101 -4v-158q0 -28 0.5 -72t1.5 -92t2 -93.5t2 -75.5q-6 -2 -19.5 -3.5t-29.5 -1.5q-17 0 -32 0.5t-26 1.5q-13 1 -24 3z" />
    <glyph glyph-name="g" unicode="g" horiz-adv-x="1415"
d="M1243 266q0 -27 0.5 -49t0.5 -42t0.5 -40t0.5 -43q-55 -29 -109 -51t-110 -36.5t-116 -22t-126 -7.5q-150 0 -268 43.5t-199.5 123.5t-124 192t-42.5 250q0 131 44.5 244t127.5 196.5t203.5 131.5t271.5 48q69 0 125 -5t105.5 -15t96 -24t95.5 -32q-8 -24 -19.5 -54.5
t-23.5 -53.5q-87 35 -186 57.5t-199 22.5q-118 0 -213 -38t-162 -107t-103.5 -164.5t-36.5 -210.5q0 -127 39 -221.5t108 -157.5t164 -94t206 -31q48 0 97 7t93.5 17.5t81.5 24t61 25.5v116q0 34 -0.5 70.5t-1.5 71t-2 65.5t-2 53q14 3 30.5 4.5t29.5 1.5q38 0 65 -6
q0 -7 -0.5 -35.5t-0.5 -60.5t-0.5 -60t-0.5 -36v-68z" />
    <glyph glyph-name="h" unicode="h" horiz-adv-x="1593"
d="M1313 1208q21 0 37.5 -1t27.5 -3q-1 -44 -3.5 -97.5t-4 -111l-3 -115t-1.5 -108.5v-266v-142t1 -123t2.5 -123.5t4.5 -142.5q-15 -2 -32 -3t-35 -1q-17 0 -38.5 1t-33.5 3q2 56 3.5 127.5t2 149t1 156.5t1.5 151q-30 -1 -64.5 -2t-70.5 -2t-70.5 -2t-64.5 -2
q-40 -1 -78 -3t-76.5 -3.5t-80 -4t-89.5 -5.5q-86 -4 -158.5 -4.5t-140.5 -8.5v-268v-49.5v-70.5t0.5 -83.5t1.5 -89.5q-8 -2 -26 -3t-39 -1q-17 0 -34 1t-36 3q3 45 5 93t3 97t1.5 97t0.5 92v377q1 69 0 138.5t-2.5 133.5t-4 118.5t-5.5 94.5q17 0 32 1t50 1q20 0 35.5 -1
t27.5 -3q-1 -42 -3 -81t-3.5 -82.5t-2.5 -96.5t-1 -125v-168q29 -1 63.5 -1.5t68 -0.5h61h41.5q68 0 125.5 0.5t109.5 1.5t100.5 3t99 5t105.5 6.5t119 8.5q0 90 -1 173t-2.5 152.5t-2.5 123t-2 85.5q15 2 37 3t41 1z" />
    <glyph glyph-name="i" unicode="i" horiz-adv-x="578"
d="M350 432v-43.5v-74v-92t0.5 -97.5t1 -91t0.5 -73q-8 -2 -26 -3t-39 -1q-17 0 -34 1t-36 3q3 45 5 93t3 97t1.5 97t0.5 92v377q1 69 0 138.5t-2.5 133.5t-4 118.5t-5.5 94.5q17 0 32 1t50 1q20 0 35.5 -1t27.5 -3q-1 -42 -3 -80t-3.5 -80.5t-2.5 -94.5t-1 -124v-389z" />
    <glyph glyph-name="j" unicode="j" horiz-adv-x="600"
d="M324 1217q15 0 33.5 -1.5t35.5 -3.5l-2.5 -85t-3 -104t-2 -99.5t-0.5 -71.5v-363q0 -119 -6 -203.5t-20.5 -146t-40 -106t-64.5 -84.5q-16 -15 -35 -31.5t-37.5 -31.5t-36 -28.5t-30.5 -23.5q-20 19 -39 40.5t-33 43.5q11 9 30 25.5t33 27.5q55 48 86 102.5t46.5 126.5
t19.5 166.5t4 221.5v94q0 18 -1 54.5t-3 84.5t-4.5 103t-5 108t-5 100t-5.5 80q20 4 40.5 4.5t45.5 0.5z" />
    <glyph glyph-name="k" unicode="k" horiz-adv-x="1214"
d="M1206 68q-18 -28 -42 -53.5t-46 -47.5q-23 19 -40 33t-34.5 27.5t-37 29.5t-48.5 39q-63 51 -116.5 93.5t-106.5 83t-108.5 82.5t-122.5 91q-29 22 -53.5 39t-41.5 29q-20 14 -36 25h-23v-185q0 -19 0.5 -62.5t2 -96.5t3.5 -108t4 -97q-14 -2 -28 -3t-33 -1t-38.5 1
t-35.5 3q2 45 2.5 117.5t0.5 158.5t-0.5 179.5t-0.5 181.5v71v253.5t-8 250.5q13 2 34 3t40 1q20 0 38.5 -1t30.5 -3q-1 -14 -3.5 -40.5t-4 -62.5t-3 -79t-1.5 -90v-312h10l199 195q60 59 117 116.5t108.5 111t96 99.5t80.5 81q23 -14 46 -39.5t35 -48.5q-37 -33 -84.5 -77
t-113 -106t-152.5 -147t-203 -201q62 -50 131 -104t138 -106.5t135 -100.5t121 -86z" />
    <glyph glyph-name="l" unicode="l" horiz-adv-x="1059"
d="M969 43q0 -23 -1 -38t-3 -32q-10 1 -40.5 3t-74.5 4t-98 4.5t-111 4.5t-113 3t-104 2q-34 1 -66 1.5t-59 1t-47.5 1t-30.5 0.5q2 51 3 95.5t1.5 86t1 81.5t0.5 83v414q0 86 -1 168q0 35 -0.5 72.5t-1 73.5t-1.5 69.5t-2 60.5q35 6 72 6q20 0 38.5 -1t26.5 -3
q-1 -25 -2 -59t-2 -73t-1.5 -80t-1 -79t-1 -71.5t-0.5 -57.5v-370v-107.5t1 -97.5q1 -51 1 -98q27 -2 57 -5q26 -2 57.5 -3.5t63.5 -2.5t83.5 -2t112 -2t123.5 -1.5t116 -0.5q2 -6 3 -21t1 -30z" />
    <glyph glyph-name="m" unicode="m" horiz-adv-x="1827"
d="M1622 547q15 -63 33.5 -139t38 -151.5t38 -143.5t33.5 -115q-26 -9 -62 -15.5t-73 -9.5q-5 21 -13.5 57.5t-18.5 81t-21 94.5t-22 98.5t-20.5 91t-16.5 73.5q-28 118 -57.5 233.5t-61.5 239.5q-13 -24 -33 -62.5t-41 -80t-41 -80.5t-33 -64q-41 -79 -83.5 -160
t-83.5 -158t-78 -148.5t-68 -131.5l-43 -18l-38 76l-32.5 65t-27.5 53q-44 84 -94 181t-99.5 192t-94.5 181.5t-79 150.5q-20 -79 -44.5 -176t-48.5 -194.5t-45.5 -186.5t-35.5 -154q-6 -27 -13.5 -61t-14 -69t-12.5 -69t-9 -59q-37 3 -77 9t-69 14q5 13 16 50.5t25.5 88.5
t30 109t29.5 111.5t25.5 96t17.5 62.5q18 71 36 146t39 159.5t45.5 181.5t53.5 211l41 23q52 -112 119.5 -241t138.5 -269q17 -33 36.5 -71t39.5 -77t40.5 -77.5t38.5 -73.5q43 -83 87 -166q71 137 126 244t97 182q31 57 66 125.5t70 139t68.5 138t61.5 123.5l49 27
q17 -88 41 -184t47 -193q17 -72 37 -154t39 -157z" />
    <glyph glyph-name="n" unicode="n" horiz-adv-x="1659"
d="M1432 387q0 -65 1 -129t3 -117q2 -62 4 -118l-43 -33q-11 13 -31 36.5t-47 53t-59.5 63.5t-69.5 68q-48 45 -112 104t-136.5 125t-150.5 135.5t-154.5 136.5t-148 127.5t-132.5 108.5q-7 -65 -14 -127q-3 -26 -6 -54t-6 -55t-6 -51.5t-5 -44.5q-4 -32 -9.5 -84
t-11.5 -114.5t-12.5 -131.5t-12 -136t-9.5 -126.5t-6 -103.5q-16 0 -35 1.5t-37 4t-34.5 6.5t-28.5 9q17 104 33.5 217t31.5 228.5t28 230t22 219.5q3 34 7 80t8 93t7 89t4 67l23 13q24 -23 43.5 -43t41 -41t48.5 -45t65 -56q54 -44 122.5 -104t145 -128.5t156 -141.5
t155.5 -141.5t144 -129.5t121 -106v463q0 68 -1.5 143.5t-3 147.5t-3.5 133t-4 100q12 2 27.5 4t33.5 2q7 0 16.5 -0.5t18.5 -1.5q11 -1 23 -2q-1 -13 -1.5 -39.5t-1 -62t-1 -77t-0.5 -85.5v-580z" />
    <glyph glyph-name="o" unicode="o" horiz-adv-x="1546"
d="M150 582q0 140 46.5 254.5t130 196t199 126.5t254.5 45q133 0 246 -46t195.5 -128t129 -194.5t46.5 -245.5q0 -130 -43.5 -242.5t-123 -194.5t-191 -129t-246.5 -47q-154 0 -274 46t-202 127t-124.5 191.5t-42.5 240.5zM1268 592q0 103 -36.5 195t-102 161.5t-157 110.5
t-202.5 41q-106 0 -196.5 -34t-156.5 -99t-103.5 -160t-37.5 -217q0 -127 39.5 -222t108 -158.5t160.5 -95.5t198 -32q116 0 206.5 37t152.5 104.5t94.5 161t32.5 207.5z" />
    <glyph glyph-name="p" unicode="p" horiz-adv-x="1096"
d="M967 823q0 -98 -45 -174t-126 -128.5t-194.5 -81t-251.5 -31.5v-84q0 -44 0.5 -90.5t1 -90.5t2 -82.5t2.5 -66.5q-12 -2 -27.5 -3t-33.5 -1q-16 0 -39 1.5t-33 4.5q1 34 3 87q3 90 3 286v530v183t-2 120q12 2 27.5 2.5t32 0.5t33 -0.5t30.5 -0.5q127 0 239 -23t196 -70.5
t133 -119t49 -168.5zM840 817q0 67 -31.5 120t-93 90t-152 57t-207.5 20q-1 -21 -2 -53.5t-2 -71.5t-1.5 -82t-0.5 -86v-289h66q83 0 159.5 18t135.5 54.5t94 92t35 130.5z" />
    <glyph glyph-name="q" unicode="q" horiz-adv-x="1610"
d="M150 582q0 140 46.5 254.5t131 196t202.5 126.5t261 45q110 0 218 -37.5t194.5 -113t140 -189.5t53.5 -266q0 -101 -23 -185t-64 -151.5t-96 -118.5t-120 -86q8 0 37.5 -2t66 -5t73 -5.5t58.5 -3.5q65 -3 134.5 -7.5t129.5 -4.5q0 -23 -4 -56.5t-10 -64.5
q-57 9 -131 17.5t-170 19.5q-109 12 -217 22t-213 10h-43q-160 0 -282.5 46t-205.5 127.5t-125 192t-42 239.5zM1268 592q0 125 -42 220t-111 159t-157.5 96.5t-181.5 32.5q-103 0 -194.5 -34t-159 -99t-107 -160t-39.5 -217q0 -123 38.5 -217.5t106 -159t160 -98
t201.5 -33.5q126 0 217.5 40t151.5 109.5t88.5 162.5t28.5 198z" />
    <glyph glyph-name="r" unicode="r" horiz-adv-x="1210"
d="M784 422q38 -39 80.5 -83.5t88.5 -91t94.5 -93.5t97.5 -91q-11 -14 -19.5 -23.5t-23.5 -23.5q-17 -15 -34.5 -28.5t-27.5 -16.5q-31 37 -71.5 82.5t-84.5 93.5t-89.5 96t-86.5 90t-74.5 75.5t-55.5 52.5q-24 -4 -54 -6.5t-61 -4.5t-60.5 -3t-52.5 -1v-153
q0 -75 2.5 -151.5t5.5 -145.5q-11 -3 -29 -4.5t-32 -1.5q-22 0 -45 1t-29 3q1 68 2 130q0 27 0.5 54.5t1.5 53.5t1.5 48.5t0.5 38.5v525v87v98.5t-0.5 95t-1.5 77.5q44 3 89 4.5t87 1.5q132 0 238.5 -23t181 -68t114.5 -112t40 -155q0 -73 -23.5 -131t-61.5 -102
t-85.5 -73.5t-95.5 -45.5zM852 842q0 68 -30 118.5t-85.5 83.5t-134 49.5t-174.5 16.5q-12 0 -33.5 -1t-40.5 -3q-1 -48 -2 -95q-1 -40 -1.5 -84t-0.5 -77v-299h64q216 0 327 75.5t111 215.5z" />
    <glyph glyph-name="s" unicode="s" horiz-adv-x="971"
d="M811 319q0 -68 -20.5 -130.5t-68 -110.5t-124 -76.5t-188.5 -28.5q-75 0 -147 15t-126 37q3 27 12 58t17 56q25 -12 56.5 -23.5t64.5 -19.5t66.5 -13t62.5 -5q74 0 125.5 18.5t84 50t47.5 72.5t15 86q0 52 -20.5 91.5t-55 71t-79.5 58t-93 52.5q-48 25 -96.5 55.5
t-87.5 69t-63.5 87t-24.5 109.5q0 73 28.5 131t80.5 98t126 61t164 21q27 0 59 -2.5t64.5 -6.5t63 -9t53.5 -10q-2 -26 -8 -58.5t-13 -52.5q-21 5 -48 11.5t-56.5 11.5t-60.5 8.5t-60 3.5q-131 0 -201.5 -52.5t-70.5 -146.5q0 -45 20.5 -80.5t54 -65t76.5 -54.5t88 -50
q50 -26 100.5 -57t91 -71.5t66 -92t25.5 -117.5z" />
    <glyph glyph-name="t" unicode="t" horiz-adv-x="1163"
d="M1126 1167q0 -12 -2.5 -31.5t-5.5 -33.5q-31 2 -72.5 4t-107.5 2q-29 0 -78.5 -0.5t-98.5 -2.5q-57 -2 -120 -3q0 -61 -1 -122q-1 -52 -1 -110v-106v-336q0 -64 1 -127t2.5 -120t4 -105t4.5 -82q-12 -2 -32 -3t-35 -1q-23 0 -41.5 1t-32.5 3q2 56 3 107t1.5 105.5
t1 116.5t0.5 140v282q0 40 -0.5 75t-1 74.5t-1 88.5t-1.5 117q-89 -6 -174 -12q-36 -3 -75.5 -6t-78.5 -6.5t-75 -7t-66 -7.5q-2 8 -3 24.5t-1 34.5q0 14 1 31t3 31q124 9 263 13t288 7q3 0 22 0.5t46 1.5t58 2t57.5 2t45.5 1.5t21 0.5q49 3 86 4.5t68.5 2.5t60.5 2t63 2
q2 -8 3 -24.5t1 -29.5z" />
    <glyph glyph-name="u" unicode="u" horiz-adv-x="1583"
d="M1327 1208q16 0 36 -0.5t36 -3.5q-1 -26 -1.5 -47.5t-1 -44t-1 -47.5t-2.5 -57q-1 -37 -2 -80t-3 -88t-4 -89.5t-4 -84.5q-10 -184 -47.5 -315.5t-109 -216.5t-179.5 -125t-258 -40q-253 0 -397.5 159.5t-181.5 465.5q-6 66 -10.5 124.5t-8 112.5t-6.5 106t-8 105
q-1 18 -2 39.5t-2.5 43.5t-3 42.5t-2.5 36.5q18 3 34 3.5t38 0.5q23 0 42 -1t33 -3q-1 -4 -1.5 -22t-0.5 -44.5v-60v-69.5q0 -27 1 -64t2.5 -78.5t4.5 -85t7 -82.5q8 -86 20.5 -165t34.5 -148t56.5 -125t85 -96t120 -62t162.5 -22q104 0 178.5 25t126 68.5t83 102.5
t49 126.5t23 140t5.5 143.5q0 59 -1.5 143t-4.5 172q-3 128 -15 201q20 3 39 4.5t41 1.5z" />
    <glyph glyph-name="v" unicode="v" horiz-adv-x="1221"
d="M1049 1229q32 -9 65 -22.5t57 -28.5l-32.5 -67.5t-40.5 -85.5t-41.5 -88.5t-36.5 -76.5q-21 -45 -53 -119t-69 -160.5t-76 -177t-74 -167.5q-29 -65 -54.5 -126.5t-48.5 -115.5l-59 -27q-6 16 -11.5 29.5t-11 27.5t-12 30.5t-16.5 39.5q-6 13 -14.5 32.5t-18 40.5
t-18.5 41.5t-15 35.5q-37 84 -73 163.5t-71.5 157t-71.5 155.5t-75 159q-13 27 -30 62t-35.5 73t-38 77t-37.5 74q29 20 62.5 35.5t70.5 26.5q18 -40 28 -63t16 -36.5t8.5 -19.5t5 -11.5t6.5 -14.5l12 -27t21.5 -48.5t35.5 -80.5q28 -63 63 -143.5t69.5 -160.5t65 -151
t48.5 -115q3 -7 13.5 -30.5t21.5 -49.5t21 -47t11 -24q7 15 20.5 47t32.5 76.5t42 98.5t47 111.5t49.5 117t48.5 114.5q26 59 46.5 107.5t38.5 91t34 82t33 79.5q9 23 19.5 48.5t21.5 50.5z" />
    <glyph glyph-name="w" unicode="w" horiz-adv-x="1901"
d="M1735 1235q40 -9 74 -23t59 -26q-13 -28 -32.5 -75.5t-41.5 -98.5q-34 -86 -64 -159.5t-59.5 -146t-60 -149.5t-66.5 -172q-20 -51 -38 -98.5t-36 -94t-36 -93.5t-37 -97l-68 -31q-17 42 -39.5 100.5t-46.5 121t-48 122.5t-44 105q-22 54 -47.5 115.5t-53 127.5
t-56.5 134t-58 133q-32 -82 -73.5 -193.5t-92.5 -236.5q-37 -90 -63 -156.5t-47.5 -121t-40.5 -103.5t-41 -105l-70 -39q-11 31 -25 70.5t-30.5 84t-34 91t-35.5 90.5q-17 45 -33 86.5t-31.5 81.5t-31.5 80.5t-33 83.5q-45 116 -99 255t-120 292q31 14 68 26t75 21
q6 -21 19.5 -62t32 -93.5t40.5 -112.5t43 -119q17 -46 30.5 -81.5t26.5 -68t26 -66.5t28 -77q6 -17 17 -46t24 -63t26.5 -69.5t25 -65.5t20 -52t10.5 -28q33 82 65.5 163t62 156.5t55 142t44.5 118.5q26 71 46 122.5t36 91.5t28.5 71.5t24.5 62.5l24 16l16.5 11t8.5 4v2
q6 -14 12 -29l15 -37.5t22.5 -55.5t34.5 -83q15 -35 32 -75.5t34.5 -83t35.5 -85t34 -81.5q11 -26 26.5 -62t32.5 -77t35 -84t35 -83t31 -74.5t24 -58.5q11 28 26 68.5t30.5 84t30.5 83.5t26 67q26 68 49.5 130.5t46.5 126.5t47.5 132t52.5 146q10 28 18.5 51t16 43t14.5 39
t15 39z" />
    <glyph glyph-name="x" unicode="x" horiz-adv-x="1278"
d="M1235 31q-10 -10 -23 -21t-27 -22t-27.5 -21t-24.5 -18q-54 69 -117.5 146.5t-132.5 162.5q-25 29 -56.5 68t-63 78.5t-61 74.5t-49.5 56q-25 -30 -53 -65q-24 -30 -55 -70t-64 -85q-40 -54 -78 -105t-71.5 -97.5t-62.5 -86t-50 -69.5q-25 12 -54 33t-50 41
q32 37 74 91.5t104 129.5q40 48 77.5 94.5t73.5 92t71.5 91t70.5 93.5q-16 18 -48 55t-73.5 85t-88.5 102.5t-93 107t-86 99t-68 77.5q22 23 48 45.5t50 38.5q37 -47 89.5 -114t117.5 -150q86 -108 145.5 -177.5t77.5 -89.5q15 20 36.5 47.5t45 58.5t48.5 64t47 64
q52 69 101.5 139.5t92.5 132.5q13 -6 27.5 -15t28.5 -19t27 -20.5t24 -18.5q-21 -24 -50 -59t-62 -75.5t-67 -83t-65 -81.5q-8 -10 -19.5 -25t-24.5 -32t-27 -35l-28 -36q-32 -41 -67 -87q15 -18 31.5 -38.5t37.5 -46.5t48.5 -58.5t64.5 -74.5z" />
    <glyph glyph-name="y" unicode="y" horiz-adv-x="1155"
d="M1038 1208q25 -20 47 -46.5t39 -55.5q-24 -19 -61 -49.5t-92 -87.5q-67 -69 -126 -139.5t-103.5 -146t-70.5 -159.5t-26 -182v-125q0 -59 1.5 -119.5t6.5 -109.5q-11 -3 -29.5 -4.5t-41.5 -1.5q-42 0 -66 6q1 37 3 80q2 37 2.5 85t0.5 101v102q0 84 -26.5 166t-67.5 157
t-92 140.5t-100 116.5q-23 22 -49 44.5t-52.5 44.5t-53 41.5t-50.5 35.5q14 28 36 57.5t42 52.5q45 -32 92.5 -73t97.5 -95q115 -123 186 -235t99 -209h4q11 52 46 115t83.5 130t106 134.5t112.5 128.5q26 28 52 52.5t50 47.5z" />
    <glyph glyph-name="z" unicode="z" horiz-adv-x="1286"
d="M866 115q45 1 100 2.5t109 4t101 5t77 4.5q0 -35 -3 -70t-5 -63q-10 1 -34 2t-55.5 2t-68 1.5t-71.5 0.5q-214 0 -433.5 -5t-424.5 -11l-13 22q48 68 88 124l34 48t31.5 44.5t25 36t14.5 22.5q42 69 73 120t54.5 89.5t41 67.5t32.5 53.5t28.5 47.5t28.5 50l73.5 126
t71.5 123q39 66 76 130q-71 0 -130 1q-25 0 -50 0.5t-47 0.5h-38h-24q-49 0 -103 -1t-106.5 -2.5t-101.5 -4t-88 -5.5q0 31 1.5 63t6.5 66q11 0 33.5 -0.5t52.5 -1t65 -1t72 -1.5q90 -2 187 -3t196 -1q46 0 82.5 0.5t66.5 2t56 3t51 2.5l19 -24q-19 -31 -34.5 -54.5
t-34 -52.5t-43 -69t-62.5 -103q-7 -12 -19.5 -32.5t-27 -45t-30.5 -52t-31 -52.5t-27.5 -46t-20.5 -34q-28 -48 -56 -96.5t-55.5 -95.5t-53.5 -91t-49 -83q-54 -92 -103 -175q24 0 77.5 1t122.5 2.5t146 3.5t149 4z" />
    <glyph glyph-name="braceleft" unicode="{" horiz-adv-x="819"
d="M338 659q30 -3 58 -19t50 -44t35 -67.5t13 -88.5v-37.5v-49t-0.5 -54.5t-1.5 -53q-2 -63 -3.5 -127.5t-1.5 -114.5q0 -59 17.5 -91t46.5 -47t66 -19t75 -5q0 -23 -1.5 -51t-6.5 -47h-59q-37 0 -81.5 8.5t-82.5 33t-64 69t-26 116.5q0 66 3 143t5 148q1 27 1.5 55.5
t1 54.5t1 48t0.5 37q0 69 -31 104.5t-102 44.5q-19 -21 -40.5 -34t-41.5 -13q-40 0 -61 28.5t-21 71.5q0 42 21 71.5t61 29.5q20 0 40.5 -12.5t37.5 -32.5q71 9 104 45.5t33 105.5q0 29 -1 64.5t-3 89.5q-1 35 -2 79t-2.5 89t-2.5 88t-1 76q0 72 26 116.5t64 69t82.5 33
t81.5 8.5h59q5 -19 6.5 -47t1.5 -51q-38 -1 -75 -5t-66 -19t-46.5 -47t-17.5 -91q0 -25 0.5 -60.5t1 -74.5t1.5 -77.5t2 -70.5q2 -51 2 -89.5v-67.5q0 -51 -12 -89.5t-33 -65t-49.5 -41t-61.5 -17.5v-7z" />
    <glyph glyph-name="bar" unicode="|" horiz-adv-x="922"
d="M475 1653q14 0 31 -1t26 -3q-1 -29 -1.5 -67t-1 -80.5t-1 -87.5t-0.5 -87v-1286q0 -61 0.5 -129t1 -133t2 -120.5t3.5 -90.5q-10 -2 -24 -3t-34 -1q-14 0 -31 1t-32 3q0 39 1 91t2 110.5t2 118t1 114.5v1174v32t-0.5 75t-1 99.5t-1 106t-0.5 95t-1 65.5q8 2 22.5 3
t36.5 1z" />
    <glyph glyph-name="braceright" unicode="}" horiz-adv-x="819"
d="M481 664q-30 3 -58 19t-49.5 44t-34.5 67.5t-13 88.5v37.5v49t0.5 54.5t1.5 53q2 63 3 127.5t1 114.5q0 59 -17.5 91t-46.5 47t-66 19t-75 5q0 23 1.5 51t6.5 47h60q37 0 81 -8.5t82.5 -33t64.5 -69t26 -116.5q0 -66 -3.5 -143t-5.5 -148q-1 -27 -1.5 -55.5t-1 -54.5
t-1 -48t-0.5 -37q0 -69 31 -104.5t102 -44.5q19 21 40.5 34t41.5 13q41 0 61.5 -28.5t20.5 -71.5q0 -42 -20.5 -71.5t-61.5 -29.5q-20 0 -40.5 12.5t-37.5 32.5q-71 -9 -104 -45.5t-33 -105.5q0 -29 1 -64.5t3 -89.5q1 -35 2.5 -79t3 -89t2.5 -88t1 -76q0 -72 -26 -116.5
t-64.5 -69t-82.5 -33t-81 -8.5h-60q-5 19 -6.5 47t-1.5 51q38 1 75 5t66 19t46.5 47t17.5 91q0 25 -0.5 60.5t-1 74.5l-1 78t-1.5 70q-2 51 -2 89.5v67.5q0 51 12 89.5t32.5 65t49 41t61.5 17.5v7z" />
    <glyph glyph-name="asciitilde" unicode="~" horiz-adv-x="1038"
d="M887 772q17 -2 43.5 -10t42.5 -19q-9 -50 -25 -95.5t-41.5 -80t-61 -55t-83.5 -20.5q-18 0 -48 8t-66.5 20.5t-75.5 26.5t-74 26q-65 23 -116.5 40.5t-102.5 17.5q-28 0 -49.5 -20.5t-36 -50t-23.5 -62.5t-14 -58q-29 3 -53 9.5t-40 17.5q9 54 26 104t42 88.5t58.5 62
t76.5 23.5q23 0 55.5 -7.5t69.5 -19t75.5 -25t74.5 -25.5q30 -11 61.5 -22t61 -20t56 -14.5t46.5 -5.5q31 0 52 17.5t34.5 43t21.5 54t13 51.5z" />
    <glyph glyph-name="uni00A0" unicode="&#xa0;" horiz-adv-x="639"
 />
    <glyph glyph-name="uni00AD" unicode="&#xad;" horiz-adv-x="594"
d="M459 895q-24 -20 -52 -40.5t-63 -43.5t-79 -48.5t-101 -55.5q-5 9 -12 22.5t-13.5 28t-12.5 28.5t-9 25q35 16 75.5 36t82 41t80 42t69.5 39q3 -5 8 -15l10.5 -21t10 -21.5t6.5 -16.5zM459 524q-24 -20 -52 -40.5t-63 -43.5t-79 -48.5t-101 -55.5q-5 9 -12 22.5t-13.5 28
t-12.5 29t-9 24.5q35 16 75.5 36t82 41t80 42t69.5 39q3 -4 8 -14l10.5 -21t10 -22t6.5 -17z" />
    <glyph glyph-name="quoteleft" unicode="&#x2018;"
d="M346 1585l68 -31q-20 -51 -44 -112t-48.5 -122.5t-47.5 -119.5t-41 -104q-13 5 -31 12.5t-35.5 16t-32.5 17t-23 13.5z" />
    <glyph glyph-name="quoteright" unicode="&#x2019;"
d="M178 1094l-67 30q20 52 44 113t48.5 122.5t47 119.5t40.5 104q14 -4 31.5 -12t35 -16.5t32.5 -17t24 -13.5z" />
    <glyph glyph-name="quotedblleft" unicode="&#x201c;" horiz-adv-x="934"
d="M764 1585l67 -31q-20 -51 -44 -112t-48.5 -122.5t-47 -119.5t-40.5 -104q-14 5 -31.5 12.5t-35 16t-32.5 17t-24 13.5zM348 1585l68 -31q-20 -51 -44 -112t-48.5 -122.5t-47 -119.5t-40.5 -104q-14 5 -32 12.5t-35.5 16t-32.5 17t-23 13.5z" />
    <glyph glyph-name="quotedblright" unicode="&#x201d;" horiz-adv-x="934"
d="M172 1094l-68 30q20 52 44.5 113t49 122.5t47 119.5t40.5 104q14 -4 31.5 -12t35 -16.5t32.5 -17t24 -13.5zM588 1094l-68 30q20 52 44 113t48.5 122.5t47 119.5t40.5 104q14 -4 32 -12t35.5 -16.5t32.5 -17t23 -13.5z" />
    <glyph glyph-name="ordfeminine" horiz-adv-x="778"
d="M518 1202q-13 2 -33.5 3t-42.5 1.5t-41 1t-30 0.5q-39 0 -74.5 -6.5t-61.5 -22.5t-41.5 -43t-15.5 -67q0 -28 8.5 -52t25.5 -41.5t42 -27.5t59 -10q48 0 86.5 17t64.5 46.5t40 68t14 81.5v51zM291 850q-45 0 -84 14.5t-68 42.5t-46 69t-17 93q0 43 15.5 82.5t49 70
t86.5 48.5t129 18q42 0 83.5 -2t78.5 -4v33q0 81 -31.5 114t-103.5 33q-28 0 -58 -3t-58 -8t-53.5 -11.5t-45.5 -12.5q-2 6 -5.5 18.5t-6.5 26t-5.5 26t-3.5 18.5q48 12 108 22t134 10q113 0 172.5 -49t59.5 -166v-280q0 -21 7.5 -39.5t20.5 -34.5t29 -27.5t33 -19.5
q-10 -20 -26 -43t-30 -37q-40 12 -72.5 44t-47.5 89q-18 -29 -41.5 -54t-53.5 -43t-67 -28t-82 -10z" />
    <glyph glyph-name="ordmasculine" horiz-adv-x="850"
d="M784 1206q0 -83 -22.5 -149t-67.5 -112t-114 -70.5t-162 -24.5q-85 0 -151.5 24.5t-112.5 69.5t-69.5 109t-23.5 143q0 84 26 149t73.5 109.5t114.5 68t149 23.5q84 0 151 -24.5t113.5 -69.5t71 -107.5t24.5 -138.5zM676 1202q0 130 -65.5 196t-184.5 66
q-56 0 -103 -15.5t-81 -48t-53 -83t-19 -121.5q0 -61 17.5 -110t50 -83.5t78.5 -52.5t102 -18q137 0 197.5 70t60.5 200z" />
    <glyph glyph-name="fraction" horiz-adv-x="1204"
d="M1126 1573q9 -5 20.5 -14t23.5 -18.5t23.5 -19.5t18.5 -18q-21 -25 -41.5 -51.5t-43 -57t-48 -66t-55.5 -77.5q-85 -119 -174 -242.5t-178.5 -248t-178 -248t-174.5 -242.5q-17 -24 -44 -63t-57.5 -83t-61 -89t-54.5 -80q-10 6 -23.5 15t-27.5 19t-27 19.5t-22 16.5
q12 15 19 23.5t13.5 16t14 16t19.5 23.5q40 50 87.5 111t104.5 139l684 949q16 23 39.5 57t49 71.5t50.5 75t43 66.5z" />
    <glyph glyph-name="foursuperior" horiz-adv-x="774"
d="M731 981q0 -6 -0.5 -17t-1 -23t-1 -23t-1.5 -17q-19 1 -40.5 1.5t-42.5 0.5h-40h-33v-88v-36.5v-39t0.5 -37.5t1.5 -30q-11 -2 -25 -3t-30 -1q-6 0 -13.5 0.5t-15.5 1.5l-18 2q0 37 1 70q1 28 1 55.5v40.5v57q-42 0 -100 -1t-118 -2.5t-115 -2.5t-93 -2q0 9 0.5 21.5
t0.5 26t0.5 25.5t0.5 21q109 143 213.5 293t210.5 291q8 1 19.5 1.5t24 1t24 1t18.5 0.5h16q-1 -39 -2 -86q-1 -40 -1.5 -91.5t-0.5 -109.5v-305q12 0 30.5 0.5t40.5 1t45 1t44 1.5zM473 1434l-328 -459l328 2v457z" />
    <glyph glyph-name="A.alt" horiz-adv-x="1536"
d="M778 1288q-86 -187 -171 -367.5t-163 -336.5l-26.5 -53t-36 -72.5t-41 -83t-42 -86.5t-39.5 -83t-34 -71q-18 -40 -37 -79t-34 -76q-31 11 -66 27.5t-61 35.5q24 43 44 78t40 74t50.5 99.5t67.5 134.5t77.5 157t81.5 166t79.5 161.5t70 143t54.5 111.5t33 67
q52 111 89 190.5t56 124.5l14 4q23 -51 53 -111t58 -120q59 -124 125.5 -265.5t135 -286t135.5 -285t128 -263.5q23 -46 49 -94.5t48 -83.5q-26 -19 -58 -35t-67 -28q-11 25 -22 48t-23 47t-26 51.5t-30 61.5q-10 23 -25.5 56t-33.5 71.5t-37.5 79.5t-37.5 79.5t-33.5 72
t-26.5 55.5q-76 156 -156.5 326.5t-161.5 357.5zM858 477q0 -19 -14 -38.5t-33.5 -35t-40.5 -25t-35 -9.5q-16 0 -29.5 9.5t-23 24.5t-15 34.5t-5.5 39.5q0 18 12.5 39t31.5 38t42 28.5t45 11.5q16 0 28 -12.5t20.5 -30.5t12.5 -38.5t4 -35.5z" />
    <glyph glyph-name="A.alt1" horiz-adv-x="1536"
d="M1163 459q-38 -28 -85.5 -74t-96.5 -100t-95.5 -113t-82.5 -115q-10 0 -21 -1q-9 -1 -18.5 -2t-15.5 -3q-21 32 -50 69t-62.5 76t-69 77.5t-70 73t-65 63t-54.5 47.5q-32 -60 -73.5 -144t-84.5 -178q-18 -40 -36 -78t-33 -75q-31 11 -64 26.5t-59 34.5q24 43 44 78t40 74
t50.5 99.5t67.5 134.5t77.5 157t81.5 166t79.5 161.5t70 143t54.5 111.5t33 67q52 111 89 190.5t56 124.5l14 4q23 -51 53 -111t58 -120q59 -124 125.5 -265.5t135 -286t135.5 -285t128 -263.5q23 -46 49 -94.5t48 -83.5q-26 -19 -58 -35t-67 -28q-11 25 -21.5 48.5
t-22 48.5t-24.5 53t-29 63q-31 68 -63.5 133t-67.5 131zM1108 573q-34 79 -75 170t-84.5 186t-87.5 191t-85 185q-43 -93 -86 -183.5t-85.5 -180.5t-85.5 -181t-85 -185q38 -34 81.5 -77t88.5 -91t88 -99t80 -99q24 38 63.5 87t86 99.5t95.5 97t91 80.5z" />
    <glyph glyph-name="A.alt2" horiz-adv-x="1536"
d="M940 1321q55 -126 113.5 -267t118.5 -284t121 -282.5t122 -262.5q12 -23 24.5 -48.5t25.5 -50.5t25.5 -48t22.5 -41q-26 -19 -57.5 -31.5t-69.5 -21.5q-10 25 -20.5 48.5t-22 48.5t-24.5 53t-29 63q-31 68 -62.5 141.5t-66.5 142.5q-49 2 -90.5 3t-92.5 1.5t-118.5 1
t-169.5 0.5q-91 0 -170.5 -1.5t-138.5 -6.5q-15 -31 -34.5 -71.5t-40.5 -85.5t-43.5 -92.5t-43.5 -94.5q-18 -40 -34 -78t-31 -75q-32 9 -66.5 21.5t-60.5 31.5q24 43 44 82l40 78t49 99.5t63.5 134.5t72.5 157t75.5 166t73 161t64.5 142.5t49.5 111t29.5 66.5q29 65 52 116
t42 93q-42 -2 -103 -5.5t-127 -8t-130.5 -9.5t-114.5 -10q-2 9 -3 28t-1 36q0 14 1 30t3 27h30.5t61.5 2q56 2 124 4.5t140.5 5t145.5 5t139 3.5q32 0 75 1t90 3t95.5 3.5t91.5 3.5t77.5 3t53.5 1q3 -7 4.5 -21t1.5 -26q0 -14 -1 -31.5t-3 -30.5q-48 2 -107.5 3t-138.5 1
q-15 0 -38 -0.5t-50 -2t-57 -2.5t-59 -3q14 -31 28 -64t29 -67zM727 594q87 1 163 3q32 1 65 2t63 2.5t54 3t38 3.5q-40 99 -82.5 204.5t-84.5 210.5t-82.5 205.5t-76.5 188.5q-40 -94 -84.5 -198.5t-90 -212t-91.5 -212t-88 -198.5q21 -1 55.5 -1.5t75.5 -0.5h84.5h81.5z
" />
    <glyph glyph-name="C.alt" horiz-adv-x="1008"
d="M938 55q-6 -35 -17.5 -69t-23.5 -60q-167 47 -311 126.5t-249.5 188t-165.5 243.5t-60 292q0 115 33.5 216.5t91.5 188.5t134.5 158t163.5 124.5t178.5 88.5t178.5 50q15 -20 24 -50.5t11 -56.5q-83 -16 -166.5 -47t-159.5 -77t-141.5 -106.5t-113.5 -134.5t-75.5 -162
t-27.5 -188q0 -127 43.5 -238t130.5 -203t217.5 -164t304.5 -120z" />
    <glyph glyph-name="CO.liga" horiz-adv-x="2052"
d="M942 -39q-2 -14 -7 -31t-11.5 -34.5t-13.5 -34t-13 -29.5q-167 51 -311 140.5t-249.5 210.5t-165.5 271t-60 324q0 126 34 239.5t92.5 211t136 177.5t165 141t179.5 101t179 56q14 -22 22 -52t13 -61q-83 -18 -167 -55t-160.5 -91t-143 -124.5t-115 -154.5t-76.5 -180.5
t-28 -203.5q0 -137 44 -262t131.5 -231t219 -190t305.5 -138zM694 784q0 140 46.5 255t130 196.5t199.5 126.5t255 45q133 0 246 -46t195.5 -128t129 -194.5t46.5 -245.5q0 -131 -44 -243t-123.5 -194.5t-191 -129t-246.5 -46.5q-154 0 -274 45.5t-202 126.5t-124.5 191.5
t-42.5 240.5zM1812 795q0 103 -36 195t-101.5 161.5t-157 110.5t-202.5 41q-106 0 -196.5 -34t-156.5 -99t-103.5 -160t-37.5 -217q0 -127 39.5 -222t107.5 -158.5t160.5 -95.5t198.5 -32q116 0 206 37t152 104.5t94.5 161t32.5 207.5z" />
    <glyph glyph-name="E.alt" horiz-adv-x="963"
d="M887 23q-26 -63 -76 -113q-53 31 -99 60.5t-91 60.5t-90.5 63.5t-96.5 69.5q-47 35 -100 76t-100 78t-81 65t-42 37v16l155 156q22 21 46.5 47t47 51t41.5 46.5t29 33.5q-35 48 -80.5 100.5t-93.5 108.5q-27 30 -53 58.5t-48 52.5t-38 42.5t-23 28.5v17q21 18 58.5 46.5
t82.5 60t92 63.5t87 57q49 31 112 66t122 66t104.5 54t60.5 29q20 -19 35 -50t18 -57q-11 -4 -27 -10.5t-33 -14.5t-33.5 -16t-29.5 -14q-20 -9 -45 -22t-50.5 -27t-50 -27.5t-42.5 -23.5q-75 -42 -151 -91t-150 -106q12 -17 37 -48t55 -66.5t60 -70t51 -58.5
q54 -63 84 -99.5t43 -48.5q-14 -14 -33 -35t-33 -35q-23 -24 -48 -51.5t-48 -50.5q-45 -47 -79 -83t-64 -75q30 -25 71.5 -58.5t85.5 -68t86.5 -66.5t75.5 -54q43 -29 88.5 -58.5t93.5 -54.5q26 -14 52.5 -28.5t54.5 -28.5z" />
    <glyph glyph-name="G.alt" horiz-adv-x="1243"
d="M897 -74q-167 47 -311 126.5t-249.5 188t-165.5 243.5t-60 292q0 115 33.5 216.5t91.5 188.5t134.5 158t163.5 124.5t178.5 88.5t178.5 50q15 -20 24 -50.5t11 -56.5q-83 -16 -166.5 -47t-159.5 -77t-141.5 -106.5t-113.5 -134.5t-75.5 -162t-27.5 -188q0 -127 44.5 -239
t128 -203.5t204.5 -161t274 -110.5l37 239q4 20 10 59.5t13 84.5t13.5 89t10.5 72q12 -1 28.5 -2.5t34.5 -4.5t35 -6t29 -7q-2 -15 -4 -24.5l-4 -19t-4.5 -21t-6.5 -29.5q-3 -19 -8 -45t-10 -52.5t-9.5 -50t-6.5 -35.5q-6 -36 -13.5 -82t-14.5 -91.5t-13 -86.5t-9 -67
q-8 -2 -20.5 -8.5t-26.5 -14.5t-29 -18t-28 -19z" />
    <glyph glyph-name="LL.liga" horiz-adv-x="1425"
d="M973 92q2 -8 2 -17.5v-23.5q0 -18 -2.5 -39.5t-7.5 -38.5q-10 1 -37.5 2.5t-67 3t-88 3t-101 2.5t-105.5 2t-101 2q-71 2 -132 3.5t-100 4.5q3 62 5 110t3.5 92t2 89t0.5 100v578q0 52 -1.5 112t-3.5 121.5t-4.5 121t-4.5 108.5t-3 85t-2 50q19 3 39.5 4.5t38.5 1.5
q8 0 19 -0.5t22 -1.5q12 -1 25 -2q-2 -16 -3.5 -46t-2.5 -68.5t-1 -81.5v-84v-76.5v-59.5v-735q0 -50 1 -103.5t3 -98.5q2 -53 3 -103q27 -3 57 -6q26 -2 57.5 -4t63.5 -3q21 0 56 -1t75.5 -1.5t84.5 -1t84 -1t73.5 0t52.5 0.5zM1368 473q0 -23 -1 -38t-3 -32q-15 2 -55 5
t-97 6.5t-126.5 6t-141.5 3.5q-34 1 -66 1.5t-59 1t-47.5 1t-30.5 0.5q2 51 3 95.5t2 86t1.5 81.5t0.5 83v332q0 86 -1 168q0 35 -0.5 72.5t-1.5 73.5t-1.5 69.5t-2.5 60.5q17 3 36 4.5t36 1.5q20 0 39 -1t27 -3q-1 -25 -2.5 -59t-2.5 -73t-1.5 -80t-1 -79t-1 -71t-0.5 -57
v-289v-107.5t1 -97.5q1 -51 1 -98q27 -2 57 -5q26 -2 58 -3.5t64 -2.5t65 -2t70.5 -2t81 -1.5t96.5 -0.5q2 -6 3 -20.5t1 -30.5z" />
    <glyph glyph-name="LA.liga" horiz-adv-x="1681"
d="M1130 92q2 -8 2.5 -17.5t0.5 -23.5q0 -18 -3 -39.5t-8 -38.5q-10 1 -41.5 2.5t-77.5 3t-102.5 3t-115.5 2.5t-116.5 2t-105.5 2q-35 1 -84 1.5t-97 1.5t-88.5 2t-60.5 3q3 62 5 110t3.5 92t2 89t0.5 100v578q0 52 -1.5 112t-3.5 121.5t-4.5 121t-4.5 108.5t-3 85t-2 50
q19 3 39.5 4.5t38.5 1.5q8 0 19 -0.5t22 -1.5q12 -1 25 -2q-2 -16 -3.5 -46t-2.5 -68.5t-1 -81.5v-84v-76.5v-59.5v-735q0 -50 1 -103.5t3 -98.5q2 -53 3 -103q55 -3 106 -6q22 -1 45 -2t45.5 -2t43 -2t36.5 -1q21 0 60 -1t86.5 -1.5t99 -1t98.5 -1t84.5 0t56.5 0.5z
M1122 741h-69.5t-71.5 -0.5t-67 -1t-56 -2.5q-40 -77 -79 -156.5t-74 -162.5q-28 8 -57 19t-58 28q32 59 74.5 142t90 178.5t97.5 199t98 204t91 192.5t77 165l27 8q30 -64 73 -154.5t92.5 -193t101.5 -210t99.5 -206t88.5 -180.5t67 -133q-25 -14 -57.5 -28.5t-57.5 -22.5
q-29 69 -65.5 148.5t-81.5 164.5q-30 1 -56 1.5t-57 0.5h-71h-99zM1126 850q33 0 68 0.5t66 1.5t56 1.5t38 0.5q-50 106 -108.5 227t-115.5 254q-27 -65 -53 -122t-52.5 -113.5t-54 -115.5t-59.5 -128q23 -2 45.5 -3.5t47.5 -2t55 -0.5h67z" />
    <glyph glyph-name="LE.liga" horiz-adv-x="1530"
d="M874 444q-14 0 -33.5 0.5t-38 0.5t-34.5 0.5t-23 0.5q2 50 3 82t1.5 62.5t0.5 67v94.5v323q0 36 -0.5 66.5t-1 63t-1.5 70t-2 87.5q0 15 -0.5 40.5t-1 52.5t-1 51.5t-1.5 39.5q50 0 99 1t114 1q85 0 161.5 3.5t139.5 7.5q18 1 38 1.5t37.5 1t31 1t18.5 0.5q5 -20 8 -51.5
t3 -57.5h-41h-44.5t-55.5 -0.5t-74 -1.5q-15 0 -35.5 -1t-45 -2t-50.5 -2t-51 -2q-59 -3 -124 -5q-1 -56 -3 -109q-2 -45 -2.5 -92t-0.5 -78v-90h283q51 0 91 1t73.5 2.5t62.5 3.5t58 3q2 -12 3 -27.5t1 -41.5q0 -7 -0.5 -16.5t-1.5 -17.5l-2 -20q-14 0 -33.5 1.5t-36.5 1.5
q-51 2 -121 4t-145 2q-33 0 -73.5 -0.5t-75.5 -2.5q-41 -2 -83 -3v-207q0 -36 0.5 -71t2.5 -63q2 -33 3 -61q53 -6 115.5 -8.5t118.5 -5.5l86 -4q39 -1 66.5 -2t49.5 -1.5t42 -0.5h43q0 -26 -3 -57t-8 -60q-6 0 -34 1.5t-66 4.5q-24 2 -42.5 3t-36 2.5t-36.5 2.5t-43 2
q-51 2 -115 4t-133 4zM1057 92q2 -8 2 -17.5v-23.5q0 -18 -2.5 -39.5t-7.5 -38.5q-10 1 -43.5 2.5t-82.5 3t-108.5 3t-121.5 2.5t-121 2t-107 2q-71 2 -132 3.5t-100 4.5q3 62 5 110t3.5 92t2 89t0.5 100v578q0 52 -1.5 112t-3.5 121.5t-4.5 121t-4.5 108.5t-3 85t-2 50
q19 3 39.5 4.5t38.5 1.5q8 0 19 -0.5t22 -1.5q12 -1 25 -2q-2 -16 -3.5 -46t-2.5 -68.5t-1 -81.5v-84v-76.5v-59.5v-735q0 -50 1 -103.5t3 -98.5q2 -53 3 -103q27 -3 57 -6q26 -2 57.5 -4t63.5 -3q21 0 62 -1t91 -1.5t105 -1t104.5 -1t89 0t58.5 0.5z" />
    <glyph glyph-name="LI.liga" horiz-adv-x="1104"
d="M872 971v-47.5v-84.5v-105.5t0.5 -111t1 -101.5t0.5 -77q-8 -2 -25.5 -3t-39.5 -1q-17 0 -34 1t-36 3q7 90 9 172t2 170v281q1 69 0 138.5t-3 133.5t-4.5 118.5t-5.5 94.5q17 0 32 1t50 1q20 0 35.5 -1t28.5 -3q-1 -42 -3 -79.5t-4 -80.5t-3 -95t-1 -124v-200zM973 92
q2 -8 2 -17.5v-23.5q0 -18 -2.5 -39.5t-7.5 -38.5q-10 1 -37.5 2.5t-67 3t-88 3t-101 2.5t-105.5 2t-101 2q-71 2 -132 3.5t-100 4.5q3 62 5 110t3.5 92t2 89t0.5 100v578q0 52 -1.5 112t-3.5 121.5t-4.5 121t-4.5 108.5t-3 85t-2 50q19 3 39.5 4.5t38.5 1.5q8 0 19 -0.5
t22 -1.5q12 -1 25 -2q-2 -16 -3.5 -46t-2.5 -68.5t-1 -81.5v-84v-76.5v-59.5v-735q0 -50 1 -103.5t3 -98.5q2 -53 3 -103q27 -3 57 -6q26 -2 57.5 -4t63.5 -3q21 0 56 -1t75.5 -1.5t84.5 -1t84 -1t73.5 0t52.5 0.5z" />
    <glyph glyph-name="LO.liga" horiz-adv-x="1937"
d="M655 973q0 131 43.5 238t121.5 183t186.5 118t238.5 42q124 0 229.5 -43t182.5 -119.5t120.5 -181.5t43.5 -229q0 -122 -41 -226.5t-115.5 -181t-178.5 -120t-231 -43.5q-144 0 -255.5 42.5t-188 118t-116.5 178.5t-40 224zM1692 983q0 95 -33.5 179.5t-94 148.5
t-144.5 101.5t-185 37.5q-97 0 -180 -31t-144 -91t-95 -147.5t-34 -199.5q0 -117 36 -204.5t99 -146t148 -87.5t182 -29q106 0 189 34t140 96t86.5 148.5t29.5 190.5zM1178 92q2 -8 2 -17.5v-23.5q0 -18 -3 -39.5t-8 -38.5q-10 1 -46.5 2.5t-90.5 3t-119 3.5t-131 3.5
t-128.5 2.5t-110.5 2q-35 1 -80.5 1.5t-90 1t-82 1t-57.5 2.5q3 62 5 110t3.5 92t2 89t0.5 100v578q0 52 -1.5 112t-3.5 121.5t-4.5 121t-4.5 108.5t-3 85t-2 50q19 3 39.5 4.5t38.5 1.5q8 0 19 -0.5t22 -1.5q12 -1 25 -2q-2 -16 -3.5 -46t-2.5 -68.5t-1 -81.5v-84v-76.5
v-59.5v-735q0 -50 1 -103.5t3 -98.5q2 -53 3 -103l92 -6q39 -2 82 -4t75 -3q22 0 66.5 -1t100 -1.5t117 -1t116 -1t98 0t62.5 0.5z" />
    <glyph glyph-name="LU.liga" horiz-adv-x="2034"
d="M1186 92q2 -8 2 -17.5v-23.5q0 -18 -2.5 -39.5t-7.5 -38.5q-10 1 -37.5 2.5t-67 3t-88 3t-101 2.5t-105.5 2t-101 2q-23 1 -61.5 1.5t-84 1t-93 1t-89 1t-73 1.5t-44.5 2q3 62 5 110t3.5 92t2 89t0.5 100v578q0 52 -1.5 112t-3.5 121.5t-4.5 121t-4.5 108.5t-3 85t-2 50
q19 3 39.5 4.5t38.5 1.5q8 0 19 -0.5t22 -1.5q12 -1 25 -2q-2 -16 -3.5 -46t-2.5 -68.5t-1 -81.5v-84v-76.5v-59.5v-735q0 -50 1 -103.5t3 -98.5q2 -53 3 -103q86 -3 163 -6q33 -1 66.5 -2t64 -2t56 -2t41.5 -1q22 0 56.5 -1t75 -1.5t84.5 -1t84 -1t73.5 0t52.5 0.5z
M1792 1548q15 0 35.5 -0.5t36.5 -3.5q-1 -24 -1.5 -43.5t-1 -40t-1 -43.5t-2.5 -53q-1 -34 -2.5 -73t-3 -80.5t-3.5 -82t-4 -77.5q-9 -168 -44.5 -289t-102 -199t-167 -114.5t-239.5 -36.5q-236 0 -371 146t-169 427q-6 61 -10 114.5t-7 103t-6 97.5t-8 97q-1 16 -2 35.5
t-2.5 39.5t-3 38.5t-2.5 33.5q18 3 34 3.5t37 0.5q23 0 42.5 -1t33.5 -3q-1 -4 -1.5 -20t-0.5 -40v-54.5v-63.5q0 -25 1 -58.5t2.5 -71t3.5 -76.5t5 -75q11 -117 33.5 -220t70.5 -179t128 -120t207 -44q95 0 163.5 23t115.5 62.5t76 93t45 115t21 127.5t5 130q0 54 -1.5 130
t-5.5 157q-2 57 -5 102.5t-9 79.5q20 3 39 4.5t41 1.5z" />
    <glyph glyph-name="O.alt" horiz-adv-x="1806"
d="M1696 809q0 -183 -60 -335.5t-166 -263t-251 -172t-314 -61.5q-168 0 -312.5 56.5t-250.5 160t-166.5 250.5t-60.5 328q0 114 27 217.5t77.5 193t122 162t160 123.5t192.5 79t219 28q168 0 311.5 -58t248.5 -160t164 -242.5t59 -305.5zM1571 793q0 147 -49 269.5
t-137.5 210.5t-211.5 136.5t-272 48.5q-97 0 -183.5 -24t-160 -68t-132 -105.5t-100 -137.5t-63.5 -163.5t-22 -183.5q0 -149 48 -274t136 -216t213 -141.5t278 -50.5q135 0 254 47.5t208.5 137.5t141.5 219.5t52 294.5zM997 788q0 -19 -14 -38.5t-33.5 -35t-40.5 -25
t-35 -9.5q-16 0 -29.5 9.5t-23 24.5t-15 34.5t-5.5 39.5q0 19 12.5 39.5t31.5 38t42 28.5t45 11q16 0 28 -12.5t20.5 -30.5t12.5 -38.5t4 -35.5z" />
    <glyph glyph-name="Q.alt" horiz-adv-x="1493"
d="M772 365q-174 0 -297 51t-201 135t-114.5 191.5t-36.5 220.5q0 140 46.5 254.5t130 196t199.5 126.5t255 45q133 0 245.5 -46t195 -128t129 -194.5t46.5 -245.5q0 -114 -31.5 -205.5t-87 -165.5t-131 -132t-163.5 -106.5t-184 -89.5t-193 -79q26 -10 71.5 -25t101.5 -32
t118.5 -34.5t121.5 -31.5t111 -22.5t88 -8.5q46 0 82 2.5t78 13.5q0 -31 -6 -61t-15 -51q-9 -2 -22.5 -4.5t-24.5 -4.5q-33 -6 -88 -6q-72 0 -139 13t-134.5 34t-138.5 47t-149.5 51.5t-168 48t-194.5 36.5q-31 4 -51.5 6t-33.5 3t-20.5 1h-12.5q0 22 2.5 43.5t7.5 52.5
q12 0 41 -1.5t65.5 -4.5t76.5 -7t73 -9q29 8 75 22.5t96.5 32t99 35.5t81.5 33zM1241 973q0 103 -36.5 195t-102 161.5t-157 110.5t-202.5 41q-106 0 -196 -34t-156 -99t-103.5 -160t-37.5 -217q0 -127 39.5 -222t107.5 -158.5t160.5 -95.5t198.5 -32q116 0 206 37
t152 104.5t94.5 161t32.5 207.5z" />
    <glyph glyph-name="R.alt" horiz-adv-x="1292"
d="M903 1120q0 84 -38 147.5t-103.5 107t-153 65.5t-186.5 22q-3 0 -11.5 -0.5t-18.5 -1t-19 -1t-13 -1.5q-1 -76 -2 -147q0 -30 -0.5 -62.5t-1 -64t-0.5 -60.5v-53v-332h47q42 0 95.5 8t109 26t108.5 47.5t94.5 71.5t67 98.5t25.5 129.5zM578 653q-24 -7 -53 -13t-59 -10
t-58.5 -6t-51.5 -3v-248v-204.5t2 -172.5q-11 -2 -27.5 -3t-31.5 -1q-17 0 -32.5 0.5t-35.5 3.5q1 35 3 73q2 32 3 73t3 83q2 108 3 274t1 402q0 119 -0.5 218.5t-2 181t-3.5 146.5t-5 116q14 2 37.5 3t49.5 1.5t51 1t41 0.5q120 0 232 -27.5t197.5 -82.5t137 -138.5
t51.5 -194.5q0 -81 -27.5 -148t-73.5 -121t-106 -93.5t-125 -65.5q57 -62 116 -128.5t119 -133t120 -131t118 -123.5q25 -26 53 -54l54 -54q-23 -29 -52 -53t-57 -41q-18 24 -68.5 83t-148.5 166q-54 62 -100 114.5t-90 103t-88.5 100.5t-95.5 106z" />
    <glyph glyph-name="R.alt1" horiz-adv-x="1251"
d="M1061 377q0 -153 3.5 -249.5t8.5 -131.5q-12 -3 -33 -4.5t-43 -1.5q-4 0 -12.5 0.5l-17 1t-16.5 1t-13 1.5q2 34 4 77t3.5 89t2 92t0.5 86q0 95 -8 155t-25 94t-45 46t-69 12q-63 0 -121 -3t-112.5 -6t-107 -6t-104.5 -3v-254v-204.5t2 -172.5q-11 -2 -27.5 -3t-31.5 -1
q-17 0 -32.5 0.5t-35.5 3.5q1 35 3 73q2 32 3 73t3 83q2 108 3 274t1 402q0 239 -3 402t-8 264q13 0 35 1q19 1 50 1h77q110 0 212.5 -25t181.5 -77t126.5 -132.5t47.5 -191.5q0 -81 -22.5 -146t-57.5 -115t-77.5 -85.5t-82.5 -57.5v-8q43 5 77 7.5t62 2.5q48 0 85 -18
t62.5 -60t38.5 -112t13 -174zM836 1120q0 173 -124 258.5t-352 85.5q-1 -77 -2 -150q-1 -63 -1.5 -129t-0.5 -114v-332q6 -1 19.5 -2t28.5 -2t28 -1.5t19 -0.5q71 0 140 23.5t123.5 71t88 120.5t33.5 172z" />
    <glyph glyph-name="S.alt" horiz-adv-x="795"
d="M463 807q46 -30 87.5 -64t73 -74.5t50 -89.5t18.5 -108q0 -57 -21 -114t-55.5 -111.5t-78.5 -105t-90.5 -95.5t-91.5 -83t-81 -66q-31 12 -51.5 36.5t-36.5 49.5q38 26 81 60t85.5 73.5t82 83t69 88t47.5 88.5t18 84q0 48 -17 86t-48.5 71.5t-76 66t-99.5 71.5
q-45 31 -85.5 62t-72 68t-50 82t-18.5 103q0 63 19.5 121.5t51 112.5t71.5 101.5t80.5 88t77.5 73t63 54.5q11 -4 23 -14t23 -23t21 -27t17 -26q-24 -20 -57.5 -47.5t-69.5 -61.5t-71 -73t-62.5 -83t-44.5 -91t-17 -97q0 -45 21 -82.5t54.5 -70t76 -61t84.5 -56.5z" />
    <glyph glyph-name="Y.alt" horiz-adv-x="1253"
d="M686 524q1 -19 1.5 -57.5t1 -86.5t1.5 -102.5t2 -107.5t2.5 -99.5t3.5 -78.5q-8 -2 -27 -3t-36 -1q-22 0 -40.5 1t-35.5 3q2 95 5 194q2 85 3.5 183.5t1.5 189.5v59q-14 33 -37.5 82.5t-51 103t-55.5 105t-50 88.5q-71 121 -151.5 249.5t-174.5 252.5q26 26 52.5 43
t52.5 27q37 -48 82 -115.5t91.5 -144t93 -157t87 -154.5t73 -135.5t50.5 -100.5q19 39 50 100.5t70.5 134.5t84.5 153t90.5 156.5t90 143.5t81.5 115q13 -5 28 -12t29.5 -15.5t27.5 -18.5t21 -20q-94 -124 -174 -252.5t-151 -249.5q-22 -37 -50 -88.5t-55 -105t-50.5 -103
t-37.5 -82.5v-94z" />
    <glyph glyph-name="A.sup" horiz-adv-x="1233"
d="M1122 82q0 -19 -1 -35.5t-3 -30.5q-64 0 -120 1q-24 0 -49 0.5t-48 0.5h-42h-32q-20 0 -51.5 -0.5t-69.5 -1t-79.5 -1.5t-82.5 -2q-95 -3 -202 -5q-19 0 -49 -1t-62.5 -2.5t-62.5 -3.5t-49 -3q-1 5 -1.5 13.5t-1 18t-1 19.5t-0.5 17v31t2 26q57 -2 127.5 -3t136.5 -1
q61 0 127 1t128.5 2.5t117 2.5t92.5 2q36 1 77.5 2.5t79.5 3.5t69.5 3.5t47.5 2.5q2 -11 2 -26.5v-30.5zM614 741h-69.5t-71.5 -0.5t-67 -1t-56 -2.5q-40 -77 -79 -156.5t-74 -162.5q-28 8 -57 19t-58 28q32 59 74.5 142t90 178.5t97.5 199t98 204t91 192.5t77 165l27 8
q30 -64 73 -154.5t92.5 -193t101.5 -210t99.5 -206t88.5 -180.5t67 -133q-25 -14 -57.5 -28.5t-57.5 -22.5q-29 69 -65.5 148.5t-81.5 164.5q-30 1 -56 1.5t-57 0.5h-71h-99zM618 850q33 0 68 0.5t66 1.5t56 1.5t38 0.5q-50 106 -108 227t-115 254q-28 -65 -54 -122
t-52.5 -113.5t-54 -115.5t-59.5 -128q23 -2 45.5 -3.5t47.5 -2t55 -0.5h67z" />
    <glyph glyph-name="B.sup" horiz-adv-x="1108"
d="M983 82q0 -19 -1 -35.5t-3 -30.5q-64 0 -120 1q-24 0 -49 0.5t-48 0.5h-42h-32q-41 0 -97 -1.5t-108 -3.5q-61 -3 -125 -5q-19 0 -49 -1t-62.5 -2.5t-62.5 -3.5t-49 -3q-1 5 -1.5 13.5t-1 18t-1 19.5t-0.5 17v32t2 27q57 -5 127.5 -5.5t136.5 -0.5q26 0 63.5 1t79.5 2.5
t85.5 2.5t81.5 2q36 1 77.5 2.5t79.5 3.5t69.5 3.5t47.5 2.5q2 -11 2 -26.5v-30.5zM969 758q0 -86 -50 -150.5t-140 -107t-214 -63.5t-272 -21h-20.5h-24t-24 0.5t-19.5 1.5q2 29 2.5 70.5t1 89t0.5 98v96.5v332v105.5t-0.5 121t-1 118.5t-2.5 97q29 2 55 2h57
q125 0 229.5 -18.5t181 -54t119 -87t42.5 -118.5q0 -85 -56 -154.5t-174 -109.5v-5q153 -20 231.5 -83.5t78.5 -159.5zM838 756q0 43 -19 77t-62.5 58t-114 36.5t-173.5 12.5h-139q0 -128 0.5 -237.5t3.5 -180.5q104 0 195.5 12.5t160 40.5t108.5 72.5t40 108.5zM764 1245
q0 53 -36 91.5t-96 64t-138.5 37.5t-163.5 12v-416h67q85 0 153 14.5t115.5 42t73 66.5t25.5 88z" />
    <glyph glyph-name="C.sup" horiz-adv-x="1286"
d="M1151 82q0 -19 -1 -35.5t-3 -30.5q-64 0 -120 1q-24 0 -49 0.5t-48 0.5h-42h-32q-20 0 -50 -0.5t-65 -1t-73 -1.5t-75 -2q-86 -3 -183 -5q-19 0 -49.5 -1t-62.5 -2.5t-62 -3.5t-50 -3q-1 5 -1.5 13.5t-1 18t-1 19.5t-0.5 17v31t2 26q57 -2 127.5 -3t137.5 -1
q17 0 48.5 0.5t70.5 1t82 1.5t84.5 2t78 2t61.5 1q36 1 77.5 2.5t80 3.5t70 3.5t47.5 2.5q2 -11 2 -26.5v-30.5zM1092 631q14 -23 24.5 -48.5t20.5 -50.5q-81 -49 -186.5 -79.5t-235.5 -30.5q-137 0 -244.5 39.5t-182 112.5t-114 177t-39.5 234q0 131 41.5 237.5t117 183
t181.5 118t236 41.5q64 0 123.5 -7.5t112 -20.5t96.5 -29t75 -33q-16 -58 -35 -107q-31 17 -72 33.5t-89 29.5t-100.5 21t-106.5 8q-105 0 -188.5 -33t-142.5 -94.5t-90.5 -150.5t-31.5 -201q0 -117 34 -202t95 -141t144.5 -83t183.5 -27q57 0 107 5.5t95 18t87 32t84 47.5z
" />
    <glyph glyph-name="D.sup" horiz-adv-x="1430"
d="M1296 76q0 -19 -1 -32.5t-3 -27.5q-64 0 -120 1q-24 0 -49 0.5t-48 0.5h-42h-32q-20 0 -55.5 -0.5t-79.5 -1t-93.5 -1.5t-97.5 -2q-114 -3 -245 -5q-19 0 -49 -1t-62.5 -2.5t-62.5 -3.5t-49 -3q-2 9 -3 28t-1 33v34.5t2 29.5q60 -2 129 -3t135 -1q18 0 58.5 0.5t93.5 1
t112.5 1.5t115 2t101 2t70.5 1q36 1 77.5 2.5t79.5 3.5t69.5 3.5t47.5 2.5q2 -11 2 -29.5v-33.5zM1257 1036q0 -150 -50.5 -262.5t-137 -187.5t-201.5 -112.5t-245 -37.5q-119 0 -218 6.5t-180 14.5q0 14 0.5 39.5t0.5 57t1 65.5t1 65t0.5 56t0.5 38v490q0 27 -0.5 66
t-1 80.5t-1 81.5t-1.5 69q39 3 84 5.5t93.5 4.5t99 3t98.5 1q86 0 168 -13t155 -41t134.5 -71t105.5 -103.5t69 -138.5t25 -176zM1128 1034q0 117 -40 201t-111.5 137.5t-170.5 79t-218 25.5q-24 0 -56 -2t-64.5 -5t-61.5 -6.5t-48 -7.5q-3 -37 -4.5 -87t-2.5 -101t-1 -97
v-73q0 -224 2 -356.5t6 -186.5q51 -8 119 -11t137 -3q112 0 206.5 31t162.5 92.5t106.5 154t38.5 215.5z" />
    <glyph glyph-name="E.sup" horiz-adv-x="1071"
d="M932 76q0 -19 -1 -35.5t-3 -30.5q-64 0 -120 1q-24 0 -49 0.5t-48 0.5h-42h-32q-26 0 -65 -0.5t-75 -1.5q-42 -1 -87 -2q-19 0 -49.5 -1t-62.5 -2.5t-62 -3.5t-50 -3q-1 5 -1.5 13.5t-1 18t-1 19.5t-0.5 17v32t2 27q62 -2 130 -4t135 -2h47.5h44t50 0.5t64.5 1.5
q36 1 77.5 2.5t80 3.5t70 3.5t47.5 2.5q2 -11 2 -26.5v-30.5zM352 444q-15 0 -34 0.5t-38 0.5t-34.5 0.5t-22.5 0.5q2 50 2.5 82t1 62.5t0.5 67v94.5v323q0 36 -0.5 66.5t-1 63t-1 70t-1.5 87.5q0 15 -0.5 40.5t-1 52.5t-1 51.5t-1.5 39.5q50 0 99 1t114 1q85 0 161.5 3.5
t139.5 7.5q18 1 37.5 1.5t37.5 1t31.5 1t18.5 0.5q5 -20 7.5 -51.5t2.5 -57.5h-41h-44t-55.5 -0.5t-74.5 -1.5q-15 0 -35.5 -1t-44 -2t-49 -2t-49.5 -2q-57 -3 -119 -5q-1 -56 -3 -109q-2 -45 -2.5 -92t-0.5 -78v-90h275q51 0 91 1t73 2.5t62 3.5t58 3q2 -12 3 -27.5
t1 -41.5q0 -7 -0.5 -16.5t-1.5 -17.5l-2 -20q-14 0 -33 1.5t-36 1.5q-51 2 -121 4t-146 2q-33 0 -71.5 -0.5t-72.5 -2.5q-40 -2 -79 -3v-207q0 -36 0.5 -71t2.5 -63q2 -33 3 -61q53 -6 111.5 -8.5t114.5 -5.5l86 -4q39 -1 66.5 -2t49.5 -1.5t41.5 -0.5h42.5q0 -26 -2.5 -57
t-7.5 -60q-6 0 -34 1.5t-66 4.5q-24 2 -42.5 3t-36.5 2.5t-36.5 2.5t-42.5 2q-51 2 -115.5 4t-132.5 4z" />
    <glyph glyph-name="F.sup" horiz-adv-x="1004"
d="M891 76q0 -19 -1 -35.5t-3 -30.5q-51 0 -99 1q-41 1 -83 1h-68t-65 -0.5t-75 -1.5q-42 -1 -87 -2q-19 0 -49.5 -1t-62.5 -2.5t-62 -3.5t-50 -3q-1 5 -1.5 13.5t-1 18t-1 19.5t-0.5 17v31t2 26q23 -1 55 -1.5t67.5 -1t72.5 -1t70 -0.5h47.5h44t50 0.5t64.5 1.5
q36 1 71.5 2.5t66 3.5t55.5 3.5t41 2.5q2 -11 2 -26.5v-30.5zM223 436q2 43 2.5 89t1 88.5t0.5 79v61.5v282q1 45 0 97q-1 45 -1.5 101t-2.5 118q-1 15 -1.5 42.5t-1.5 56.5t-1.5 55.5t-1.5 41.5q17 0 41 0.5t50.5 1t54 1t51.5 1.5q89 2 167.5 3.5t161.5 5.5q9 0 21.5 0.5
t25.5 1.5t24.5 1.5t16.5 0.5q2 -8 3.5 -21t3 -28t2 -31t0.5 -29h-116.5t-162.5 -2q-29 -1 -64.5 -2.5t-67.5 -3.5q-37 -2 -75 -4q-1 -83 -3 -156q-1 -31 -1.5 -63.5t-1 -61.5t-0.5 -53.5v-40.5v-78h221q17 0 48.5 0.5t69 2t76.5 3.5t71 4q2 -17 3 -31t1 -36q0 -12 -1 -27.5
t-3 -27.5q-20 2 -56.5 3t-80 2.5t-90 2t-85.5 0.5q-32 0 -63 -1t-56 -3q-29 -2 -55 -4v-211q0 -57 2 -113.5t4 -118.5q-6 -2 -19.5 -3t-29.5 -1q-17 0 -32 0.5t-26 1.5q-13 1 -24 2z" />
    <glyph glyph-name="G.sup" horiz-adv-x="1364"
d="M1161 705q0 -51 1 -88t1 -80q-97 -51 -206.5 -78t-231.5 -27q-140 0 -247.5 40t-180 112.5t-110 175.5t-37.5 229q0 120 41 224t118 181t188 121t251 44q64 0 115.5 -5.5t97.5 -15t88.5 -23.5t87.5 -32q-8 -25 -18 -55.5t-21 -53.5q-79 35 -169.5 57.5t-183.5 22.5
q-107 0 -194 -34.5t-148 -96.5t-94 -148t-33 -190q0 -114 35.5 -197.5t97.5 -139t148 -82.5t186 -27q43 0 87.5 5t85 13.5t74 19.5t54.5 23v109q0 32 -0.5 65.5t-1.5 65t-2 59.5t-2 49q14 3 30.5 4.5t29.5 1.5q38 0 65 -6q0 -7 -0.5 -33.5t-0.5 -56.5t-0.5 -56.5t-0.5 -33.5
v-63zM1169 76q0 -19 -1 -32.5t-3 -27.5q-64 0 -120 1q-24 0 -49 0.5t-48 0.5h-42h-32q-20 0 -50 -0.5t-65 -1t-73 -1.5t-75 -2q-86 -3 -183 -5q-19 0 -49 -1t-62.5 -2.5t-62.5 -3.5t-49 -3q-2 9 -3 30t-1 35v33.5t2 28.5q57 -2 127.5 -4t136.5 -2q17 0 48.5 0.5t70.5 1
t82.5 1.5t85 2t78 2t61.5 1q36 1 77.5 2.5t79.5 3.5t69.5 3.5t47.5 2.5q2 -11 2 -29.5v-33.5z" />
    <glyph glyph-name="H.sup" horiz-adv-x="1501"
d="M1212 1554q22 0 38.5 -1t27.5 -3q-1 -43 -3.5 -97t-4 -111t-3 -115t-1.5 -109v-266v-90t0.5 -66t0.5 -54t1 -54t2.5 -66t3.5 -90q-16 -2 -32.5 -3t-35.5 -1q-17 0 -38 1t-33 3q5 113 5.5 241t2.5 273q-30 -1 -65 -2t-70.5 -2t-70.5 -2t-65 -2q-52 -2 -122.5 -5t-143.5 -6
t-141 -6.5t-115 -7.5v-198v-49.5v-70.5t0.5 -83.5t1.5 -89.5q-8 -2 -26 -3t-39 -1q-17 0 -34 1t-36 3q3 45 5 93t3 97t1.5 97t0.5 92v266q1 69 0 138.5t-2.5 133.5t-4 118.5t-5.5 94.5q17 0 32 1t50 1q20 0 35.5 -1t27.5 -3q-1 -42 -3 -80.5t-3.5 -82.5t-2.5 -97t-1 -125
v-127q29 -1 63.5 -1.5t68 -0.5h61h41.5q33 0 90 2t130.5 5t160 6.5t178.5 7.5q0 182 -3 305t-5 188q15 2 37 3t40 1zM1284 82q0 -19 -1 -35.5t-3 -30.5q-64 0 -120 1q-24 0 -49 0.5t-48 0.5h-42h-32q-20 0 -55 -0.5t-78 -1t-91.5 -1.5t-96.5 -2q-112 -3 -240 -5
q-19 0 -49 -1t-62.5 -2.5t-62.5 -3.5t-49 -3q-1 5 -1.5 13.5t-1 18t-1 19.5t-0.5 17v32t2 27q62 -3 130 -4.5t134 -1.5q17 0 57 0.5t92 1t110 1.5t112.5 2t99.5 2t70 1q36 1 77.5 2.5t79.5 3.5t69.5 3.5t47.5 2.5q2 -11 2 -26.5v-30.5z" />
    <glyph glyph-name="I.sup" horiz-adv-x="588"
d="M350 971v-47.5v-84.5v-105.5t0.5 -111t1 -101.5t0.5 -77q-8 -2 -26 -3t-39 -1q-17 0 -34 1t-36 3q6 90 8 172t2 170v281q1 69 0 138.5t-2.5 133.5t-4 118.5t-5.5 94.5q17 0 32 1t50 1q20 0 35.5 -1t27.5 -3q-1 -42 -3 -79.5t-3.5 -80.5t-2.5 -95t-1 -124v-200zM379 76
q0 -19 -1 -36t-3 -30q-9 0 -19 1q-8 1 -16.5 1h-13.5q-9 0 -21.5 -0.5t-24 -1.5t-21 -2t-13.5 -2q-10 -2 -23 -3.5t-22 -4.5q-1 3 -1.5 11t-1 18t-1 19.5t-0.5 16.5q0 14 1.5 35.5t2.5 30.5q8 0 27 -1t34 -1q13 0 33 1t37 3t27 3t16 3q2 -9 3 -27.5t1 -33.5z" />
    <glyph glyph-name="J.sup" horiz-adv-x="596"
d="M313 1556q16 0 34.5 -1t35.5 -3l-2.5 -85t-3 -104t-2 -100t-0.5 -71v-188q0 -119 -6 -203.5t-20.5 -146.5t-40 -106.5t-64.5 -84.5q-16 -15 -35 -31.5t-38 -31.5t-36.5 -28.5t-30.5 -23.5q-20 19 -38.5 40.5t-32.5 43.5q11 9 30 25.5t33 27.5q36 32 62 60t43.5 58.5
t27.5 67t15 85t6.5 112t1.5 148.5v180q0 9 -0.5 33.5t-2 57t-3 70.5t-3.5 74.5t-4.5 68.5t-5.5 52q14 2 35 3t45 1zM369 78q0 -19 -1 -37t-3 -31q-9 0 -19 1q-8 1 -16.5 1h-14.5q-9 0 -21 -0.5t-23.5 -1.5t-21 -2t-13.5 -2q-10 -2 -23 -3.5t-23 -4.5q-1 3 -1.5 11.5t-1 18.5
t-1 20.5t-0.5 17.5q0 14 1 35t3 30q8 0 27 -1t35 -1q12 0 32.5 1t37.5 3t26.5 3t16.5 3q2 -9 3 -27.5t1 -33.5z" />
    <glyph glyph-name="K.sup" horiz-adv-x="1225"
d="M1171 518q-11 -26 -30.5 -53.5t-40.5 -48.5q-23 18 -40.5 31t-34.5 26t-36.5 27.5t-48.5 36.5q-63 48 -114 85.5t-100.5 73.5t-102 73t-119.5 83q-29 20 -53.5 35.5t-41.5 26.5q-20 12 -36 22h-23v-170q0 -18 0.5 -59t2 -90.5t3.5 -100.5t4 -90q-14 -2 -28 -3t-33 -1
t-38.5 1t-35.5 3q2 42 2.5 109.5t0.5 147.5t-0.5 167t-0.5 168v67v237t-8 232q13 2 34 3.5t40 1.5q20 0 38.5 -1.5t30.5 -3.5q-1 -13 -3.5 -37.5t-4 -58t-3 -74t-1.5 -84.5v-288h10l199 180q60 54 117 108.5t108.5 104t96 93t80.5 75.5q23 -14 46 -38t35 -46
q-37 -31 -84.5 -71.5t-113 -98t-152.5 -137t-203 -187.5q62 -46 128.5 -94t132 -94.5t128 -89.5t117.5 -78zM1169 82q0 -19 -1 -35.5t-3 -30.5q-64 0 -120 1q-24 0 -49 0.5t-48 0.5h-42h-32q-20 0 -50 -0.5t-65 -1t-73 -1.5t-75 -2q-86 -3 -183 -5q-19 0 -49 -1t-62.5 -2.5
t-62.5 -3.5t-49 -3q-1 5 -1.5 13.5t-1 18t-1 19.5t-0.5 17v31t2 26q59 -2 128.5 -3t135.5 -1q17 0 48.5 0.5t70.5 1t82.5 1.5t85 2t78 2t61.5 1q36 1 77.5 2.5t79.5 3.5t69.5 3.5t47.5 2.5q2 -11 2 -26.5v-30.5z" />
    <glyph glyph-name="L.sup" horiz-adv-x="907"
d="M848 473q0 -23 -1 -38t-3 -32q-15 2 -55.5 5t-97.5 6.5t-126 6t-141 3.5q-34 1 -66 1.5t-59 1t-47.5 1t-30.5 0.5q2 51 3 95.5t1.5 86t1 81.5t0.5 83v332q0 86 -1 168q0 35 -0.5 72.5t-1 73.5t-1.5 69.5t-2 60.5q35 6 72 6q20 0 38.5 -1t26.5 -3q-1 -25 -2 -59t-2 -73
t-1.5 -80t-1 -79t-1 -71t-0.5 -57v-289v-107.5t1 -97.5q1 -51 1 -98q27 -2 57 -5q26 -2 57.5 -3.5t63.5 -2.5t65 -2t70.5 -2t81.5 -1.5t97 -0.5q2 -6 3 -20.5t1 -30.5zM842 70q0 -19 -1 -32.5t-3 -27.5q-38 0 -75 1q-32 1 -66 1h-60t-65 -0.5t-75 -1.5q-42 -1 -87 -2
q-19 0 -49.5 -1t-62.5 -2.5t-62 -3.5t-50 -3q-2 9 -3 28t-1 33v34.5t2 29.5q59 -2 128.5 -3t136.5 -1h47.5h44t50 0.5t64.5 1.5q36 1 63.5 2.5t49 3.5t39 3.5t33.5 2.5q2 -11 2 -29.5v-33.5z" />
    <glyph glyph-name="M.sup" horiz-adv-x="1581"
d="M1386 889q33 -130 64 -239.5t57 -203.5q-24 -9 -58.5 -19t-68.5 -13q-5 21 -13.5 56.5t-19 78.5t-22 91t-22.5 94.5t-20.5 88t-16.5 72.5q-13 59 -24 101.5t-22 82t-23.5 84t-27.5 105.5q-11 -22 -29 -60.5t-37.5 -81.5t-37.5 -83t-29 -64q-32 -79 -61.5 -147.5
t-57.5 -130t-54 -118.5l-52 -114l-57 -18q-16 38 -31 74q-13 31 -26 63.5l-21 52.5q-34 84 -69.5 167.5t-71 164t-70 155.5t-66.5 142q-19 -79 -38.5 -159t-38 -157t-35 -149t-29.5 -137q-6 -27 -13 -61.5t-13.5 -69.5t-12 -68.5t-8.5 -58.5q-35 3 -72 8.5t-65 13.5
q4 13 14.5 52t24 92t28.5 113.5t29 116t25 99.5l16 64q12 46 22 84.5t20 76.5t20 78.5t21.5 88.5t25 107.5t30.5 135.5l51 23q23 -55 40.5 -97t35.5 -83.5t39.5 -90t52.5 -118.5q15 -33 32 -72.5t35 -81t36.5 -83t35.5 -80.5q40 -91 80 -183q60 137 104.5 234.5t76.5 174.5
q51 122 101.5 234t96.5 217l66 29q14 -88 34 -171t42 -180q17 -78 38 -163t39 -160zM1487 76q0 -19 -1 -32.5t-3 -27.5q-64 0 -120 1q-24 0 -49 0.5t-48 0.5h-42h-32q-20 0 -68.5 -0.5t-114 -1t-142 -1.5t-153.5 -2q-180 -3 -397 -5q-19 0 -49 -1t-62.5 -2.5t-62.5 -3.5
t-49 -3q-1 5 -1.5 14t-1 20l-1 22t-0.5 18v29t2 24q28 -1 60 -2.5t66.5 -2t69.5 -1t68 -0.5q13 0 52.5 0.5t96.5 0.5t126 1t141 1.5t142.5 1t130 1.5t103 1.5t62.5 0.5q36 1 77.5 2.5t80 3.5t70 3.5t47.5 2.5q2 -11 2 -29.5v-33.5z" />
    <glyph glyph-name="N.sup" horiz-adv-x="1497"
d="M1329 807q0 -60 1 -120.5t3 -109.5q2 -57 4 -110l-39 -31q-10 12 -28 33.5t-42 48.5t-54 58.5t-64 62.5q-44 42 -101.5 95.5t-123 114t-136 124t-139.5 124.5t-134 116.5t-120 99.5q-7 -60 -14 -117q-3 -24 -6 -50t-6 -50.5t-6 -47t-5 -40.5q-4 -30 -9.5 -77.5
t-11.5 -105.5t-12.5 -121.5t-12 -125t-9.5 -116.5t-6 -95q-16 0 -35 1.5t-37 4t-34.5 5.5t-28.5 7q17 98 33.5 204t31.5 214t28 215t22 205q3 32 7 75t8 87t7 83t4 62l23 12q24 -21 43 -39t39 -37t44 -41t58 -51q48 -41 110 -96t130 -117.5t139.5 -129t139.5 -129t129 -118
t108 -96.5v424q0 62 -1.5 132t-3.5 135.5t-4 122t-4 91.5q13 2 28 4t34 2q6 0 16 -0.5t19 -1.5l22 -2q-1 -12 -1.5 -36.5t-1 -57.5t-1 -71.5t-0.5 -79.5v-543zM1327 82q0 -19 -1 -35.5t-3 -30.5q-64 0 -120 1q-24 0 -49 0.5t-48 0.5h-42h-32q-20 0 -58.5 -0.5t-87 -1
t-104 -1.5t-110.5 -2q-128 -3 -279 -5q-19 0 -49 -1t-62.5 -2.5t-62.5 -3.5t-49 -3q-1 5 -1.5 13.5t-1 18t-1 19.5t-0.5 17v31t2 26q28 -1 60 -2.5t66.5 -2t69.5 -1t68 -0.5q18 0 63.5 0.5t106 1t128.5 1.5t131 2t114 2t76 1q36 1 77.5 2.5t79.5 3.5t69.5 3.5t47.5 2.5
q2 -11 2 -25.5v-29.5z" />
    <glyph glyph-name="O.sup" horiz-adv-x="1479"
d="M150 973q0 131 43.5 238t121.5 183t186 118t238 42q124 0 229.5 -43t182.5 -119.5t120.5 -181.5t43.5 -229q0 -122 -41 -226.5t-115 -181t-178.5 -120t-230.5 -43.5q-144 0 -255.5 42.5t-188 118t-116.5 178.5t-40 224zM1186 983q0 95 -33.5 179.5t-94 148.5
t-144.5 101.5t-185 37.5q-97 0 -180 -31t-144 -91t-95 -147.5t-34 -199.5q0 -117 36 -204.5t99 -146t148 -87.5t182 -29q106 0 189 34t140 96t86.5 148.5t29.5 190.5zM1327 88q0 -19 -1 -38.5t-3 -33.5q-64 0 -120 1q-24 0 -49 0.5t-48 0.5h-42h-32q-20 0 -58.5 -0.5t-87 -1
t-104 -1.5t-110.5 -2q-128 -3 -279 -5q-19 0 -49 -1t-62.5 -2.5t-62.5 -3.5t-49 -3q-1 5 -1.5 14t-1 20l-1 22t-0.5 18v29t2 24q28 -1 60 -2.5t66.5 -2t69.5 -1t68 -0.5q18 0 63.5 0.5t106 1t128.5 1.5t131 2t114 2t76 1q36 1 77.5 2.5t79.5 3.5t69.5 3.5t47.5 2.5
q2 -11 2 -23v-28z" />
    <glyph glyph-name="P.sup" horiz-adv-x="1022"
d="M928 1202q0 -92 -42 -163.5t-118 -120.5t-182.5 -75.5t-235.5 -29.5v-78q0 -40 0.5 -83.5t1 -85t2 -77t2.5 -61.5q-12 -2 -27.5 -3t-33.5 -1q-16 0 -39 1.5t-33 4.5q1 32 3 81q2 42 2.5 107.5t0.5 159.5v496v170t-2 112q12 2 27.5 2.5t32 0.5h33h30.5q119 0 224.5 -21.5
t184 -66t124 -111.5t45.5 -158zM795 1194q0 62 -29 110.5t-84.5 83t-137.5 52.5t-188 18q-1 -20 -2 -49.5t-2 -65t-1.5 -75t-0.5 -78.5v-266h60q75 0 144.5 16.5t123 49.5t85.5 84t32 120zM920 82q0 -19 -1.5 -38.5t-3.5 -33.5q-38 0 -75 1q-32 1 -65.5 1h-59.5h-33
t-44 -0.5t-50 -1t-52 -0.5q-60 -1 -126 -2q-19 0 -49.5 -1t-62.5 -2.5t-62 -3.5t-50 -3q-1 5 -1.5 14t-1 20l-1 22t-0.5 18v28t2 23q59 -2 128.5 -3t136.5 -1h59.5h71t77 0.5t76.5 1.5q36 1 63 2.5t49 3.5t39.5 3.5t33.5 2.5q2 -11 2 -23.5v-27.5z" />
    <glyph glyph-name="Q.sup" horiz-adv-x="1446"
d="M150 973q0 131 43.5 238t122.5 183t189 118t243 42q69 0 137.5 -15.5t131.5 -46.5t117.5 -78t94.5 -110t63 -141.5t23 -173.5q0 -94 -21 -174t-60 -144t-93.5 -111.5t-122.5 -76.5q8 0 36.5 -2t64 -4.5t71 -4.5t57.5 -3q62 -3 115 -7.5t96 -4.5q0 -22 -3.5 -54t-8.5 -63
q-53 9 -120 17.5t-155 19.5q-99 12 -196 22.5t-193 10.5h-39q-145 0 -256 43t-186 118.5t-113 178.5t-38 223zM1186 983q0 115 -38.5 202.5t-101.5 146t-144 88.5t-167 30q-95 0 -178.5 -31t-146 -91t-98.5 -147.5t-36 -199.5q0 -113 35 -200t97 -146.5t147.5 -90
t185.5 -30.5q116 0 199.5 37t138.5 101t81 149t26 182zM1327 88q0 -19 -1 -38.5t-3 -33.5q-64 0 -120 1q-24 0 -49 0.5t-48 0.5h-42h-32q-20 0 -58.5 -0.5t-87 -1t-104 -1.5t-110.5 -2q-128 -3 -279 -5q-19 0 -49 -1t-62.5 -2.5t-62.5 -3.5t-49 -3q-1 5 -1.5 14t-1 20l-1 22
t-0.5 18v29t2 24q28 -1 60 -2.5t66.5 -2t69.5 -1t68 -0.5q18 0 63.5 0.5t106 1t128.5 1.5t131 2t114 2t76 1q36 1 77.5 2.5t79.5 3.5t69.5 3.5t47.5 2.5q2 -11 2 -23v-28z" />
    <glyph glyph-name="R.sup" horiz-adv-x="1110"
d="M741 817q34 -36 73 -77.5t82.5 -85t90.5 -87t96 -84.5q-11 -12 -19 -21t-24 -22q-17 -15 -34.5 -27.5t-26.5 -15.5q-30 33 -67.5 74t-78 85t-82 87.5t-78.5 81.5t-67.5 69t-50.5 48q-21 -4 -48 -6.5t-55 -4t-54.5 -2t-47.5 -0.5v-139q0 -68 2.5 -137t5.5 -131
q-11 -3 -29 -4.5t-32 -1.5q-22 0 -45 1t-29 3q1 64 2 122q0 25 0.5 50.5t1.5 49.5t1.5 45t0.5 36v489v81.5v91.5t-0.5 88.5t-1.5 72.5q41 3 87.5 4.5t84.5 1.5q252 0 384 -84t132 -249q0 -69 -21 -123t-55 -95t-77 -69t-86 -43zM791 1204q0 64 -26.5 111t-75.5 78t-118 46
t-153 15q-11 0 -29.5 -1t-34.5 -3l-2 -88q-1 -38 -1.5 -79t-0.5 -73v-278h56q189 0 287 71t98 201zM1016 82q0 -19 -1 -38.5t-3 -33.5q-38 0 -75 1q-32 1 -66 1h-60h-37t-55 -0.5t-65.5 -1t-69.5 -0.5q-81 -1 -174 -2q-19 0 -49.5 -1t-62.5 -2.5t-62 -3.5t-50 -3
q-1 5 -1.5 14t-1 20l-1 22t-0.5 18v28t2 23q59 -2 128.5 -3t136.5 -1h45h62h71.5t74 0.5t69.5 1t58 0.5q36 1 63.5 2.5t49 3.5t39 3.5t33.5 2.5q2 -11 2 -23.5v-27.5z" />
    <glyph glyph-name="S.sup" horiz-adv-x="893"
d="M743 737q0 -64 -18.5 -122t-61.5 -102t-112.5 -70.5t-171.5 -26.5q-68 0 -133 14.5t-115 36.5q3 28 10.5 59.5t18.5 53.5q23 -12 50 -23t56 -19.5t58 -13t55 -4.5q65 0 111 16.5t75 44.5t42.5 65t13.5 77q0 47 -18 82t-48.5 63.5t-70.5 52t-83 46.5q-42 24 -84.5 53.5
t-77 66t-56 83t-21.5 104.5q0 70 25.5 125t73 93.5t114 58.5t147.5 20q25 0 54 -2.5t58.5 -6.5t56.5 -9.5t48 -10.5q-1 -13 -2.5 -28t-4 -30t-5.5 -28.5t-6 -23.5q-37 11 -91.5 22.5t-107.5 11.5q-115 0 -177 -48t-62 -136q0 -42 18 -75t47.5 -60t67.5 -50t78 -46
q44 -25 88.5 -54t80 -66.5t58 -84.5t22.5 -109zM760 82q0 -19 -1 -38.5t-3 -33.5q-38 0 -75 1q-32 1 -66 1h-60t-59.5 -0.5t-63.5 -1.5l-70 -2q-19 0 -49 -1t-62.5 -2.5t-62.5 -3.5t-49 -3q-1 5 -1.5 14t-1 20l-1 22t-0.5 18v28t2 23q59 -2 128.5 -3t135.5 -1h42h32.5
t38.5 0.5t59 1.5q36 1 63.5 2.5t49 3.5t39 3.5t33.5 2.5q2 -11 2 -23.5v-27.5z" />
    <glyph glyph-name="T.sup" horiz-adv-x="1055"
d="M1016 1518q0 -13 -2.5 -32.5t-5.5 -33.5q-31 2 -73 4t-108 2q-28 0 -68.5 -0.5t-78.5 -2.5q-44 -2 -90 -3q0 -61 -1 -122q-1 -52 -1 -110v-106v-336q0 -64 1 -114t2.5 -92t4 -77t4.5 -69q-12 -2 -32 -3t-36 -1q-23 0 -41 1t-32 3q1 37 2 66t1.5 54.5l1 51t1 56t0.5 69
v90.5v283q0 40 -0.5 74.5t-1 74t-1 88.5t-1.5 117q-74 -5 -149 -10q-64 -4 -136.5 -10.5t-132.5 -14.5q-2 8 -3 24.5t-1 35.5q0 14 1 28.5t3 28.5q62 5 120 8t118 5t124 4t138 3q3 0 26 1t55.5 2t70 2.5t70 2.5t55 2t24.5 1q33 1 52 2t30 1.5t17.5 1t14 1t20 1t34.5 1.5
q2 -8 3 -24.5t1 -28.5zM963 88q0 -19 -1.5 -38.5t-3.5 -33.5q-64 0 -120 1q-24 0 -49 0.5t-47.5 0.5h-41.5h-32q-41 0 -95 -1.5t-103 -3.5q-57 -3 -116 -5q-19 0 -52 -1t-69 -2.5t-69.5 -3.5t-52.5 -3q-1 5 -1.5 14t-1.5 20t-1.5 22t-0.5 18q0 14 0.5 29t2.5 24
q27 -1 62.5 -2.5t74 -2t76.5 -1t71 -0.5q26 0 61 1t74 2.5t80 2.5t78 2q36 1 77.5 2.5t80 3.5t70 3.5t47.5 2.5z" />
    <glyph glyph-name="U.sup" horiz-adv-x="1528"
d="M1245 1548q16 0 36 -0.5t36 -3.5q-1 -24 -1.5 -43.5t-1 -40t-1 -43.5t-2.5 -53q-1 -34 -2 -73t-2.5 -80.5t-3.5 -82t-5 -77.5q-9 -168 -44.5 -289t-102 -199t-167 -114.5t-239.5 -36.5q-236 0 -371 146t-169 427q-6 61 -10 114.5t-7 103t-6 97.5t-8 97q-1 16 -2 35.5
t-2.5 39.5t-3 38.5t-2.5 33.5q18 3 34 3.5t38 0.5q23 0 42 -1t33 -3q-1 -4 -1.5 -20t-0.5 -40v-54.5v-63.5q0 -25 1 -58.5t2.5 -71t4 -76.5t5.5 -75q7 -78 18.5 -150.5t32 -135t52 -113.5t78 -87.5t110 -56.5t147.5 -20q95 0 163.5 23t115.5 62.5t76 93t45 115t21 127.5
t5 130q0 54 -1.5 130t-4.5 157q-2 57 -5 102.5t-10 79.5q20 3 39.5 4.5t40.5 1.5zM1327 88q0 -19 -1 -38.5t-3 -33.5q-64 0 -120 1q-24 0 -49 0.5t-48 0.5h-42h-32q-20 0 -56.5 -0.5t-82.5 -1t-98.5 -1.5t-103.5 -2q-121 -3 -261 -5q-19 0 -49 -1t-62.5 -2.5t-62.5 -3.5
t-49 -3q-1 5 -1.5 14t-1 20l-1 22t-0.5 18v30t2 25q28 -1 60 -2.5t66.5 -2t69.5 -1t68 -0.5q18 0 60.5 0.5t99 1t120 1.5t122.5 2t107 2t73 1q36 1 77.5 2.5t79.5 3.5t69.5 3.5t47.5 2.5q2 -11 2 -24v-29z" />
    <glyph glyph-name="V.sup" horiz-adv-x="1208"
d="M1057 1569q32 -8 61 -20.5t53 -26.5q-13 -25 -32.5 -62t-40.5 -77.5t-41.5 -80t-36.5 -69.5q-21 -41 -53 -108.5t-69 -146.5t-76 -161t-74 -153q-29 -60 -54.5 -116t-48.5 -106l-59 -24q-6 15 -11.5 27t-11 24.5t-12 28t-16.5 37.5q-6 11 -14.5 28.5t-18 36.5t-18.5 37.5
t-15 32.5q-37 77 -73 149l-71.5 143t-71.5 142t-75 145q-13 26 -30 58t-35.5 66.5t-38 70t-37.5 67.5q29 17 58.5 29.5t66.5 22.5q23 -48 34 -70l16 -32l7.5 -15l9.5 -19t22 -43.5t44 -89.5q18 -37 40.5 -82t45.5 -92.5t46.5 -96t44.5 -92.5t39 -81.5t30 -63.5
q3 -7 13.5 -29t22.5 -46.5t22 -44.5t11 -23q7 13 21 42t33.5 69t42.5 88t48 100t50.5 105t48.5 102q26 53 48 98t41.5 84.5t37.5 76.5t35 73q9 21 19.5 43.5t21.5 44.5zM1102 88q0 -19 -1 -38.5t-3 -33.5q-64 0 -120 1q-24 0 -49 0.5t-48 0.5h-42h-32q-20 0 -50.5 -0.5
t-66.5 -1t-75 -1.5t-77 -2q-89 -3 -188 -5q-19 0 -49 -1t-62.5 -2.5t-62.5 -3.5t-49 -3q-1 5 -1.5 14t-1 20l-1 22t-0.5 18v29t2 24q28 -1 60 -2.5t66.5 -2t69.5 -1t68 -0.5q18 0 50 0.5t72 1t84.5 1.5t87.5 2t80 2t62 1q36 1 77.5 2.5t80 3.5t70 3.5t47.5 2.5q2 -11 2 -23
v-28z" />
    <glyph glyph-name="W.sup" horiz-adv-x="1821"
d="M1659 1561q38 -10 71 -22t56 -23q-13 -26 -31.5 -70t-38.5 -90q-33 -79 -61.5 -146.5t-56.5 -134t-57 -137.5t-64 -158q-19 -48 -37 -91.5t-35 -86t-34.5 -85.5t-35.5 -89l-59 -25q-16 37 -37.5 90t-44.5 110t-46 111.5t-42 94.5q-21 48 -45.5 105t-51 118t-54.5 123.5
t-56 120.5q-15 -36 -35.5 -83.5t-44 -101.5t-48 -111.5t-48.5 -113.5q-35 -81 -59.5 -140.5t-44 -109t-37.5 -93.5t-39 -93l-56 -27q-10 29 -24 65t-29.5 76.5t-32.5 83.5t-34 85q-16 41 -31 79t-30 74.5t-30.5 74t-31.5 77.5q-44 105 -95 233t-114 269q29 12 56 21.5
t65 19.5q5 -19 20 -57t34.5 -86.5t41.5 -102.5t43 -107q16 -40 29 -71t24.5 -59.5t23.5 -58.5t27 -69q6 -15 16.5 -41t22.5 -57t25 -64t24 -61t19 -48t10 -26q32 72 63.5 144.5t61 140.5t54 127.5t42.5 105.5q26 62 45.5 110t35.5 85.5t28.5 67.5t23.5 57q12 8 23 14
q9 5 16.5 9.5t8.5 3.5v2q5 -12 10.5 -25.5t14 -34t21.5 -50.5t33 -75q14 -31 30 -67.5t33 -74t34 -75.5t32 -74q15 -34 39 -87.5t49.5 -110.5t49 -109t36.5 -84q10 25 24.5 61.5t29.5 75.5t29.5 75.5t25.5 60.5q25 60 47.5 116.5t45 114t45.5 119t50 131.5q9 25 17 45.5
t15.5 38.5t14.5 35t15 35zM1735 88q0 -19 -1 -38.5t-3 -33.5q-66 0 -125 1q-51 1 -100.5 1h-75.5q-20 0 -77 -0.5t-136.5 -1t-174 -1.5t-189.5 -2q-224 -3 -495 -5q-19 0 -52.5 -1t-70 -2.5t-70 -3.5t-52.5 -3q-1 5 -1.5 14t-1 20l-1 22t-0.5 18v29t2 24q27 -1 63 -2.5
t74.5 -2l77 -1t71.5 -0.5q13 0 61.5 0.5t119.5 0.5t159 1t179.5 1.5t180.5 1t163 1.5t126.5 1.5t71.5 0.5q36 1 77.5 2.5t80 3.5t70 3.5t47.5 2.5q2 -11 2 -23v-28z" />
    <glyph glyph-name="X.sup" horiz-adv-x="1223"
d="M1153 489q-19 -18 -46 -38t-48 -35q-51 60 -110 127t-122 139q-23 26 -52 61.5t-58.5 71.5t-56.5 67.5t-46 49.5q-23 -29 -49 -62q-23 -28 -51 -64t-59 -75q-37 -46 -72.5 -90t-67 -84t-58 -73.5t-46.5 -59.5q-23 11 -49.5 29.5t-46.5 35.5q29 35 67.5 83t93.5 116
q74 86 139.5 166.5t129.5 165.5q-14 16 -43.5 49t-67 76.5t-81 92t-85 96t-78 88.5t-61.5 69q20 22 43.5 42t46.5 34q34 -42 82.5 -101.5t108.5 -134.5q78 -96 132.5 -157.5t71.5 -79.5q14 18 33.5 42t41 51.5t44 56.5t43.5 56q48 62 94 125t84 117q25 -11 52 -30.5
t47 -34.5q-18 -22 -44.5 -53.5t-56 -67.5t-60.5 -74t-58 -74q-7 -9 -17.5 -22t-22.5 -28t-25 -31.5t-25 -32.5q-29 -37 -60 -78q13 -15 28.5 -33.5t35 -41.5t45 -52t59.5 -66zM1106 88q0 -19 -1 -38.5t-3 -33.5q-64 0 -120 1q-24 0 -49 0.5t-48 0.5h-42h-32
q-20 0 -50.5 -0.5t-66.5 -1t-75 -1.5t-77 -2q-89 -3 -188 -5q-19 0 -49 -1t-62.5 -2.5t-62.5 -3.5t-49 -3q-1 5 -1.5 14t-1 20l-1 22t-0.5 18v29t2 24q28 -1 60 -2.5t66.5 -2t69.5 -1t68 -0.5q18 0 50 0.5t72 1t84.5 1.5t87.5 2t80 2t62 1q36 1 77.5 2.5t80 3.5t70 3.5
t47.5 2.5q2 -11 2 -23v-28z" />
    <glyph glyph-name="Y.sup" horiz-adv-x="1061"
d="M958 1569q22 -19 42.5 -44t35.5 -52q-23 -17 -56.5 -46t-84.5 -81q-62 -64 -117 -129.5t-96 -136.5t-64.5 -149.5t-23.5 -170.5v-117q0 -54 0.5 -110t5.5 -103q-9 -3 -26.5 -4.5t-38.5 -1.5q-38 0 -62 6q1 35 3 75q2 35 2.5 79.5t0.5 93.5v96q0 78 -24 154.5t-62.5 146.5
t-85.5 131t-92 109q-43 42 -93.5 83t-96.5 70q12 26 32.5 54.5t38.5 50.5q44 -31 88 -69t90 -89q107 -114 174 -218.5t93 -195.5h4q11 48 43 107t76.5 122t96.5 126t103 119q23 26 47 49t47 45zM950 88q0 -19 -1 -38.5t-3 -33.5q-64 0 -120 1q-24 0 -49 0.5t-48 0.5h-42h-32
q-41 0 -92.5 -1.5t-98.5 -3.5q-55 -3 -110 -5q-19 0 -54 -1t-73 -2.5t-72.5 -3.5t-54.5 -3q-1 5 -1.5 14t-1 20l-1 22t-0.5 18v31t2 26q28 -1 65 -2.5t77 -2l80 -1t73 -0.5q26 0 59 1t70 2.5t75.5 2.5t76.5 2q36 1 77.5 2.5t79.5 3.5t69.5 3.5t47.5 2.5q2 -11 2 -25v-30z
" />
    <glyph glyph-name="Z.sup" horiz-adv-x="1257"
d="M829 545q41 1 91 2.5t98.5 4t91.5 5t70 4.5q0 -34 -7.5 -71.5t-9.5 -63.5q-10 1 -32 2t-51 2t-62.5 1.5t-65.5 0.5q-198 0 -398 -5t-390 -11l-12 22q41 62 74 114q14 22 28.5 44.5t26.5 41.5t21 33.5t13 20.5q51 83 87 143.5t63 107.5t48 84t42 73q33 56 66.5 115
t61.5 109q33 58 62 114q-64 0 -119 1q-47 1 -89 1h-56q-43 0 -90.5 -1t-94 -2.5t-89.5 -4t-78 -5.5q0 31 1.5 63t6.5 66q9 0 29.5 -0.5t47.5 -1t59.5 -1t66.5 -1.5q80 -2 168 -3t178 -1q42 0 75.5 0.5t61 2t51 3t46.5 2.5l16 -22q-17 -25 -32.5 -50t-32.5 -53.5t-38 -64
t-49 -82.5q-7 -11 -26 -45.5t-44.5 -80t-54 -97t-54 -97t-44.5 -80t-26 -46.5q-38 -68 -70 -123t-55 -95q-26 -47 -48 -83q23 0 74 0.5t116 2t138 3t139 2.5zM1126 88q0 -19 -1 -38.5t-3 -33.5q-64 0 -120 1q-24 0 -49 0.5t-48 0.5h-42h-32q-20 0 -50 -0.5t-65 -1t-73 -1.5
t-75 -2q-86 -3 -183 -5q-19 0 -54 -1t-73 -2.5t-73 -3.5t-54 -3q-1 5 -1.5 14t-1 20l-1 22t-0.5 18v29t2 24q28 -1 65 -2.5t77 -2l80 -1t73 -0.5q17 0 48.5 0.5t70.5 1t82.5 1.5t85 2t78 2t61.5 1q36 1 77.5 2.5t79.5 3.5t69.5 3.5t47.5 2.5q2 -11 2 -23v-28z" />
    <glyph glyph-name="A.inf" horiz-adv-x="1233"
d="M1130 1505q0 -18 -1 -34.5t-3 -30.5q-64 0 -120 1q-24 0 -49 0.5t-47.5 0.5h-41.5h-32q-20 0 -52 -0.5t-70 -1t-79.5 -1.5t-82.5 -2q-95 -3 -202 -5q-19 0 -49 -1t-62.5 -3t-62.5 -3.5t-49 -3.5q-1 5 -1.5 13.5t-1 18.5t-1 19.5t-0.5 16.5v31t2 26q57 -2 127.5 -3
t136.5 -1q61 0 127 1t128.5 2.5t117.5 2.5t92 2q36 1 77.5 2.5t79.5 4t69.5 4t47.5 2.5q2 -11 2 -26.5v-31.5zM614 305h-69.5t-71.5 -0.5t-67 -1t-56 -2.5q-40 -77 -79 -156.5t-74 -162.5q-28 8 -57 19t-58 28q32 59 74.5 142t90 178.5t97.5 199t98 204t91 192.5t77 165
l27 8q30 -64 73 -154.5t92.5 -193t101.5 -210t99.5 -206t88.5 -180.5t67 -133q-25 -14 -57.5 -28.5t-57.5 -22.5q-29 69 -65.5 148.5t-81.5 164.5q-30 1 -56 1.5t-57 0.5h-71h-99zM618 414q33 0 68 0.5t66 1.5t56 1.5t38 0.5q-50 106 -108 227t-115 254q-28 -65 -54 -122
t-52.5 -113.5t-54 -115.5t-59.5 -128q23 -2 45.5 -3.5t47.5 -2t55 -0.5h67z" />
    <glyph glyph-name="B.inf" horiz-adv-x="1108"
d="M969 328q0 -86 -50 -150.5t-140 -107t-214 -63.5t-272 -21h-20.5h-24t-24 0.5t-19.5 1.5q2 28 2.5 69.5t1 89.5t0.5 98.5v96.5v332v105.5t-0.5 121t-1 118.5t-2.5 97q29 2 55 2h57q125 0 229.5 -18.5t181 -54t119 -87t42.5 -118.5q0 -85 -56 -154.5t-174 -110.5v-4
q153 -20 231.5 -83.5t78.5 -159.5zM838 326q0 43 -19 77t-62.5 58t-114 36.5t-173.5 12.5h-139q0 -128 0.5 -237.5t3.5 -180.5q104 0 195.5 12.5t160 40.5t108.5 72.5t40 108.5zM764 815q0 53 -36 91.5t-96 64t-138.5 37.5t-163.5 12v-416h67q85 0 153 14.5t115.5 42
t73 66.5t25.5 88zM985 1501q0 -18 -1 -34.5t-3 -30.5q-64 0 -120 1q-24 0 -49 0.5t-48 0.5h-42h-32q-41 0 -97 -1.5t-108 -3.5q-61 -3 -125 -6q-19 0 -49 -1t-62.5 -2.5t-62.5 -3t-49 -3.5q-1 5 -1.5 13.5t-1 18.5t-1 19.5t-0.5 16.5v32t2 27q57 -5 127.5 -5.5t136.5 -0.5
q26 0 63.5 1t79.5 2.5t85.5 2.5t81.5 2q36 1 77.5 2.5t79.5 3.5t69.5 4t47.5 3q2 -11 2 -26.5v-31.5z" />
    <glyph glyph-name="C.inf" horiz-adv-x="1286"
d="M1092 195q14 -23 24.5 -48.5t20.5 -50.5q-81 -49 -186.5 -79.5t-235.5 -30.5q-137 0 -244.5 39.5t-182 112.5t-114 177t-39.5 234q0 131 41.5 237.5t117 182.5t181.5 117.5t236 41.5q64 0 123.5 -7.5t112 -20.5t96.5 -29t75 -33q-15 -55 -35 -106q-31 17 -72 33.5
t-89 29.5t-100.5 21t-106.5 8q-105 0 -188.5 -33t-142.5 -94.5t-90.5 -150.5t-31.5 -201q0 -117 34 -202.5t95 -141t144.5 -82.5t183.5 -27q57 0 107 5.5t95 18t87 32t84 47.5zM1151 1507q0 -18 -1 -34.5t-3 -30.5q-64 0 -120 1q-24 0 -49 0.5t-48 0.5h-42h-32
q-20 0 -50 -0.5t-65 -1t-73 -1.5t-75 -2q-86 -3 -183 -5q-19 0 -49.5 -1t-62.5 -3t-62 -3.5t-50 -3.5q-2 10 -3 32t-1 36v31t2 26q57 -2 127.5 -3t137.5 -1q17 0 48.5 0.5t70.5 1t82 1.5t84.5 2t78 2t61.5 1q36 1 77.5 2.5t80 4t70 4t47.5 2.5q2 -11 2 -26.5v-31.5z" />
    <glyph glyph-name="D.inf" horiz-adv-x="1430"
d="M1257 586q0 -151 -50.5 -263.5t-137 -187.5t-201.5 -112t-245 -37q-119 0 -218 6t-180 14q0 14 0.5 39.5t0.5 57t1 65.5t1 65.5t0.5 56.5t0.5 38v489q0 28 -0.5 67t-1 80t-1 81t-1.5 69q39 3 84 5.5t93.5 4.5t99 3t98.5 1q86 0 168 -13t155 -40.5t134.5 -70.5
t105.5 -103.5t69 -138.5t25 -176zM1128 584q0 117 -40 200.5t-111.5 137t-170.5 79t-218 25.5q-24 0 -56 -1.5t-64.5 -4.5t-61.5 -6.5t-48 -7.5q-3 -37 -4.5 -87.5t-2.5 -101.5t-1 -96.5v-73.5q0 -224 2 -356.5t6 -186.5q51 -8 119 -11t137 -3q112 0 206.5 31t162.5 92.5
t106.5 154t38.5 216.5zM1270 1487q0 -19 -1 -32.5t-3 -27.5q-64 1 -120 2q-24 0 -49 0.5t-48 0.5h-42h-32q-20 0 -54.5 -0.5t-77 -1t-90 -1.5t-94.5 -2q-109 -3 -235 -6q-19 0 -49 -1t-62.5 -2.5t-62.5 -3t-49 -3.5q-2 9 -3 28t-1 33v34.5t2 29.5q60 -2 129 -3t135 -1
q17 0 56 0.5t89.5 1t107.5 1.5t110.5 2t97.5 2t69 1q36 1 77.5 2.5t80 3.5t70 3.5t47.5 2.5q2 -11 2 -29.5v-33.5z" />
    <glyph glyph-name="E.inf" horiz-adv-x="1004"
d="M352 0q-15 0 -34 0.5t-38 0.5t-34.5 0.5t-22.5 0.5q2 49 2.5 81.5t1 63t0.5 67v93.5v324q0 36 -0.5 66.5t-1 63t-1 70t-1.5 87.5q0 15 -0.5 40t-1 52t-1 52t-1.5 40q50 0 99 1t114 1q85 0 161.5 3.5t139.5 6.5q18 1 37.5 1.5t37.5 1t31.5 1t18.5 0.5q5 -20 7.5 -51
t2.5 -57h-41h-44t-55.5 -0.5t-74.5 -1.5q-15 0 -35.5 -1t-44 -2t-49 -2t-49.5 -2q-57 -3 -119 -6q-1 -56 -3 -108q-2 -45 -2.5 -92t-0.5 -78v-90h275q51 0 91 1t73 2.5t62 3.5t58 3q2 -12 3 -28t1 -42q0 -7 -0.5 -16t-1.5 -17l-2 -20q-14 0 -33 1t-36 1q-51 2 -121 4t-146 2
q-33 0 -71.5 -0.5t-72.5 -2.5q-40 -2 -79 -3v-207q0 -36 0.5 -70.5t2.5 -62.5q2 -33 3 -61q53 -7 111.5 -9.5t114.5 -5.5l86 -4q39 -1 66.5 -2t49.5 -1.5t41.5 -0.5h42.5q0 -26 -2.5 -57t-7.5 -60q-6 0 -34 1.5t-66 5.5q-24 1 -42.5 2.5t-36.5 3t-36.5 2.5t-42.5 2
q-51 2 -115.5 4t-132.5 4zM891 1499q0 -18 -1 -34.5t-3 -30.5q-51 0 -99 1q-41 1 -83 1h-68t-65 -0.5t-75 -1.5q-42 -1 -87 -2q-19 0 -49.5 -1t-62.5 -3t-62 -3.5t-50 -3.5q-1 5 -1.5 13.5t-1 18.5t-1 19.5t-0.5 16.5v32t2 27q62 -2 130 -4t135 -2h47.5h44t50 0.5t64.5 1.5
q36 1 71.5 2.5t66 3.5t55.5 3.5t41 2.5q2 -11 2 -26v-31z" />
    <glyph glyph-name="F.inf" horiz-adv-x="1004"
d="M223 -4q2 43 2.5 89t1 88.5t0.5 79v60.5v283q0 53 -1 108q-1 47 -1.5 102.5t-1.5 104.5q0 15 -0.5 42.5t-1.5 57t-2 56t-2 41.5q17 0 40 0.5t49 0.5t53 0.5t51 0.5q95 0 173 3.5t160 6.5q9 0 21.5 0.5t25.5 1.5t24.5 1.5t16.5 0.5q2 -7 3.5 -20.5t3 -29t2 -31t0.5 -27.5
h-116.5t-162.5 -2q-29 -1 -64.5 -2.5t-67.5 -3.5q-37 -2 -75 -4q-1 -83 -3 -156q-1 -31 -1.5 -63.5t-1 -61.5t-0.5 -53.5v-40.5v-78h221q17 0 48.5 0.5t69.5 2t77.5 3.5t71.5 4q1 -13 1.5 -20.5t0.5 -14v-13.5v-19q0 -13 -1 -28t-3 -28q-22 2 -58.5 3.5t-80 2.5t-89 1.5
t-84.5 0.5q-32 0 -63 -1t-56 -3q-29 -2 -55 -4v-211q0 -57 2 -113t4 -118q-6 -2 -19.5 -3t-29.5 -1q-17 0 -32 0.5t-26 1.5q-13 1 -24 2zM932 1493q0 -19 -1 -35.5t-3 -30.5q-64 1 -120 2q-24 0 -49 0.5t-48 0.5h-42h-32q-26 0 -65 -0.5t-75 -1.5q-42 -1 -87 -3
q-19 0 -49.5 -1t-62.5 -2.5t-62 -3t-50 -3.5q-1 5 -1.5 13.5t-1 18t-1 19.5t-0.5 17v31t2 26q23 -1 55 -1.5t67.5 -1t72.5 -1t70 -0.5h47.5h44t50 0.5t64.5 1.5q36 1 77.5 2.5t80 3.5t70 3.5t47.5 2.5q2 -11 2 -26.5v-30.5z" />
    <glyph glyph-name="G.inf" horiz-adv-x="1364"
d="M1161 256q0 -51 1 -88t1 -80q-97 -51 -206.5 -77.5t-231.5 -26.5q-140 0 -247.5 40t-180 112.5t-110 175.5t-37.5 229q0 120 41 223.5t118 180.5t188 121t251 44q64 0 115.5 -5.5t97.5 -15t88.5 -23.5t87.5 -32q-8 -25 -18 -55t-21 -53q-79 35 -169.5 57.5t-183.5 22.5
q-107 0 -194 -34.5t-148 -96.5t-94 -148t-33 -190q0 -114 35.5 -198t97.5 -139.5t148 -82.5t186 -27q43 0 87.5 5.5t85 14t74 19.5t54.5 23v108q0 32 -0.5 65.5t-1.5 65t-2 60t-2 49.5q14 3 30.5 4.5t29.5 1.5q38 0 65 -6q0 -7 -0.5 -33.5t-0.5 -57t-0.5 -57t-0.5 -33.5v-63
zM1169 1501q0 -18 -1 -31.5t-3 -27.5q-64 0 -120 1q-24 0 -49 0.5t-48 0.5h-42h-32q-20 0 -50 -0.5t-65 -1t-73 -1.5t-75 -2q-86 -3 -183 -5q-19 0 -49 -1t-62.5 -3t-62.5 -3.5t-49 -3.5q-2 10 -3 31t-1 35v33t2 28q57 -2 127.5 -4t136.5 -2q17 0 48.5 0.5t70.5 1t82.5 1.5
t85 2t78 2t61.5 1q36 1 77.5 2.5t79.5 4t69.5 4t47.5 2.5q2 -11 2 -29.5v-34.5z" />
    <glyph glyph-name="H.inf" horiz-adv-x="1501"
d="M1212 1120q22 0 38.5 -1t27.5 -3q-1 -44 -3.5 -97.5t-4 -111l-3 -115t-1.5 -108.5v-266v-90t0.5 -66t0.5 -54t1 -54t2.5 -66t3.5 -90q-16 -2 -32.5 -3t-35.5 -1q-17 0 -38 1t-33 3q5 112 5.5 240t2.5 274q-30 -1 -65 -2t-70.5 -2t-70.5 -2t-65 -2q-52 -2 -122.5 -5
t-143.5 -6t-141 -6.5t-115 -7.5v-198v-50.5v-70.5t0.5 -83.5t1.5 -88.5q-8 -2 -26 -3t-39 -1q-17 0 -34 1t-36 3q3 44 5 92.5t3 97.5t1.5 97t0.5 92v266q1 69 0 138.5t-2.5 133.5t-4 118.5t-5.5 94.5q17 0 32 1t50 1q20 0 35.5 -1t27.5 -3q-1 -42 -3 -80.5t-3.5 -82.5
t-2.5 -97t-1 -125v-127q29 -1 63.5 -1.5t68 -0.5h61h41.5q33 0 90 1.5t130.5 4.5t160 7t178.5 8q0 182 -3 305t-5 188q15 2 37 3t40 1zM1286 1499q0 -18 -1 -34.5t-3 -30.5q-64 0 -120 1q-24 0 -49 0.5t-48 0.5h-42h-32q-20 0 -55 -0.5t-78 -1t-91.5 -1.5t-96.5 -2
q-112 -3 -240 -6q-19 0 -49 -1t-62.5 -2.5t-62.5 -3t-49 -3.5q-1 5 -1.5 13.5t-1 18t-1 19.5t-0.5 17v32t2 27q62 -3 130 -4.5t134 -1.5q18 0 57.5 0.5t91.5 1t110 1.5t112.5 2t99.5 2t70 1q36 1 77.5 2.5t79.5 3.5t69.5 3.5t47.5 2.5q2 -11 2 -26v-31z" />
    <glyph glyph-name="I.inf" horiz-adv-x="588"
d="M350 528v-47.5v-84v-105t0.5 -111t1 -101.5t0.5 -77q-8 -2 -26 -3t-39 -1q-17 0 -34 1t-36 3q6 90 8 172t2 170v281q1 69 0 138.5t-2.5 133.5t-4 118.5t-5.5 94.5q17 0 32 1t50 1q20 0 35.5 -1t27.5 -3q-1 -42 -3 -80t-3.5 -80.5t-2.5 -94.5t-1 -124v-201zM375 1491
q0 -19 -1 -36t-3 -30q-9 0 -19 1q-8 1 -16.5 1h-13.5q-9 0 -21.5 -0.5t-24 -1.5t-21 -2t-13.5 -2q-10 -2 -23 -3.5t-22 -4.5q-1 3 -1.5 11t-1 18l-1 20t-0.5 17q0 14 1 35t3 30q8 0 27 -1t34 -1q12 0 32.5 1t37.5 3t26.5 3t16.5 3q2 -9 3 -27.5t1 -33.5z" />
    <glyph glyph-name="J.inf" horiz-adv-x="596"
d="M313 1126q16 0 34.5 -1t35.5 -3l-2.5 -85t-3 -104t-2 -100t-0.5 -71v-189q0 -119 -6 -203.5t-20.5 -146t-40 -106t-64.5 -84.5q-16 -15 -35 -31.5t-38 -31.5t-36.5 -28.5t-30.5 -23.5q-20 19 -38.5 40.5t-32.5 43.5q11 9 30 25.5t33 27.5q36 32 62 60t43.5 58.5t27.5 67
t15 85t6.5 112t1.5 148.5v180q0 9 -0.5 33.5t-2 57t-3 70.5t-3.5 74.5t-4.5 68.5t-5.5 52q14 2 35 3t45 1zM395 1503q0 -18 -1 -36.5t-3 -30.5q-9 0 -19 1q-8 1 -16.5 1h-13.5q-9 0 -21.5 -0.5t-24 -1.5t-21 -2t-13.5 -2q-9 -2 -22.5 -4t-22.5 -5q-1 3 -1.5 11.5t-1 19
t-1 20.5t-0.5 17q0 14 1 35t3 30q8 0 27 -1t35 -1q12 0 32 1.5t37 3.5t27 3t16 3q2 -10 3 -28t1 -34z" />
    <glyph glyph-name="K.inf" horiz-adv-x="1204"
d="M1171 94q-11 -26 -30.5 -53.5t-40.5 -48.5q-23 18 -40.5 31t-34.5 26t-36.5 27.5t-48.5 36.5q-63 48 -114 85.5t-100.5 73.5t-102 73t-119.5 83q-29 20 -53.5 35.5t-41.5 26.5q-20 12 -36 22h-23v-170q0 -18 0.5 -59t2 -90.5t3.5 -100.5t4 -90q-14 -2 -28 -3t-33 -1
t-38.5 1t-35.5 3q2 42 2.5 109.5t0.5 147.5t-0.5 167t-0.5 168v68v236t-8 232q13 2 34 3.5t40 1.5q20 0 38.5 -1.5t30.5 -3.5q-1 -13 -3.5 -37.5t-4 -58t-3 -73.5t-1.5 -84v-289h10l199 180q60 54 117 108.5t108.5 104t96 93t80.5 75.5q23 -14 46 -38t35 -46
q-37 -31 -84.5 -71.5t-113 -98t-152.5 -137t-203 -187.5q62 -46 128.5 -94t132 -94.5t128 -89.5t117.5 -78zM1118 1499q0 -18 -1 -34.5t-3 -30.5q-64 0 -120 1q-24 0 -49 0.5t-48 0.5h-42h-32q-20 0 -48 -0.5t-60.5 -1t-66.5 -1.5t-67 -2q-77 -3 -161 -6q-19 0 -49 -1
t-62.5 -2.5t-62.5 -3t-49 -3.5q-1 5 -1.5 13.5t-1 18t-1 19.5t-0.5 17v31t2 26q58 -2 128 -3t136 -1q26 0 75 1t104.5 2.5t110.5 2.5t93 2q36 1 77.5 2.5t79.5 3.5t69.5 3.5t47.5 2.5q2 -11 2 -26v-31z" />
    <glyph glyph-name="L.inf" horiz-adv-x="907"
d="M848 47q0 -23 -1 -38t-3 -32q-15 2 -55.5 5t-97.5 6.5t-126 6t-141 3.5q-34 1 -66 1.5t-59 1t-47.5 1t-30.5 0.5q2 51 3 95.5t1.5 86t1 81.5t0.5 83v332q0 86 -1 168q0 35 -0.5 72.5t-1 73.5t-1.5 69.5t-2 60.5q35 6 72 6q20 0 38.5 -1t26.5 -3q-1 -25 -2 -59t-2 -73
t-1.5 -80t-1 -79t-1 -71t-0.5 -57v-289v-107.5t1 -97.5q1 -51 1 -98q27 -2 57 -5q26 -2 57.5 -3.5t63.5 -2.5t65 -2t70.5 -2t81.5 -1.5t97 -0.5q2 -6 3 -20.5t1 -30.5zM842 1489q0 -19 -1 -32t-3 -27q-38 0 -75 1q-32 1 -66 1h-60t-65 -0.5t-75 -1.5q-42 -1 -87 -3
q-19 0 -49.5 -1t-62.5 -2.5t-62 -3t-50 -3.5q-2 10 -3 29t-1 33v34t2 29q59 -2 128.5 -3t136.5 -1h47.5h44t50 0.5t64.5 1.5q36 1 63.5 2.5t49 3.5t39 3.5t33.5 2.5q2 -11 2 -29.5v-33.5z" />
    <glyph glyph-name="M.inf" horiz-adv-x="1581"
d="M1386 459q33 -130 64 -239.5t57 -203.5q-24 -9 -58.5 -19t-68.5 -13q-5 21 -13.5 56.5t-19 78.5t-22 91t-22.5 94.5t-20.5 88t-16.5 72.5q-13 59 -24 101.5t-22 82t-23.5 84t-27.5 105.5q-11 -22 -29 -60.5t-37.5 -81.5t-37.5 -83t-29 -64q-32 -79 -61.5 -147.5
t-57.5 -130t-54 -118.5l-52 -114l-57 -19q-16 39 -31 75q-13 31 -26 63.5l-21 52.5q-34 84 -69.5 167.5t-71 164t-70 155.5t-66.5 142q-19 -79 -38.5 -159t-38 -157t-35 -149t-29.5 -137q-6 -27 -13 -61.5t-13.5 -69.5t-12 -68.5t-8.5 -58.5q-35 3 -72 8.5t-65 13.5
q4 13 14.5 52t24 92t28.5 113.5t29 116t25 99.5l16 64q12 46 22 84.5t20 76.5t20 78.5t21.5 88.5t25 107.5t30.5 135.5l51 23q23 -55 40.5 -97t35.5 -83.5t39.5 -90.5t52.5 -119q15 -33 32 -72t35 -80.5t36.5 -83t35.5 -80.5q40 -91 80 -183q60 137 104.5 234.5t76.5 174.5
q51 122 101.5 234t96.5 217l66 29q14 -88 34 -171t42 -180q17 -78 38 -163t39 -160zM1485 1495q0 -19 -1 -32t-3 -27q-64 0 -120 1q-24 0 -49 0.5t-48 0.5h-42h-32q-20 0 -68.5 -0.5t-114 -1t-142 -1.5t-153.5 -2q-180 -3 -397 -6q-19 0 -49 -1t-62.5 -2.5t-62.5 -3
t-49 -3.5q-1 5 -1.5 14.5t-1 20.5t-1 21.5t-0.5 17.5v29t2 24q28 -1 60 -2.5t66.5 -2t69.5 -1t68 -0.5q13 0 52.5 0.5t96.5 0.5t126 1t141 1.5t142.5 1t130 1.5t103 1.5t62.5 0.5q36 1 77.5 2.5t80 3.5t70 4t47.5 3q2 -11 2 -29.5v-34.5z" />
    <glyph glyph-name="N.inf" horiz-adv-x="1497"
d="M1329 360q0 -60 1 -120.5t3 -109.5q2 -57 4 -110l-39 -30q-10 12 -28 33.5t-42 48.5t-54 58.5t-64 62.5q-44 41 -101.5 95t-123 114t-136 123.5t-139.5 124.5t-134 116.5t-120 99.5q-7 -60 -14 -117q-3 -24 -6 -50t-6 -50.5t-6 -47t-5 -40.5q-4 -30 -9.5 -77.5
t-11.5 -105.5t-12.5 -121.5t-12 -125t-9.5 -116.5t-6 -95q-16 0 -35 1.5t-37 4t-34.5 6t-28.5 7.5q17 98 33.5 204t31.5 214t28 214.5t22 204.5q3 32 7 75t8 87t7 83t4 62l23 13q24 -21 43 -39t39 -37.5t44 -41t58 -50.5q48 -40 110 -95.5t130 -118t139.5 -129t139.5 -129
t129 -118t108 -96.5v424q0 62 -1.5 131.5t-3.5 135.5t-4 122.5t-4 91.5q13 2 28 4t34 2q6 0 16 -0.5t19 -1.5l22 -2q-1 -12 -1.5 -37t-1 -57.5t-1 -71.5t-0.5 -80v-543zM1329 1509q0 -18 -1 -34.5t-3 -30.5q-64 0 -120 1q-24 0 -49 0.5t-48 0.5h-42h-32q-20 0 -58.5 -0.5
t-87 -1t-104 -1.5t-110.5 -2q-128 -3 -279 -5q-19 0 -49 -1t-62.5 -2.5t-62.5 -3.5t-49 -4q-2 10 -3 32t-1 36v31t2 26q28 -1 60 -2.5t66.5 -2t69.5 -1t68 -0.5q17 0 63 0.5t106.5 1t128.5 1.5t131 2t114 2t76 1q36 1 77.5 2.5t79.5 4t69.5 4t47.5 2.5q2 -11 2 -25.5v-30.5z
" />
    <glyph glyph-name="O.inf" horiz-adv-x="1479"
d="M150 547q0 131 43.5 238t121.5 183t186 118t238 42q124 0 229.5 -43t182.5 -119.5t120.5 -181.5t43.5 -229q0 -122 -41 -226.5t-115 -181t-178.5 -120t-230.5 -43.5q-144 0 -255.5 42.5t-188 118t-116.5 178.5t-40 224zM1186 557q0 95 -33.5 179.5t-94 148.5
t-144.5 101.5t-185 37.5q-97 0 -180 -31t-144 -91t-95 -147.5t-34 -199.5q0 -117 36 -204.5t99 -146t148 -87.5t182 -29q106 0 189 34t140 96t86.5 148.5t29.5 190.5zM1325 1507q0 -18 -1 -37.5t-3 -33.5q-64 0 -120 1q-24 0 -49 0.5t-48 0.5h-42h-32q-20 0 -58.5 -0.5
t-87 -1t-104 -1.5t-110.5 -2q-128 -3 -279 -6q-19 0 -49 -1t-62.5 -2.5t-62.5 -3t-49 -3.5q-1 5 -1.5 14.5t-1 20.5t-1 21.5t-0.5 17.5v29t2 24q28 -1 60 -2.5t66.5 -2t69.5 -1t68 -0.5q17 0 63 0.5t106.5 1t128.5 1.5t131 2t114 2t76 1q36 1 77.5 2.5t79.5 3.5t69.5 4
t47.5 3q2 -11 2 -23.5v-28.5z" />
    <glyph glyph-name="P.inf" horiz-adv-x="1022"
d="M928 772q0 -92 -42 -163.5t-118 -120.5t-182.5 -75.5t-235.5 -29.5v-78q0 -40 0.5 -83.5t1 -85t2 -77t2.5 -61.5q-12 -2 -27.5 -3t-33.5 -1q-16 0 -39 1.5t-33 4.5q1 32 3 81q2 42 2.5 107.5t0.5 159.5v496v170t-2 112q12 2 27.5 2.5t32 0.5t33 -0.5t30.5 -0.5
q119 0 224.5 -21.5t184 -65.5t124 -111t45.5 -158zM795 764q0 62 -29 110.5t-84.5 83t-137.5 52.5t-188 18q-1 -20 -2 -49.5t-2 -65t-1.5 -75t-0.5 -78.5v-266h60q75 0 144.5 16.5t123 49.5t85.5 84t32 120zM920 1507q0 -18 -1.5 -37.5t-3.5 -33.5q-38 0 -75 1
q-32 1 -65.5 1h-59.5h-33t-44 -0.5t-50 -1t-52 -0.5q-60 -1 -126 -2q-19 0 -49.5 -1t-62.5 -3t-62 -3.5t-50 -3.5q-1 5 -1.5 14.5t-1 20.5t-1 21.5t-0.5 17.5v28t2 23q59 -2 128.5 -3t136.5 -1h59.5h71t77 0.5t76.5 1.5q36 1 63 2.5t49 3.5t39.5 4t33.5 3q2 -11 2 -23.5
v-28.5z" />
    <glyph glyph-name="Q.inf" horiz-adv-x="1446"
d="M150 555q0 131 43.5 238t122.5 183.5t189 118.5t243 42q69 0 137.5 -15.5t131.5 -47t117.5 -78.5t94.5 -110t63 -141.5t23 -173.5q0 -94 -21 -174t-60 -144t-93.5 -111t-122.5 -76q8 0 36.5 -2t64 -4.5l71 -5t57.5 -3.5q62 -3 115 -7.5t96 -4.5q0 -22 -3.5 -54t-8.5 -63
q-53 9 -120 17.5t-155 19.5q-99 12 -196 22.5t-193 10.5h-39q-145 0 -256 43t-186 119t-113 178.5t-38 222.5zM1186 565q0 115 -38.5 202.5t-101.5 146t-144 88.5t-167 30q-95 0 -178.5 -31t-146 -91t-98.5 -147.5t-36 -199.5q0 -113 35 -200t97 -146.5t147.5 -90
t185.5 -30.5q116 0 199.5 37t138.5 101t81 149t26 182zM1325 1507q0 -18 -1 -37.5t-3 -33.5q-64 0 -120 1q-24 0 -49 0.5t-48 0.5h-42h-32q-20 0 -58.5 -0.5t-87 -1t-104 -1.5t-110.5 -2q-128 -3 -279 -6q-19 0 -49 -1t-62.5 -2.5t-62.5 -3t-49 -3.5q-1 5 -1.5 14.5t-1 20.5
t-1 21.5t-0.5 17.5v29t2 24q28 -1 60 -2.5t66.5 -2t69.5 -1t68 -0.5q17 0 63 0.5t106.5 1t128.5 1.5t131 2t114 2t76 1q36 1 77.5 2.5t79.5 3.5t69.5 4t47.5 3q2 -11 2 -23.5v-28.5z" />
    <glyph glyph-name="R.inf" horiz-adv-x="1110"
d="M741 393q34 -36 73 -77.5t82.5 -85t90.5 -87t96 -84.5q-11 -12 -19 -21t-24 -22q-17 -15 -34.5 -27.5t-26.5 -15.5q-30 33 -67.5 74t-78 85t-82 87.5t-78.5 81.5t-67.5 69t-50.5 48q-21 -4 -48 -6t-55 -3.5t-54.5 -2t-47.5 -0.5v-140q0 -68 2.5 -137t5.5 -131
q-11 -3 -29 -4.5t-32 -1.5q-22 0 -45 1t-29 3q1 64 2 122q0 25 0.5 50.5t1.5 49.5t1.5 45t0.5 36v489v81.5v91.5t-0.5 88.5t-1.5 72.5q41 3 87.5 4.5t84.5 1.5q252 0 384 -84t132 -249q0 -69 -21 -123t-55 -95t-77 -69t-86 -43zM791 780q0 64 -26.5 111t-75.5 78t-118 46
t-153 15q-11 0 -29.5 -1t-34.5 -3l-2 -88q-1 -38 -1.5 -79t-0.5 -73v-278h56q189 0 287 71t98 201zM1016 1509q0 -18 -1 -37.5t-3 -33.5q-38 0 -75 1q-32 1 -66 1h-60h-37t-55 -0.5t-65.5 -1t-69.5 -0.5q-81 -1 -174 -2q-19 0 -49.5 -1t-62.5 -2.5t-62 -3.5t-50 -4
q-1 5 -1.5 14.5t-1 20.5t-1 21.5t-0.5 17.5v28t2 23q59 -2 128.5 -3t136.5 -1h45h62h71.5t74 0.5t69.5 1t58 0.5q36 1 63.5 2.5t49 4t39 4t33.5 2.5q2 -11 2 -23.5v-28.5z" />
    <glyph glyph-name="S.inf" horiz-adv-x="893"
d="M743 305q0 -64 -18.5 -122t-61.5 -102t-112.5 -70.5t-171.5 -26.5q-68 0 -133 14.5t-115 36.5q3 28 10.5 59.5t18.5 52.5q23 -12 50 -22.5t56 -19t58 -13t55 -4.5q65 0 111 16.5t75 44.5t42.5 65t13.5 77q0 47 -18 82t-48.5 63.5t-70.5 52t-83 46.5q-42 24 -84.5 53.5
t-77 66t-56 83t-21.5 104.5q0 70 25.5 125t73 93.5t114 58.5t147.5 20q25 0 54 -2.5t58.5 -6.5t56.5 -9.5t48 -10.5q-2 -26 -7 -58.5t-11 -52.5q-18 6 -41.5 12t-50 11t-54 8.5t-53.5 3.5q-115 0 -177 -48t-62 -136q0 -42 18 -75t47.5 -60t67.5 -50.5t78 -46.5
q44 -24 88.5 -53t80 -66.5t58 -84.5t22.5 -109zM760 1503q0 -18 -1 -37.5t-3 -33.5q-38 0 -75 1q-32 1 -66 1h-60t-59.5 -0.5t-63.5 -1.5l-70 -2q-19 0 -49 -1t-62.5 -3t-62.5 -3.5t-49 -3.5q-1 5 -1.5 14.5t-1 20.5t-1 21.5t-0.5 17.5v28t2 23q59 -2 128.5 -3t135.5 -1h42
h32.5t38.5 0.5t59 1.5q36 1 63.5 2.5t49 3.5t39 3.5t33.5 2.5q2 -11 2 -23v-28z" />
    <glyph glyph-name="T.inf" horiz-adv-x="1055"
d="M1016 1090q0 -13 -2.5 -32.5t-5.5 -33.5q-31 2 -73 4t-108 2q-28 0 -68.5 -0.5t-78.5 -2.5q-44 -2 -90 -3q0 -61 -1 -122q-1 -52 -1 -110v-106v-336q0 -64 1 -114t2.5 -92t4 -77t4.5 -69q-12 -2 -32 -3t-36 -1q-23 0 -41 1t-32 3q1 37 2 66t1.5 54.5l1 51t1 56t0.5 69
v90.5v283q0 40 -0.5 74.5t-1 74t-1 88.5t-1.5 117q-74 -5 -149 -10q-64 -4 -136.5 -10.5t-132.5 -14.5q-2 8 -3 24.5t-1 35.5q0 14 1 28.5t3 28.5q62 5 120 8t118 5t124 4t138 3q3 0 26 1t55.5 2t70 2.5t70 2.5t55 2t24.5 1q33 1 52 2t30 1.5t17.5 1t14 1t20 1t34.5 1.5
q2 -8 3 -24.5t1 -28.5zM963 1507q0 -18 -1.5 -37.5t-3.5 -33.5q-64 0 -120 1q-24 0 -49 0.5t-47.5 0.5h-41.5h-32q-41 0 -95 -1.5t-103 -3.5q-57 -3 -116 -6q-19 0 -52 -1t-69 -2.5t-69.5 -3t-52.5 -3.5q-1 5 -1.5 14.5t-1.5 20.5t-1.5 21.5t-0.5 17.5q0 14 0.5 29t2.5 24
q27 -1 62.5 -2.5t74 -2t76.5 -1t71 -0.5q26 0 61 1t74 2.5t80 2.5t78 2q36 1 77.5 2.5t80 3.5t70 4t47.5 3z" />
    <glyph glyph-name="U.inf" horiz-adv-x="1528"
d="M1245 1122q16 0 36 -0.5t36 -3.5q-1 -24 -1.5 -43.5t-1 -40t-1 -43.5t-2.5 -53q-1 -34 -2 -73t-2.5 -80.5t-3.5 -82t-5 -77.5q-9 -168 -44.5 -289t-102 -199t-167 -114.5t-239.5 -36.5q-236 0 -371 146t-169 427q-6 61 -10 114.5t-7 103t-6 97.5t-8 97q-1 16 -2 35.5
t-2.5 39.5t-3 38.5t-2.5 33.5q18 3 34 3.5t38 0.5q23 0 42 -1t33 -3q-1 -4 -1.5 -20t-0.5 -40v-54.5v-63.5q0 -25 1 -58.5t2.5 -71t4 -76.5t5.5 -75q7 -78 18.5 -150.5t32 -135t52 -113.5t78 -87.5t110 -56.5t147.5 -20q95 0 163.5 23t115.5 62.5t76 93t45 115t21 127.5
t5 130q0 54 -1.5 130t-4.5 157q-2 57 -5 102.5t-10 79.5q20 3 39.5 4.5t40.5 1.5zM1288 1503q0 -18 -1 -37.5t-3 -33.5q-64 0 -120 1q-24 0 -49 0.5t-48 0.5h-42h-32q-20 0 -55 -0.5t-78.5 -1t-92 -1.5t-96.5 -2q-112 -3 -241 -6q-19 0 -49 -1t-62.5 -2.5t-62.5 -3t-49 -3.5
q-1 5 -1.5 14t-1 20l-1 22t-0.5 18v30t2 25q28 -1 60 -2.5t66.5 -2t69.5 -1t68 -0.5q18 0 58 0.5t91.5 1t110 1.5t113 2t100 2t70.5 1q36 1 77.5 2.5t79.5 3.5t69.5 3.5t47.5 2.5q2 -11 2 -24v-29z" />
    <glyph glyph-name="V.inf" horiz-adv-x="1208"
d="M1057 1118q32 -8 61 -20.5t53 -26.5q-13 -24 -32.5 -61t-40.5 -77.5t-41.5 -80.5t-36.5 -70q-14 -27 -33.5 -66.5t-41.5 -87t-47 -101t-50.5 -107.5t-50.5 -107t-49 -100q-29 -60 -54.5 -116t-48.5 -105l-59 -25q-6 15 -11.5 27t-11 25t-12 28.5t-16.5 36.5l-14.5 29
l-18 36t-18.5 37.5t-15 32.5q-37 77 -73 149l-71.5 143t-71.5 142t-75 146q-13 25 -30 57t-35.5 67t-38 70.5t-37.5 67.5q29 17 58.5 29.5t66.5 21.5q18 -36 28 -56.5t16 -32t8.5 -17t5 -10.5l6.5 -13l12 -24t21.5 -43.5t35.5 -71.5q28 -56 63 -128t69.5 -143.5t65 -134.5
t48.5 -102q3 -7 13.5 -29t22.5 -46.5t22 -44.5t11 -23q7 13 21 42t33.5 69t42.5 88t48 99.5t50.5 104.5t48.5 102q26 53 48 98t41.5 85t37.5 76.5t35 72.5q9 22 19.5 44.5t21.5 43.5zM1102 1499q0 -18 -1 -38t-3 -34q-64 1 -120 2q-24 0 -49 0.5t-48 0.5h-42h-32
q-20 0 -50.5 -0.5t-66.5 -1t-75 -1.5t-77 -2q-89 -3 -188 -6q-19 0 -49 -1t-62.5 -2.5t-62.5 -3t-49 -3.5q-1 5 -1.5 14t-1 20l-1 22t-0.5 18v29t2 24q28 -1 60 -2.5t66.5 -2t69.5 -1t68 -0.5q18 0 50 0.5t72 1t84.5 1.5t87.5 2t80 2t62 1q36 1 77.5 2.5t80 3.5t70 3.5
t47.5 2.5q2 -11 2 -23v-28z" />
    <glyph glyph-name="W.inf" horiz-adv-x="1821"
d="M1659 1137q38 -10 71 -22t56 -23q-13 -26 -31.5 -70t-38.5 -90q-33 -79 -61.5 -146.5t-56.5 -134t-57 -137.5t-64 -158q-19 -48 -37 -91.5t-35 -86t-34.5 -85.5t-35.5 -89l-63 -29q-16 37 -38 89.5t-45 108.5t-46.5 110t-42.5 94q-21 48 -45 103t-50.5 113.5t-54 119
t-55.5 118.5q-31 -72 -70.5 -171.5t-87.5 -210.5q-35 -81 -60.5 -140.5t-45.5 -108.5t-38.5 -93t-39.5 -93l-66 -34q-10 28 -24 64.5t-29.5 77t-32.5 83t-34 84.5q-16 41 -31 79t-30 74.5t-30.5 74t-31.5 77.5q-44 105 -95 233t-114 269q29 12 64.5 22.5t72.5 20.5
q5 -19 18.5 -55.5t31.5 -83t39 -99t42 -104.5q16 -41 29 -72t25 -59.5t24 -58.5t27 -68q6 -15 16.5 -40.5t22.5 -55t25 -61t24 -58t19.5 -45.5t10.5 -25q32 71 62.5 142t58.5 137t52 124.5t42 104.5q26 62 45 107.5t34 80.5t27 62.5t23 54.5q12 8 23 14q9 5 16.5 9.5
t8.5 3.5v2q5 -12 10.5 -25.5t14 -34t21.5 -50.5t33 -75q14 -31 30 -67.5t33 -74t34 -75.5t32 -73q15 -34 39 -88t49.5 -111t49 -109t36.5 -84q10 25 24.5 61.5t29.5 75.5t29.5 75.5t25.5 60.5q25 61 47.5 117t45 113.5t45.5 119t50 131.5q9 25 17 45.5t15.5 38.5t14.5 35
t15 35zM1735 1507q0 -18 -1 -37.5t-3 -33.5q-66 0 -125 1q-51 1 -100.5 1h-75.5q-20 0 -77 -0.5t-136.5 -1t-174 -1.5t-189.5 -2q-224 -3 -495 -6q-19 0 -52.5 -1t-70 -2.5t-70 -3t-52.5 -3.5q-1 5 -1.5 14.5t-1 20.5t-1 21.5t-0.5 17.5v29t2 24q27 -1 63 -2.5t74.5 -2
l77 -1t71.5 -0.5q13 0 61.5 0.5t119.5 0.5t159 1t179.5 1.5t180.5 1t163 1.5t126.5 1.5t71.5 0.5q36 1 77.5 2.5t80 3.5t70 4t47.5 3q2 -11 2 -23.5v-28.5z" />
    <glyph glyph-name="X.inf" horiz-adv-x="1223"
d="M1153 57q-19 -18 -46 -38t-48 -35q-51 60 -110 127t-122 139q-23 25 -52 60.5t-58.5 72t-56.5 68t-46 49.5q-23 -29 -49 -62q-23 -29 -51 -65t-59 -74q-37 -46 -72.5 -90.5t-67 -84t-58 -73.5t-46.5 -59q-23 11 -49.5 29.5t-46.5 35.5q29 34 67.5 82.5t93.5 116.5
q74 86 139.5 166.5t129.5 165.5q-14 16 -43.5 49t-67 76.5t-81 92t-85 96t-78 88.5t-61.5 69q20 21 43.5 41.5t46.5 34.5q34 -42 82.5 -102t108.5 -134q78 -96 132.5 -157.5t71.5 -79.5q14 18 33.5 42t41 51.5t44 56.5t43.5 56q48 62 94 125t84 117q25 -11 52 -30.5
t47 -35.5q-18 -21 -44.5 -52.5t-56 -67.5t-60.5 -74.5t-58 -73.5q-7 -9 -17.5 -22t-22.5 -28t-25 -31.5t-25 -32.5q-29 -37 -60 -78q13 -15 28.5 -33.5t35 -41.5t45 -52t59.5 -66zM1106 1505q0 -18 -1 -37.5t-3 -33.5q-64 0 -120 1q-24 0 -49 0.5t-48 0.5h-42h-32
q-20 0 -50.5 -0.5t-66.5 -1t-75 -1.5t-77 -2q-89 -3 -188 -6q-19 0 -49 -1t-62.5 -2.5t-62.5 -3t-49 -3.5q-1 5 -1.5 14t-1 20l-1 22t-0.5 18v29t2 24q28 -1 60 -2.5t66.5 -2t69.5 -1t68 -0.5q18 0 50 0.5t72 1t84.5 1.5t87.5 2t80 2t62 1q36 1 77.5 2.5t80 3.5t70 3.5
t47.5 2.5q2 -11 2 -23v-28z" />
    <glyph glyph-name="Y.inf" horiz-adv-x="1061"
d="M958 1137q22 -19 42.5 -44t35.5 -53q-23 -17 -56.5 -45.5t-84.5 -81.5q-62 -64 -117 -129.5t-96 -136.5t-64.5 -149.5t-23.5 -169.5v-117q0 -54 0.5 -110.5t5.5 -102.5q-9 -3 -26.5 -4.5t-38.5 -1.5q-38 0 -62 6q1 35 3 75q2 35 2.5 79.5t0.5 93.5v96q0 78 -24 154.5
t-62.5 146.5t-85.5 131t-92 109q-43 42 -93.5 83t-96.5 70q12 26 32.5 54.5t38.5 50.5q44 -31 88 -69t90 -89q107 -115 174 -219t93 -195h4q11 48 43 107t76.5 122t96.5 125.5t103 118.5q23 26 47 49.5t47 45.5zM950 1501q0 -18 -1 -37.5t-3 -33.5q-64 0 -120 1
q-24 0 -49 0.5t-48 0.5h-42h-32q-41 0 -92.5 -1.5t-98.5 -3.5l-110 -6q-19 0 -54 -1t-73 -2.5t-72.5 -3t-54.5 -3.5q-1 5 -1.5 14t-1 20l-1 22t-0.5 18v31t2 26q28 -1 65 -2.5t77 -2l80 -1t73 -0.5q26 0 59 1t70 2.5t75.5 2.5t76.5 2q36 1 77.5 2.5t79.5 3.5t69.5 3.5
t47.5 2.5q2 -11 2 -25v-30z" />
    <glyph glyph-name="Z.inf" horiz-adv-x="1257"
d="M829 109q41 1 91 2.5t98.5 4t91.5 5t70 4.5q0 -34 -7.5 -71.5t-9.5 -63.5q-10 1 -32 2t-51 2t-62.5 1.5t-65.5 0.5q-198 0 -398 -5t-390 -11l-12 22q41 62 74 114q14 22 28.5 44.5t26.5 41.5t21 33.5t13 20.5q51 83 87 143.5t63 107t48 84t42 73.5q33 56 66.5 115
t61.5 109q33 58 62 113q-64 1 -119 2q-47 1 -89 1h-56q-43 0 -90.5 -1t-94 -2.5t-89.5 -4t-78 -5.5q0 31 1.5 63t6.5 66q9 0 29.5 -0.5t47.5 -1t59.5 -1t66.5 -1.5q80 -2 168 -3t178 -1q42 0 75.5 0.5t61 2t51 3t46.5 2.5l16 -22q-17 -25 -32.5 -50t-32.5 -53.5t-38 -64
t-49 -82.5q-7 -11 -26 -45.5t-44.5 -80t-54 -97t-54 -97.5t-44.5 -80.5t-26 -46.5q-38 -68 -70 -123t-55 -95q-26 -47 -48 -83q23 0 74 0.5t116 2t138 3t139 3.5zM1126 1503q0 -18 -1 -37.5t-3 -33.5q-64 0 -120 1q-24 0 -49 0.5t-48 0.5h-42h-32q-20 0 -50 -0.5t-65 -1
t-73 -1.5t-75 -2q-86 -3 -183 -6q-19 0 -54 -1t-73 -2.5t-73 -3t-54 -3.5q-1 5 -1.5 14t-1 20l-1 22t-0.5 18v29t2 24q28 -1 65 -2.5t77 -2l80 -1t73 -0.5q17 0 48.5 0.5t70.5 1t82.5 1.5t85 2t78 2t61.5 1q36 1 77.5 2.5t79.5 3.5t69.5 3.5t47.5 2.5q2 -11 2 -23v-28z" />
    <glyph glyph-name="A.psc" horiz-adv-x="1118"
d="M553 305h-69.5t-72 -0.5t-67 -1t-55.5 -2.5q-40 -77 -79.5 -156.5t-74.5 -162.5q-28 8 -57 19t-58 28q33 59 75 142t88.5 178.5t96 199t97 204t90 192.5t76.5 165l41 8q30 -64 72.5 -154.5t90.5 -193t99 -210t98 -206t87 -180.5t67 -133q-25 -14 -57.5 -28.5t-57.5 -22.5
q-29 69 -65.5 148.5t-81.5 164.5q-30 1 -56 1.5t-57 0.5h-71h-99zM557 414q33 0 68 0.5t66 1.5t55.5 1.5t37.5 0.5q-49 106 -107.5 229t-115.5 256q-28 -65 -53.5 -123t-52 -115t-54 -116.5t-59.5 -128.5q23 -2 45.5 -3.5t47.5 -2t55 -0.5h67z" />
    <glyph glyph-name="B.psc" horiz-adv-x="1126"
d="M987 328q0 -86 -50 -150.5t-138 -107t-209 -63.5t-262 -21h-23h-29.5t-29.5 0.5t-23 1.5q2 28 2.5 69.5t1 89.5t0.5 98.5v96.5v332v105.5t-0.5 121t-1 118.5t-2.5 97q29 2 64.5 2h66.5q125 0 226.5 -20t174.5 -57.5t112.5 -90.5t39.5 -119q0 -84 -54.5 -150t-174.5 -103
v-5q71 -9 128 -30.5t97 -53.5t62 -72.5t22 -88.5zM856 326q0 39 -19 72.5t-62.5 58.5t-114 39t-173.5 14h-139q0 -128 0.5 -237.5t3.5 -180.5q103 0 194.5 14t160.5 42.5t109 72.5t40 105zM782 815q0 57 -35 96t-95 63.5t-138.5 35t-165.5 10.5v-416h68q84 0 152 14.5
t115.5 42t73 66.5t25.5 88z" />
    <glyph glyph-name="C.psc" horiz-adv-x="1305"
d="M1110 195q14 -23 25 -48.5t20 -50.5q-80 -49 -186 -79.5t-236 -30.5q-136 0 -244 39.5t-182 112.5t-113.5 177t-39.5 234q0 131 41 237.5t116.5 182.5t181.5 117.5t236 41.5q64 0 124 -7.5t112.5 -20.5t96.5 -29t75 -33q-8 -28 -17 -54.5t-18 -51.5q-31 17 -72 33.5
t-89 29.5t-101 21t-107 8q-104 0 -188 -33t-142.5 -94.5t-90 -150.5t-31.5 -201q0 -117 34 -202.5t94.5 -141t144 -82.5t183.5 -27q58 0 107.5 5.5t94.5 18t87 32t84 47.5z" />
    <glyph glyph-name="D.psc" horiz-adv-x="1415"
d="M1257 586q0 -151 -50.5 -263.5t-137 -187.5t-201.5 -112t-245 -37q-119 0 -218 6t-180 14q0 14 0.5 39.5t0.5 57t1 65.5t1 65.5t0.5 56.5t0.5 38v489q0 28 -0.5 67t-1 80t-1 81t-1.5 69q39 3 84 5.5t93.5 4.5t99 3t98.5 1q86 0 168 -13t155 -40.5t134.5 -70.5
t105.5 -103.5t69 -138.5t25 -176zM1128 584q0 117 -40 200.5t-111.5 137t-170.5 79t-218 25.5q-24 0 -56 -1.5t-64.5 -4.5t-61.5 -6.5t-48 -7.5q-3 -37 -4.5 -87.5t-2.5 -101.5t-1 -96.5v-73.5q0 -224 2 -356.5t6 -186.5q51 -8 119 -11t137 -3q112 0 206.5 31t162.5 92.5
t106.5 154t38.5 216.5z" />
    <glyph glyph-name="E.psc" horiz-adv-x="1061"
d="M352 0q-15 0 -34 0.5t-38 0.5t-34.5 0.5t-22.5 0.5q2 49 2.5 81.5t1 63t0.5 67v93.5v324q0 36 -0.5 66.5t-1 63t-1 70t-1.5 87.5q0 15 -0.5 40t-1 52t-1 52t-1.5 40q50 0 99 1t114 1q85 0 161.5 3.5t139.5 6.5q18 1 37.5 1.5t37.5 1t31.5 1t18.5 0.5q5 -20 7.5 -51
t2.5 -57h-41h-44t-55.5 -0.5t-74.5 -1.5q-15 0 -35.5 -1t-44 -2t-49 -2t-49.5 -2q-57 -3 -119 -6q-1 -56 -3 -108q-2 -45 -2.5 -92t-0.5 -78v-90h275q51 0 91 1t73 2.5t62 3.5t58 3q2 -12 3 -28t1 -42q0 -7 -0.5 -16t-1.5 -17l-2 -20q-14 0 -33 1t-36 1q-51 2 -121 4t-146 2
q-33 0 -71.5 -0.5t-72.5 -2.5q-40 -2 -79 -3v-207q0 -36 0.5 -70.5t2.5 -62.5q2 -33 3 -61q53 -7 111.5 -9.5t114.5 -5.5l86 -4q39 -1 66.5 -2t49.5 -1.5t41.5 -0.5h42.5q0 -26 -2.5 -57t-7.5 -60q-6 0 -34 1.5t-66 5.5q-24 1 -42.5 2.5t-36.5 3t-36.5 2.5t-42.5 2
q-51 2 -115.5 4t-132.5 4z" />
    <glyph glyph-name="F.psc" horiz-adv-x="1004"
d="M223 -4q2 43 2.5 89t1 88.5t0.5 79v60.5v283q0 53 -1 108q-1 47 -1.5 102.5t-1.5 104.5q0 15 -0.5 42.5t-1.5 57t-2 56t-2 41.5q17 0 40 0.5t49 0.5t53 0.5t51 0.5q95 0 173 3.5t160 6.5q9 0 21.5 0.5t25.5 1.5t24.5 1.5t16.5 0.5q2 -7 3.5 -20.5t3 -29t2 -31t0.5 -27.5
h-116.5t-162.5 -2q-29 -1 -64.5 -2.5t-67.5 -3.5q-37 -2 -75 -4q-1 -83 -3 -156q-1 -31 -1.5 -63.5t-1 -61.5t-0.5 -53.5v-40.5v-78h221q17 0 48.5 0.5t69.5 2t77.5 3.5t71.5 4q1 -13 1.5 -20.5t0.5 -14v-13.5v-19q0 -13 -1 -28t-3 -28q-22 2 -58.5 3.5t-80 2.5t-89 1.5
t-84.5 0.5q-32 0 -63 -1t-56 -3q-29 -2 -55 -4v-211q0 -57 2 -113t4 -118q-6 -2 -19.5 -3t-29.5 -1q-17 0 -32 0.5t-26 1.5q-13 1 -24 2z" />
    <glyph glyph-name="G.psc" horiz-adv-x="1372"
d="M1169 256q0 -51 1 -88t1 -80q-97 -51 -206.5 -77.5t-231.5 -26.5q-140 0 -247.5 40t-180 112.5t-110 175.5t-37.5 229q0 120 41 223.5t118 180.5t188 121t251 44q64 0 115.5 -5.5t97.5 -15t88.5 -23.5t87.5 -32q-8 -25 -18 -55t-21 -53q-79 35 -169 57.5t-183 22.5
q-108 0 -194.5 -34.5t-147.5 -96.5t-94 -148t-33 -190q0 -114 35 -198t97.5 -139.5t148 -82.5t186.5 -27q43 0 87 5.5t84.5 14t74 19.5t55.5 23v108q0 32 -0.5 65.5t-1.5 65t-2 60t-2 49.5q14 3 30.5 4.5t28.5 1.5q38 0 65 -6q0 -7 -0.5 -33.5t-0.5 -57t-0.5 -57t-0.5 -33.5
v-63z" />
    <glyph glyph-name="H.psc" horiz-adv-x="1501"
d="M1212 1120q22 0 38.5 -1t27.5 -3q-1 -44 -3.5 -97.5t-4 -111l-3 -115t-1.5 -108.5v-266v-90t0.5 -66t0.5 -54t1 -54t2.5 -66t3.5 -90q-16 -2 -32.5 -3t-35.5 -1q-17 0 -38 1t-33 3q5 112 5.5 240t2.5 274q-30 -1 -65 -2t-70.5 -2t-70.5 -2t-65 -2q-52 -2 -122.5 -5
t-143.5 -6t-141 -6.5t-115 -7.5v-198v-50.5v-70.5t0.5 -83.5t1.5 -88.5q-8 -2 -26 -3t-39 -1q-17 0 -34 1t-36 3q3 44 5 92.5t3 97.5t1.5 97t0.5 92v266q1 69 0 138.5t-2.5 133.5t-4 118.5t-5.5 94.5q17 0 32 1t50 1q20 0 35.5 -1t27.5 -3q-1 -42 -3 -80.5t-3.5 -82.5
t-2.5 -97t-1 -125v-127q29 -1 63.5 -1.5t68 -0.5h61h41.5q33 0 90 1.5t130.5 4.5t160 7t178.5 8q0 182 -3 305t-5 188q15 2 37 3t40 1z" />
    <glyph glyph-name="I.psc" horiz-adv-x="588"
d="M350 528v-47.5v-84v-105t0.5 -111t1 -101.5t0.5 -77q-8 -2 -26 -3t-39 -1q-17 0 -34 1t-36 3q6 90 8 172t2 170v281q1 69 0 138.5t-2.5 133.5t-4 118.5t-5.5 94.5q17 0 32 1t50 1q20 0 35.5 -1t27.5 -3q-1 -42 -3 -80t-3.5 -80.5t-2.5 -94.5t-1 -124v-201z" />
    <glyph glyph-name="J.psc" horiz-adv-x="596"
d="M313 1126q16 0 34.5 -1t35.5 -3l-2.5 -85t-3 -104t-2 -100t-0.5 -71v-189q0 -119 -6 -203.5t-20.5 -146t-40 -106t-64.5 -84.5q-16 -15 -35 -31.5t-38 -31.5t-36.5 -28.5t-30.5 -23.5q-20 19 -38.5 40.5t-32.5 43.5q11 9 30 25.5t33 27.5q36 32 62 60t43.5 58.5t27.5 67
t15 85t6.5 112t1.5 148.5v180q0 9 -0.5 33.5t-2 57t-3 70.5t-3.5 74.5t-4.5 68.5t-5.5 52q14 2 35 3t45 1z" />
    <glyph glyph-name="K.psc" horiz-adv-x="1204"
d="M293 1135q20 0 38.5 -1.5t30.5 -3.5q-1 -13 -3.5 -37.5t-4 -58t-3 -73.5t-1.5 -84v-289h10l199 180q60 54 117 108.5t108.5 104t96 93t80.5 75.5q23 -14 46 -38t35 -46q-37 -31 -84.5 -71.5t-113 -98t-152.5 -137t-203 -187.5q62 -46 129 -93.5t133 -93.5t128 -89
t116 -80l176 -121q-11 -26 -32.5 -57.5t-42.5 -52.5q-23 18 -40.5 31t-34.5 26t-36.5 27.5t-48.5 35.5q-64 48 -116.5 87t-102.5 76.5t-103 76t-120 84.5q-29 20 -53.5 35.5t-41.5 26.5q-20 12 -37 22h-12v-170q0 -18 0.5 -59t2 -90.5t3.5 -100.5t4 -90q-14 -2 -28 -3
t-33 -1t-38.5 1t-35.5 3q2 42 2.5 109.5t0.5 147.5t-0.5 167t-0.5 168v68v236t-8 232q13 2 34 3.5t40 1.5z" />
    <glyph glyph-name="L.psc" horiz-adv-x="907"
d="M848 47q0 -23 -1 -38t-3 -32q-15 2 -55.5 5t-97.5 6.5t-126 6t-141 3.5q-34 1 -66 1.5t-59 1t-47.5 1t-30.5 0.5q2 51 3 95.5t1.5 86t1 81.5t0.5 83v332q0 86 -1 168q0 35 -0.5 72.5t-1 73.5t-1.5 69.5t-2 60.5q35 6 72 6q20 0 38.5 -1t26.5 -3q-1 -25 -2 -59t-2 -73
t-1.5 -80t-1 -79t-1 -71t-0.5 -57v-289v-107.5t1 -97.5q1 -51 1 -98q27 -2 57 -5q26 -2 57.5 -3.5t63.5 -2.5t65 -2t70.5 -2t81.5 -1.5t97 -0.5q2 -6 3 -20.5t1 -30.5z" />
    <glyph glyph-name="M.psc" horiz-adv-x="1581"
d="M1386 459q33 -130 64 -239.5t57 -203.5q-24 -9 -58.5 -19t-68.5 -13q-5 21 -13.5 56.5t-19 78.5t-22 91t-22.5 94.5t-20.5 88t-16.5 72.5q-13 59 -24 101.5t-22 82t-23.5 84t-27.5 105.5q-11 -22 -29 -60.5t-37.5 -81.5t-37.5 -83t-29 -64q-32 -79 -61.5 -147.5
t-57.5 -130t-54 -118.5l-52 -114l-57 -19q-16 39 -31 75q-13 31 -26 63.5l-21 52.5q-34 84 -69.5 167.5t-71 164t-70 155.5t-66.5 142q-19 -79 -38.5 -159t-38 -157t-35 -149t-29.5 -137q-6 -27 -13 -61.5t-13.5 -69.5t-12 -68.5t-8.5 -58.5q-35 3 -72 8.5t-65 13.5
q4 13 14.5 52t24 92t28.5 113.5t29 116t25 99.5l16 64q12 46 22 84.5t20 76.5t20 78.5t21.5 88.5t25 107.5t30.5 135.5l51 23q23 -55 40.5 -97t35.5 -83.5t39.5 -90.5t52.5 -119q15 -33 32 -72t35 -80.5t36.5 -83t35.5 -80.5q40 -91 80 -183q60 137 104.5 234.5t76.5 174.5
q51 122 101.5 234t96.5 217l66 29q14 -88 34 -171t42 -180q17 -78 38 -163t39 -160z" />
    <glyph glyph-name="N.psc" horiz-adv-x="1579"
d="M1343 360q0 -60 1.5 -120.5t3.5 -109.5q2 -57 4 -110l-39 -30q-10 12 -28 33.5t-42.5 48.5t-54.5 58.5t-64 62.5q-43 41 -100 94t-121.5 112.5t-133.5 122t-137 122.5t-132 115t-119 99q-8 -60 -15 -117q-3 -24 -6 -50t-6 -50.5t-5.5 -47l-4.5 -40.5q-4 -30 -10 -76.5
t-12.5 -102.5t-14 -117.5t-14 -122t-12 -116t-9.5 -98.5q-16 0 -35 1.5t-37 4t-34.5 6t-28.5 7.5q17 98 33.5 204t31.5 214t28 214.5t22 204.5q3 32 7 75t8 87t7.5 83t4.5 62l22 13q24 -21 43 -39t39 -37.5t44 -41t58 -50.5q48 -40 109 -94t128 -114.5t137.5 -124.5
t137 -125t127 -115t107.5 -95v424q0 62 -0.5 129t-2 129.5t-2.5 116t-3 88.5q12 2 30.5 4t36.5 2q7 0 16.5 -0.5t18.5 -1.5q11 -1 23 -2q-1 -12 -1.5 -37t-1.5 -57.5t-1.5 -71.5t-0.5 -80v-543z" />
    <glyph glyph-name="O.psc" horiz-adv-x="1479"
d="M156 547q0 131 43.5 238t121.5 183t186 118t238 42q124 0 229.5 -43t182.5 -119.5t120.5 -181.5t43.5 -229q0 -122 -40.5 -226.5t-115 -181t-178.5 -120t-231 -43.5q-144 0 -255.5 42.5t-188 118t-116.5 178.5t-40 224zM1192 557q0 95 -33.5 179.5t-93.5 148.5
t-144 101.5t-186 37.5q-97 0 -180 -31t-143.5 -91t-94.5 -147.5t-34 -199.5q0 -117 36 -204.5t98.5 -146t147.5 -87.5t183 -29q106 0 188.5 34t139.5 96t86.5 148.5t29.5 190.5z" />
    <glyph glyph-name="P.psc" horiz-adv-x="1022"
d="M928 772q0 -92 -42 -163.5t-118 -120.5t-182.5 -75.5t-235.5 -29.5v-78q0 -40 0.5 -83.5t1 -85t2 -77t2.5 -61.5q-12 -2 -27.5 -3t-33.5 -1q-16 0 -39 1.5t-33 4.5q1 32 3 81q2 42 2.5 107.5t0.5 159.5v496v170t-2 112q12 2 27.5 2.5t32 0.5t33 -0.5t30.5 -0.5
q119 0 224.5 -21.5t184 -65.5t124 -111t45.5 -158zM795 764q0 62 -29 110.5t-84.5 83t-137.5 52.5t-188 18q-1 -20 -2 -49.5t-2 -65t-1.5 -75t-0.5 -78.5v-266h60q75 0 144.5 16.5t123 49.5t85.5 84t32 120z" />
    <glyph glyph-name="Q.psc" horiz-adv-x="1468"
d="M154 555q0 131 43.5 238t122.5 183.5t189 118.5t243 42q69 0 137.5 -15.5t131.5 -47t117.5 -78.5t94.5 -110t63 -141.5t23 -173.5q0 -94 -21 -174t-60 -144t-93.5 -111t-122.5 -76q8 0 36.5 -2t64 -4.5l71 -5t57.5 -3.5q62 -3 115 -7.5t96 -4.5q0 -22 -3.5 -54t-8.5 -63
q-53 9 -119.5 17.5t-154.5 19.5q-100 12 -197 22.5t-193 10.5h-38q-145 0 -256 43t-186 119t-113.5 178.5t-38.5 222.5zM1190 565q0 115 -38.5 202.5t-101.5 146t-144 88.5t-167 30q-95 0 -178.5 -31t-145.5 -91t-98 -147.5t-36 -199.5q0 -113 35 -200t96.5 -146.5t147 -90
t185.5 -30.5q116 0 199.5 37t138.5 101t81 149t26 182z" />
    <glyph glyph-name="R.psc" horiz-adv-x="1096"
d="M741 393q34 -36 73 -77.5t82.5 -85t90.5 -87t96 -84.5q-11 -12 -19 -21t-24 -22q-17 -15 -34.5 -27.5t-26.5 -15.5q-30 33 -67.5 74t-78 85t-82 87.5t-78.5 81.5t-67.5 69t-50.5 48q-21 -4 -48 -6t-55 -3.5t-54.5 -2t-47.5 -0.5v-140q0 -68 2.5 -137t5.5 -131
q-11 -3 -29 -4.5t-32 -1.5q-22 0 -45 1t-29 3q1 64 2 122q0 25 0.5 50.5t1.5 49.5t1.5 45t0.5 36v489v81.5v91.5t-0.5 88.5t-1.5 72.5q41 3 87.5 4.5t84.5 1.5q252 0 384 -84t132 -249q0 -69 -21 -123t-55 -95t-77 -69t-86 -43zM791 780q0 64 -26.5 111t-75.5 78t-118 46
t-153 15q-11 0 -29.5 -1t-34.5 -3l-2 -88q-1 -38 -1.5 -79t-0.5 -73v-278h56q189 0 287 71t98 201z" />
    <glyph glyph-name="S.psc" horiz-adv-x="887"
d="M743 305q0 -64 -18.5 -122t-61.5 -102t-112.5 -70.5t-171.5 -26.5q-68 0 -133 14.5t-115 36.5q3 28 10.5 59.5t18.5 52.5q23 -12 50 -22.5t56 -19t58 -13t55 -4.5q65 0 111 16.5t75 44.5t42.5 65t13.5 77q0 47 -18 82t-48.5 63.5t-70.5 52t-83 46.5q-42 24 -84.5 53.5
t-77 66t-56 83t-21.5 104.5q0 70 25.5 125t73 93.5t114 58.5t147.5 20q25 0 54 -2.5t58.5 -6.5t56.5 -9.5t48 -10.5q-2 -26 -7 -58.5t-11 -52.5q-18 6 -41.5 12t-50 11t-54 8.5t-53.5 3.5q-115 0 -177 -48t-62 -136q0 -42 18 -75t47.5 -60t67.5 -50.5t78 -46.5
q44 -24 88.5 -53t80 -66.5t58 -84.5t22.5 -109z" />
    <glyph glyph-name="T.psc" horiz-adv-x="1055"
d="M1016 1090q0 -13 -2.5 -32.5t-5.5 -33.5q-31 2 -73 4t-108 2q-28 0 -68.5 -0.5t-78.5 -2.5q-44 -2 -90 -3q0 -61 -1 -122q-1 -52 -1 -110v-106v-336q0 -64 1 -114t2.5 -92t4 -77t4.5 -69q-12 -2 -32 -3t-36 -1q-23 0 -41 1t-32 3q1 37 2 66t1.5 54.5l1 51t1 56t0.5 69
v90.5v283q0 40 -0.5 74.5t-1 74t-1 88.5t-1.5 117q-74 -5 -149 -10q-64 -4 -136.5 -10.5t-132.5 -14.5q-2 8 -3 24.5t-1 35.5q0 14 1 28.5t3 28.5q62 5 120 8t118 5t124 4t138 3q3 0 26 1t55.5 2t70 2.5t70 2.5t55 2t24.5 1q33 1 52 2t30 1.5t17.5 1t14 1t20 1t34.5 1.5
q2 -8 3 -24.5t1 -28.5z" />
    <glyph glyph-name="U.psc" horiz-adv-x="1528"
d="M1268 1122q15 0 35.5 -0.5t35.5 -3.5q-1 -24 -1.5 -43.5t-1 -40t-1 -43.5t-2.5 -53q-1 -34 -2 -73t-2.5 -80.5t-3.5 -82t-4 -77.5q-9 -168 -44.5 -289t-102 -199t-167 -114.5t-239.5 -36.5q-236 0 -371.5 146t-169.5 427q-6 61 -9.5 114.5t-6.5 103t-6 97.5t-8 97
q-1 16 -2.5 35.5t-3 39.5t-3 38.5t-2.5 33.5q19 3 34.5 3.5t37.5 0.5q23 0 42.5 -1t33.5 -3q-1 -4 -1.5 -20t-0.5 -40v-54.5v-63.5q0 -18 1 -48t2.5 -66t3.5 -74.5t5 -73.5q7 -78 19 -151.5t32.5 -137.5t51.5 -117.5t77.5 -91.5t110 -59t147.5 -21q95 0 163.5 24.5t115.5 66
t76 97.5t45 119.5t21 131t5 131.5q0 54 -1.5 124.5t-4.5 139.5q-3 57 -5.5 102.5t-8.5 79.5q39 6 80 6z" />
    <glyph glyph-name="V.psc" horiz-adv-x="1176"
d="M1040 1118q32 -8 61 -20.5t54 -26.5q-14 -24 -33 -61t-40 -77.5t-41.5 -80.5t-36.5 -70q-14 -27 -33.5 -66.5t-42 -87t-47.5 -101t-50.5 -107.5t-50.5 -107t-49 -100q-29 -60 -54 -116t-48 -105l-60 -25q-6 15 -11 27t-10.5 25t-12.5 28.5t-17 36.5q-5 12 -13.5 29
l-18 36t-18.5 37.5t-15 32.5q-38 77 -74 149l-71.5 143t-71.5 142t-74 146q-13 25 -30 57t-35.5 67t-38 70.5t-38.5 67.5q29 17 58.5 29.5t66.5 21.5q18 -36 28.5 -56.5t16 -32t8.5 -17t5.5 -10.5l6.5 -13l12 -24t21.5 -43.5t35.5 -71.5q27 -56 62 -128t69.5 -143.5
t65 -134.5t48.5 -102q3 -7 14 -29t23 -46.5t22 -44.5t11 -23q7 13 21 42t33 69t42.5 88t48 99.5t50 104.5t49.5 102q25 53 47 98t41.5 85t37.5 76.5t35 72.5q10 22 20 44.5t21 43.5z" />
    <glyph glyph-name="W.psc" horiz-adv-x="1821"
d="M1659 1137q38 -10 71 -22t56 -23q-13 -26 -31.5 -70t-38.5 -90q-33 -79 -61.5 -146.5t-56.5 -134t-57 -137.5t-64 -158q-19 -48 -37 -91.5t-35 -86t-34.5 -85.5t-35.5 -89l-63 -29q-16 37 -38 89.5t-45 108.5t-46.5 110t-42.5 94q-21 48 -45 103t-50.5 113.5t-54 119
t-55.5 118.5q-31 -72 -70.5 -171.5t-87.5 -210.5q-35 -81 -60.5 -140.5t-45.5 -108.5t-38.5 -93t-39.5 -93l-66 -34q-10 28 -24 64.5t-29.5 77t-32.5 83t-34 84.5q-16 41 -31 79t-30 74.5t-30.5 74t-31.5 77.5q-44 105 -95 233t-114 269q29 12 64.5 22.5t72.5 20.5
q5 -19 18 -57t31 -86.5t38.5 -102.5t41.5 -107q16 -40 29 -71t25 -59.5t24 -58.5t27 -69q6 -15 16.5 -40t22.5 -55t25 -61t24 -57.5t19.5 -45.5t10.5 -25q32 71 63 143.5t59.5 140.5t52.5 128t42 106q26 62 45 107.5t34 80.5t27 62.5t23 54.5q12 8 23 14q9 5 16.5 9.5
t8.5 3.5v2q5 -12 10.5 -25.5t14 -34t21.5 -50.5t33 -75q14 -31 30 -67.5t33 -74t34 -75.5t32 -73q10 -23 24.5 -55.5t31 -69.5t34.5 -76.5t34 -76t30 -68t23 -52.5q10 25 24 61.5t29 75.5t29.5 75.5t25.5 60.5q25 60 46.5 115t42.5 110.5t43.5 115t49.5 130.5q19 49 37 97
t29 73z" />
    <glyph glyph-name="X.psc" horiz-adv-x="1223"
d="M612 494q-22 -27 -48 -59q-22 -27 -50 -62.5t-59 -73.5q-37 -46 -72.5 -90.5t-67 -84t-58 -73.5t-46.5 -59q-12 5 -25.5 14t-27.5 18.5t-26.5 20t-22.5 18.5q29 35 71.5 85t98.5 118q37 43 70.5 82.5t65 78t63 78t63.5 81.5q-14 16 -43 49.5t-66.5 76.5t-80 92.5
t-83.5 96.5t-77.5 88.5t-61.5 69.5q20 21 46.5 43.5t49.5 36.5q34 -42 82.5 -102t108.5 -134q78 -96 133 -157.5t72 -79.5q14 18 32 41.5t38.5 50t42 55t42.5 55.5q48 62 94 125t84 117q25 -11 54 -31t51 -39q-18 -21 -43.5 -51.5t-54.5 -65.5t-59 -72.5l-58 -72.5
q-7 -9 -17.5 -22t-23 -28t-25.5 -31.5t-26 -31.5q-30 -36 -62 -77q26 -30 60.5 -69.5t74.5 -85t83.5 -94.5t87 -97.5t85.5 -94.5t78 -86q-9 -9 -22 -19.5t-26.5 -20.5l-27 -20t-24.5 -17q-48 56 -104.5 121t-115.5 132.5t-117.5 133.5t-109.5 123z" />
    <glyph glyph-name="Y.psc" horiz-adv-x="1061"
d="M958 1137q22 -19 42.5 -44t35.5 -53q-21 -17 -55.5 -45.5t-85.5 -81.5q-62 -64 -116.5 -129.5t-94.5 -136.5t-63 -149.5t-23 -169.5v-117q0 -54 0.5 -110.5t5.5 -102.5q-9 -3 -28.5 -4.5t-40.5 -1.5q-19 0 -36.5 1.5t-29.5 4.5q1 35 3 75q2 35 2.5 79.5t0.5 93.5v96
q0 78 -23.5 154.5t-61 146.5t-84 131t-91.5 109q-43 42 -93.5 83t-96.5 70q12 26 32.5 54.5t38.5 50.5q44 -31 88 -69t90 -89q107 -115 174 -219t93 -195h4q11 48 43 107t76.5 122t96.5 125.5t103 118.5q23 26 47 49.5t47 45.5z" />
    <glyph glyph-name="Z.psc" horiz-adv-x="1257"
d="M829 109q41 1 91 2.5t98.5 4t91.5 5t70 4.5q0 -34 -7.5 -71.5t-9.5 -63.5q-10 1 -32 2t-51 2t-62.5 1.5t-65.5 0.5q-198 0 -398 -5t-390 -11l-12 22q41 62 74 114q14 22 28.5 44.5t26.5 41.5t21 33.5t13 20.5q51 83 87 143.5t63 107t48 84t42 73.5q33 56 66.5 115
t61.5 109q33 58 62 113q-64 1 -119 2q-47 1 -89 1h-56q-43 0 -90.5 -1t-94 -2.5t-89.5 -4t-78 -5.5q0 31 1.5 63t6.5 66q9 0 29.5 -0.5t47.5 -1t59.5 -1t66.5 -1.5q80 -2 168 -3t178 -1q42 0 75.5 0.5t61 2t51 3t46.5 2.5l16 -22q-17 -25 -32.5 -50t-32.5 -53.5t-38 -64
t-49 -82.5q-7 -11 -26 -45.5t-44.5 -80t-54 -97t-54 -97.5t-44.5 -80.5t-26 -46.5q-38 -68 -70 -123t-55 -95q-26 -47 -48 -83q23 0 74 0.5t116 2t138 3t139 3.5z" />
    </font>
</defs>
</svg>
